%TF.GenerationSoftware,KiCad,Pcbnew,5.1.8-db9833491~87~ubuntu20.04.1*%
%TF.CreationDate,2020-11-28T22:09:30+05:30*%
%TF.ProjectId,esp_2fa_board_design,6573705f-3266-4615-9f62-6f6172645f64,v01*%
%TF.SameCoordinates,Original*%
%TF.FileFunction,Paste,Bot*%
%TF.FilePolarity,Positive*%
%FSLAX46Y46*%
G04 Gerber Fmt 4.6, Leading zero omitted, Abs format (unit mm)*
G04 Created by KiCad (PCBNEW 5.1.8-db9833491~87~ubuntu20.04.1) date 2020-11-28 22:09:30*
%MOMM*%
%LPD*%
G01*
G04 APERTURE LIST*
%ADD10R,3.200000X4.200000*%
G04 APERTURE END LIST*
%TO.C,TP5*%
G36*
G01*
X160663000Y-94285500D02*
X160663000Y-92785500D01*
G75*
G02*
X160913000Y-92535500I250000J0D01*
G01*
X161413000Y-92535500D01*
G75*
G02*
X161663000Y-92785500I0J-250000D01*
G01*
X161663000Y-94285500D01*
G75*
G02*
X161413000Y-94535500I-250000J0D01*
G01*
X160913000Y-94535500D01*
G75*
G02*
X160663000Y-94285500I0J250000D01*
G01*
G37*
%TD*%
%TO.C,TP8*%
G36*
G01*
X144026000Y-100318000D02*
X144026000Y-98818000D01*
G75*
G02*
X144276000Y-98568000I250000J0D01*
G01*
X144776000Y-98568000D01*
G75*
G02*
X145026000Y-98818000I0J-250000D01*
G01*
X145026000Y-100318000D01*
G75*
G02*
X144776000Y-100568000I-250000J0D01*
G01*
X144276000Y-100568000D01*
G75*
G02*
X144026000Y-100318000I0J250000D01*
G01*
G37*
%TD*%
%TO.C,TP7*%
G36*
G01*
X158313500Y-83617500D02*
X158313500Y-82117500D01*
G75*
G02*
X158563500Y-81867500I250000J0D01*
G01*
X159063500Y-81867500D01*
G75*
G02*
X159313500Y-82117500I0J-250000D01*
G01*
X159313500Y-83617500D01*
G75*
G02*
X159063500Y-83867500I-250000J0D01*
G01*
X158563500Y-83867500D01*
G75*
G02*
X158313500Y-83617500I0J250000D01*
G01*
G37*
%TD*%
%TO.C,TP6*%
G36*
G01*
X160536000Y-83617500D02*
X160536000Y-82117500D01*
G75*
G02*
X160786000Y-81867500I250000J0D01*
G01*
X161286000Y-81867500D01*
G75*
G02*
X161536000Y-82117500I0J-250000D01*
G01*
X161536000Y-83617500D01*
G75*
G02*
X161286000Y-83867500I-250000J0D01*
G01*
X160786000Y-83867500D01*
G75*
G02*
X160536000Y-83617500I0J250000D01*
G01*
G37*
%TD*%
%TO.C,TP3*%
G36*
G01*
X120975500Y-120066500D02*
X120975500Y-118566500D01*
G75*
G02*
X121225500Y-118316500I250000J0D01*
G01*
X121725500Y-118316500D01*
G75*
G02*
X121975500Y-118566500I0J-250000D01*
G01*
X121975500Y-120066500D01*
G75*
G02*
X121725500Y-120316500I-250000J0D01*
G01*
X121225500Y-120316500D01*
G75*
G02*
X120975500Y-120066500I0J250000D01*
G01*
G37*
%TD*%
%TO.C,TP2*%
G36*
G01*
X119324500Y-120066500D02*
X119324500Y-118566500D01*
G75*
G02*
X119574500Y-118316500I250000J0D01*
G01*
X120074500Y-118316500D01*
G75*
G02*
X120324500Y-118566500I0J-250000D01*
G01*
X120324500Y-120066500D01*
G75*
G02*
X120074500Y-120316500I-250000J0D01*
G01*
X119574500Y-120316500D01*
G75*
G02*
X119324500Y-120066500I0J250000D01*
G01*
G37*
%TD*%
%TO.C,TP4*%
G36*
G01*
X162758500Y-83617500D02*
X162758500Y-82117500D01*
G75*
G02*
X163008500Y-81867500I250000J0D01*
G01*
X163508500Y-81867500D01*
G75*
G02*
X163758500Y-82117500I0J-250000D01*
G01*
X163758500Y-83617500D01*
G75*
G02*
X163508500Y-83867500I-250000J0D01*
G01*
X163008500Y-83867500D01*
G75*
G02*
X162758500Y-83617500I0J250000D01*
G01*
G37*
%TD*%
%TO.C,TP1*%
G36*
G01*
X144026000Y-97206500D02*
X144026000Y-95706500D01*
G75*
G02*
X144276000Y-95456500I250000J0D01*
G01*
X144776000Y-95456500D01*
G75*
G02*
X145026000Y-95706500I0J-250000D01*
G01*
X145026000Y-97206500D01*
G75*
G02*
X144776000Y-97456500I-250000J0D01*
G01*
X144276000Y-97456500D01*
G75*
G02*
X144026000Y-97206500I0J250000D01*
G01*
G37*
%TD*%
D10*
%TO.C,BT1*%
X93850000Y-112000000D03*
X123150000Y-112000000D03*
%TD*%
M02*
