M48
; DRILL file {KiCad 5.1.8-db9833491~87~ubuntu20.04.1} date Sun Nov 29 19:52:29 2020
; FORMAT={-:-/ absolute / metric / decimal}
; #@! TF.CreationDate,2020-11-29T19:52:29+05:30
; #@! TF.GenerationSoftware,Kicad,Pcbnew,5.1.8-db9833491~87~ubuntu20.04.1
FMAT,2
METRIC
T1C0.400
T2C0.650
T3C0.800
T4C1.000
T5C1.346
T6C1.500
%
G90
G05
T1
X91.35Y-113.4
X93.05Y-92.15
X93.2Y-109.05
X93.2Y-114.95
X93.4Y-98.2
X94.65Y-107.95
X94.655Y-115.445
X94.655Y-117.645
X95.95Y-117.65
X96.5Y-113.2
X97.195Y-117.655
X98.0Y-112.75
X98.25Y-103.4
X98.4Y-100.15
X98.465Y-111.215
X98.65Y-90.05
X98.65Y-92.5
X99.5Y-96.6
X101.105Y-87.645
X102.9Y-107.95
X102.9Y-114.65
X102.95Y-98.45
X103.98Y-115.73
X104.15Y-103.3
X104.305Y-87.645
X106.35Y-95.15
X106.5Y-112.25
X107.15Y-110.2
X107.205Y-87.645
X107.605Y-107.845
X108.331Y-100.152
X108.331Y-101.803
X108.85Y-93.65
X109.449Y-99.314
X109.449Y-102.565
X109.805Y-87.645
X109.85Y-97.25
X109.85Y-107.5
X110.4Y-89.2
X110.6Y-93.6
X111.05Y-107.5
X111.05Y-110.5
X111.15Y-115.1
X112.5Y-108.95
X113.45Y-115.1
X113.7Y-111.45
X114.5Y-95.55
X114.5Y-97.8
X114.503Y-99.314
X114.503Y-102.565
X115.55Y-96.7
X115.57Y-108.521
X115.7Y-115.1
X115.8Y-100.15
X115.8Y-101.75
X116.35Y-89.2
X117.15Y-98.15
X117.15Y-99.3
X117.25Y-116.95
X118.313Y-118.77
X118.5Y-101.05
X118.681Y-95.885
X119.062Y-94.805
X119.6Y-99.3
X120.15Y-98.15
X120.45Y-94.0
X120.7Y-100.1
X121.221Y-96.965
X121.666Y-108.737
X122.11Y-96.075
X122.555Y-98.171
X122.555Y-101.727
X122.8Y-83.55
X123.25Y-91.65
X123.25Y-93.7
X123.25Y-96.15
X123.253Y-117.538
X123.35Y-84.65
X124.275Y-103.95
X124.6Y-106.825
X124.65Y-91.7
X124.75Y-81.6
X127.025Y-110.575
X127.1Y-104.025
X127.95Y-92.55
X128.0Y-106.8
X128.65Y-91.5
X128.85Y-101.95
X129.075Y-110.575
X129.4Y-86.5
X131.3Y-86.35
X131.301Y-91.449
X131.6Y-89.35
X132.85Y-105.75
X133.299Y-82.601
X133.95Y-89.55
X134.15Y-101.65
X135.103Y-83.414
X135.7Y-108.0
X135.85Y-112.35
X137.897Y-105.893
X138.05Y-103.6
X138.2Y-109.0
X138.201Y-111.227
X138.201Y-113.69
X138.252Y-86.36
X138.325Y-115.025
X139.65Y-86.6
X139.9Y-90.5
X140.5Y-88.4
X140.868Y-112.268
X141.0Y-109.0
X141.55Y-93.4
X141.681Y-87.503
X142.225Y-115.025
X142.545Y-96.19
X142.558Y-94.615
X143.25Y-90.5
X143.612Y-104.14
X144.45Y-105.65
X145.491Y-102.159
X145.974Y-96.19
X145.987Y-94.615
X146.3Y-106.8
X146.3Y-106.8
X147.08Y-82.85
X147.65Y-102.45
X148.133Y-103.937
X150.225Y-114.975
X150.65Y-99.45
X152.971Y-87.312
X153.55Y-96.55
X154.375Y-114.975
X156.464Y-83.82
X159.893Y-81.153
X159.893Y-87.249
X161.163Y-91.542
X161.163Y-95.656
X162.306Y-81.153
X162.306Y-87.249
X163.131Y-92.392
X163.131Y-94.932
X165.35Y-109.65
X165.4Y-108.35
X165.8Y-106.95
X166.6Y-111.9
X167.75Y-108.35
X168.097Y-102.083
X169.3Y-109.5
X130.55Y-103.5
X131.5Y-102.925
X131.5Y-104.075
X132.45Y-103.5
T2
X120.68Y-91.8
X121.95Y-91.8
X116.4Y-91.45
X116.4Y-92.72
T3
X168.1Y-89.55
X168.1Y-91.55
X168.1Y-93.55
T4
X147.08Y-82.85
X149.62Y-82.85
X152.16Y-82.85
X154.7Y-82.85
T5
X159.66Y-114.4
X159.66Y-118.2
X168.3Y-114.4
X168.3Y-118.2
T6
X168.1Y-87.45
X168.1Y-95.65
T0
M30
