%TF.GenerationSoftware,KiCad,Pcbnew,5.1.8-db9833491~87~ubuntu20.04.1*%
%TF.CreationDate,2020-11-29T19:52:32+05:30*%
%TF.ProjectId,esp_2fa_board_design,6573705f-3266-4615-9f62-6f6172645f64,v01*%
%TF.SameCoordinates,Original*%
%TF.FileFunction,Copper,L2,Bot*%
%TF.FilePolarity,Positive*%
%FSLAX46Y46*%
G04 Gerber Fmt 4.6, Leading zero omitted, Abs format (unit mm)*
G04 Created by KiCad (PCBNEW 5.1.8-db9833491~87~ubuntu20.04.1) date 2020-11-29 19:52:32*
%MOMM*%
%LPD*%
G01*
G04 APERTURE LIST*
%TA.AperFunction,ComponentPad*%
%ADD10C,0.600000*%
%TD*%
%TA.AperFunction,ComponentPad*%
%ADD11O,1.600000X2.000000*%
%TD*%
%TA.AperFunction,ComponentPad*%
%ADD12O,1.000000X1.000000*%
%TD*%
%TA.AperFunction,ComponentPad*%
%ADD13R,1.000000X1.000000*%
%TD*%
%TA.AperFunction,ComponentPad*%
%ADD14O,3.500000X2.200000*%
%TD*%
%TA.AperFunction,ComponentPad*%
%ADD15O,2.500000X1.500000*%
%TD*%
%TA.AperFunction,ComponentPad*%
%ADD16R,2.500000X1.500000*%
%TD*%
%TA.AperFunction,SMDPad,CuDef*%
%ADD17R,3.200000X4.200000*%
%TD*%
%TA.AperFunction,ComponentPad*%
%ADD18C,2.000000*%
%TD*%
%TA.AperFunction,ViaPad*%
%ADD19C,0.800000*%
%TD*%
%TA.AperFunction,Conductor*%
%ADD20C,0.300000*%
%TD*%
%TA.AperFunction,Conductor*%
%ADD21C,0.500000*%
%TD*%
%TA.AperFunction,Conductor*%
%ADD22C,0.254000*%
%TD*%
%TA.AperFunction,Conductor*%
%ADD23C,0.100000*%
%TD*%
G04 APERTURE END LIST*
D10*
%TO.P,U4,11*%
%TO.N,GND*%
X130550000Y-103500000D03*
X131500000Y-102925000D03*
X131500000Y-104075000D03*
X132450000Y-103500000D03*
%TD*%
D11*
%TO.P,Brd1,4*%
%TO.N,/IO21_SDA*%
X154700000Y-82850000D03*
%TO.P,Brd1,3*%
%TO.N,/IO22_SCL*%
X152160000Y-82850000D03*
%TO.P,Brd1,1*%
%TO.N,GND*%
X147080000Y-82850000D03*
%TO.P,Brd1,2*%
%TO.N,/LOAD_SWITCH_VCC*%
X149620000Y-82850000D03*
%TD*%
D12*
%TO.P,J1,2*%
%TO.N,/RX*%
X116400000Y-92720000D03*
D13*
%TO.P,J1,1*%
%TO.N,/TX*%
X116400000Y-91450000D03*
%TD*%
%TO.P,TP5,1*%
%TO.N,/V_INPUT*%
%TA.AperFunction,SMDPad,CuDef*%
G36*
G01*
X160663000Y-94285500D02*
X160663000Y-92785500D01*
G75*
G02*
X160913000Y-92535500I250000J0D01*
G01*
X161413000Y-92535500D01*
G75*
G02*
X161663000Y-92785500I0J-250000D01*
G01*
X161663000Y-94285500D01*
G75*
G02*
X161413000Y-94535500I-250000J0D01*
G01*
X160913000Y-94535500D01*
G75*
G02*
X160663000Y-94285500I0J250000D01*
G01*
G37*
%TD.AperFunction*%
%TD*%
D12*
%TO.P,J3,2*%
%TO.N,+BATT*%
X121950000Y-91800000D03*
D13*
%TO.P,J3,1*%
%TO.N,GND*%
X120680000Y-91800000D03*
%TD*%
%TO.P,TP8,1*%
%TO.N,GND*%
%TA.AperFunction,SMDPad,CuDef*%
G36*
G01*
X144026000Y-100318000D02*
X144026000Y-98818000D01*
G75*
G02*
X144276000Y-98568000I250000J0D01*
G01*
X144776000Y-98568000D01*
G75*
G02*
X145026000Y-98818000I0J-250000D01*
G01*
X145026000Y-100318000D01*
G75*
G02*
X144776000Y-100568000I-250000J0D01*
G01*
X144276000Y-100568000D01*
G75*
G02*
X144026000Y-100318000I0J250000D01*
G01*
G37*
%TD.AperFunction*%
%TD*%
%TO.P,TP7,1*%
%TO.N,/IO22_SCL*%
%TA.AperFunction,SMDPad,CuDef*%
G36*
G01*
X158313500Y-83617500D02*
X158313500Y-82117500D01*
G75*
G02*
X158563500Y-81867500I250000J0D01*
G01*
X159063500Y-81867500D01*
G75*
G02*
X159313500Y-82117500I0J-250000D01*
G01*
X159313500Y-83617500D01*
G75*
G02*
X159063500Y-83867500I-250000J0D01*
G01*
X158563500Y-83867500D01*
G75*
G02*
X158313500Y-83617500I0J250000D01*
G01*
G37*
%TD.AperFunction*%
%TD*%
%TO.P,TP6,1*%
%TO.N,/IO21_SDA*%
%TA.AperFunction,SMDPad,CuDef*%
G36*
G01*
X160536000Y-83617500D02*
X160536000Y-82117500D01*
G75*
G02*
X160786000Y-81867500I250000J0D01*
G01*
X161286000Y-81867500D01*
G75*
G02*
X161536000Y-82117500I0J-250000D01*
G01*
X161536000Y-83617500D01*
G75*
G02*
X161286000Y-83867500I-250000J0D01*
G01*
X160786000Y-83867500D01*
G75*
G02*
X160536000Y-83617500I0J250000D01*
G01*
G37*
%TD.AperFunction*%
%TD*%
%TO.P,TP3,1*%
%TO.N,/IO18_SCL*%
%TA.AperFunction,SMDPad,CuDef*%
G36*
G01*
X120975500Y-120066500D02*
X120975500Y-118566500D01*
G75*
G02*
X121225500Y-118316500I250000J0D01*
G01*
X121725500Y-118316500D01*
G75*
G02*
X121975500Y-118566500I0J-250000D01*
G01*
X121975500Y-120066500D01*
G75*
G02*
X121725500Y-120316500I-250000J0D01*
G01*
X121225500Y-120316500D01*
G75*
G02*
X120975500Y-120066500I0J250000D01*
G01*
G37*
%TD.AperFunction*%
%TD*%
%TO.P,TP2,1*%
%TO.N,/IO5_SDA*%
%TA.AperFunction,SMDPad,CuDef*%
G36*
G01*
X119324500Y-120066500D02*
X119324500Y-118566500D01*
G75*
G02*
X119574500Y-118316500I250000J0D01*
G01*
X120074500Y-118316500D01*
G75*
G02*
X120324500Y-118566500I0J-250000D01*
G01*
X120324500Y-120066500D01*
G75*
G02*
X120074500Y-120316500I-250000J0D01*
G01*
X119574500Y-120316500D01*
G75*
G02*
X119324500Y-120066500I0J250000D01*
G01*
G37*
%TD.AperFunction*%
%TD*%
D14*
%TO.P,SW5,*%
%TO.N,*%
X168100000Y-87450000D03*
X168100000Y-95650000D03*
D15*
%TO.P,SW5,3*%
%TO.N,N/C*%
X168100000Y-89550000D03*
%TO.P,SW5,2*%
%TO.N,Net-(C11-Pad1)*%
X168100000Y-91550000D03*
D16*
%TO.P,SW5,1*%
%TO.N,/V_INPUT*%
X168100000Y-93550000D03*
%TD*%
%TO.P,TP4,1*%
%TO.N,/LOAD_SWITCH_VCC*%
%TA.AperFunction,SMDPad,CuDef*%
G36*
G01*
X162758500Y-83617500D02*
X162758500Y-82117500D01*
G75*
G02*
X163008500Y-81867500I250000J0D01*
G01*
X163508500Y-81867500D01*
G75*
G02*
X163758500Y-82117500I0J-250000D01*
G01*
X163758500Y-83617500D01*
G75*
G02*
X163508500Y-83867500I-250000J0D01*
G01*
X163008500Y-83867500D01*
G75*
G02*
X162758500Y-83617500I0J250000D01*
G01*
G37*
%TD.AperFunction*%
%TD*%
%TO.P,TP1,1*%
%TO.N,+3V3*%
%TA.AperFunction,SMDPad,CuDef*%
G36*
G01*
X144026000Y-97206500D02*
X144026000Y-95706500D01*
G75*
G02*
X144276000Y-95456500I250000J0D01*
G01*
X144776000Y-95456500D01*
G75*
G02*
X145026000Y-95706500I0J-250000D01*
G01*
X145026000Y-97206500D01*
G75*
G02*
X144776000Y-97456500I-250000J0D01*
G01*
X144276000Y-97456500D01*
G75*
G02*
X144026000Y-97206500I0J250000D01*
G01*
G37*
%TD.AperFunction*%
%TD*%
D17*
%TO.P,BT1,1*%
%TO.N,Net-(BT1-Pad1)*%
X93850000Y-112000000D03*
%TO.P,BT1,2*%
%TO.N,GND*%
X123150000Y-112000000D03*
%TD*%
D18*
%TO.P,J2,MH1*%
%TO.N,GND*%
X159660000Y-118200000D03*
%TO.P,J2,MH2*%
X168300000Y-118200000D03*
%TO.P,J2,MH3*%
X168300000Y-114400000D03*
%TO.P,J2,MH4*%
X159660000Y-114400000D03*
%TD*%
D19*
%TO.N,/IO21_SDA*%
X120450000Y-94000000D03*
X139650000Y-86600000D03*
%TO.N,/IO22_SCL*%
X122800000Y-83550000D03*
X124750000Y-81600000D03*
%TO.N,GND*%
X106350000Y-95150000D03*
X94655000Y-115445000D03*
X117250000Y-116950000D03*
X123350000Y-84650000D03*
X102950000Y-98450000D03*
X96500000Y-113200000D03*
X146300000Y-106800000D03*
X93050000Y-92150000D03*
X94655000Y-117645000D03*
X95950000Y-117650000D03*
X97195000Y-117655000D03*
X98250000Y-103400000D03*
X115700000Y-115100000D03*
X93200000Y-114950000D03*
X98465000Y-111215000D03*
X93200000Y-109050000D03*
X94650000Y-107950000D03*
X114500000Y-97800000D03*
X114500000Y-95550000D03*
X123250000Y-93700000D03*
X123250000Y-96150000D03*
X111050000Y-110500000D03*
X165400000Y-108350000D03*
X167750000Y-108350000D03*
X165350000Y-109650000D03*
X169300000Y-109500000D03*
X139900000Y-90500000D03*
X143250000Y-90500000D03*
X129400000Y-86500000D03*
X131600000Y-89350000D03*
X127950000Y-92550000D03*
X124650000Y-91700000D03*
X123250000Y-91650000D03*
X131300000Y-86350000D03*
X147080000Y-82850000D03*
X99500000Y-96600000D03*
X101105000Y-87645000D03*
X104305000Y-87645000D03*
X107205000Y-87645000D03*
X109805000Y-87645000D03*
X110600000Y-93600000D03*
X109850000Y-97250000D03*
X119600000Y-99300000D03*
X120150000Y-98150000D03*
X117150000Y-98150000D03*
X117150000Y-99300000D03*
X111150000Y-115100000D03*
X113450000Y-115100000D03*
X127025000Y-110575000D03*
X129075000Y-110575000D03*
X138325000Y-115025000D03*
X142225000Y-115025000D03*
X150225000Y-114975000D03*
X154375000Y-114975000D03*
X107605331Y-107844669D03*
X141000000Y-109000000D03*
X138200000Y-109000000D03*
X138050000Y-103600000D03*
X128000000Y-106800000D03*
X127100000Y-104025000D03*
X124600000Y-106825000D03*
X124275000Y-103950000D03*
X122555000Y-98171000D03*
X122555000Y-101727000D03*
X121221500Y-96964500D03*
X122110500Y-96075500D03*
X119062500Y-94805500D03*
X118681500Y-95885000D03*
X115570000Y-108521500D03*
X142557500Y-94615000D03*
X145986500Y-94615000D03*
X163131500Y-92392500D03*
X163131500Y-94932500D03*
X159893000Y-81153000D03*
X162306000Y-81153000D03*
X159893000Y-87249000D03*
X162306000Y-87249000D03*
X152971500Y-87312500D03*
X109448600Y-99314000D03*
X109448600Y-102565200D03*
X114503200Y-99314000D03*
X114503200Y-102565200D03*
X138252200Y-86360000D03*
X141681200Y-87503000D03*
X146300000Y-106800000D03*
X143611600Y-104140000D03*
X161163000Y-91541600D03*
X161163000Y-95656400D03*
X156464000Y-83820000D03*
X138201400Y-111226600D03*
X138201400Y-113690400D03*
X140868400Y-112268000D03*
X142544800Y-96189800D03*
X145973800Y-96189800D03*
X137896600Y-105892600D03*
X133299200Y-82600800D03*
X135102600Y-83413600D03*
X121666000Y-108737400D03*
X168097200Y-102082600D03*
X145491200Y-102158800D03*
X148132800Y-103936800D03*
%TO.N,/LOAD_SWITCH_VCC*%
X102900000Y-114650000D03*
X103980331Y-115730331D03*
X102900000Y-107950010D03*
X115800000Y-101750000D03*
X118500000Y-101050000D03*
X104150000Y-103300000D03*
X133950000Y-89550000D03*
X108331000Y-101803200D03*
%TO.N,Net-(BT1-Pad1)*%
X91350000Y-113400000D03*
X98000000Y-112750000D03*
%TO.N,/EN*%
X115550000Y-96700000D03*
X108850000Y-93650000D03*
%TO.N,+BATT*%
X131301041Y-91448959D03*
X128650000Y-91500000D03*
%TO.N,+3V3*%
X93400000Y-98200000D03*
X134150000Y-101650000D03*
X135850000Y-112350000D03*
X141550000Y-93400010D03*
X140500000Y-88400000D03*
X115800000Y-100150000D03*
X120700000Y-100100000D03*
X98400000Y-100150000D03*
X132850000Y-105750000D03*
X108331000Y-100152200D03*
%TO.N,VBUS*%
X165800000Y-106950000D03*
X166600000Y-111900000D03*
%TO.N,/IO5_SDA*%
X111050000Y-107500000D03*
X106500000Y-112250000D03*
X118313200Y-118770400D03*
%TO.N,/IO18_SCL*%
X109850000Y-107500000D03*
X107150000Y-110200000D03*
X123253500Y-117538500D03*
%TO.N,/A1_7_BATT*%
X98650000Y-92500000D03*
X98650000Y-90050000D03*
X110400000Y-89200000D03*
X116350000Y-89200000D03*
%TO.N,/IO25*%
X112500000Y-108950000D03*
X113700000Y-111450000D03*
%TO.N,Net-(C11-Pad1)*%
X153550000Y-96550000D03*
X150650000Y-99450000D03*
X144450000Y-105650000D03*
X135700000Y-107999990D03*
X128850000Y-101950000D03*
X147650200Y-102449800D03*
%TD*%
D20*
%TO.N,/IO21_SDA*%
X126250001Y-92949999D02*
X122450001Y-92949999D01*
X127300000Y-91900000D02*
X126250001Y-92949999D01*
X127300000Y-89900000D02*
X127300000Y-91900000D01*
X129350000Y-87850000D02*
X127300000Y-89900000D01*
X121400000Y-94000000D02*
X122450001Y-92949999D01*
X120450000Y-94000000D02*
X121400000Y-94000000D01*
X137500000Y-87850000D02*
X129350000Y-87850000D01*
X138400000Y-87850000D02*
X139650000Y-86600000D01*
X137500000Y-87850000D02*
X138400000Y-87850000D01*
X154700000Y-82850000D02*
X154700000Y-83707000D01*
X154700000Y-82850000D02*
X154700000Y-84215000D01*
X154700000Y-84215000D02*
X155702000Y-85217000D01*
X155702000Y-85217000D02*
X159766000Y-85217000D01*
X161036000Y-83947000D02*
X161036000Y-82867500D01*
X159766000Y-85217000D02*
X161036000Y-83947000D01*
%TO.N,/IO22_SCL*%
X122800000Y-83550000D02*
X124750000Y-81600000D01*
X152160000Y-82850000D02*
X152160000Y-82282000D01*
X152160000Y-82282000D02*
X153352500Y-81089500D01*
X157035500Y-81089500D02*
X158813500Y-82867500D01*
X153352500Y-81089500D02*
X157035500Y-81089500D01*
D21*
%TO.N,/LOAD_SWITCH_VCC*%
X102900000Y-114650000D02*
X103980331Y-115730331D01*
X102900000Y-107950010D02*
X102900000Y-104800000D01*
X102900000Y-104550000D02*
X104150000Y-103300000D01*
X102900000Y-104800000D02*
X102900000Y-104550000D01*
X133950000Y-92400000D02*
X133950000Y-90250000D01*
X133950000Y-90250000D02*
X133950000Y-89550000D01*
X131550000Y-94800000D02*
X133950000Y-92400000D01*
X121735000Y-94800000D02*
X131550000Y-94800000D01*
X118500000Y-98035000D02*
X121735000Y-94800000D01*
X118500000Y-101050000D02*
X118500000Y-98035000D01*
X162179000Y-85915500D02*
X163258500Y-84836000D01*
X163258500Y-84836000D02*
X163258500Y-82867500D01*
X152685500Y-85915500D02*
X162179000Y-85915500D01*
X149620000Y-82850000D02*
X152685500Y-85915500D01*
X115453201Y-101403201D02*
X115800000Y-101750000D01*
X108730999Y-101403201D02*
X115453201Y-101403201D01*
X108331000Y-101803200D02*
X108730999Y-101403201D01*
%TO.N,Net-(BT1-Pad1)*%
X98000000Y-112750000D02*
X97050000Y-111800000D01*
X95450000Y-111800000D02*
X95250000Y-112000000D01*
X97050000Y-111800000D02*
X95450000Y-111800000D01*
X91350000Y-113400000D02*
X91350000Y-112400000D01*
X91750000Y-112000000D02*
X93850000Y-112000000D01*
X91350000Y-112400000D02*
X91750000Y-112000000D01*
D20*
%TO.N,/EN*%
X115500000Y-96750000D02*
X115550000Y-96700000D01*
X111950000Y-96750000D02*
X115500000Y-96750000D01*
X108850000Y-93650000D02*
X111950000Y-96750000D01*
D21*
%TO.N,+BATT*%
X128701041Y-91448959D02*
X128650000Y-91500000D01*
X131301041Y-91448959D02*
X128701041Y-91448959D01*
%TO.N,+3V3*%
X94758002Y-98200000D02*
X96708002Y-100150000D01*
X93400000Y-98200000D02*
X94758002Y-98200000D01*
X132650000Y-100150000D02*
X134150000Y-101650000D01*
X141550000Y-89450000D02*
X141250000Y-89150000D01*
X141550000Y-93400010D02*
X141550000Y-89450000D01*
X141250000Y-89150000D02*
X140500000Y-88400000D01*
X132600000Y-100100000D02*
X132650000Y-100150000D01*
X120700000Y-100100000D02*
X132600000Y-100100000D01*
X115800000Y-100150000D02*
X115800000Y-100150000D01*
X96708002Y-100150000D02*
X98400000Y-100150000D01*
D20*
X134150000Y-104450000D02*
X134150000Y-101650000D01*
X132850000Y-105750000D02*
X134150000Y-104450000D01*
X141550000Y-93400010D02*
X143501510Y-93400010D01*
X144526000Y-94424500D02*
X144526000Y-96456500D01*
X143501510Y-93400010D02*
X144526000Y-94424500D01*
D21*
X115789500Y-100139500D02*
X115800000Y-100150000D01*
X115397801Y-100552199D02*
X115800000Y-100150000D01*
X108730999Y-100552199D02*
X115397801Y-100552199D01*
X108331000Y-100152200D02*
X108730999Y-100552199D01*
X139059200Y-112350000D02*
X135850000Y-112350000D01*
X139800000Y-111609200D02*
X139059200Y-112350000D01*
X139800000Y-105750000D02*
X139800000Y-111609200D01*
X138750000Y-104700000D02*
X139800000Y-105750000D01*
X137200000Y-104700000D02*
X138750000Y-104700000D01*
X134150000Y-101650000D02*
X137200000Y-104700000D01*
%TO.N,/V_INPUT*%
X168085500Y-93535500D02*
X168100000Y-93550000D01*
X162750500Y-93535500D02*
X168085500Y-93535500D01*
X162750500Y-93535500D02*
X161163000Y-93535500D01*
%TO.N,VBUS*%
X166600000Y-111900000D02*
X166600000Y-107750000D01*
X166600000Y-107750000D02*
X165800000Y-106950000D01*
D20*
%TO.N,/IO5_SDA*%
X111050000Y-108650000D02*
X111050000Y-107500000D01*
X107450000Y-112250000D02*
X111050000Y-108650000D01*
X106500000Y-112250000D02*
X107450000Y-112250000D01*
X119570500Y-119570500D02*
X119824500Y-119316500D01*
X119278400Y-118770400D02*
X119824500Y-119316500D01*
X118313200Y-118770400D02*
X119278400Y-118770400D01*
%TO.N,/IO18_SCL*%
X107700000Y-109650000D02*
X109850000Y-107500000D01*
X107700000Y-109650000D02*
X107150000Y-110200000D01*
X123253500Y-117538500D02*
X123253500Y-118681500D01*
X122618500Y-119316500D02*
X121475500Y-119316500D01*
X123253500Y-118681500D02*
X122618500Y-119316500D01*
D21*
%TO.N,/A1_7_BATT*%
X98650000Y-92500000D02*
X98650000Y-90050000D01*
X110400000Y-89200000D02*
X116350000Y-89200000D01*
D20*
%TO.N,/IO25*%
X112500000Y-108950000D02*
X113700000Y-110150000D01*
X113700000Y-110150000D02*
X113700000Y-111450000D01*
D21*
%TO.N,Net-(C11-Pad1)*%
X153550000Y-96550000D02*
X150650000Y-99450000D01*
X146750000Y-103350000D02*
X144450000Y-105650000D01*
X126325000Y-101950000D02*
X128850000Y-101950000D01*
X125750000Y-102525000D02*
X126325000Y-101950000D01*
X125750000Y-106775000D02*
X125750000Y-102525000D01*
X126974990Y-107999990D02*
X125750000Y-106775000D01*
X135700000Y-107999990D02*
X126974990Y-107999990D01*
X146750000Y-103350000D02*
X147650200Y-102449800D01*
%TD*%
D22*
%TO.N,GND*%
X152961553Y-80735156D02*
X152223181Y-81473529D01*
X152160000Y-81467306D01*
X151929268Y-81490031D01*
X151707403Y-81557333D01*
X151502930Y-81666626D01*
X151323709Y-81813709D01*
X151176626Y-81992931D01*
X151067333Y-82197404D01*
X151000031Y-82419269D01*
X150983000Y-82592189D01*
X150983000Y-83107812D01*
X151000031Y-83280732D01*
X151027284Y-83370572D01*
X150794088Y-83137377D01*
X150797000Y-83107811D01*
X150797000Y-82592188D01*
X150779969Y-82419268D01*
X150712667Y-82197403D01*
X150603374Y-81992930D01*
X150456291Y-81813709D01*
X150277069Y-81666626D01*
X150072596Y-81557333D01*
X149850731Y-81490031D01*
X149620000Y-81467306D01*
X149389268Y-81490031D01*
X149167403Y-81557333D01*
X148962930Y-81666626D01*
X148783709Y-81813709D01*
X148636626Y-81992931D01*
X148527333Y-82197404D01*
X148460031Y-82419269D01*
X148443000Y-82592189D01*
X148443000Y-83107812D01*
X148460031Y-83280732D01*
X148527333Y-83502597D01*
X148636627Y-83707070D01*
X148783710Y-83886291D01*
X148962931Y-84033374D01*
X149167404Y-84142667D01*
X149389269Y-84209969D01*
X149620000Y-84232694D01*
X149850732Y-84209969D01*
X150036811Y-84153522D01*
X152220366Y-86337078D01*
X152239999Y-86361001D01*
X152335472Y-86439353D01*
X152444397Y-86497575D01*
X152562587Y-86533427D01*
X152685500Y-86545533D01*
X152716294Y-86542500D01*
X162148206Y-86542500D01*
X162179000Y-86545533D01*
X162209794Y-86542500D01*
X162301913Y-86533427D01*
X162420103Y-86497575D01*
X162529028Y-86439353D01*
X162624501Y-86361001D01*
X162644138Y-86337073D01*
X163680074Y-85301137D01*
X163704001Y-85281501D01*
X163782353Y-85186028D01*
X163782354Y-85186027D01*
X163840575Y-85077104D01*
X163876427Y-84958913D01*
X163888533Y-84836000D01*
X163885500Y-84805206D01*
X163885500Y-84117661D01*
X163953146Y-84062146D01*
X164031348Y-83966856D01*
X164089458Y-83858141D01*
X164125241Y-83740177D01*
X164137324Y-83617500D01*
X164137324Y-82117500D01*
X164125241Y-81994823D01*
X164089458Y-81876859D01*
X164031348Y-81768144D01*
X163953146Y-81672854D01*
X163857856Y-81594652D01*
X163749141Y-81536542D01*
X163631177Y-81500759D01*
X163508500Y-81488676D01*
X163008500Y-81488676D01*
X162885823Y-81500759D01*
X162767859Y-81536542D01*
X162659144Y-81594652D01*
X162563854Y-81672854D01*
X162485652Y-81768144D01*
X162427542Y-81876859D01*
X162391759Y-81994823D01*
X162379676Y-82117500D01*
X162379676Y-83617500D01*
X162391759Y-83740177D01*
X162427542Y-83858141D01*
X162485652Y-83966856D01*
X162563854Y-84062146D01*
X162631500Y-84117662D01*
X162631500Y-84576289D01*
X161919289Y-85288500D01*
X160439789Y-85288500D01*
X161390339Y-84337951D01*
X161410448Y-84321448D01*
X161476304Y-84241202D01*
X161493831Y-84208410D01*
X161526641Y-84198458D01*
X161635356Y-84140348D01*
X161730646Y-84062146D01*
X161808848Y-83966856D01*
X161866958Y-83858141D01*
X161902741Y-83740177D01*
X161914824Y-83617500D01*
X161914824Y-82117500D01*
X161902741Y-81994823D01*
X161866958Y-81876859D01*
X161808848Y-81768144D01*
X161730646Y-81672854D01*
X161635356Y-81594652D01*
X161526641Y-81536542D01*
X161408677Y-81500759D01*
X161286000Y-81488676D01*
X160786000Y-81488676D01*
X160663323Y-81500759D01*
X160545359Y-81536542D01*
X160436644Y-81594652D01*
X160341354Y-81672854D01*
X160263152Y-81768144D01*
X160205042Y-81876859D01*
X160169259Y-81994823D01*
X160157176Y-82117500D01*
X160157176Y-83617500D01*
X160169259Y-83740177D01*
X160205042Y-83858141D01*
X160263152Y-83966856D01*
X160266624Y-83971086D01*
X159547711Y-84690000D01*
X155920290Y-84690000D01*
X155296199Y-84065910D01*
X155357070Y-84033374D01*
X155536291Y-83886291D01*
X155683374Y-83707070D01*
X155792667Y-83502596D01*
X155859969Y-83280731D01*
X155877000Y-83107811D01*
X155877000Y-82592188D01*
X155859969Y-82419268D01*
X155792667Y-82197403D01*
X155683374Y-81992930D01*
X155536291Y-81813709D01*
X155357069Y-81666626D01*
X155263290Y-81616500D01*
X156817211Y-81616500D01*
X157934676Y-82733966D01*
X157934676Y-83617500D01*
X157946759Y-83740177D01*
X157982542Y-83858141D01*
X158040652Y-83966856D01*
X158118854Y-84062146D01*
X158214144Y-84140348D01*
X158322859Y-84198458D01*
X158440823Y-84234241D01*
X158563500Y-84246324D01*
X159063500Y-84246324D01*
X159186177Y-84234241D01*
X159304141Y-84198458D01*
X159412856Y-84140348D01*
X159508146Y-84062146D01*
X159586348Y-83966856D01*
X159644458Y-83858141D01*
X159680241Y-83740177D01*
X159692324Y-83617500D01*
X159692324Y-82117500D01*
X159680241Y-81994823D01*
X159644458Y-81876859D01*
X159586348Y-81768144D01*
X159508146Y-81672854D01*
X159412856Y-81594652D01*
X159304141Y-81536542D01*
X159186177Y-81500759D01*
X159063500Y-81488676D01*
X158563500Y-81488676D01*
X158440823Y-81500759D01*
X158322859Y-81536542D01*
X158260933Y-81569643D01*
X157426455Y-80735166D01*
X157419753Y-80727000D01*
X169873000Y-80727000D01*
X169873000Y-86490171D01*
X169799450Y-86400550D01*
X169574547Y-86215978D01*
X169317958Y-86078828D01*
X169039543Y-85994371D01*
X168822556Y-85973000D01*
X167377444Y-85973000D01*
X167160457Y-85994371D01*
X166882042Y-86078828D01*
X166625453Y-86215978D01*
X166400550Y-86400550D01*
X166215978Y-86625453D01*
X166078828Y-86882042D01*
X165994371Y-87160457D01*
X165965854Y-87450000D01*
X165994371Y-87739543D01*
X166078828Y-88017958D01*
X166215978Y-88274547D01*
X166400550Y-88499450D01*
X166625453Y-88684022D01*
X166783448Y-88768472D01*
X166658400Y-88920843D01*
X166553750Y-89116629D01*
X166489307Y-89329069D01*
X166467547Y-89550000D01*
X166489307Y-89770931D01*
X166553750Y-89983371D01*
X166658400Y-90179157D01*
X166799235Y-90350765D01*
X166970843Y-90491600D01*
X167080102Y-90550000D01*
X166970843Y-90608400D01*
X166799235Y-90749235D01*
X166658400Y-90920843D01*
X166553750Y-91116629D01*
X166489307Y-91329069D01*
X166467547Y-91550000D01*
X166489307Y-91770931D01*
X166553750Y-91983371D01*
X166658400Y-92179157D01*
X166799235Y-92350765D01*
X166885031Y-92421176D01*
X166850000Y-92421176D01*
X166776095Y-92428455D01*
X166705030Y-92450012D01*
X166639537Y-92485019D01*
X166582131Y-92532131D01*
X166535019Y-92589537D01*
X166500012Y-92655030D01*
X166478455Y-92726095D01*
X166471176Y-92800000D01*
X166471176Y-92908500D01*
X162041824Y-92908500D01*
X162041824Y-92785500D01*
X162029741Y-92662823D01*
X161993958Y-92544859D01*
X161935848Y-92436144D01*
X161857646Y-92340854D01*
X161762356Y-92262652D01*
X161653641Y-92204542D01*
X161535677Y-92168759D01*
X161413000Y-92156676D01*
X160913000Y-92156676D01*
X160790323Y-92168759D01*
X160672359Y-92204542D01*
X160563644Y-92262652D01*
X160468354Y-92340854D01*
X160390152Y-92436144D01*
X160332042Y-92544859D01*
X160296259Y-92662823D01*
X160284176Y-92785500D01*
X160284176Y-94285500D01*
X160296259Y-94408177D01*
X160332042Y-94526141D01*
X160390152Y-94634856D01*
X160468354Y-94730146D01*
X160563644Y-94808348D01*
X160672359Y-94866458D01*
X160790323Y-94902241D01*
X160913000Y-94914324D01*
X161413000Y-94914324D01*
X161535677Y-94902241D01*
X161653641Y-94866458D01*
X161762356Y-94808348D01*
X161857646Y-94730146D01*
X161935848Y-94634856D01*
X161993958Y-94526141D01*
X162029741Y-94408177D01*
X162041824Y-94285500D01*
X162041824Y-94162500D01*
X166471176Y-94162500D01*
X166471176Y-94300000D01*
X166478455Y-94373905D01*
X166500012Y-94444970D01*
X166527489Y-94496375D01*
X166400550Y-94600550D01*
X166215978Y-94825453D01*
X166078828Y-95082042D01*
X165994371Y-95360457D01*
X165965854Y-95650000D01*
X165994371Y-95939543D01*
X166078828Y-96217958D01*
X166215978Y-96474547D01*
X166400550Y-96699450D01*
X166625453Y-96884022D01*
X166882042Y-97021172D01*
X167160457Y-97105629D01*
X167377444Y-97127000D01*
X168822556Y-97127000D01*
X169039543Y-97105629D01*
X169317958Y-97021172D01*
X169574547Y-96884022D01*
X169799450Y-96699450D01*
X169873000Y-96609829D01*
X169873000Y-120873000D01*
X90627000Y-120873000D01*
X90627000Y-118693872D01*
X117536200Y-118693872D01*
X117536200Y-118846928D01*
X117566059Y-118997043D01*
X117624631Y-119138448D01*
X117709664Y-119265709D01*
X117817891Y-119373936D01*
X117945152Y-119458969D01*
X118086557Y-119517541D01*
X118236672Y-119547400D01*
X118389728Y-119547400D01*
X118539843Y-119517541D01*
X118681248Y-119458969D01*
X118808509Y-119373936D01*
X118885045Y-119297400D01*
X118945676Y-119297400D01*
X118945676Y-120066500D01*
X118957759Y-120189177D01*
X118993542Y-120307141D01*
X119051652Y-120415856D01*
X119129854Y-120511146D01*
X119225144Y-120589348D01*
X119333859Y-120647458D01*
X119451823Y-120683241D01*
X119574500Y-120695324D01*
X120074500Y-120695324D01*
X120197177Y-120683241D01*
X120315141Y-120647458D01*
X120423856Y-120589348D01*
X120519146Y-120511146D01*
X120597348Y-120415856D01*
X120650000Y-120317352D01*
X120702652Y-120415856D01*
X120780854Y-120511146D01*
X120876144Y-120589348D01*
X120984859Y-120647458D01*
X121102823Y-120683241D01*
X121225500Y-120695324D01*
X121725500Y-120695324D01*
X121848177Y-120683241D01*
X121966141Y-120647458D01*
X122074856Y-120589348D01*
X122170146Y-120511146D01*
X122248348Y-120415856D01*
X122306458Y-120307141D01*
X122342241Y-120189177D01*
X122354324Y-120066500D01*
X122354324Y-119843500D01*
X122592619Y-119843500D01*
X122618500Y-119846049D01*
X122644381Y-119843500D01*
X122721810Y-119835874D01*
X122821150Y-119805739D01*
X122912702Y-119756804D01*
X122992948Y-119690948D01*
X123009455Y-119670834D01*
X123607844Y-119072447D01*
X123627948Y-119055948D01*
X123693804Y-118975702D01*
X123742739Y-118884150D01*
X123772874Y-118784810D01*
X123780500Y-118707381D01*
X123783049Y-118681500D01*
X123780500Y-118655619D01*
X123780500Y-118110345D01*
X123857036Y-118033809D01*
X123942069Y-117906548D01*
X124000641Y-117765143D01*
X124030500Y-117615028D01*
X124030500Y-117461972D01*
X124000641Y-117311857D01*
X123942069Y-117170452D01*
X123857036Y-117043191D01*
X123748809Y-116934964D01*
X123621548Y-116849931D01*
X123480143Y-116791359D01*
X123330028Y-116761500D01*
X123176972Y-116761500D01*
X123026857Y-116791359D01*
X122885452Y-116849931D01*
X122758191Y-116934964D01*
X122649964Y-117043191D01*
X122564931Y-117170452D01*
X122506359Y-117311857D01*
X122476500Y-117461972D01*
X122476500Y-117615028D01*
X122506359Y-117765143D01*
X122564931Y-117906548D01*
X122649964Y-118033809D01*
X122726501Y-118110346D01*
X122726501Y-118463209D01*
X122400210Y-118789500D01*
X122354324Y-118789500D01*
X122354324Y-118566500D01*
X122342241Y-118443823D01*
X122306458Y-118325859D01*
X122248348Y-118217144D01*
X122170146Y-118121854D01*
X122074856Y-118043652D01*
X121966141Y-117985542D01*
X121848177Y-117949759D01*
X121725500Y-117937676D01*
X121225500Y-117937676D01*
X121102823Y-117949759D01*
X120984859Y-117985542D01*
X120876144Y-118043652D01*
X120780854Y-118121854D01*
X120702652Y-118217144D01*
X120650000Y-118315648D01*
X120597348Y-118217144D01*
X120519146Y-118121854D01*
X120423856Y-118043652D01*
X120315141Y-117985542D01*
X120197177Y-117949759D01*
X120074500Y-117937676D01*
X119574500Y-117937676D01*
X119451823Y-117949759D01*
X119333859Y-117985542D01*
X119225144Y-118043652D01*
X119129854Y-118121854D01*
X119051652Y-118217144D01*
X119037618Y-118243400D01*
X118885045Y-118243400D01*
X118808509Y-118166864D01*
X118681248Y-118081831D01*
X118539843Y-118023259D01*
X118389728Y-117993400D01*
X118236672Y-117993400D01*
X118086557Y-118023259D01*
X117945152Y-118081831D01*
X117817891Y-118166864D01*
X117709664Y-118275091D01*
X117624631Y-118402352D01*
X117566059Y-118543757D01*
X117536200Y-118693872D01*
X90627000Y-118693872D01*
X90627000Y-114573472D01*
X102123000Y-114573472D01*
X102123000Y-114726528D01*
X102152859Y-114876643D01*
X102211431Y-115018048D01*
X102296464Y-115145309D01*
X102404691Y-115253536D01*
X102531952Y-115338569D01*
X102673357Y-115397141D01*
X102782049Y-115418761D01*
X103211570Y-115848282D01*
X103233190Y-115956974D01*
X103291762Y-116098379D01*
X103376795Y-116225640D01*
X103485022Y-116333867D01*
X103612283Y-116418900D01*
X103753688Y-116477472D01*
X103903803Y-116507331D01*
X104056859Y-116507331D01*
X104206974Y-116477472D01*
X104348379Y-116418900D01*
X104475640Y-116333867D01*
X104583867Y-116225640D01*
X104668900Y-116098379D01*
X104727472Y-115956974D01*
X104757331Y-115806859D01*
X104757331Y-115653803D01*
X104727472Y-115503688D01*
X104668900Y-115362283D01*
X104583867Y-115235022D01*
X104475640Y-115126795D01*
X104348379Y-115041762D01*
X104206974Y-114983190D01*
X104098282Y-114961570D01*
X103668761Y-114532049D01*
X103647141Y-114423357D01*
X103588569Y-114281952D01*
X103503536Y-114154691D01*
X103395309Y-114046464D01*
X103268048Y-113961431D01*
X103126643Y-113902859D01*
X102976528Y-113873000D01*
X102823472Y-113873000D01*
X102673357Y-113902859D01*
X102531952Y-113961431D01*
X102404691Y-114046464D01*
X102296464Y-114154691D01*
X102211431Y-114281952D01*
X102152859Y-114423357D01*
X102123000Y-114573472D01*
X90627000Y-114573472D01*
X90627000Y-113684924D01*
X90661431Y-113768048D01*
X90746464Y-113895309D01*
X90854691Y-114003536D01*
X90981952Y-114088569D01*
X91123357Y-114147141D01*
X91273472Y-114177000D01*
X91426528Y-114177000D01*
X91576643Y-114147141D01*
X91718048Y-114088569D01*
X91845309Y-114003536D01*
X91871176Y-113977669D01*
X91871176Y-114100000D01*
X91878455Y-114173905D01*
X91900012Y-114244970D01*
X91935019Y-114310463D01*
X91982131Y-114367869D01*
X92039537Y-114414981D01*
X92105030Y-114449988D01*
X92176095Y-114471545D01*
X92250000Y-114478824D01*
X95450000Y-114478824D01*
X95523905Y-114471545D01*
X95594970Y-114449988D01*
X95660463Y-114414981D01*
X95717869Y-114367869D01*
X95764981Y-114310463D01*
X95799988Y-114244970D01*
X95821545Y-114173905D01*
X95828824Y-114100000D01*
X95828824Y-112427000D01*
X96790289Y-112427000D01*
X97231239Y-112867951D01*
X97252859Y-112976643D01*
X97311431Y-113118048D01*
X97396464Y-113245309D01*
X97504691Y-113353536D01*
X97631952Y-113438569D01*
X97773357Y-113497141D01*
X97923472Y-113527000D01*
X98076528Y-113527000D01*
X98226643Y-113497141D01*
X98368048Y-113438569D01*
X98495309Y-113353536D01*
X98603536Y-113245309D01*
X98688569Y-113118048D01*
X98747141Y-112976643D01*
X98777000Y-112826528D01*
X98777000Y-112673472D01*
X98747141Y-112523357D01*
X98688569Y-112381952D01*
X98603536Y-112254691D01*
X98522317Y-112173472D01*
X105723000Y-112173472D01*
X105723000Y-112326528D01*
X105752859Y-112476643D01*
X105811431Y-112618048D01*
X105896464Y-112745309D01*
X106004691Y-112853536D01*
X106131952Y-112938569D01*
X106273357Y-112997141D01*
X106423472Y-113027000D01*
X106576528Y-113027000D01*
X106726643Y-112997141D01*
X106868048Y-112938569D01*
X106995309Y-112853536D01*
X107071845Y-112777000D01*
X107424119Y-112777000D01*
X107450000Y-112779549D01*
X107475881Y-112777000D01*
X107553310Y-112769374D01*
X107652650Y-112739239D01*
X107744202Y-112690304D01*
X107824448Y-112624448D01*
X107840955Y-112604334D01*
X111404345Y-109040946D01*
X111424448Y-109024448D01*
X111490304Y-108944202D01*
X111528109Y-108873472D01*
X111723000Y-108873472D01*
X111723000Y-109026528D01*
X111752859Y-109176643D01*
X111811431Y-109318048D01*
X111896464Y-109445309D01*
X112004691Y-109553536D01*
X112131952Y-109638569D01*
X112273357Y-109697141D01*
X112423472Y-109727000D01*
X112531711Y-109727000D01*
X113173000Y-110368290D01*
X113173001Y-110878154D01*
X113096464Y-110954691D01*
X113011431Y-111081952D01*
X112952859Y-111223357D01*
X112923000Y-111373472D01*
X112923000Y-111526528D01*
X112952859Y-111676643D01*
X113011431Y-111818048D01*
X113096464Y-111945309D01*
X113204691Y-112053536D01*
X113331952Y-112138569D01*
X113473357Y-112197141D01*
X113623472Y-112227000D01*
X113776528Y-112227000D01*
X113926643Y-112197141D01*
X114068048Y-112138569D01*
X114195309Y-112053536D01*
X114303536Y-111945309D01*
X114388569Y-111818048D01*
X114447141Y-111676643D01*
X114477000Y-111526528D01*
X114477000Y-111373472D01*
X114447141Y-111223357D01*
X114388569Y-111081952D01*
X114303536Y-110954691D01*
X114227000Y-110878155D01*
X114227000Y-110175877D01*
X114229549Y-110149999D01*
X114226936Y-110123472D01*
X114219374Y-110046690D01*
X114189239Y-109947350D01*
X114140304Y-109855798D01*
X114074448Y-109775552D01*
X114054339Y-109759049D01*
X113277000Y-108981711D01*
X113277000Y-108873472D01*
X113247141Y-108723357D01*
X113188569Y-108581952D01*
X113103536Y-108454691D01*
X112995309Y-108346464D01*
X112868048Y-108261431D01*
X112726643Y-108202859D01*
X112576528Y-108173000D01*
X112423472Y-108173000D01*
X112273357Y-108202859D01*
X112131952Y-108261431D01*
X112004691Y-108346464D01*
X111896464Y-108454691D01*
X111811431Y-108581952D01*
X111752859Y-108723357D01*
X111723000Y-108873472D01*
X111528109Y-108873472D01*
X111539239Y-108852650D01*
X111569374Y-108753310D01*
X111577000Y-108675881D01*
X111577000Y-108675880D01*
X111579549Y-108650000D01*
X111577000Y-108624119D01*
X111577000Y-108071845D01*
X111653536Y-107995309D01*
X111738569Y-107868048D01*
X111797141Y-107726643D01*
X111827000Y-107576528D01*
X111827000Y-107423472D01*
X111797141Y-107273357D01*
X111738569Y-107131952D01*
X111653536Y-107004691D01*
X111545309Y-106896464D01*
X111418048Y-106811431D01*
X111276643Y-106752859D01*
X111126528Y-106723000D01*
X110973472Y-106723000D01*
X110823357Y-106752859D01*
X110681952Y-106811431D01*
X110554691Y-106896464D01*
X110450000Y-107001155D01*
X110345309Y-106896464D01*
X110218048Y-106811431D01*
X110076643Y-106752859D01*
X109926528Y-106723000D01*
X109773472Y-106723000D01*
X109623357Y-106752859D01*
X109481952Y-106811431D01*
X109354691Y-106896464D01*
X109246464Y-107004691D01*
X109161431Y-107131952D01*
X109102859Y-107273357D01*
X109073000Y-107423472D01*
X109073000Y-107531710D01*
X107181710Y-109423000D01*
X107073472Y-109423000D01*
X106923357Y-109452859D01*
X106781952Y-109511431D01*
X106654691Y-109596464D01*
X106546464Y-109704691D01*
X106461431Y-109831952D01*
X106402859Y-109973357D01*
X106373000Y-110123472D01*
X106373000Y-110276528D01*
X106402859Y-110426643D01*
X106461431Y-110568048D01*
X106546464Y-110695309D01*
X106654691Y-110803536D01*
X106781952Y-110888569D01*
X106923357Y-110947141D01*
X107073472Y-110977000D01*
X107226528Y-110977000D01*
X107376643Y-110947141D01*
X107518048Y-110888569D01*
X107645309Y-110803536D01*
X107753536Y-110695309D01*
X107838569Y-110568048D01*
X107897141Y-110426643D01*
X107927000Y-110276528D01*
X107927000Y-110168290D01*
X109818290Y-108277000D01*
X109926528Y-108277000D01*
X110076643Y-108247141D01*
X110218048Y-108188569D01*
X110345309Y-108103536D01*
X110450000Y-107998845D01*
X110523001Y-108071846D01*
X110523000Y-108431709D01*
X107231711Y-111723000D01*
X107071845Y-111723000D01*
X106995309Y-111646464D01*
X106868048Y-111561431D01*
X106726643Y-111502859D01*
X106576528Y-111473000D01*
X106423472Y-111473000D01*
X106273357Y-111502859D01*
X106131952Y-111561431D01*
X106004691Y-111646464D01*
X105896464Y-111754691D01*
X105811431Y-111881952D01*
X105752859Y-112023357D01*
X105723000Y-112173472D01*
X98522317Y-112173472D01*
X98495309Y-112146464D01*
X98368048Y-112061431D01*
X98226643Y-112002859D01*
X98117951Y-111981239D01*
X97515138Y-111378427D01*
X97495501Y-111354499D01*
X97400028Y-111276147D01*
X97291103Y-111217925D01*
X97172913Y-111182073D01*
X97080794Y-111173000D01*
X97050000Y-111169967D01*
X97019206Y-111173000D01*
X95828824Y-111173000D01*
X95828824Y-109900000D01*
X95821545Y-109826095D01*
X95799988Y-109755030D01*
X95764981Y-109689537D01*
X95717869Y-109632131D01*
X95660463Y-109585019D01*
X95594970Y-109550012D01*
X95523905Y-109528455D01*
X95450000Y-109521176D01*
X92250000Y-109521176D01*
X92176095Y-109528455D01*
X92105030Y-109550012D01*
X92039537Y-109585019D01*
X91982131Y-109632131D01*
X91935019Y-109689537D01*
X91900012Y-109755030D01*
X91878455Y-109826095D01*
X91871176Y-109900000D01*
X91871176Y-111373000D01*
X91780791Y-111373000D01*
X91749999Y-111369967D01*
X91719207Y-111373000D01*
X91719206Y-111373000D01*
X91627087Y-111382073D01*
X91508897Y-111417925D01*
X91399972Y-111476147D01*
X91304499Y-111554499D01*
X91284862Y-111578427D01*
X90928423Y-111934866D01*
X90904500Y-111954499D01*
X90826148Y-112049972D01*
X90786923Y-112123357D01*
X90767926Y-112158897D01*
X90732073Y-112277088D01*
X90719967Y-112400000D01*
X90723001Y-112430804D01*
X90723000Y-112939807D01*
X90661431Y-113031952D01*
X90627000Y-113115076D01*
X90627000Y-107873482D01*
X102123000Y-107873482D01*
X102123000Y-108026538D01*
X102152859Y-108176653D01*
X102211431Y-108318058D01*
X102296464Y-108445319D01*
X102404691Y-108553546D01*
X102531952Y-108638579D01*
X102673357Y-108697151D01*
X102823472Y-108727010D01*
X102976528Y-108727010D01*
X103126643Y-108697151D01*
X103268048Y-108638579D01*
X103395309Y-108553546D01*
X103503536Y-108445319D01*
X103588569Y-108318058D01*
X103647141Y-108176653D01*
X103677000Y-108026538D01*
X103677000Y-107873482D01*
X103647141Y-107723367D01*
X103588569Y-107581962D01*
X103527000Y-107489817D01*
X103527000Y-104809711D01*
X104267951Y-104068761D01*
X104376643Y-104047141D01*
X104518048Y-103988569D01*
X104645309Y-103903536D01*
X104753536Y-103795309D01*
X104838569Y-103668048D01*
X104897141Y-103526643D01*
X104927000Y-103376528D01*
X104927000Y-103223472D01*
X104897141Y-103073357D01*
X104838569Y-102931952D01*
X104753536Y-102804691D01*
X104645309Y-102696464D01*
X104518048Y-102611431D01*
X104376643Y-102552859D01*
X104226528Y-102523000D01*
X104073472Y-102523000D01*
X103923357Y-102552859D01*
X103781952Y-102611431D01*
X103654691Y-102696464D01*
X103546464Y-102804691D01*
X103461431Y-102931952D01*
X103402859Y-103073357D01*
X103381239Y-103182049D01*
X102478422Y-104084867D01*
X102454500Y-104104499D01*
X102376148Y-104199972D01*
X102317925Y-104308897D01*
X102282073Y-104427087D01*
X102282073Y-104427088D01*
X102269967Y-104550000D01*
X102273000Y-104580794D01*
X102273000Y-104830793D01*
X102273001Y-104830803D01*
X102273000Y-107489817D01*
X102211431Y-107581962D01*
X102152859Y-107723367D01*
X102123000Y-107873482D01*
X90627000Y-107873482D01*
X90627000Y-98123472D01*
X92623000Y-98123472D01*
X92623000Y-98276528D01*
X92652859Y-98426643D01*
X92711431Y-98568048D01*
X92796464Y-98695309D01*
X92904691Y-98803536D01*
X93031952Y-98888569D01*
X93173357Y-98947141D01*
X93323472Y-98977000D01*
X93476528Y-98977000D01*
X93626643Y-98947141D01*
X93768048Y-98888569D01*
X93860193Y-98827000D01*
X94498291Y-98827000D01*
X96242868Y-100571578D01*
X96262501Y-100595501D01*
X96357974Y-100673853D01*
X96466899Y-100732075D01*
X96585089Y-100767927D01*
X96677208Y-100777000D01*
X96677209Y-100777000D01*
X96708001Y-100780033D01*
X96738793Y-100777000D01*
X97939807Y-100777000D01*
X98031952Y-100838569D01*
X98173357Y-100897141D01*
X98323472Y-100927000D01*
X98476528Y-100927000D01*
X98626643Y-100897141D01*
X98768048Y-100838569D01*
X98895309Y-100753536D01*
X99003536Y-100645309D01*
X99088569Y-100518048D01*
X99147141Y-100376643D01*
X99177000Y-100226528D01*
X99177000Y-100075672D01*
X107554000Y-100075672D01*
X107554000Y-100228728D01*
X107583859Y-100378843D01*
X107642431Y-100520248D01*
X107727464Y-100647509D01*
X107835691Y-100755736D01*
X107962952Y-100840769D01*
X108104357Y-100899341D01*
X108213050Y-100920961D01*
X108265861Y-100973772D01*
X108269085Y-100977700D01*
X108265861Y-100981628D01*
X108213050Y-101034439D01*
X108104357Y-101056059D01*
X107962952Y-101114631D01*
X107835691Y-101199664D01*
X107727464Y-101307891D01*
X107642431Y-101435152D01*
X107583859Y-101576557D01*
X107554000Y-101726672D01*
X107554000Y-101879728D01*
X107583859Y-102029843D01*
X107642431Y-102171248D01*
X107727464Y-102298509D01*
X107835691Y-102406736D01*
X107962952Y-102491769D01*
X108104357Y-102550341D01*
X108254472Y-102580200D01*
X108407528Y-102580200D01*
X108557643Y-102550341D01*
X108699048Y-102491769D01*
X108826309Y-102406736D01*
X108934536Y-102298509D01*
X109019569Y-102171248D01*
X109077993Y-102030201D01*
X115075043Y-102030201D01*
X115111431Y-102118048D01*
X115196464Y-102245309D01*
X115304691Y-102353536D01*
X115431952Y-102438569D01*
X115573357Y-102497141D01*
X115723472Y-102527000D01*
X115876528Y-102527000D01*
X115886582Y-102525000D01*
X125119967Y-102525000D01*
X125123001Y-102555804D01*
X125123000Y-106744206D01*
X125119967Y-106775000D01*
X125123000Y-106805793D01*
X125132073Y-106897912D01*
X125167925Y-107016102D01*
X125226147Y-107125027D01*
X125304499Y-107220501D01*
X125328427Y-107240138D01*
X126509856Y-108421568D01*
X126529489Y-108445491D01*
X126624962Y-108523843D01*
X126733887Y-108582065D01*
X126852077Y-108617917D01*
X126944196Y-108626990D01*
X126944197Y-108626990D01*
X126974989Y-108630023D01*
X127005781Y-108626990D01*
X135239807Y-108626990D01*
X135331952Y-108688559D01*
X135473357Y-108747131D01*
X135623472Y-108776990D01*
X135776528Y-108776990D01*
X135926643Y-108747131D01*
X136068048Y-108688559D01*
X136195309Y-108603526D01*
X136303536Y-108495299D01*
X136388569Y-108368038D01*
X136447141Y-108226633D01*
X136477000Y-108076518D01*
X136477000Y-107923462D01*
X136447141Y-107773347D01*
X136388569Y-107631942D01*
X136303536Y-107504681D01*
X136195309Y-107396454D01*
X136068048Y-107311421D01*
X135926643Y-107252849D01*
X135776528Y-107222990D01*
X135623472Y-107222990D01*
X135473357Y-107252849D01*
X135331952Y-107311421D01*
X135239807Y-107372990D01*
X127234702Y-107372990D01*
X126377000Y-106515289D01*
X126377000Y-102784711D01*
X126584712Y-102577000D01*
X128389807Y-102577000D01*
X128481952Y-102638569D01*
X128623357Y-102697141D01*
X128773472Y-102727000D01*
X128926528Y-102727000D01*
X129076643Y-102697141D01*
X129218048Y-102638569D01*
X129345309Y-102553536D01*
X129453536Y-102445309D01*
X129538569Y-102318048D01*
X129597141Y-102176643D01*
X129627000Y-102026528D01*
X129627000Y-101873472D01*
X129597141Y-101723357D01*
X129538569Y-101581952D01*
X129453536Y-101454691D01*
X129345309Y-101346464D01*
X129218048Y-101261431D01*
X129076643Y-101202859D01*
X128926528Y-101173000D01*
X128773472Y-101173000D01*
X128623357Y-101202859D01*
X128481952Y-101261431D01*
X128389807Y-101323000D01*
X126355794Y-101323000D01*
X126325000Y-101319967D01*
X126294206Y-101323000D01*
X126202087Y-101332073D01*
X126083897Y-101367925D01*
X125974972Y-101426147D01*
X125879499Y-101504499D01*
X125859866Y-101528422D01*
X125328422Y-102059867D01*
X125304500Y-102079499D01*
X125226148Y-102174972D01*
X125176463Y-102267926D01*
X125167926Y-102283897D01*
X125132073Y-102402088D01*
X125119967Y-102525000D01*
X115886582Y-102525000D01*
X116026643Y-102497141D01*
X116168048Y-102438569D01*
X116295309Y-102353536D01*
X116403536Y-102245309D01*
X116488569Y-102118048D01*
X116547141Y-101976643D01*
X116577000Y-101826528D01*
X116577000Y-101673472D01*
X116547141Y-101523357D01*
X116488569Y-101381952D01*
X116403536Y-101254691D01*
X116295309Y-101146464D01*
X116168048Y-101061431D01*
X116026643Y-101002859D01*
X115918034Y-100981256D01*
X115911646Y-100973472D01*
X117723000Y-100973472D01*
X117723000Y-101126528D01*
X117752859Y-101276643D01*
X117811431Y-101418048D01*
X117896464Y-101545309D01*
X118004691Y-101653536D01*
X118131952Y-101738569D01*
X118273357Y-101797141D01*
X118423472Y-101827000D01*
X118576528Y-101827000D01*
X118726643Y-101797141D01*
X118868048Y-101738569D01*
X118995309Y-101653536D01*
X119103536Y-101545309D01*
X119188569Y-101418048D01*
X119247141Y-101276643D01*
X119277000Y-101126528D01*
X119277000Y-100973472D01*
X119247141Y-100823357D01*
X119188569Y-100681952D01*
X119127000Y-100589807D01*
X119127000Y-100023472D01*
X119923000Y-100023472D01*
X119923000Y-100176528D01*
X119952859Y-100326643D01*
X120011431Y-100468048D01*
X120096464Y-100595309D01*
X120204691Y-100703536D01*
X120331952Y-100788569D01*
X120473357Y-100847141D01*
X120623472Y-100877000D01*
X120776528Y-100877000D01*
X120926643Y-100847141D01*
X121068048Y-100788569D01*
X121160193Y-100727000D01*
X132340289Y-100727000D01*
X133381239Y-101767951D01*
X133402859Y-101876643D01*
X133461431Y-102018048D01*
X133546464Y-102145309D01*
X133623001Y-102221846D01*
X133623000Y-104231709D01*
X132881710Y-104973000D01*
X132773472Y-104973000D01*
X132623357Y-105002859D01*
X132481952Y-105061431D01*
X132354691Y-105146464D01*
X132246464Y-105254691D01*
X132161431Y-105381952D01*
X132102859Y-105523357D01*
X132073000Y-105673472D01*
X132073000Y-105826528D01*
X132102859Y-105976643D01*
X132161431Y-106118048D01*
X132246464Y-106245309D01*
X132354691Y-106353536D01*
X132481952Y-106438569D01*
X132623357Y-106497141D01*
X132773472Y-106527000D01*
X132926528Y-106527000D01*
X133076643Y-106497141D01*
X133218048Y-106438569D01*
X133345309Y-106353536D01*
X133453536Y-106245309D01*
X133538569Y-106118048D01*
X133597141Y-105976643D01*
X133627000Y-105826528D01*
X133627000Y-105718290D01*
X134504344Y-104840947D01*
X134524448Y-104824448D01*
X134590304Y-104744202D01*
X134639239Y-104652650D01*
X134669374Y-104553310D01*
X134677000Y-104475881D01*
X134677000Y-104475880D01*
X134679549Y-104450000D01*
X134677000Y-104424119D01*
X134677000Y-103063711D01*
X136734866Y-105121578D01*
X136754499Y-105145501D01*
X136849972Y-105223853D01*
X136958897Y-105282075D01*
X137077087Y-105317927D01*
X137169206Y-105327000D01*
X137169207Y-105327000D01*
X137199999Y-105330033D01*
X137230791Y-105327000D01*
X138490289Y-105327000D01*
X139173000Y-106009712D01*
X139173001Y-111349487D01*
X138799489Y-111723000D01*
X136310193Y-111723000D01*
X136218048Y-111661431D01*
X136076643Y-111602859D01*
X135926528Y-111573000D01*
X135773472Y-111573000D01*
X135623357Y-111602859D01*
X135481952Y-111661431D01*
X135354691Y-111746464D01*
X135246464Y-111854691D01*
X135161431Y-111981952D01*
X135102859Y-112123357D01*
X135073000Y-112273472D01*
X135073000Y-112426528D01*
X135102859Y-112576643D01*
X135161431Y-112718048D01*
X135246464Y-112845309D01*
X135354691Y-112953536D01*
X135481952Y-113038569D01*
X135623357Y-113097141D01*
X135773472Y-113127000D01*
X135926528Y-113127000D01*
X136076643Y-113097141D01*
X136218048Y-113038569D01*
X136310193Y-112977000D01*
X139028406Y-112977000D01*
X139059200Y-112980033D01*
X139089994Y-112977000D01*
X139182113Y-112967927D01*
X139300303Y-112932075D01*
X139409228Y-112873853D01*
X139504701Y-112795501D01*
X139524338Y-112771573D01*
X140221578Y-112074334D01*
X140245501Y-112054701D01*
X140323853Y-111959228D01*
X140382075Y-111850303D01*
X140417927Y-111732113D01*
X140427000Y-111639994D01*
X140427000Y-111639993D01*
X140430033Y-111609201D01*
X140427000Y-111578409D01*
X140427000Y-106873472D01*
X165023000Y-106873472D01*
X165023000Y-107026528D01*
X165052859Y-107176643D01*
X165111431Y-107318048D01*
X165196464Y-107445309D01*
X165304691Y-107553536D01*
X165431952Y-107638569D01*
X165573357Y-107697141D01*
X165682049Y-107718761D01*
X165973001Y-108009713D01*
X165973000Y-111439807D01*
X165911431Y-111531952D01*
X165852859Y-111673357D01*
X165823000Y-111823472D01*
X165823000Y-111976528D01*
X165852859Y-112126643D01*
X165911431Y-112268048D01*
X165996464Y-112395309D01*
X166104691Y-112503536D01*
X166231952Y-112588569D01*
X166373357Y-112647141D01*
X166523472Y-112677000D01*
X166676528Y-112677000D01*
X166826643Y-112647141D01*
X166968048Y-112588569D01*
X167095309Y-112503536D01*
X167203536Y-112395309D01*
X167288569Y-112268048D01*
X167347141Y-112126643D01*
X167377000Y-111976528D01*
X167377000Y-111823472D01*
X167347141Y-111673357D01*
X167288569Y-111531952D01*
X167227000Y-111439807D01*
X167227000Y-107780794D01*
X167230033Y-107750000D01*
X167217927Y-107627087D01*
X167210714Y-107603310D01*
X167182075Y-107508897D01*
X167123853Y-107399972D01*
X167045501Y-107304499D01*
X167021578Y-107284866D01*
X166568761Y-106832049D01*
X166547141Y-106723357D01*
X166488569Y-106581952D01*
X166403536Y-106454691D01*
X166295309Y-106346464D01*
X166168048Y-106261431D01*
X166026643Y-106202859D01*
X165876528Y-106173000D01*
X165723472Y-106173000D01*
X165573357Y-106202859D01*
X165431952Y-106261431D01*
X165304691Y-106346464D01*
X165196464Y-106454691D01*
X165111431Y-106581952D01*
X165052859Y-106723357D01*
X165023000Y-106873472D01*
X140427000Y-106873472D01*
X140427000Y-105780793D01*
X140430033Y-105749999D01*
X140417927Y-105627086D01*
X140401663Y-105573472D01*
X143673000Y-105573472D01*
X143673000Y-105726528D01*
X143702859Y-105876643D01*
X143761431Y-106018048D01*
X143846464Y-106145309D01*
X143954691Y-106253536D01*
X144081952Y-106338569D01*
X144223357Y-106397141D01*
X144373472Y-106427000D01*
X144526528Y-106427000D01*
X144676643Y-106397141D01*
X144818048Y-106338569D01*
X144945309Y-106253536D01*
X145053536Y-106145309D01*
X145138569Y-106018048D01*
X145197141Y-105876643D01*
X145218761Y-105767950D01*
X147215130Y-103771582D01*
X147215134Y-103771577D01*
X147768151Y-103218561D01*
X147876843Y-103196941D01*
X148018248Y-103138369D01*
X148145509Y-103053336D01*
X148253736Y-102945109D01*
X148338769Y-102817848D01*
X148397341Y-102676443D01*
X148427200Y-102526328D01*
X148427200Y-102373272D01*
X148397341Y-102223157D01*
X148338769Y-102081752D01*
X148253736Y-101954491D01*
X148145509Y-101846264D01*
X148018248Y-101761231D01*
X147876843Y-101702659D01*
X147726728Y-101672800D01*
X147573672Y-101672800D01*
X147423557Y-101702659D01*
X147282152Y-101761231D01*
X147154891Y-101846264D01*
X147046664Y-101954491D01*
X146961631Y-102081752D01*
X146903059Y-102223157D01*
X146881439Y-102331849D01*
X146328423Y-102884866D01*
X146328418Y-102884870D01*
X144332050Y-104881239D01*
X144223357Y-104902859D01*
X144081952Y-104961431D01*
X143954691Y-105046464D01*
X143846464Y-105154691D01*
X143761431Y-105281952D01*
X143702859Y-105423357D01*
X143673000Y-105573472D01*
X140401663Y-105573472D01*
X140382075Y-105508897D01*
X140323853Y-105399972D01*
X140245501Y-105304499D01*
X140221579Y-105284867D01*
X139215138Y-104278427D01*
X139195501Y-104254499D01*
X139100028Y-104176147D01*
X138991103Y-104117925D01*
X138872913Y-104082073D01*
X138780794Y-104073000D01*
X138750000Y-104069967D01*
X138719206Y-104073000D01*
X137459712Y-104073000D01*
X134918761Y-101532050D01*
X134897141Y-101423357D01*
X134838569Y-101281952D01*
X134753536Y-101154691D01*
X134645309Y-101046464D01*
X134518048Y-100961431D01*
X134376643Y-100902859D01*
X134267951Y-100881239D01*
X133071581Y-99684870D01*
X133065138Y-99678427D01*
X133045501Y-99654499D01*
X132950028Y-99576147D01*
X132841103Y-99517925D01*
X132722913Y-99482073D01*
X132630794Y-99473000D01*
X132600000Y-99469967D01*
X132569206Y-99473000D01*
X121160193Y-99473000D01*
X121068048Y-99411431D01*
X120976408Y-99373472D01*
X149873000Y-99373472D01*
X149873000Y-99526528D01*
X149902859Y-99676643D01*
X149961431Y-99818048D01*
X150046464Y-99945309D01*
X150154691Y-100053536D01*
X150281952Y-100138569D01*
X150423357Y-100197141D01*
X150573472Y-100227000D01*
X150726528Y-100227000D01*
X150876643Y-100197141D01*
X151018048Y-100138569D01*
X151145309Y-100053536D01*
X151253536Y-99945309D01*
X151338569Y-99818048D01*
X151397141Y-99676643D01*
X151418761Y-99567950D01*
X153667951Y-97318761D01*
X153776643Y-97297141D01*
X153918048Y-97238569D01*
X154045309Y-97153536D01*
X154153536Y-97045309D01*
X154238569Y-96918048D01*
X154297141Y-96776643D01*
X154327000Y-96626528D01*
X154327000Y-96473472D01*
X154297141Y-96323357D01*
X154238569Y-96181952D01*
X154153536Y-96054691D01*
X154045309Y-95946464D01*
X153918048Y-95861431D01*
X153776643Y-95802859D01*
X153626528Y-95773000D01*
X153473472Y-95773000D01*
X153323357Y-95802859D01*
X153181952Y-95861431D01*
X153054691Y-95946464D01*
X152946464Y-96054691D01*
X152861431Y-96181952D01*
X152802859Y-96323357D01*
X152781239Y-96432049D01*
X150532050Y-98681239D01*
X150423357Y-98702859D01*
X150281952Y-98761431D01*
X150154691Y-98846464D01*
X150046464Y-98954691D01*
X149961431Y-99081952D01*
X149902859Y-99223357D01*
X149873000Y-99373472D01*
X120976408Y-99373472D01*
X120926643Y-99352859D01*
X120776528Y-99323000D01*
X120623472Y-99323000D01*
X120473357Y-99352859D01*
X120331952Y-99411431D01*
X120204691Y-99496464D01*
X120096464Y-99604691D01*
X120011431Y-99731952D01*
X119952859Y-99873357D01*
X119923000Y-100023472D01*
X119127000Y-100023472D01*
X119127000Y-98294711D01*
X121994712Y-95427000D01*
X131519206Y-95427000D01*
X131550000Y-95430033D01*
X131580794Y-95427000D01*
X131672913Y-95417927D01*
X131791103Y-95382075D01*
X131900028Y-95323853D01*
X131995501Y-95245501D01*
X132015138Y-95221573D01*
X134371574Y-92865137D01*
X134395501Y-92845501D01*
X134473853Y-92750028D01*
X134486646Y-92726095D01*
X134532075Y-92641104D01*
X134567927Y-92522913D01*
X134580033Y-92400000D01*
X134577000Y-92369206D01*
X134577000Y-90010193D01*
X134638569Y-89918048D01*
X134697141Y-89776643D01*
X134727000Y-89626528D01*
X134727000Y-89473472D01*
X134697141Y-89323357D01*
X134638569Y-89181952D01*
X134553536Y-89054691D01*
X134445309Y-88946464D01*
X134318048Y-88861431D01*
X134176643Y-88802859D01*
X134026528Y-88773000D01*
X133873472Y-88773000D01*
X133723357Y-88802859D01*
X133581952Y-88861431D01*
X133454691Y-88946464D01*
X133346464Y-89054691D01*
X133261431Y-89181952D01*
X133202859Y-89323357D01*
X133173000Y-89473472D01*
X133173000Y-89626528D01*
X133202859Y-89776643D01*
X133261431Y-89918048D01*
X133323000Y-90010193D01*
X133323000Y-90280793D01*
X133323001Y-90280803D01*
X133323000Y-92140289D01*
X131290289Y-94173000D01*
X121972289Y-94173000D01*
X122668292Y-93476999D01*
X126224120Y-93476999D01*
X126250001Y-93479548D01*
X126275882Y-93476999D01*
X126353311Y-93469373D01*
X126452651Y-93439238D01*
X126544203Y-93390303D01*
X126624449Y-93324447D01*
X126640956Y-93304333D01*
X127654344Y-92290947D01*
X127674448Y-92274448D01*
X127740304Y-92194202D01*
X127789239Y-92102650D01*
X127819374Y-92003310D01*
X127827000Y-91925881D01*
X127829549Y-91900000D01*
X127827000Y-91874119D01*
X127827000Y-91423472D01*
X127873000Y-91423472D01*
X127873000Y-91576528D01*
X127902859Y-91726643D01*
X127961431Y-91868048D01*
X128046464Y-91995309D01*
X128154691Y-92103536D01*
X128281952Y-92188569D01*
X128423357Y-92247141D01*
X128573472Y-92277000D01*
X128726528Y-92277000D01*
X128876643Y-92247141D01*
X129018048Y-92188569D01*
X129145309Y-92103536D01*
X129172886Y-92075959D01*
X130840848Y-92075959D01*
X130932993Y-92137528D01*
X131074398Y-92196100D01*
X131224513Y-92225959D01*
X131377569Y-92225959D01*
X131527684Y-92196100D01*
X131669089Y-92137528D01*
X131796350Y-92052495D01*
X131904577Y-91944268D01*
X131989610Y-91817007D01*
X132048182Y-91675602D01*
X132078041Y-91525487D01*
X132078041Y-91372431D01*
X132048182Y-91222316D01*
X131989610Y-91080911D01*
X131904577Y-90953650D01*
X131796350Y-90845423D01*
X131669089Y-90760390D01*
X131527684Y-90701818D01*
X131377569Y-90671959D01*
X131224513Y-90671959D01*
X131074398Y-90701818D01*
X130932993Y-90760390D01*
X130840848Y-90821959D01*
X129033804Y-90821959D01*
X129018048Y-90811431D01*
X128876643Y-90752859D01*
X128726528Y-90723000D01*
X128573472Y-90723000D01*
X128423357Y-90752859D01*
X128281952Y-90811431D01*
X128154691Y-90896464D01*
X128046464Y-91004691D01*
X127961431Y-91131952D01*
X127902859Y-91273357D01*
X127873000Y-91423472D01*
X127827000Y-91423472D01*
X127827000Y-90118289D01*
X129568291Y-88377000D01*
X138374119Y-88377000D01*
X138400000Y-88379549D01*
X138425881Y-88377000D01*
X138503310Y-88369374D01*
X138602650Y-88339239D01*
X138632148Y-88323472D01*
X139723000Y-88323472D01*
X139723000Y-88476528D01*
X139752859Y-88626643D01*
X139811431Y-88768048D01*
X139896464Y-88895309D01*
X140004691Y-89003536D01*
X140131952Y-89088569D01*
X140273357Y-89147141D01*
X140382049Y-89168761D01*
X140828418Y-89615130D01*
X140828424Y-89615135D01*
X140923001Y-89709712D01*
X140923000Y-92939817D01*
X140861431Y-93031962D01*
X140802859Y-93173367D01*
X140773000Y-93323482D01*
X140773000Y-93476538D01*
X140802859Y-93626653D01*
X140861431Y-93768058D01*
X140946464Y-93895319D01*
X141054691Y-94003546D01*
X141181952Y-94088579D01*
X141323357Y-94147151D01*
X141473472Y-94177010D01*
X141626528Y-94177010D01*
X141776643Y-94147151D01*
X141918048Y-94088579D01*
X142045309Y-94003546D01*
X142121845Y-93927010D01*
X143283221Y-93927010D01*
X143999000Y-94642791D01*
X143999000Y-95144976D01*
X143926644Y-95183652D01*
X143831354Y-95261854D01*
X143753152Y-95357144D01*
X143695042Y-95465859D01*
X143659259Y-95583823D01*
X143647176Y-95706500D01*
X143647176Y-97206500D01*
X143659259Y-97329177D01*
X143695042Y-97447141D01*
X143753152Y-97555856D01*
X143831354Y-97651146D01*
X143926644Y-97729348D01*
X144035359Y-97787458D01*
X144153323Y-97823241D01*
X144276000Y-97835324D01*
X144776000Y-97835324D01*
X144898677Y-97823241D01*
X145016641Y-97787458D01*
X145125356Y-97729348D01*
X145220646Y-97651146D01*
X145298848Y-97555856D01*
X145356958Y-97447141D01*
X145392741Y-97329177D01*
X145404824Y-97206500D01*
X145404824Y-95706500D01*
X145392741Y-95583823D01*
X145356958Y-95465859D01*
X145298848Y-95357144D01*
X145220646Y-95261854D01*
X145125356Y-95183652D01*
X145053000Y-95144976D01*
X145053000Y-94450381D01*
X145055549Y-94424500D01*
X145045374Y-94321190D01*
X145015239Y-94221851D01*
X145015239Y-94221850D01*
X144966304Y-94130298D01*
X144900448Y-94050052D01*
X144880344Y-94033553D01*
X143892465Y-93045676D01*
X143875958Y-93025562D01*
X143795712Y-92959706D01*
X143704160Y-92910771D01*
X143604820Y-92880636D01*
X143527391Y-92873010D01*
X143501510Y-92870461D01*
X143475629Y-92873010D01*
X142177000Y-92873010D01*
X142177000Y-89480793D01*
X142180033Y-89449999D01*
X142167927Y-89327087D01*
X142162409Y-89308897D01*
X142132075Y-89208897D01*
X142073853Y-89099972D01*
X141995501Y-89004499D01*
X141971573Y-88984862D01*
X141715135Y-88728424D01*
X141715130Y-88728418D01*
X141268761Y-88282049D01*
X141247141Y-88173357D01*
X141188569Y-88031952D01*
X141103536Y-87904691D01*
X140995309Y-87796464D01*
X140868048Y-87711431D01*
X140726643Y-87652859D01*
X140576528Y-87623000D01*
X140423472Y-87623000D01*
X140273357Y-87652859D01*
X140131952Y-87711431D01*
X140004691Y-87796464D01*
X139896464Y-87904691D01*
X139811431Y-88031952D01*
X139752859Y-88173357D01*
X139723000Y-88323472D01*
X138632148Y-88323472D01*
X138694202Y-88290304D01*
X138774448Y-88224448D01*
X138790955Y-88204334D01*
X139618290Y-87377000D01*
X139726528Y-87377000D01*
X139876643Y-87347141D01*
X140018048Y-87288569D01*
X140145309Y-87203536D01*
X140253536Y-87095309D01*
X140338569Y-86968048D01*
X140397141Y-86826643D01*
X140427000Y-86676528D01*
X140427000Y-86523472D01*
X140397141Y-86373357D01*
X140338569Y-86231952D01*
X140253536Y-86104691D01*
X140145309Y-85996464D01*
X140018048Y-85911431D01*
X139876643Y-85852859D01*
X139726528Y-85823000D01*
X139573472Y-85823000D01*
X139423357Y-85852859D01*
X139281952Y-85911431D01*
X139154691Y-85996464D01*
X139046464Y-86104691D01*
X138961431Y-86231952D01*
X138902859Y-86373357D01*
X138873000Y-86523472D01*
X138873000Y-86631710D01*
X138181711Y-87323000D01*
X129375881Y-87323000D01*
X129350000Y-87320451D01*
X129324119Y-87323000D01*
X129246690Y-87330626D01*
X129147350Y-87360761D01*
X129055798Y-87409696D01*
X128975552Y-87475552D01*
X128959054Y-87495656D01*
X126945666Y-89509045D01*
X126925552Y-89525552D01*
X126859696Y-89605798D01*
X126852123Y-89619967D01*
X126810761Y-89697351D01*
X126780626Y-89796691D01*
X126770451Y-89900000D01*
X126773000Y-89925881D01*
X126773001Y-91681708D01*
X126031712Y-92422999D01*
X122567266Y-92422999D01*
X122631210Y-92359055D01*
X122727187Y-92215415D01*
X122793297Y-92055811D01*
X122827000Y-91886377D01*
X122827000Y-91713623D01*
X122793297Y-91544189D01*
X122727187Y-91384585D01*
X122631210Y-91240945D01*
X122509055Y-91118790D01*
X122365415Y-91022813D01*
X122205811Y-90956703D01*
X122036377Y-90923000D01*
X121863623Y-90923000D01*
X121694189Y-90956703D01*
X121534585Y-91022813D01*
X121390945Y-91118790D01*
X121268790Y-91240945D01*
X121172813Y-91384585D01*
X121106703Y-91544189D01*
X121073000Y-91713623D01*
X121073000Y-91886377D01*
X121106703Y-92055811D01*
X121172813Y-92215415D01*
X121268790Y-92359055D01*
X121390945Y-92481210D01*
X121534585Y-92577187D01*
X121694189Y-92643297D01*
X121863623Y-92677000D01*
X121977709Y-92677000D01*
X121181711Y-93473000D01*
X121021845Y-93473000D01*
X120945309Y-93396464D01*
X120818048Y-93311431D01*
X120676643Y-93252859D01*
X120526528Y-93223000D01*
X120373472Y-93223000D01*
X120223357Y-93252859D01*
X120081952Y-93311431D01*
X119954691Y-93396464D01*
X119846464Y-93504691D01*
X119761431Y-93631952D01*
X119702859Y-93773357D01*
X119673000Y-93923472D01*
X119673000Y-94076528D01*
X119702859Y-94226643D01*
X119761431Y-94368048D01*
X119846464Y-94495309D01*
X119954691Y-94603536D01*
X120081952Y-94688569D01*
X120223357Y-94747141D01*
X120373472Y-94777000D01*
X120526528Y-94777000D01*
X120676643Y-94747141D01*
X120818048Y-94688569D01*
X120945309Y-94603536D01*
X121021845Y-94527000D01*
X121121288Y-94527000D01*
X118078423Y-97569866D01*
X118054500Y-97589499D01*
X117976148Y-97684972D01*
X117949477Y-97734870D01*
X117917926Y-97793897D01*
X117882073Y-97912088D01*
X117869967Y-98035000D01*
X117873001Y-98065804D01*
X117873000Y-100589807D01*
X117811431Y-100681952D01*
X117752859Y-100823357D01*
X117723000Y-100973472D01*
X115911646Y-100973472D01*
X115898702Y-100957700D01*
X115887887Y-100948824D01*
X115917950Y-100918761D01*
X116026643Y-100897141D01*
X116168048Y-100838569D01*
X116295309Y-100753536D01*
X116403536Y-100645309D01*
X116488569Y-100518048D01*
X116547141Y-100376643D01*
X116577000Y-100226528D01*
X116577000Y-100073472D01*
X116547141Y-99923357D01*
X116488569Y-99781952D01*
X116403536Y-99654691D01*
X116295309Y-99546464D01*
X116168048Y-99461431D01*
X116026643Y-99402859D01*
X115876528Y-99373000D01*
X115723472Y-99373000D01*
X115573357Y-99402859D01*
X115431952Y-99461431D01*
X115304691Y-99546464D01*
X115196464Y-99654691D01*
X115111431Y-99781952D01*
X115052859Y-99923357D01*
X115052493Y-99925199D01*
X109077993Y-99925199D01*
X109019569Y-99784152D01*
X108934536Y-99656891D01*
X108826309Y-99548664D01*
X108699048Y-99463631D01*
X108557643Y-99405059D01*
X108407528Y-99375200D01*
X108254472Y-99375200D01*
X108104357Y-99405059D01*
X107962952Y-99463631D01*
X107835691Y-99548664D01*
X107727464Y-99656891D01*
X107642431Y-99784152D01*
X107583859Y-99925557D01*
X107554000Y-100075672D01*
X99177000Y-100075672D01*
X99177000Y-100073472D01*
X99147141Y-99923357D01*
X99088569Y-99781952D01*
X99003536Y-99654691D01*
X98895309Y-99546464D01*
X98768048Y-99461431D01*
X98626643Y-99402859D01*
X98476528Y-99373000D01*
X98323472Y-99373000D01*
X98173357Y-99402859D01*
X98031952Y-99461431D01*
X97939807Y-99523000D01*
X96967714Y-99523000D01*
X95223140Y-97778427D01*
X95203503Y-97754499D01*
X95108030Y-97676147D01*
X94999105Y-97617925D01*
X94880915Y-97582073D01*
X94788796Y-97573000D01*
X94758002Y-97569967D01*
X94727208Y-97573000D01*
X93860193Y-97573000D01*
X93768048Y-97511431D01*
X93626643Y-97452859D01*
X93476528Y-97423000D01*
X93323472Y-97423000D01*
X93173357Y-97452859D01*
X93031952Y-97511431D01*
X92904691Y-97596464D01*
X92796464Y-97704691D01*
X92711431Y-97831952D01*
X92652859Y-97973357D01*
X92623000Y-98123472D01*
X90627000Y-98123472D01*
X90627000Y-93573472D01*
X108073000Y-93573472D01*
X108073000Y-93726528D01*
X108102859Y-93876643D01*
X108161431Y-94018048D01*
X108246464Y-94145309D01*
X108354691Y-94253536D01*
X108481952Y-94338569D01*
X108623357Y-94397141D01*
X108773472Y-94427000D01*
X108881711Y-94427000D01*
X111559049Y-97104339D01*
X111575552Y-97124448D01*
X111655798Y-97190304D01*
X111747350Y-97239239D01*
X111846690Y-97269374D01*
X111949999Y-97279549D01*
X111975880Y-97277000D01*
X115028155Y-97277000D01*
X115054691Y-97303536D01*
X115181952Y-97388569D01*
X115323357Y-97447141D01*
X115473472Y-97477000D01*
X115626528Y-97477000D01*
X115776643Y-97447141D01*
X115918048Y-97388569D01*
X116045309Y-97303536D01*
X116153536Y-97195309D01*
X116238569Y-97068048D01*
X116297141Y-96926643D01*
X116327000Y-96776528D01*
X116327000Y-96623472D01*
X116297141Y-96473357D01*
X116238569Y-96331952D01*
X116153536Y-96204691D01*
X116045309Y-96096464D01*
X115918048Y-96011431D01*
X115776643Y-95952859D01*
X115626528Y-95923000D01*
X115473472Y-95923000D01*
X115323357Y-95952859D01*
X115181952Y-96011431D01*
X115054691Y-96096464D01*
X114946464Y-96204691D01*
X114934230Y-96223000D01*
X112168290Y-96223000D01*
X109627000Y-93681711D01*
X109627000Y-93573472D01*
X109597141Y-93423357D01*
X109538569Y-93281952D01*
X109453536Y-93154691D01*
X109345309Y-93046464D01*
X109218048Y-92961431D01*
X109076643Y-92902859D01*
X108926528Y-92873000D01*
X108773472Y-92873000D01*
X108623357Y-92902859D01*
X108481952Y-92961431D01*
X108354691Y-93046464D01*
X108246464Y-93154691D01*
X108161431Y-93281952D01*
X108102859Y-93423357D01*
X108073000Y-93573472D01*
X90627000Y-93573472D01*
X90627000Y-89973472D01*
X97873000Y-89973472D01*
X97873000Y-90126528D01*
X97902859Y-90276643D01*
X97961431Y-90418048D01*
X98023001Y-90510194D01*
X98023000Y-92039807D01*
X97961431Y-92131952D01*
X97902859Y-92273357D01*
X97873000Y-92423472D01*
X97873000Y-92576528D01*
X97902859Y-92726643D01*
X97961431Y-92868048D01*
X98046464Y-92995309D01*
X98154691Y-93103536D01*
X98281952Y-93188569D01*
X98423357Y-93247141D01*
X98573472Y-93277000D01*
X98726528Y-93277000D01*
X98876643Y-93247141D01*
X99018048Y-93188569D01*
X99145309Y-93103536D01*
X99253536Y-92995309D01*
X99338569Y-92868048D01*
X99397141Y-92726643D01*
X99427000Y-92576528D01*
X99427000Y-92423472D01*
X99397141Y-92273357D01*
X99338569Y-92131952D01*
X99277000Y-92039807D01*
X99277000Y-90950000D01*
X115521176Y-90950000D01*
X115521176Y-91950000D01*
X115528455Y-92023905D01*
X115550012Y-92094970D01*
X115585019Y-92160463D01*
X115632131Y-92217869D01*
X115663534Y-92243641D01*
X115622813Y-92304585D01*
X115556703Y-92464189D01*
X115523000Y-92633623D01*
X115523000Y-92806377D01*
X115556703Y-92975811D01*
X115622813Y-93135415D01*
X115718790Y-93279055D01*
X115840945Y-93401210D01*
X115984585Y-93497187D01*
X116144189Y-93563297D01*
X116313623Y-93597000D01*
X116486377Y-93597000D01*
X116655811Y-93563297D01*
X116815415Y-93497187D01*
X116959055Y-93401210D01*
X117081210Y-93279055D01*
X117177187Y-93135415D01*
X117243297Y-92975811D01*
X117277000Y-92806377D01*
X117277000Y-92633623D01*
X117243297Y-92464189D01*
X117177187Y-92304585D01*
X117136466Y-92243641D01*
X117167869Y-92217869D01*
X117214981Y-92160463D01*
X117249988Y-92094970D01*
X117271545Y-92023905D01*
X117278824Y-91950000D01*
X117278824Y-90950000D01*
X117271545Y-90876095D01*
X117249988Y-90805030D01*
X117214981Y-90739537D01*
X117167869Y-90682131D01*
X117110463Y-90635019D01*
X117044970Y-90600012D01*
X116973905Y-90578455D01*
X116900000Y-90571176D01*
X115900000Y-90571176D01*
X115826095Y-90578455D01*
X115755030Y-90600012D01*
X115689537Y-90635019D01*
X115632131Y-90682131D01*
X115585019Y-90739537D01*
X115550012Y-90805030D01*
X115528455Y-90876095D01*
X115521176Y-90950000D01*
X99277000Y-90950000D01*
X99277000Y-90510193D01*
X99338569Y-90418048D01*
X99397141Y-90276643D01*
X99427000Y-90126528D01*
X99427000Y-89973472D01*
X99397141Y-89823357D01*
X99338569Y-89681952D01*
X99253536Y-89554691D01*
X99145309Y-89446464D01*
X99018048Y-89361431D01*
X98876643Y-89302859D01*
X98726528Y-89273000D01*
X98573472Y-89273000D01*
X98423357Y-89302859D01*
X98281952Y-89361431D01*
X98154691Y-89446464D01*
X98046464Y-89554691D01*
X97961431Y-89681952D01*
X97902859Y-89823357D01*
X97873000Y-89973472D01*
X90627000Y-89973472D01*
X90627000Y-89123472D01*
X109623000Y-89123472D01*
X109623000Y-89276528D01*
X109652859Y-89426643D01*
X109711431Y-89568048D01*
X109796464Y-89695309D01*
X109904691Y-89803536D01*
X110031952Y-89888569D01*
X110173357Y-89947141D01*
X110323472Y-89977000D01*
X110476528Y-89977000D01*
X110626643Y-89947141D01*
X110768048Y-89888569D01*
X110860193Y-89827000D01*
X115889807Y-89827000D01*
X115981952Y-89888569D01*
X116123357Y-89947141D01*
X116273472Y-89977000D01*
X116426528Y-89977000D01*
X116576643Y-89947141D01*
X116718048Y-89888569D01*
X116845309Y-89803536D01*
X116953536Y-89695309D01*
X117038569Y-89568048D01*
X117097141Y-89426643D01*
X117127000Y-89276528D01*
X117127000Y-89123472D01*
X117097141Y-88973357D01*
X117038569Y-88831952D01*
X116953536Y-88704691D01*
X116845309Y-88596464D01*
X116718048Y-88511431D01*
X116576643Y-88452859D01*
X116426528Y-88423000D01*
X116273472Y-88423000D01*
X116123357Y-88452859D01*
X115981952Y-88511431D01*
X115889807Y-88573000D01*
X110860193Y-88573000D01*
X110768048Y-88511431D01*
X110626643Y-88452859D01*
X110476528Y-88423000D01*
X110323472Y-88423000D01*
X110173357Y-88452859D01*
X110031952Y-88511431D01*
X109904691Y-88596464D01*
X109796464Y-88704691D01*
X109711431Y-88831952D01*
X109652859Y-88973357D01*
X109623000Y-89123472D01*
X90627000Y-89123472D01*
X90627000Y-86877000D01*
X118200000Y-86877000D01*
X118224776Y-86874560D01*
X118248601Y-86867333D01*
X118270557Y-86855597D01*
X118289803Y-86839803D01*
X118305597Y-86820557D01*
X118317333Y-86798601D01*
X118324560Y-86774776D01*
X118327000Y-86750000D01*
X118327000Y-83473472D01*
X122023000Y-83473472D01*
X122023000Y-83626528D01*
X122052859Y-83776643D01*
X122111431Y-83918048D01*
X122196464Y-84045309D01*
X122304691Y-84153536D01*
X122431952Y-84238569D01*
X122573357Y-84297141D01*
X122723472Y-84327000D01*
X122876528Y-84327000D01*
X123026643Y-84297141D01*
X123168048Y-84238569D01*
X123295309Y-84153536D01*
X123403536Y-84045309D01*
X123488569Y-83918048D01*
X123547141Y-83776643D01*
X123577000Y-83626528D01*
X123577000Y-83518289D01*
X124718290Y-82377000D01*
X124826528Y-82377000D01*
X124976643Y-82347141D01*
X125118048Y-82288569D01*
X125245309Y-82203536D01*
X125353536Y-82095309D01*
X125438569Y-81968048D01*
X125497141Y-81826643D01*
X125527000Y-81676528D01*
X125527000Y-81523472D01*
X125497141Y-81373357D01*
X125438569Y-81231952D01*
X125353536Y-81104691D01*
X125245309Y-80996464D01*
X125118048Y-80911431D01*
X124976643Y-80852859D01*
X124826528Y-80823000D01*
X124673472Y-80823000D01*
X124523357Y-80852859D01*
X124381952Y-80911431D01*
X124254691Y-80996464D01*
X124146464Y-81104691D01*
X124061431Y-81231952D01*
X124002859Y-81373357D01*
X123973000Y-81523472D01*
X123973000Y-81631710D01*
X122831711Y-82773000D01*
X122723472Y-82773000D01*
X122573357Y-82802859D01*
X122431952Y-82861431D01*
X122304691Y-82946464D01*
X122196464Y-83054691D01*
X122111431Y-83181952D01*
X122052859Y-83323357D01*
X122023000Y-83473472D01*
X118327000Y-83473472D01*
X118327000Y-80727000D01*
X152968246Y-80727000D01*
X152961553Y-80735156D01*
%TA.AperFunction,Conductor*%
D23*
G36*
X152961553Y-80735156D02*
G01*
X152223181Y-81473529D01*
X152160000Y-81467306D01*
X151929268Y-81490031D01*
X151707403Y-81557333D01*
X151502930Y-81666626D01*
X151323709Y-81813709D01*
X151176626Y-81992931D01*
X151067333Y-82197404D01*
X151000031Y-82419269D01*
X150983000Y-82592189D01*
X150983000Y-83107812D01*
X151000031Y-83280732D01*
X151027284Y-83370572D01*
X150794088Y-83137377D01*
X150797000Y-83107811D01*
X150797000Y-82592188D01*
X150779969Y-82419268D01*
X150712667Y-82197403D01*
X150603374Y-81992930D01*
X150456291Y-81813709D01*
X150277069Y-81666626D01*
X150072596Y-81557333D01*
X149850731Y-81490031D01*
X149620000Y-81467306D01*
X149389268Y-81490031D01*
X149167403Y-81557333D01*
X148962930Y-81666626D01*
X148783709Y-81813709D01*
X148636626Y-81992931D01*
X148527333Y-82197404D01*
X148460031Y-82419269D01*
X148443000Y-82592189D01*
X148443000Y-83107812D01*
X148460031Y-83280732D01*
X148527333Y-83502597D01*
X148636627Y-83707070D01*
X148783710Y-83886291D01*
X148962931Y-84033374D01*
X149167404Y-84142667D01*
X149389269Y-84209969D01*
X149620000Y-84232694D01*
X149850732Y-84209969D01*
X150036811Y-84153522D01*
X152220366Y-86337078D01*
X152239999Y-86361001D01*
X152335472Y-86439353D01*
X152444397Y-86497575D01*
X152562587Y-86533427D01*
X152685500Y-86545533D01*
X152716294Y-86542500D01*
X162148206Y-86542500D01*
X162179000Y-86545533D01*
X162209794Y-86542500D01*
X162301913Y-86533427D01*
X162420103Y-86497575D01*
X162529028Y-86439353D01*
X162624501Y-86361001D01*
X162644138Y-86337073D01*
X163680074Y-85301137D01*
X163704001Y-85281501D01*
X163782353Y-85186028D01*
X163782354Y-85186027D01*
X163840575Y-85077104D01*
X163876427Y-84958913D01*
X163888533Y-84836000D01*
X163885500Y-84805206D01*
X163885500Y-84117661D01*
X163953146Y-84062146D01*
X164031348Y-83966856D01*
X164089458Y-83858141D01*
X164125241Y-83740177D01*
X164137324Y-83617500D01*
X164137324Y-82117500D01*
X164125241Y-81994823D01*
X164089458Y-81876859D01*
X164031348Y-81768144D01*
X163953146Y-81672854D01*
X163857856Y-81594652D01*
X163749141Y-81536542D01*
X163631177Y-81500759D01*
X163508500Y-81488676D01*
X163008500Y-81488676D01*
X162885823Y-81500759D01*
X162767859Y-81536542D01*
X162659144Y-81594652D01*
X162563854Y-81672854D01*
X162485652Y-81768144D01*
X162427542Y-81876859D01*
X162391759Y-81994823D01*
X162379676Y-82117500D01*
X162379676Y-83617500D01*
X162391759Y-83740177D01*
X162427542Y-83858141D01*
X162485652Y-83966856D01*
X162563854Y-84062146D01*
X162631500Y-84117662D01*
X162631500Y-84576289D01*
X161919289Y-85288500D01*
X160439789Y-85288500D01*
X161390339Y-84337951D01*
X161410448Y-84321448D01*
X161476304Y-84241202D01*
X161493831Y-84208410D01*
X161526641Y-84198458D01*
X161635356Y-84140348D01*
X161730646Y-84062146D01*
X161808848Y-83966856D01*
X161866958Y-83858141D01*
X161902741Y-83740177D01*
X161914824Y-83617500D01*
X161914824Y-82117500D01*
X161902741Y-81994823D01*
X161866958Y-81876859D01*
X161808848Y-81768144D01*
X161730646Y-81672854D01*
X161635356Y-81594652D01*
X161526641Y-81536542D01*
X161408677Y-81500759D01*
X161286000Y-81488676D01*
X160786000Y-81488676D01*
X160663323Y-81500759D01*
X160545359Y-81536542D01*
X160436644Y-81594652D01*
X160341354Y-81672854D01*
X160263152Y-81768144D01*
X160205042Y-81876859D01*
X160169259Y-81994823D01*
X160157176Y-82117500D01*
X160157176Y-83617500D01*
X160169259Y-83740177D01*
X160205042Y-83858141D01*
X160263152Y-83966856D01*
X160266624Y-83971086D01*
X159547711Y-84690000D01*
X155920290Y-84690000D01*
X155296199Y-84065910D01*
X155357070Y-84033374D01*
X155536291Y-83886291D01*
X155683374Y-83707070D01*
X155792667Y-83502596D01*
X155859969Y-83280731D01*
X155877000Y-83107811D01*
X155877000Y-82592188D01*
X155859969Y-82419268D01*
X155792667Y-82197403D01*
X155683374Y-81992930D01*
X155536291Y-81813709D01*
X155357069Y-81666626D01*
X155263290Y-81616500D01*
X156817211Y-81616500D01*
X157934676Y-82733966D01*
X157934676Y-83617500D01*
X157946759Y-83740177D01*
X157982542Y-83858141D01*
X158040652Y-83966856D01*
X158118854Y-84062146D01*
X158214144Y-84140348D01*
X158322859Y-84198458D01*
X158440823Y-84234241D01*
X158563500Y-84246324D01*
X159063500Y-84246324D01*
X159186177Y-84234241D01*
X159304141Y-84198458D01*
X159412856Y-84140348D01*
X159508146Y-84062146D01*
X159586348Y-83966856D01*
X159644458Y-83858141D01*
X159680241Y-83740177D01*
X159692324Y-83617500D01*
X159692324Y-82117500D01*
X159680241Y-81994823D01*
X159644458Y-81876859D01*
X159586348Y-81768144D01*
X159508146Y-81672854D01*
X159412856Y-81594652D01*
X159304141Y-81536542D01*
X159186177Y-81500759D01*
X159063500Y-81488676D01*
X158563500Y-81488676D01*
X158440823Y-81500759D01*
X158322859Y-81536542D01*
X158260933Y-81569643D01*
X157426455Y-80735166D01*
X157419753Y-80727000D01*
X169873000Y-80727000D01*
X169873000Y-86490171D01*
X169799450Y-86400550D01*
X169574547Y-86215978D01*
X169317958Y-86078828D01*
X169039543Y-85994371D01*
X168822556Y-85973000D01*
X167377444Y-85973000D01*
X167160457Y-85994371D01*
X166882042Y-86078828D01*
X166625453Y-86215978D01*
X166400550Y-86400550D01*
X166215978Y-86625453D01*
X166078828Y-86882042D01*
X165994371Y-87160457D01*
X165965854Y-87450000D01*
X165994371Y-87739543D01*
X166078828Y-88017958D01*
X166215978Y-88274547D01*
X166400550Y-88499450D01*
X166625453Y-88684022D01*
X166783448Y-88768472D01*
X166658400Y-88920843D01*
X166553750Y-89116629D01*
X166489307Y-89329069D01*
X166467547Y-89550000D01*
X166489307Y-89770931D01*
X166553750Y-89983371D01*
X166658400Y-90179157D01*
X166799235Y-90350765D01*
X166970843Y-90491600D01*
X167080102Y-90550000D01*
X166970843Y-90608400D01*
X166799235Y-90749235D01*
X166658400Y-90920843D01*
X166553750Y-91116629D01*
X166489307Y-91329069D01*
X166467547Y-91550000D01*
X166489307Y-91770931D01*
X166553750Y-91983371D01*
X166658400Y-92179157D01*
X166799235Y-92350765D01*
X166885031Y-92421176D01*
X166850000Y-92421176D01*
X166776095Y-92428455D01*
X166705030Y-92450012D01*
X166639537Y-92485019D01*
X166582131Y-92532131D01*
X166535019Y-92589537D01*
X166500012Y-92655030D01*
X166478455Y-92726095D01*
X166471176Y-92800000D01*
X166471176Y-92908500D01*
X162041824Y-92908500D01*
X162041824Y-92785500D01*
X162029741Y-92662823D01*
X161993958Y-92544859D01*
X161935848Y-92436144D01*
X161857646Y-92340854D01*
X161762356Y-92262652D01*
X161653641Y-92204542D01*
X161535677Y-92168759D01*
X161413000Y-92156676D01*
X160913000Y-92156676D01*
X160790323Y-92168759D01*
X160672359Y-92204542D01*
X160563644Y-92262652D01*
X160468354Y-92340854D01*
X160390152Y-92436144D01*
X160332042Y-92544859D01*
X160296259Y-92662823D01*
X160284176Y-92785500D01*
X160284176Y-94285500D01*
X160296259Y-94408177D01*
X160332042Y-94526141D01*
X160390152Y-94634856D01*
X160468354Y-94730146D01*
X160563644Y-94808348D01*
X160672359Y-94866458D01*
X160790323Y-94902241D01*
X160913000Y-94914324D01*
X161413000Y-94914324D01*
X161535677Y-94902241D01*
X161653641Y-94866458D01*
X161762356Y-94808348D01*
X161857646Y-94730146D01*
X161935848Y-94634856D01*
X161993958Y-94526141D01*
X162029741Y-94408177D01*
X162041824Y-94285500D01*
X162041824Y-94162500D01*
X166471176Y-94162500D01*
X166471176Y-94300000D01*
X166478455Y-94373905D01*
X166500012Y-94444970D01*
X166527489Y-94496375D01*
X166400550Y-94600550D01*
X166215978Y-94825453D01*
X166078828Y-95082042D01*
X165994371Y-95360457D01*
X165965854Y-95650000D01*
X165994371Y-95939543D01*
X166078828Y-96217958D01*
X166215978Y-96474547D01*
X166400550Y-96699450D01*
X166625453Y-96884022D01*
X166882042Y-97021172D01*
X167160457Y-97105629D01*
X167377444Y-97127000D01*
X168822556Y-97127000D01*
X169039543Y-97105629D01*
X169317958Y-97021172D01*
X169574547Y-96884022D01*
X169799450Y-96699450D01*
X169873000Y-96609829D01*
X169873000Y-120873000D01*
X90627000Y-120873000D01*
X90627000Y-118693872D01*
X117536200Y-118693872D01*
X117536200Y-118846928D01*
X117566059Y-118997043D01*
X117624631Y-119138448D01*
X117709664Y-119265709D01*
X117817891Y-119373936D01*
X117945152Y-119458969D01*
X118086557Y-119517541D01*
X118236672Y-119547400D01*
X118389728Y-119547400D01*
X118539843Y-119517541D01*
X118681248Y-119458969D01*
X118808509Y-119373936D01*
X118885045Y-119297400D01*
X118945676Y-119297400D01*
X118945676Y-120066500D01*
X118957759Y-120189177D01*
X118993542Y-120307141D01*
X119051652Y-120415856D01*
X119129854Y-120511146D01*
X119225144Y-120589348D01*
X119333859Y-120647458D01*
X119451823Y-120683241D01*
X119574500Y-120695324D01*
X120074500Y-120695324D01*
X120197177Y-120683241D01*
X120315141Y-120647458D01*
X120423856Y-120589348D01*
X120519146Y-120511146D01*
X120597348Y-120415856D01*
X120650000Y-120317352D01*
X120702652Y-120415856D01*
X120780854Y-120511146D01*
X120876144Y-120589348D01*
X120984859Y-120647458D01*
X121102823Y-120683241D01*
X121225500Y-120695324D01*
X121725500Y-120695324D01*
X121848177Y-120683241D01*
X121966141Y-120647458D01*
X122074856Y-120589348D01*
X122170146Y-120511146D01*
X122248348Y-120415856D01*
X122306458Y-120307141D01*
X122342241Y-120189177D01*
X122354324Y-120066500D01*
X122354324Y-119843500D01*
X122592619Y-119843500D01*
X122618500Y-119846049D01*
X122644381Y-119843500D01*
X122721810Y-119835874D01*
X122821150Y-119805739D01*
X122912702Y-119756804D01*
X122992948Y-119690948D01*
X123009455Y-119670834D01*
X123607844Y-119072447D01*
X123627948Y-119055948D01*
X123693804Y-118975702D01*
X123742739Y-118884150D01*
X123772874Y-118784810D01*
X123780500Y-118707381D01*
X123783049Y-118681500D01*
X123780500Y-118655619D01*
X123780500Y-118110345D01*
X123857036Y-118033809D01*
X123942069Y-117906548D01*
X124000641Y-117765143D01*
X124030500Y-117615028D01*
X124030500Y-117461972D01*
X124000641Y-117311857D01*
X123942069Y-117170452D01*
X123857036Y-117043191D01*
X123748809Y-116934964D01*
X123621548Y-116849931D01*
X123480143Y-116791359D01*
X123330028Y-116761500D01*
X123176972Y-116761500D01*
X123026857Y-116791359D01*
X122885452Y-116849931D01*
X122758191Y-116934964D01*
X122649964Y-117043191D01*
X122564931Y-117170452D01*
X122506359Y-117311857D01*
X122476500Y-117461972D01*
X122476500Y-117615028D01*
X122506359Y-117765143D01*
X122564931Y-117906548D01*
X122649964Y-118033809D01*
X122726501Y-118110346D01*
X122726501Y-118463209D01*
X122400210Y-118789500D01*
X122354324Y-118789500D01*
X122354324Y-118566500D01*
X122342241Y-118443823D01*
X122306458Y-118325859D01*
X122248348Y-118217144D01*
X122170146Y-118121854D01*
X122074856Y-118043652D01*
X121966141Y-117985542D01*
X121848177Y-117949759D01*
X121725500Y-117937676D01*
X121225500Y-117937676D01*
X121102823Y-117949759D01*
X120984859Y-117985542D01*
X120876144Y-118043652D01*
X120780854Y-118121854D01*
X120702652Y-118217144D01*
X120650000Y-118315648D01*
X120597348Y-118217144D01*
X120519146Y-118121854D01*
X120423856Y-118043652D01*
X120315141Y-117985542D01*
X120197177Y-117949759D01*
X120074500Y-117937676D01*
X119574500Y-117937676D01*
X119451823Y-117949759D01*
X119333859Y-117985542D01*
X119225144Y-118043652D01*
X119129854Y-118121854D01*
X119051652Y-118217144D01*
X119037618Y-118243400D01*
X118885045Y-118243400D01*
X118808509Y-118166864D01*
X118681248Y-118081831D01*
X118539843Y-118023259D01*
X118389728Y-117993400D01*
X118236672Y-117993400D01*
X118086557Y-118023259D01*
X117945152Y-118081831D01*
X117817891Y-118166864D01*
X117709664Y-118275091D01*
X117624631Y-118402352D01*
X117566059Y-118543757D01*
X117536200Y-118693872D01*
X90627000Y-118693872D01*
X90627000Y-114573472D01*
X102123000Y-114573472D01*
X102123000Y-114726528D01*
X102152859Y-114876643D01*
X102211431Y-115018048D01*
X102296464Y-115145309D01*
X102404691Y-115253536D01*
X102531952Y-115338569D01*
X102673357Y-115397141D01*
X102782049Y-115418761D01*
X103211570Y-115848282D01*
X103233190Y-115956974D01*
X103291762Y-116098379D01*
X103376795Y-116225640D01*
X103485022Y-116333867D01*
X103612283Y-116418900D01*
X103753688Y-116477472D01*
X103903803Y-116507331D01*
X104056859Y-116507331D01*
X104206974Y-116477472D01*
X104348379Y-116418900D01*
X104475640Y-116333867D01*
X104583867Y-116225640D01*
X104668900Y-116098379D01*
X104727472Y-115956974D01*
X104757331Y-115806859D01*
X104757331Y-115653803D01*
X104727472Y-115503688D01*
X104668900Y-115362283D01*
X104583867Y-115235022D01*
X104475640Y-115126795D01*
X104348379Y-115041762D01*
X104206974Y-114983190D01*
X104098282Y-114961570D01*
X103668761Y-114532049D01*
X103647141Y-114423357D01*
X103588569Y-114281952D01*
X103503536Y-114154691D01*
X103395309Y-114046464D01*
X103268048Y-113961431D01*
X103126643Y-113902859D01*
X102976528Y-113873000D01*
X102823472Y-113873000D01*
X102673357Y-113902859D01*
X102531952Y-113961431D01*
X102404691Y-114046464D01*
X102296464Y-114154691D01*
X102211431Y-114281952D01*
X102152859Y-114423357D01*
X102123000Y-114573472D01*
X90627000Y-114573472D01*
X90627000Y-113684924D01*
X90661431Y-113768048D01*
X90746464Y-113895309D01*
X90854691Y-114003536D01*
X90981952Y-114088569D01*
X91123357Y-114147141D01*
X91273472Y-114177000D01*
X91426528Y-114177000D01*
X91576643Y-114147141D01*
X91718048Y-114088569D01*
X91845309Y-114003536D01*
X91871176Y-113977669D01*
X91871176Y-114100000D01*
X91878455Y-114173905D01*
X91900012Y-114244970D01*
X91935019Y-114310463D01*
X91982131Y-114367869D01*
X92039537Y-114414981D01*
X92105030Y-114449988D01*
X92176095Y-114471545D01*
X92250000Y-114478824D01*
X95450000Y-114478824D01*
X95523905Y-114471545D01*
X95594970Y-114449988D01*
X95660463Y-114414981D01*
X95717869Y-114367869D01*
X95764981Y-114310463D01*
X95799988Y-114244970D01*
X95821545Y-114173905D01*
X95828824Y-114100000D01*
X95828824Y-112427000D01*
X96790289Y-112427000D01*
X97231239Y-112867951D01*
X97252859Y-112976643D01*
X97311431Y-113118048D01*
X97396464Y-113245309D01*
X97504691Y-113353536D01*
X97631952Y-113438569D01*
X97773357Y-113497141D01*
X97923472Y-113527000D01*
X98076528Y-113527000D01*
X98226643Y-113497141D01*
X98368048Y-113438569D01*
X98495309Y-113353536D01*
X98603536Y-113245309D01*
X98688569Y-113118048D01*
X98747141Y-112976643D01*
X98777000Y-112826528D01*
X98777000Y-112673472D01*
X98747141Y-112523357D01*
X98688569Y-112381952D01*
X98603536Y-112254691D01*
X98522317Y-112173472D01*
X105723000Y-112173472D01*
X105723000Y-112326528D01*
X105752859Y-112476643D01*
X105811431Y-112618048D01*
X105896464Y-112745309D01*
X106004691Y-112853536D01*
X106131952Y-112938569D01*
X106273357Y-112997141D01*
X106423472Y-113027000D01*
X106576528Y-113027000D01*
X106726643Y-112997141D01*
X106868048Y-112938569D01*
X106995309Y-112853536D01*
X107071845Y-112777000D01*
X107424119Y-112777000D01*
X107450000Y-112779549D01*
X107475881Y-112777000D01*
X107553310Y-112769374D01*
X107652650Y-112739239D01*
X107744202Y-112690304D01*
X107824448Y-112624448D01*
X107840955Y-112604334D01*
X111404345Y-109040946D01*
X111424448Y-109024448D01*
X111490304Y-108944202D01*
X111528109Y-108873472D01*
X111723000Y-108873472D01*
X111723000Y-109026528D01*
X111752859Y-109176643D01*
X111811431Y-109318048D01*
X111896464Y-109445309D01*
X112004691Y-109553536D01*
X112131952Y-109638569D01*
X112273357Y-109697141D01*
X112423472Y-109727000D01*
X112531711Y-109727000D01*
X113173000Y-110368290D01*
X113173001Y-110878154D01*
X113096464Y-110954691D01*
X113011431Y-111081952D01*
X112952859Y-111223357D01*
X112923000Y-111373472D01*
X112923000Y-111526528D01*
X112952859Y-111676643D01*
X113011431Y-111818048D01*
X113096464Y-111945309D01*
X113204691Y-112053536D01*
X113331952Y-112138569D01*
X113473357Y-112197141D01*
X113623472Y-112227000D01*
X113776528Y-112227000D01*
X113926643Y-112197141D01*
X114068048Y-112138569D01*
X114195309Y-112053536D01*
X114303536Y-111945309D01*
X114388569Y-111818048D01*
X114447141Y-111676643D01*
X114477000Y-111526528D01*
X114477000Y-111373472D01*
X114447141Y-111223357D01*
X114388569Y-111081952D01*
X114303536Y-110954691D01*
X114227000Y-110878155D01*
X114227000Y-110175877D01*
X114229549Y-110149999D01*
X114226936Y-110123472D01*
X114219374Y-110046690D01*
X114189239Y-109947350D01*
X114140304Y-109855798D01*
X114074448Y-109775552D01*
X114054339Y-109759049D01*
X113277000Y-108981711D01*
X113277000Y-108873472D01*
X113247141Y-108723357D01*
X113188569Y-108581952D01*
X113103536Y-108454691D01*
X112995309Y-108346464D01*
X112868048Y-108261431D01*
X112726643Y-108202859D01*
X112576528Y-108173000D01*
X112423472Y-108173000D01*
X112273357Y-108202859D01*
X112131952Y-108261431D01*
X112004691Y-108346464D01*
X111896464Y-108454691D01*
X111811431Y-108581952D01*
X111752859Y-108723357D01*
X111723000Y-108873472D01*
X111528109Y-108873472D01*
X111539239Y-108852650D01*
X111569374Y-108753310D01*
X111577000Y-108675881D01*
X111577000Y-108675880D01*
X111579549Y-108650000D01*
X111577000Y-108624119D01*
X111577000Y-108071845D01*
X111653536Y-107995309D01*
X111738569Y-107868048D01*
X111797141Y-107726643D01*
X111827000Y-107576528D01*
X111827000Y-107423472D01*
X111797141Y-107273357D01*
X111738569Y-107131952D01*
X111653536Y-107004691D01*
X111545309Y-106896464D01*
X111418048Y-106811431D01*
X111276643Y-106752859D01*
X111126528Y-106723000D01*
X110973472Y-106723000D01*
X110823357Y-106752859D01*
X110681952Y-106811431D01*
X110554691Y-106896464D01*
X110450000Y-107001155D01*
X110345309Y-106896464D01*
X110218048Y-106811431D01*
X110076643Y-106752859D01*
X109926528Y-106723000D01*
X109773472Y-106723000D01*
X109623357Y-106752859D01*
X109481952Y-106811431D01*
X109354691Y-106896464D01*
X109246464Y-107004691D01*
X109161431Y-107131952D01*
X109102859Y-107273357D01*
X109073000Y-107423472D01*
X109073000Y-107531710D01*
X107181710Y-109423000D01*
X107073472Y-109423000D01*
X106923357Y-109452859D01*
X106781952Y-109511431D01*
X106654691Y-109596464D01*
X106546464Y-109704691D01*
X106461431Y-109831952D01*
X106402859Y-109973357D01*
X106373000Y-110123472D01*
X106373000Y-110276528D01*
X106402859Y-110426643D01*
X106461431Y-110568048D01*
X106546464Y-110695309D01*
X106654691Y-110803536D01*
X106781952Y-110888569D01*
X106923357Y-110947141D01*
X107073472Y-110977000D01*
X107226528Y-110977000D01*
X107376643Y-110947141D01*
X107518048Y-110888569D01*
X107645309Y-110803536D01*
X107753536Y-110695309D01*
X107838569Y-110568048D01*
X107897141Y-110426643D01*
X107927000Y-110276528D01*
X107927000Y-110168290D01*
X109818290Y-108277000D01*
X109926528Y-108277000D01*
X110076643Y-108247141D01*
X110218048Y-108188569D01*
X110345309Y-108103536D01*
X110450000Y-107998845D01*
X110523001Y-108071846D01*
X110523000Y-108431709D01*
X107231711Y-111723000D01*
X107071845Y-111723000D01*
X106995309Y-111646464D01*
X106868048Y-111561431D01*
X106726643Y-111502859D01*
X106576528Y-111473000D01*
X106423472Y-111473000D01*
X106273357Y-111502859D01*
X106131952Y-111561431D01*
X106004691Y-111646464D01*
X105896464Y-111754691D01*
X105811431Y-111881952D01*
X105752859Y-112023357D01*
X105723000Y-112173472D01*
X98522317Y-112173472D01*
X98495309Y-112146464D01*
X98368048Y-112061431D01*
X98226643Y-112002859D01*
X98117951Y-111981239D01*
X97515138Y-111378427D01*
X97495501Y-111354499D01*
X97400028Y-111276147D01*
X97291103Y-111217925D01*
X97172913Y-111182073D01*
X97080794Y-111173000D01*
X97050000Y-111169967D01*
X97019206Y-111173000D01*
X95828824Y-111173000D01*
X95828824Y-109900000D01*
X95821545Y-109826095D01*
X95799988Y-109755030D01*
X95764981Y-109689537D01*
X95717869Y-109632131D01*
X95660463Y-109585019D01*
X95594970Y-109550012D01*
X95523905Y-109528455D01*
X95450000Y-109521176D01*
X92250000Y-109521176D01*
X92176095Y-109528455D01*
X92105030Y-109550012D01*
X92039537Y-109585019D01*
X91982131Y-109632131D01*
X91935019Y-109689537D01*
X91900012Y-109755030D01*
X91878455Y-109826095D01*
X91871176Y-109900000D01*
X91871176Y-111373000D01*
X91780791Y-111373000D01*
X91749999Y-111369967D01*
X91719207Y-111373000D01*
X91719206Y-111373000D01*
X91627087Y-111382073D01*
X91508897Y-111417925D01*
X91399972Y-111476147D01*
X91304499Y-111554499D01*
X91284862Y-111578427D01*
X90928423Y-111934866D01*
X90904500Y-111954499D01*
X90826148Y-112049972D01*
X90786923Y-112123357D01*
X90767926Y-112158897D01*
X90732073Y-112277088D01*
X90719967Y-112400000D01*
X90723001Y-112430804D01*
X90723000Y-112939807D01*
X90661431Y-113031952D01*
X90627000Y-113115076D01*
X90627000Y-107873482D01*
X102123000Y-107873482D01*
X102123000Y-108026538D01*
X102152859Y-108176653D01*
X102211431Y-108318058D01*
X102296464Y-108445319D01*
X102404691Y-108553546D01*
X102531952Y-108638579D01*
X102673357Y-108697151D01*
X102823472Y-108727010D01*
X102976528Y-108727010D01*
X103126643Y-108697151D01*
X103268048Y-108638579D01*
X103395309Y-108553546D01*
X103503536Y-108445319D01*
X103588569Y-108318058D01*
X103647141Y-108176653D01*
X103677000Y-108026538D01*
X103677000Y-107873482D01*
X103647141Y-107723367D01*
X103588569Y-107581962D01*
X103527000Y-107489817D01*
X103527000Y-104809711D01*
X104267951Y-104068761D01*
X104376643Y-104047141D01*
X104518048Y-103988569D01*
X104645309Y-103903536D01*
X104753536Y-103795309D01*
X104838569Y-103668048D01*
X104897141Y-103526643D01*
X104927000Y-103376528D01*
X104927000Y-103223472D01*
X104897141Y-103073357D01*
X104838569Y-102931952D01*
X104753536Y-102804691D01*
X104645309Y-102696464D01*
X104518048Y-102611431D01*
X104376643Y-102552859D01*
X104226528Y-102523000D01*
X104073472Y-102523000D01*
X103923357Y-102552859D01*
X103781952Y-102611431D01*
X103654691Y-102696464D01*
X103546464Y-102804691D01*
X103461431Y-102931952D01*
X103402859Y-103073357D01*
X103381239Y-103182049D01*
X102478422Y-104084867D01*
X102454500Y-104104499D01*
X102376148Y-104199972D01*
X102317925Y-104308897D01*
X102282073Y-104427087D01*
X102282073Y-104427088D01*
X102269967Y-104550000D01*
X102273000Y-104580794D01*
X102273000Y-104830793D01*
X102273001Y-104830803D01*
X102273000Y-107489817D01*
X102211431Y-107581962D01*
X102152859Y-107723367D01*
X102123000Y-107873482D01*
X90627000Y-107873482D01*
X90627000Y-98123472D01*
X92623000Y-98123472D01*
X92623000Y-98276528D01*
X92652859Y-98426643D01*
X92711431Y-98568048D01*
X92796464Y-98695309D01*
X92904691Y-98803536D01*
X93031952Y-98888569D01*
X93173357Y-98947141D01*
X93323472Y-98977000D01*
X93476528Y-98977000D01*
X93626643Y-98947141D01*
X93768048Y-98888569D01*
X93860193Y-98827000D01*
X94498291Y-98827000D01*
X96242868Y-100571578D01*
X96262501Y-100595501D01*
X96357974Y-100673853D01*
X96466899Y-100732075D01*
X96585089Y-100767927D01*
X96677208Y-100777000D01*
X96677209Y-100777000D01*
X96708001Y-100780033D01*
X96738793Y-100777000D01*
X97939807Y-100777000D01*
X98031952Y-100838569D01*
X98173357Y-100897141D01*
X98323472Y-100927000D01*
X98476528Y-100927000D01*
X98626643Y-100897141D01*
X98768048Y-100838569D01*
X98895309Y-100753536D01*
X99003536Y-100645309D01*
X99088569Y-100518048D01*
X99147141Y-100376643D01*
X99177000Y-100226528D01*
X99177000Y-100075672D01*
X107554000Y-100075672D01*
X107554000Y-100228728D01*
X107583859Y-100378843D01*
X107642431Y-100520248D01*
X107727464Y-100647509D01*
X107835691Y-100755736D01*
X107962952Y-100840769D01*
X108104357Y-100899341D01*
X108213050Y-100920961D01*
X108265861Y-100973772D01*
X108269085Y-100977700D01*
X108265861Y-100981628D01*
X108213050Y-101034439D01*
X108104357Y-101056059D01*
X107962952Y-101114631D01*
X107835691Y-101199664D01*
X107727464Y-101307891D01*
X107642431Y-101435152D01*
X107583859Y-101576557D01*
X107554000Y-101726672D01*
X107554000Y-101879728D01*
X107583859Y-102029843D01*
X107642431Y-102171248D01*
X107727464Y-102298509D01*
X107835691Y-102406736D01*
X107962952Y-102491769D01*
X108104357Y-102550341D01*
X108254472Y-102580200D01*
X108407528Y-102580200D01*
X108557643Y-102550341D01*
X108699048Y-102491769D01*
X108826309Y-102406736D01*
X108934536Y-102298509D01*
X109019569Y-102171248D01*
X109077993Y-102030201D01*
X115075043Y-102030201D01*
X115111431Y-102118048D01*
X115196464Y-102245309D01*
X115304691Y-102353536D01*
X115431952Y-102438569D01*
X115573357Y-102497141D01*
X115723472Y-102527000D01*
X115876528Y-102527000D01*
X115886582Y-102525000D01*
X125119967Y-102525000D01*
X125123001Y-102555804D01*
X125123000Y-106744206D01*
X125119967Y-106775000D01*
X125123000Y-106805793D01*
X125132073Y-106897912D01*
X125167925Y-107016102D01*
X125226147Y-107125027D01*
X125304499Y-107220501D01*
X125328427Y-107240138D01*
X126509856Y-108421568D01*
X126529489Y-108445491D01*
X126624962Y-108523843D01*
X126733887Y-108582065D01*
X126852077Y-108617917D01*
X126944196Y-108626990D01*
X126944197Y-108626990D01*
X126974989Y-108630023D01*
X127005781Y-108626990D01*
X135239807Y-108626990D01*
X135331952Y-108688559D01*
X135473357Y-108747131D01*
X135623472Y-108776990D01*
X135776528Y-108776990D01*
X135926643Y-108747131D01*
X136068048Y-108688559D01*
X136195309Y-108603526D01*
X136303536Y-108495299D01*
X136388569Y-108368038D01*
X136447141Y-108226633D01*
X136477000Y-108076518D01*
X136477000Y-107923462D01*
X136447141Y-107773347D01*
X136388569Y-107631942D01*
X136303536Y-107504681D01*
X136195309Y-107396454D01*
X136068048Y-107311421D01*
X135926643Y-107252849D01*
X135776528Y-107222990D01*
X135623472Y-107222990D01*
X135473357Y-107252849D01*
X135331952Y-107311421D01*
X135239807Y-107372990D01*
X127234702Y-107372990D01*
X126377000Y-106515289D01*
X126377000Y-102784711D01*
X126584712Y-102577000D01*
X128389807Y-102577000D01*
X128481952Y-102638569D01*
X128623357Y-102697141D01*
X128773472Y-102727000D01*
X128926528Y-102727000D01*
X129076643Y-102697141D01*
X129218048Y-102638569D01*
X129345309Y-102553536D01*
X129453536Y-102445309D01*
X129538569Y-102318048D01*
X129597141Y-102176643D01*
X129627000Y-102026528D01*
X129627000Y-101873472D01*
X129597141Y-101723357D01*
X129538569Y-101581952D01*
X129453536Y-101454691D01*
X129345309Y-101346464D01*
X129218048Y-101261431D01*
X129076643Y-101202859D01*
X128926528Y-101173000D01*
X128773472Y-101173000D01*
X128623357Y-101202859D01*
X128481952Y-101261431D01*
X128389807Y-101323000D01*
X126355794Y-101323000D01*
X126325000Y-101319967D01*
X126294206Y-101323000D01*
X126202087Y-101332073D01*
X126083897Y-101367925D01*
X125974972Y-101426147D01*
X125879499Y-101504499D01*
X125859866Y-101528422D01*
X125328422Y-102059867D01*
X125304500Y-102079499D01*
X125226148Y-102174972D01*
X125176463Y-102267926D01*
X125167926Y-102283897D01*
X125132073Y-102402088D01*
X125119967Y-102525000D01*
X115886582Y-102525000D01*
X116026643Y-102497141D01*
X116168048Y-102438569D01*
X116295309Y-102353536D01*
X116403536Y-102245309D01*
X116488569Y-102118048D01*
X116547141Y-101976643D01*
X116577000Y-101826528D01*
X116577000Y-101673472D01*
X116547141Y-101523357D01*
X116488569Y-101381952D01*
X116403536Y-101254691D01*
X116295309Y-101146464D01*
X116168048Y-101061431D01*
X116026643Y-101002859D01*
X115918034Y-100981256D01*
X115911646Y-100973472D01*
X117723000Y-100973472D01*
X117723000Y-101126528D01*
X117752859Y-101276643D01*
X117811431Y-101418048D01*
X117896464Y-101545309D01*
X118004691Y-101653536D01*
X118131952Y-101738569D01*
X118273357Y-101797141D01*
X118423472Y-101827000D01*
X118576528Y-101827000D01*
X118726643Y-101797141D01*
X118868048Y-101738569D01*
X118995309Y-101653536D01*
X119103536Y-101545309D01*
X119188569Y-101418048D01*
X119247141Y-101276643D01*
X119277000Y-101126528D01*
X119277000Y-100973472D01*
X119247141Y-100823357D01*
X119188569Y-100681952D01*
X119127000Y-100589807D01*
X119127000Y-100023472D01*
X119923000Y-100023472D01*
X119923000Y-100176528D01*
X119952859Y-100326643D01*
X120011431Y-100468048D01*
X120096464Y-100595309D01*
X120204691Y-100703536D01*
X120331952Y-100788569D01*
X120473357Y-100847141D01*
X120623472Y-100877000D01*
X120776528Y-100877000D01*
X120926643Y-100847141D01*
X121068048Y-100788569D01*
X121160193Y-100727000D01*
X132340289Y-100727000D01*
X133381239Y-101767951D01*
X133402859Y-101876643D01*
X133461431Y-102018048D01*
X133546464Y-102145309D01*
X133623001Y-102221846D01*
X133623000Y-104231709D01*
X132881710Y-104973000D01*
X132773472Y-104973000D01*
X132623357Y-105002859D01*
X132481952Y-105061431D01*
X132354691Y-105146464D01*
X132246464Y-105254691D01*
X132161431Y-105381952D01*
X132102859Y-105523357D01*
X132073000Y-105673472D01*
X132073000Y-105826528D01*
X132102859Y-105976643D01*
X132161431Y-106118048D01*
X132246464Y-106245309D01*
X132354691Y-106353536D01*
X132481952Y-106438569D01*
X132623357Y-106497141D01*
X132773472Y-106527000D01*
X132926528Y-106527000D01*
X133076643Y-106497141D01*
X133218048Y-106438569D01*
X133345309Y-106353536D01*
X133453536Y-106245309D01*
X133538569Y-106118048D01*
X133597141Y-105976643D01*
X133627000Y-105826528D01*
X133627000Y-105718290D01*
X134504344Y-104840947D01*
X134524448Y-104824448D01*
X134590304Y-104744202D01*
X134639239Y-104652650D01*
X134669374Y-104553310D01*
X134677000Y-104475881D01*
X134677000Y-104475880D01*
X134679549Y-104450000D01*
X134677000Y-104424119D01*
X134677000Y-103063711D01*
X136734866Y-105121578D01*
X136754499Y-105145501D01*
X136849972Y-105223853D01*
X136958897Y-105282075D01*
X137077087Y-105317927D01*
X137169206Y-105327000D01*
X137169207Y-105327000D01*
X137199999Y-105330033D01*
X137230791Y-105327000D01*
X138490289Y-105327000D01*
X139173000Y-106009712D01*
X139173001Y-111349487D01*
X138799489Y-111723000D01*
X136310193Y-111723000D01*
X136218048Y-111661431D01*
X136076643Y-111602859D01*
X135926528Y-111573000D01*
X135773472Y-111573000D01*
X135623357Y-111602859D01*
X135481952Y-111661431D01*
X135354691Y-111746464D01*
X135246464Y-111854691D01*
X135161431Y-111981952D01*
X135102859Y-112123357D01*
X135073000Y-112273472D01*
X135073000Y-112426528D01*
X135102859Y-112576643D01*
X135161431Y-112718048D01*
X135246464Y-112845309D01*
X135354691Y-112953536D01*
X135481952Y-113038569D01*
X135623357Y-113097141D01*
X135773472Y-113127000D01*
X135926528Y-113127000D01*
X136076643Y-113097141D01*
X136218048Y-113038569D01*
X136310193Y-112977000D01*
X139028406Y-112977000D01*
X139059200Y-112980033D01*
X139089994Y-112977000D01*
X139182113Y-112967927D01*
X139300303Y-112932075D01*
X139409228Y-112873853D01*
X139504701Y-112795501D01*
X139524338Y-112771573D01*
X140221578Y-112074334D01*
X140245501Y-112054701D01*
X140323853Y-111959228D01*
X140382075Y-111850303D01*
X140417927Y-111732113D01*
X140427000Y-111639994D01*
X140427000Y-111639993D01*
X140430033Y-111609201D01*
X140427000Y-111578409D01*
X140427000Y-106873472D01*
X165023000Y-106873472D01*
X165023000Y-107026528D01*
X165052859Y-107176643D01*
X165111431Y-107318048D01*
X165196464Y-107445309D01*
X165304691Y-107553536D01*
X165431952Y-107638569D01*
X165573357Y-107697141D01*
X165682049Y-107718761D01*
X165973001Y-108009713D01*
X165973000Y-111439807D01*
X165911431Y-111531952D01*
X165852859Y-111673357D01*
X165823000Y-111823472D01*
X165823000Y-111976528D01*
X165852859Y-112126643D01*
X165911431Y-112268048D01*
X165996464Y-112395309D01*
X166104691Y-112503536D01*
X166231952Y-112588569D01*
X166373357Y-112647141D01*
X166523472Y-112677000D01*
X166676528Y-112677000D01*
X166826643Y-112647141D01*
X166968048Y-112588569D01*
X167095309Y-112503536D01*
X167203536Y-112395309D01*
X167288569Y-112268048D01*
X167347141Y-112126643D01*
X167377000Y-111976528D01*
X167377000Y-111823472D01*
X167347141Y-111673357D01*
X167288569Y-111531952D01*
X167227000Y-111439807D01*
X167227000Y-107780794D01*
X167230033Y-107750000D01*
X167217927Y-107627087D01*
X167210714Y-107603310D01*
X167182075Y-107508897D01*
X167123853Y-107399972D01*
X167045501Y-107304499D01*
X167021578Y-107284866D01*
X166568761Y-106832049D01*
X166547141Y-106723357D01*
X166488569Y-106581952D01*
X166403536Y-106454691D01*
X166295309Y-106346464D01*
X166168048Y-106261431D01*
X166026643Y-106202859D01*
X165876528Y-106173000D01*
X165723472Y-106173000D01*
X165573357Y-106202859D01*
X165431952Y-106261431D01*
X165304691Y-106346464D01*
X165196464Y-106454691D01*
X165111431Y-106581952D01*
X165052859Y-106723357D01*
X165023000Y-106873472D01*
X140427000Y-106873472D01*
X140427000Y-105780793D01*
X140430033Y-105749999D01*
X140417927Y-105627086D01*
X140401663Y-105573472D01*
X143673000Y-105573472D01*
X143673000Y-105726528D01*
X143702859Y-105876643D01*
X143761431Y-106018048D01*
X143846464Y-106145309D01*
X143954691Y-106253536D01*
X144081952Y-106338569D01*
X144223357Y-106397141D01*
X144373472Y-106427000D01*
X144526528Y-106427000D01*
X144676643Y-106397141D01*
X144818048Y-106338569D01*
X144945309Y-106253536D01*
X145053536Y-106145309D01*
X145138569Y-106018048D01*
X145197141Y-105876643D01*
X145218761Y-105767950D01*
X147215130Y-103771582D01*
X147215134Y-103771577D01*
X147768151Y-103218561D01*
X147876843Y-103196941D01*
X148018248Y-103138369D01*
X148145509Y-103053336D01*
X148253736Y-102945109D01*
X148338769Y-102817848D01*
X148397341Y-102676443D01*
X148427200Y-102526328D01*
X148427200Y-102373272D01*
X148397341Y-102223157D01*
X148338769Y-102081752D01*
X148253736Y-101954491D01*
X148145509Y-101846264D01*
X148018248Y-101761231D01*
X147876843Y-101702659D01*
X147726728Y-101672800D01*
X147573672Y-101672800D01*
X147423557Y-101702659D01*
X147282152Y-101761231D01*
X147154891Y-101846264D01*
X147046664Y-101954491D01*
X146961631Y-102081752D01*
X146903059Y-102223157D01*
X146881439Y-102331849D01*
X146328423Y-102884866D01*
X146328418Y-102884870D01*
X144332050Y-104881239D01*
X144223357Y-104902859D01*
X144081952Y-104961431D01*
X143954691Y-105046464D01*
X143846464Y-105154691D01*
X143761431Y-105281952D01*
X143702859Y-105423357D01*
X143673000Y-105573472D01*
X140401663Y-105573472D01*
X140382075Y-105508897D01*
X140323853Y-105399972D01*
X140245501Y-105304499D01*
X140221579Y-105284867D01*
X139215138Y-104278427D01*
X139195501Y-104254499D01*
X139100028Y-104176147D01*
X138991103Y-104117925D01*
X138872913Y-104082073D01*
X138780794Y-104073000D01*
X138750000Y-104069967D01*
X138719206Y-104073000D01*
X137459712Y-104073000D01*
X134918761Y-101532050D01*
X134897141Y-101423357D01*
X134838569Y-101281952D01*
X134753536Y-101154691D01*
X134645309Y-101046464D01*
X134518048Y-100961431D01*
X134376643Y-100902859D01*
X134267951Y-100881239D01*
X133071581Y-99684870D01*
X133065138Y-99678427D01*
X133045501Y-99654499D01*
X132950028Y-99576147D01*
X132841103Y-99517925D01*
X132722913Y-99482073D01*
X132630794Y-99473000D01*
X132600000Y-99469967D01*
X132569206Y-99473000D01*
X121160193Y-99473000D01*
X121068048Y-99411431D01*
X120976408Y-99373472D01*
X149873000Y-99373472D01*
X149873000Y-99526528D01*
X149902859Y-99676643D01*
X149961431Y-99818048D01*
X150046464Y-99945309D01*
X150154691Y-100053536D01*
X150281952Y-100138569D01*
X150423357Y-100197141D01*
X150573472Y-100227000D01*
X150726528Y-100227000D01*
X150876643Y-100197141D01*
X151018048Y-100138569D01*
X151145309Y-100053536D01*
X151253536Y-99945309D01*
X151338569Y-99818048D01*
X151397141Y-99676643D01*
X151418761Y-99567950D01*
X153667951Y-97318761D01*
X153776643Y-97297141D01*
X153918048Y-97238569D01*
X154045309Y-97153536D01*
X154153536Y-97045309D01*
X154238569Y-96918048D01*
X154297141Y-96776643D01*
X154327000Y-96626528D01*
X154327000Y-96473472D01*
X154297141Y-96323357D01*
X154238569Y-96181952D01*
X154153536Y-96054691D01*
X154045309Y-95946464D01*
X153918048Y-95861431D01*
X153776643Y-95802859D01*
X153626528Y-95773000D01*
X153473472Y-95773000D01*
X153323357Y-95802859D01*
X153181952Y-95861431D01*
X153054691Y-95946464D01*
X152946464Y-96054691D01*
X152861431Y-96181952D01*
X152802859Y-96323357D01*
X152781239Y-96432049D01*
X150532050Y-98681239D01*
X150423357Y-98702859D01*
X150281952Y-98761431D01*
X150154691Y-98846464D01*
X150046464Y-98954691D01*
X149961431Y-99081952D01*
X149902859Y-99223357D01*
X149873000Y-99373472D01*
X120976408Y-99373472D01*
X120926643Y-99352859D01*
X120776528Y-99323000D01*
X120623472Y-99323000D01*
X120473357Y-99352859D01*
X120331952Y-99411431D01*
X120204691Y-99496464D01*
X120096464Y-99604691D01*
X120011431Y-99731952D01*
X119952859Y-99873357D01*
X119923000Y-100023472D01*
X119127000Y-100023472D01*
X119127000Y-98294711D01*
X121994712Y-95427000D01*
X131519206Y-95427000D01*
X131550000Y-95430033D01*
X131580794Y-95427000D01*
X131672913Y-95417927D01*
X131791103Y-95382075D01*
X131900028Y-95323853D01*
X131995501Y-95245501D01*
X132015138Y-95221573D01*
X134371574Y-92865137D01*
X134395501Y-92845501D01*
X134473853Y-92750028D01*
X134486646Y-92726095D01*
X134532075Y-92641104D01*
X134567927Y-92522913D01*
X134580033Y-92400000D01*
X134577000Y-92369206D01*
X134577000Y-90010193D01*
X134638569Y-89918048D01*
X134697141Y-89776643D01*
X134727000Y-89626528D01*
X134727000Y-89473472D01*
X134697141Y-89323357D01*
X134638569Y-89181952D01*
X134553536Y-89054691D01*
X134445309Y-88946464D01*
X134318048Y-88861431D01*
X134176643Y-88802859D01*
X134026528Y-88773000D01*
X133873472Y-88773000D01*
X133723357Y-88802859D01*
X133581952Y-88861431D01*
X133454691Y-88946464D01*
X133346464Y-89054691D01*
X133261431Y-89181952D01*
X133202859Y-89323357D01*
X133173000Y-89473472D01*
X133173000Y-89626528D01*
X133202859Y-89776643D01*
X133261431Y-89918048D01*
X133323000Y-90010193D01*
X133323000Y-90280793D01*
X133323001Y-90280803D01*
X133323000Y-92140289D01*
X131290289Y-94173000D01*
X121972289Y-94173000D01*
X122668292Y-93476999D01*
X126224120Y-93476999D01*
X126250001Y-93479548D01*
X126275882Y-93476999D01*
X126353311Y-93469373D01*
X126452651Y-93439238D01*
X126544203Y-93390303D01*
X126624449Y-93324447D01*
X126640956Y-93304333D01*
X127654344Y-92290947D01*
X127674448Y-92274448D01*
X127740304Y-92194202D01*
X127789239Y-92102650D01*
X127819374Y-92003310D01*
X127827000Y-91925881D01*
X127829549Y-91900000D01*
X127827000Y-91874119D01*
X127827000Y-91423472D01*
X127873000Y-91423472D01*
X127873000Y-91576528D01*
X127902859Y-91726643D01*
X127961431Y-91868048D01*
X128046464Y-91995309D01*
X128154691Y-92103536D01*
X128281952Y-92188569D01*
X128423357Y-92247141D01*
X128573472Y-92277000D01*
X128726528Y-92277000D01*
X128876643Y-92247141D01*
X129018048Y-92188569D01*
X129145309Y-92103536D01*
X129172886Y-92075959D01*
X130840848Y-92075959D01*
X130932993Y-92137528D01*
X131074398Y-92196100D01*
X131224513Y-92225959D01*
X131377569Y-92225959D01*
X131527684Y-92196100D01*
X131669089Y-92137528D01*
X131796350Y-92052495D01*
X131904577Y-91944268D01*
X131989610Y-91817007D01*
X132048182Y-91675602D01*
X132078041Y-91525487D01*
X132078041Y-91372431D01*
X132048182Y-91222316D01*
X131989610Y-91080911D01*
X131904577Y-90953650D01*
X131796350Y-90845423D01*
X131669089Y-90760390D01*
X131527684Y-90701818D01*
X131377569Y-90671959D01*
X131224513Y-90671959D01*
X131074398Y-90701818D01*
X130932993Y-90760390D01*
X130840848Y-90821959D01*
X129033804Y-90821959D01*
X129018048Y-90811431D01*
X128876643Y-90752859D01*
X128726528Y-90723000D01*
X128573472Y-90723000D01*
X128423357Y-90752859D01*
X128281952Y-90811431D01*
X128154691Y-90896464D01*
X128046464Y-91004691D01*
X127961431Y-91131952D01*
X127902859Y-91273357D01*
X127873000Y-91423472D01*
X127827000Y-91423472D01*
X127827000Y-90118289D01*
X129568291Y-88377000D01*
X138374119Y-88377000D01*
X138400000Y-88379549D01*
X138425881Y-88377000D01*
X138503310Y-88369374D01*
X138602650Y-88339239D01*
X138632148Y-88323472D01*
X139723000Y-88323472D01*
X139723000Y-88476528D01*
X139752859Y-88626643D01*
X139811431Y-88768048D01*
X139896464Y-88895309D01*
X140004691Y-89003536D01*
X140131952Y-89088569D01*
X140273357Y-89147141D01*
X140382049Y-89168761D01*
X140828418Y-89615130D01*
X140828424Y-89615135D01*
X140923001Y-89709712D01*
X140923000Y-92939817D01*
X140861431Y-93031962D01*
X140802859Y-93173367D01*
X140773000Y-93323482D01*
X140773000Y-93476538D01*
X140802859Y-93626653D01*
X140861431Y-93768058D01*
X140946464Y-93895319D01*
X141054691Y-94003546D01*
X141181952Y-94088579D01*
X141323357Y-94147151D01*
X141473472Y-94177010D01*
X141626528Y-94177010D01*
X141776643Y-94147151D01*
X141918048Y-94088579D01*
X142045309Y-94003546D01*
X142121845Y-93927010D01*
X143283221Y-93927010D01*
X143999000Y-94642791D01*
X143999000Y-95144976D01*
X143926644Y-95183652D01*
X143831354Y-95261854D01*
X143753152Y-95357144D01*
X143695042Y-95465859D01*
X143659259Y-95583823D01*
X143647176Y-95706500D01*
X143647176Y-97206500D01*
X143659259Y-97329177D01*
X143695042Y-97447141D01*
X143753152Y-97555856D01*
X143831354Y-97651146D01*
X143926644Y-97729348D01*
X144035359Y-97787458D01*
X144153323Y-97823241D01*
X144276000Y-97835324D01*
X144776000Y-97835324D01*
X144898677Y-97823241D01*
X145016641Y-97787458D01*
X145125356Y-97729348D01*
X145220646Y-97651146D01*
X145298848Y-97555856D01*
X145356958Y-97447141D01*
X145392741Y-97329177D01*
X145404824Y-97206500D01*
X145404824Y-95706500D01*
X145392741Y-95583823D01*
X145356958Y-95465859D01*
X145298848Y-95357144D01*
X145220646Y-95261854D01*
X145125356Y-95183652D01*
X145053000Y-95144976D01*
X145053000Y-94450381D01*
X145055549Y-94424500D01*
X145045374Y-94321190D01*
X145015239Y-94221851D01*
X145015239Y-94221850D01*
X144966304Y-94130298D01*
X144900448Y-94050052D01*
X144880344Y-94033553D01*
X143892465Y-93045676D01*
X143875958Y-93025562D01*
X143795712Y-92959706D01*
X143704160Y-92910771D01*
X143604820Y-92880636D01*
X143527391Y-92873010D01*
X143501510Y-92870461D01*
X143475629Y-92873010D01*
X142177000Y-92873010D01*
X142177000Y-89480793D01*
X142180033Y-89449999D01*
X142167927Y-89327087D01*
X142162409Y-89308897D01*
X142132075Y-89208897D01*
X142073853Y-89099972D01*
X141995501Y-89004499D01*
X141971573Y-88984862D01*
X141715135Y-88728424D01*
X141715130Y-88728418D01*
X141268761Y-88282049D01*
X141247141Y-88173357D01*
X141188569Y-88031952D01*
X141103536Y-87904691D01*
X140995309Y-87796464D01*
X140868048Y-87711431D01*
X140726643Y-87652859D01*
X140576528Y-87623000D01*
X140423472Y-87623000D01*
X140273357Y-87652859D01*
X140131952Y-87711431D01*
X140004691Y-87796464D01*
X139896464Y-87904691D01*
X139811431Y-88031952D01*
X139752859Y-88173357D01*
X139723000Y-88323472D01*
X138632148Y-88323472D01*
X138694202Y-88290304D01*
X138774448Y-88224448D01*
X138790955Y-88204334D01*
X139618290Y-87377000D01*
X139726528Y-87377000D01*
X139876643Y-87347141D01*
X140018048Y-87288569D01*
X140145309Y-87203536D01*
X140253536Y-87095309D01*
X140338569Y-86968048D01*
X140397141Y-86826643D01*
X140427000Y-86676528D01*
X140427000Y-86523472D01*
X140397141Y-86373357D01*
X140338569Y-86231952D01*
X140253536Y-86104691D01*
X140145309Y-85996464D01*
X140018048Y-85911431D01*
X139876643Y-85852859D01*
X139726528Y-85823000D01*
X139573472Y-85823000D01*
X139423357Y-85852859D01*
X139281952Y-85911431D01*
X139154691Y-85996464D01*
X139046464Y-86104691D01*
X138961431Y-86231952D01*
X138902859Y-86373357D01*
X138873000Y-86523472D01*
X138873000Y-86631710D01*
X138181711Y-87323000D01*
X129375881Y-87323000D01*
X129350000Y-87320451D01*
X129324119Y-87323000D01*
X129246690Y-87330626D01*
X129147350Y-87360761D01*
X129055798Y-87409696D01*
X128975552Y-87475552D01*
X128959054Y-87495656D01*
X126945666Y-89509045D01*
X126925552Y-89525552D01*
X126859696Y-89605798D01*
X126852123Y-89619967D01*
X126810761Y-89697351D01*
X126780626Y-89796691D01*
X126770451Y-89900000D01*
X126773000Y-89925881D01*
X126773001Y-91681708D01*
X126031712Y-92422999D01*
X122567266Y-92422999D01*
X122631210Y-92359055D01*
X122727187Y-92215415D01*
X122793297Y-92055811D01*
X122827000Y-91886377D01*
X122827000Y-91713623D01*
X122793297Y-91544189D01*
X122727187Y-91384585D01*
X122631210Y-91240945D01*
X122509055Y-91118790D01*
X122365415Y-91022813D01*
X122205811Y-90956703D01*
X122036377Y-90923000D01*
X121863623Y-90923000D01*
X121694189Y-90956703D01*
X121534585Y-91022813D01*
X121390945Y-91118790D01*
X121268790Y-91240945D01*
X121172813Y-91384585D01*
X121106703Y-91544189D01*
X121073000Y-91713623D01*
X121073000Y-91886377D01*
X121106703Y-92055811D01*
X121172813Y-92215415D01*
X121268790Y-92359055D01*
X121390945Y-92481210D01*
X121534585Y-92577187D01*
X121694189Y-92643297D01*
X121863623Y-92677000D01*
X121977709Y-92677000D01*
X121181711Y-93473000D01*
X121021845Y-93473000D01*
X120945309Y-93396464D01*
X120818048Y-93311431D01*
X120676643Y-93252859D01*
X120526528Y-93223000D01*
X120373472Y-93223000D01*
X120223357Y-93252859D01*
X120081952Y-93311431D01*
X119954691Y-93396464D01*
X119846464Y-93504691D01*
X119761431Y-93631952D01*
X119702859Y-93773357D01*
X119673000Y-93923472D01*
X119673000Y-94076528D01*
X119702859Y-94226643D01*
X119761431Y-94368048D01*
X119846464Y-94495309D01*
X119954691Y-94603536D01*
X120081952Y-94688569D01*
X120223357Y-94747141D01*
X120373472Y-94777000D01*
X120526528Y-94777000D01*
X120676643Y-94747141D01*
X120818048Y-94688569D01*
X120945309Y-94603536D01*
X121021845Y-94527000D01*
X121121288Y-94527000D01*
X118078423Y-97569866D01*
X118054500Y-97589499D01*
X117976148Y-97684972D01*
X117949477Y-97734870D01*
X117917926Y-97793897D01*
X117882073Y-97912088D01*
X117869967Y-98035000D01*
X117873001Y-98065804D01*
X117873000Y-100589807D01*
X117811431Y-100681952D01*
X117752859Y-100823357D01*
X117723000Y-100973472D01*
X115911646Y-100973472D01*
X115898702Y-100957700D01*
X115887887Y-100948824D01*
X115917950Y-100918761D01*
X116026643Y-100897141D01*
X116168048Y-100838569D01*
X116295309Y-100753536D01*
X116403536Y-100645309D01*
X116488569Y-100518048D01*
X116547141Y-100376643D01*
X116577000Y-100226528D01*
X116577000Y-100073472D01*
X116547141Y-99923357D01*
X116488569Y-99781952D01*
X116403536Y-99654691D01*
X116295309Y-99546464D01*
X116168048Y-99461431D01*
X116026643Y-99402859D01*
X115876528Y-99373000D01*
X115723472Y-99373000D01*
X115573357Y-99402859D01*
X115431952Y-99461431D01*
X115304691Y-99546464D01*
X115196464Y-99654691D01*
X115111431Y-99781952D01*
X115052859Y-99923357D01*
X115052493Y-99925199D01*
X109077993Y-99925199D01*
X109019569Y-99784152D01*
X108934536Y-99656891D01*
X108826309Y-99548664D01*
X108699048Y-99463631D01*
X108557643Y-99405059D01*
X108407528Y-99375200D01*
X108254472Y-99375200D01*
X108104357Y-99405059D01*
X107962952Y-99463631D01*
X107835691Y-99548664D01*
X107727464Y-99656891D01*
X107642431Y-99784152D01*
X107583859Y-99925557D01*
X107554000Y-100075672D01*
X99177000Y-100075672D01*
X99177000Y-100073472D01*
X99147141Y-99923357D01*
X99088569Y-99781952D01*
X99003536Y-99654691D01*
X98895309Y-99546464D01*
X98768048Y-99461431D01*
X98626643Y-99402859D01*
X98476528Y-99373000D01*
X98323472Y-99373000D01*
X98173357Y-99402859D01*
X98031952Y-99461431D01*
X97939807Y-99523000D01*
X96967714Y-99523000D01*
X95223140Y-97778427D01*
X95203503Y-97754499D01*
X95108030Y-97676147D01*
X94999105Y-97617925D01*
X94880915Y-97582073D01*
X94788796Y-97573000D01*
X94758002Y-97569967D01*
X94727208Y-97573000D01*
X93860193Y-97573000D01*
X93768048Y-97511431D01*
X93626643Y-97452859D01*
X93476528Y-97423000D01*
X93323472Y-97423000D01*
X93173357Y-97452859D01*
X93031952Y-97511431D01*
X92904691Y-97596464D01*
X92796464Y-97704691D01*
X92711431Y-97831952D01*
X92652859Y-97973357D01*
X92623000Y-98123472D01*
X90627000Y-98123472D01*
X90627000Y-93573472D01*
X108073000Y-93573472D01*
X108073000Y-93726528D01*
X108102859Y-93876643D01*
X108161431Y-94018048D01*
X108246464Y-94145309D01*
X108354691Y-94253536D01*
X108481952Y-94338569D01*
X108623357Y-94397141D01*
X108773472Y-94427000D01*
X108881711Y-94427000D01*
X111559049Y-97104339D01*
X111575552Y-97124448D01*
X111655798Y-97190304D01*
X111747350Y-97239239D01*
X111846690Y-97269374D01*
X111949999Y-97279549D01*
X111975880Y-97277000D01*
X115028155Y-97277000D01*
X115054691Y-97303536D01*
X115181952Y-97388569D01*
X115323357Y-97447141D01*
X115473472Y-97477000D01*
X115626528Y-97477000D01*
X115776643Y-97447141D01*
X115918048Y-97388569D01*
X116045309Y-97303536D01*
X116153536Y-97195309D01*
X116238569Y-97068048D01*
X116297141Y-96926643D01*
X116327000Y-96776528D01*
X116327000Y-96623472D01*
X116297141Y-96473357D01*
X116238569Y-96331952D01*
X116153536Y-96204691D01*
X116045309Y-96096464D01*
X115918048Y-96011431D01*
X115776643Y-95952859D01*
X115626528Y-95923000D01*
X115473472Y-95923000D01*
X115323357Y-95952859D01*
X115181952Y-96011431D01*
X115054691Y-96096464D01*
X114946464Y-96204691D01*
X114934230Y-96223000D01*
X112168290Y-96223000D01*
X109627000Y-93681711D01*
X109627000Y-93573472D01*
X109597141Y-93423357D01*
X109538569Y-93281952D01*
X109453536Y-93154691D01*
X109345309Y-93046464D01*
X109218048Y-92961431D01*
X109076643Y-92902859D01*
X108926528Y-92873000D01*
X108773472Y-92873000D01*
X108623357Y-92902859D01*
X108481952Y-92961431D01*
X108354691Y-93046464D01*
X108246464Y-93154691D01*
X108161431Y-93281952D01*
X108102859Y-93423357D01*
X108073000Y-93573472D01*
X90627000Y-93573472D01*
X90627000Y-89973472D01*
X97873000Y-89973472D01*
X97873000Y-90126528D01*
X97902859Y-90276643D01*
X97961431Y-90418048D01*
X98023001Y-90510194D01*
X98023000Y-92039807D01*
X97961431Y-92131952D01*
X97902859Y-92273357D01*
X97873000Y-92423472D01*
X97873000Y-92576528D01*
X97902859Y-92726643D01*
X97961431Y-92868048D01*
X98046464Y-92995309D01*
X98154691Y-93103536D01*
X98281952Y-93188569D01*
X98423357Y-93247141D01*
X98573472Y-93277000D01*
X98726528Y-93277000D01*
X98876643Y-93247141D01*
X99018048Y-93188569D01*
X99145309Y-93103536D01*
X99253536Y-92995309D01*
X99338569Y-92868048D01*
X99397141Y-92726643D01*
X99427000Y-92576528D01*
X99427000Y-92423472D01*
X99397141Y-92273357D01*
X99338569Y-92131952D01*
X99277000Y-92039807D01*
X99277000Y-90950000D01*
X115521176Y-90950000D01*
X115521176Y-91950000D01*
X115528455Y-92023905D01*
X115550012Y-92094970D01*
X115585019Y-92160463D01*
X115632131Y-92217869D01*
X115663534Y-92243641D01*
X115622813Y-92304585D01*
X115556703Y-92464189D01*
X115523000Y-92633623D01*
X115523000Y-92806377D01*
X115556703Y-92975811D01*
X115622813Y-93135415D01*
X115718790Y-93279055D01*
X115840945Y-93401210D01*
X115984585Y-93497187D01*
X116144189Y-93563297D01*
X116313623Y-93597000D01*
X116486377Y-93597000D01*
X116655811Y-93563297D01*
X116815415Y-93497187D01*
X116959055Y-93401210D01*
X117081210Y-93279055D01*
X117177187Y-93135415D01*
X117243297Y-92975811D01*
X117277000Y-92806377D01*
X117277000Y-92633623D01*
X117243297Y-92464189D01*
X117177187Y-92304585D01*
X117136466Y-92243641D01*
X117167869Y-92217869D01*
X117214981Y-92160463D01*
X117249988Y-92094970D01*
X117271545Y-92023905D01*
X117278824Y-91950000D01*
X117278824Y-90950000D01*
X117271545Y-90876095D01*
X117249988Y-90805030D01*
X117214981Y-90739537D01*
X117167869Y-90682131D01*
X117110463Y-90635019D01*
X117044970Y-90600012D01*
X116973905Y-90578455D01*
X116900000Y-90571176D01*
X115900000Y-90571176D01*
X115826095Y-90578455D01*
X115755030Y-90600012D01*
X115689537Y-90635019D01*
X115632131Y-90682131D01*
X115585019Y-90739537D01*
X115550012Y-90805030D01*
X115528455Y-90876095D01*
X115521176Y-90950000D01*
X99277000Y-90950000D01*
X99277000Y-90510193D01*
X99338569Y-90418048D01*
X99397141Y-90276643D01*
X99427000Y-90126528D01*
X99427000Y-89973472D01*
X99397141Y-89823357D01*
X99338569Y-89681952D01*
X99253536Y-89554691D01*
X99145309Y-89446464D01*
X99018048Y-89361431D01*
X98876643Y-89302859D01*
X98726528Y-89273000D01*
X98573472Y-89273000D01*
X98423357Y-89302859D01*
X98281952Y-89361431D01*
X98154691Y-89446464D01*
X98046464Y-89554691D01*
X97961431Y-89681952D01*
X97902859Y-89823357D01*
X97873000Y-89973472D01*
X90627000Y-89973472D01*
X90627000Y-89123472D01*
X109623000Y-89123472D01*
X109623000Y-89276528D01*
X109652859Y-89426643D01*
X109711431Y-89568048D01*
X109796464Y-89695309D01*
X109904691Y-89803536D01*
X110031952Y-89888569D01*
X110173357Y-89947141D01*
X110323472Y-89977000D01*
X110476528Y-89977000D01*
X110626643Y-89947141D01*
X110768048Y-89888569D01*
X110860193Y-89827000D01*
X115889807Y-89827000D01*
X115981952Y-89888569D01*
X116123357Y-89947141D01*
X116273472Y-89977000D01*
X116426528Y-89977000D01*
X116576643Y-89947141D01*
X116718048Y-89888569D01*
X116845309Y-89803536D01*
X116953536Y-89695309D01*
X117038569Y-89568048D01*
X117097141Y-89426643D01*
X117127000Y-89276528D01*
X117127000Y-89123472D01*
X117097141Y-88973357D01*
X117038569Y-88831952D01*
X116953536Y-88704691D01*
X116845309Y-88596464D01*
X116718048Y-88511431D01*
X116576643Y-88452859D01*
X116426528Y-88423000D01*
X116273472Y-88423000D01*
X116123357Y-88452859D01*
X115981952Y-88511431D01*
X115889807Y-88573000D01*
X110860193Y-88573000D01*
X110768048Y-88511431D01*
X110626643Y-88452859D01*
X110476528Y-88423000D01*
X110323472Y-88423000D01*
X110173357Y-88452859D01*
X110031952Y-88511431D01*
X109904691Y-88596464D01*
X109796464Y-88704691D01*
X109711431Y-88831952D01*
X109652859Y-88973357D01*
X109623000Y-89123472D01*
X90627000Y-89123472D01*
X90627000Y-86877000D01*
X118200000Y-86877000D01*
X118224776Y-86874560D01*
X118248601Y-86867333D01*
X118270557Y-86855597D01*
X118289803Y-86839803D01*
X118305597Y-86820557D01*
X118317333Y-86798601D01*
X118324560Y-86774776D01*
X118327000Y-86750000D01*
X118327000Y-83473472D01*
X122023000Y-83473472D01*
X122023000Y-83626528D01*
X122052859Y-83776643D01*
X122111431Y-83918048D01*
X122196464Y-84045309D01*
X122304691Y-84153536D01*
X122431952Y-84238569D01*
X122573357Y-84297141D01*
X122723472Y-84327000D01*
X122876528Y-84327000D01*
X123026643Y-84297141D01*
X123168048Y-84238569D01*
X123295309Y-84153536D01*
X123403536Y-84045309D01*
X123488569Y-83918048D01*
X123547141Y-83776643D01*
X123577000Y-83626528D01*
X123577000Y-83518289D01*
X124718290Y-82377000D01*
X124826528Y-82377000D01*
X124976643Y-82347141D01*
X125118048Y-82288569D01*
X125245309Y-82203536D01*
X125353536Y-82095309D01*
X125438569Y-81968048D01*
X125497141Y-81826643D01*
X125527000Y-81676528D01*
X125527000Y-81523472D01*
X125497141Y-81373357D01*
X125438569Y-81231952D01*
X125353536Y-81104691D01*
X125245309Y-80996464D01*
X125118048Y-80911431D01*
X124976643Y-80852859D01*
X124826528Y-80823000D01*
X124673472Y-80823000D01*
X124523357Y-80852859D01*
X124381952Y-80911431D01*
X124254691Y-80996464D01*
X124146464Y-81104691D01*
X124061431Y-81231952D01*
X124002859Y-81373357D01*
X123973000Y-81523472D01*
X123973000Y-81631710D01*
X122831711Y-82773000D01*
X122723472Y-82773000D01*
X122573357Y-82802859D01*
X122431952Y-82861431D01*
X122304691Y-82946464D01*
X122196464Y-83054691D01*
X122111431Y-83181952D01*
X122052859Y-83323357D01*
X122023000Y-83473472D01*
X118327000Y-83473472D01*
X118327000Y-80727000D01*
X152968246Y-80727000D01*
X152961553Y-80735156D01*
G37*
%TD.AperFunction*%
%TD*%
M02*
