%TF.GenerationSoftware,KiCad,Pcbnew,5.1.8-db9833491~87~ubuntu20.04.1*%
%TF.CreationDate,2020-11-29T19:52:33+05:30*%
%TF.ProjectId,esp_2fa_board_design,6573705f-3266-4615-9f62-6f6172645f64,v01*%
%TF.SameCoordinates,Original*%
%TF.FileFunction,Soldermask,Top*%
%TF.FilePolarity,Negative*%
%FSLAX46Y46*%
G04 Gerber Fmt 4.6, Leading zero omitted, Abs format (unit mm)*
G04 Created by KiCad (PCBNEW 5.1.8-db9833491~87~ubuntu20.04.1) date 2020-11-29 19:52:33*
%MOMM*%
%LPD*%
G01*
G04 APERTURE LIST*
%ADD10C,0.100000*%
%ADD11O,1.600102X2.000102*%
%ADD12O,1.000102X1.000102*%
%ADD13O,3.500102X2.200102*%
%ADD14O,2.500102X1.500102*%
%ADD15C,2.000102*%
G04 APERTURE END LIST*
%TO.C,C11*%
G36*
G01*
X123674970Y-104474949D02*
X124975030Y-104474949D01*
G75*
G02*
X125225051Y-104724970I0J-250021D01*
G01*
X125225051Y-105375030D01*
G75*
G02*
X124975030Y-105625051I-250021J0D01*
G01*
X123674970Y-105625051D01*
G75*
G02*
X123424949Y-105375030I0J250021D01*
G01*
X123424949Y-104724970D01*
G75*
G02*
X123674970Y-104474949I250021J0D01*
G01*
G37*
G36*
G01*
X123674970Y-101524949D02*
X124975030Y-101524949D01*
G75*
G02*
X125225051Y-101774970I0J-250021D01*
G01*
X125225051Y-102425030D01*
G75*
G02*
X124975030Y-102675051I-250021J0D01*
G01*
X123674970Y-102675051D01*
G75*
G02*
X123424949Y-102425030I0J250021D01*
G01*
X123424949Y-101774970D01*
G75*
G02*
X123674970Y-101524949I250021J0D01*
G01*
G37*
%TD*%
%TO.C,U4*%
G36*
G01*
X132380000Y-101799949D02*
X132620000Y-101799949D01*
G75*
G02*
X132620051Y-101800000I0J-51D01*
G01*
X132620051Y-102400000D01*
G75*
G02*
X132620000Y-102400051I-51J0D01*
G01*
X132380000Y-102400051D01*
G75*
G02*
X132379949Y-102400000I0J51D01*
G01*
X132379949Y-101800000D01*
G75*
G02*
X132380000Y-101799949I51J0D01*
G01*
G37*
G36*
G01*
X131880000Y-101799949D02*
X132120000Y-101799949D01*
G75*
G02*
X132120051Y-101800000I0J-51D01*
G01*
X132120051Y-102400000D01*
G75*
G02*
X132120000Y-102400051I-51J0D01*
G01*
X131880000Y-102400051D01*
G75*
G02*
X131879949Y-102400000I0J51D01*
G01*
X131879949Y-101800000D01*
G75*
G02*
X131880000Y-101799949I51J0D01*
G01*
G37*
G36*
G01*
X131380000Y-101799949D02*
X131620000Y-101799949D01*
G75*
G02*
X131620051Y-101800000I0J-51D01*
G01*
X131620051Y-102400000D01*
G75*
G02*
X131620000Y-102400051I-51J0D01*
G01*
X131380000Y-102400051D01*
G75*
G02*
X131379949Y-102400000I0J51D01*
G01*
X131379949Y-101800000D01*
G75*
G02*
X131380000Y-101799949I51J0D01*
G01*
G37*
G36*
G01*
X130880000Y-101799949D02*
X131120000Y-101799949D01*
G75*
G02*
X131120051Y-101800000I0J-51D01*
G01*
X131120051Y-102400000D01*
G75*
G02*
X131120000Y-102400051I-51J0D01*
G01*
X130880000Y-102400051D01*
G75*
G02*
X130879949Y-102400000I0J51D01*
G01*
X130879949Y-101800000D01*
G75*
G02*
X130880000Y-101799949I51J0D01*
G01*
G37*
G36*
G01*
X130380000Y-101799949D02*
X130620000Y-101799949D01*
G75*
G02*
X130620051Y-101800000I0J-51D01*
G01*
X130620051Y-102400000D01*
G75*
G02*
X130620000Y-102400051I-51J0D01*
G01*
X130380000Y-102400051D01*
G75*
G02*
X130379949Y-102400000I0J51D01*
G01*
X130379949Y-101800000D01*
G75*
G02*
X130380000Y-101799949I51J0D01*
G01*
G37*
G36*
G01*
X130380000Y-104599949D02*
X130620000Y-104599949D01*
G75*
G02*
X130620051Y-104600000I0J-51D01*
G01*
X130620051Y-105200000D01*
G75*
G02*
X130620000Y-105200051I-51J0D01*
G01*
X130380000Y-105200051D01*
G75*
G02*
X130379949Y-105200000I0J51D01*
G01*
X130379949Y-104600000D01*
G75*
G02*
X130380000Y-104599949I51J0D01*
G01*
G37*
G36*
G01*
X130880000Y-104599949D02*
X131120000Y-104599949D01*
G75*
G02*
X131120051Y-104600000I0J-51D01*
G01*
X131120051Y-105200000D01*
G75*
G02*
X131120000Y-105200051I-51J0D01*
G01*
X130880000Y-105200051D01*
G75*
G02*
X130879949Y-105200000I0J51D01*
G01*
X130879949Y-104600000D01*
G75*
G02*
X130880000Y-104599949I51J0D01*
G01*
G37*
G36*
G01*
X131380000Y-104599949D02*
X131620000Y-104599949D01*
G75*
G02*
X131620051Y-104600000I0J-51D01*
G01*
X131620051Y-105200000D01*
G75*
G02*
X131620000Y-105200051I-51J0D01*
G01*
X131380000Y-105200051D01*
G75*
G02*
X131379949Y-105200000I0J51D01*
G01*
X131379949Y-104600000D01*
G75*
G02*
X131380000Y-104599949I51J0D01*
G01*
G37*
G36*
G01*
X131880000Y-104599949D02*
X132120000Y-104599949D01*
G75*
G02*
X132120051Y-104600000I0J-51D01*
G01*
X132120051Y-105200000D01*
G75*
G02*
X132120000Y-105200051I-51J0D01*
G01*
X131880000Y-105200051D01*
G75*
G02*
X131879949Y-105200000I0J51D01*
G01*
X131879949Y-104600000D01*
G75*
G02*
X131880000Y-104599949I51J0D01*
G01*
G37*
G36*
G01*
X132380000Y-104599949D02*
X132620000Y-104599949D01*
G75*
G02*
X132620051Y-104600000I0J-51D01*
G01*
X132620051Y-105200000D01*
G75*
G02*
X132620000Y-105200051I-51J0D01*
G01*
X132380000Y-105200051D01*
G75*
G02*
X132379949Y-105200000I0J51D01*
G01*
X132379949Y-104600000D01*
G75*
G02*
X132380000Y-104599949I51J0D01*
G01*
G37*
D10*
G36*
X133200050Y-103375010D02*
G01*
X133200047Y-103375020D01*
X133200042Y-103375028D01*
X133200036Y-103375036D01*
X133200028Y-103375042D01*
X133200020Y-103375047D01*
X133200010Y-103375050D01*
X133200000Y-103375051D01*
X132700051Y-103375051D01*
X132700051Y-103624949D01*
X133200000Y-103624949D01*
X133200010Y-103624950D01*
X133200020Y-103624953D01*
X133200028Y-103624958D01*
X133200036Y-103624964D01*
X133200042Y-103624972D01*
X133200047Y-103624980D01*
X133200050Y-103624990D01*
X133200051Y-103625000D01*
X133200051Y-103875000D01*
X133200050Y-103875010D01*
X133200047Y-103875020D01*
X133200042Y-103875028D01*
X133200036Y-103875036D01*
X133200028Y-103875042D01*
X133200020Y-103875047D01*
X133200010Y-103875050D01*
X133200000Y-103875051D01*
X132700051Y-103875051D01*
X132700051Y-104325000D01*
X132700050Y-104325010D01*
X132700047Y-104325020D01*
X132700042Y-104325028D01*
X132700036Y-104325036D01*
X132700028Y-104325042D01*
X132700020Y-104325047D01*
X132700010Y-104325050D01*
X132700000Y-104325051D01*
X130300000Y-104325051D01*
X130299990Y-104325050D01*
X130299980Y-104325047D01*
X130299972Y-104325042D01*
X130299964Y-104325036D01*
X130299958Y-104325028D01*
X130299953Y-104325020D01*
X130299950Y-104325010D01*
X130299949Y-104325000D01*
X130299949Y-103875051D01*
X129800000Y-103875051D01*
X129799990Y-103875050D01*
X129799980Y-103875047D01*
X129799972Y-103875042D01*
X129799964Y-103875036D01*
X129799958Y-103875028D01*
X129799953Y-103875020D01*
X129799950Y-103875010D01*
X129799949Y-103875000D01*
X129799949Y-103625000D01*
X129799950Y-103624990D01*
X129799953Y-103624980D01*
X129799958Y-103624972D01*
X129799964Y-103624964D01*
X129799972Y-103624958D01*
X129799980Y-103624953D01*
X129799990Y-103624950D01*
X129800000Y-103624949D01*
X130299949Y-103624949D01*
X130299949Y-103375051D01*
X129800000Y-103375051D01*
X129799990Y-103375050D01*
X129799980Y-103375047D01*
X129799972Y-103375042D01*
X129799964Y-103375036D01*
X129799958Y-103375028D01*
X129799953Y-103375020D01*
X129799950Y-103375010D01*
X129799949Y-103375000D01*
X129799949Y-103125000D01*
X129799950Y-103124990D01*
X129799953Y-103124980D01*
X129799958Y-103124972D01*
X129799964Y-103124964D01*
X129799972Y-103124958D01*
X129799980Y-103124953D01*
X129799990Y-103124950D01*
X129800000Y-103124949D01*
X130299949Y-103124949D01*
X130299949Y-102675000D01*
X130299950Y-102674990D01*
X130299953Y-102674980D01*
X130299958Y-102674972D01*
X130299964Y-102674964D01*
X130299972Y-102674958D01*
X130299980Y-102674953D01*
X130299990Y-102674950D01*
X130300000Y-102674949D01*
X132700000Y-102674949D01*
X132700010Y-102674950D01*
X132700020Y-102674953D01*
X132700028Y-102674958D01*
X132700036Y-102674964D01*
X132700042Y-102674972D01*
X132700047Y-102674980D01*
X132700050Y-102674990D01*
X132700051Y-102675000D01*
X132700051Y-103124949D01*
X133200000Y-103124949D01*
X133200010Y-103124950D01*
X133200020Y-103124953D01*
X133200028Y-103124958D01*
X133200036Y-103124964D01*
X133200042Y-103124972D01*
X133200047Y-103124980D01*
X133200050Y-103124990D01*
X133200051Y-103125000D01*
X133200051Y-103375000D01*
X133200050Y-103375010D01*
G37*
%TD*%
D11*
%TO.C,Brd1*%
X154700000Y-82850000D03*
X152160000Y-82850000D03*
X147080000Y-82850000D03*
X149620000Y-82850000D03*
%TD*%
D12*
%TO.C,J1*%
X116400000Y-92720000D03*
G36*
G01*
X115899949Y-91950000D02*
X115899949Y-90950000D01*
G75*
G02*
X115900000Y-90949949I51J0D01*
G01*
X116900000Y-90949949D01*
G75*
G02*
X116900051Y-90950000I0J-51D01*
G01*
X116900051Y-91950000D01*
G75*
G02*
X116900000Y-91950051I-51J0D01*
G01*
X115900000Y-91950051D01*
G75*
G02*
X115899949Y-91950000I0J51D01*
G01*
G37*
%TD*%
%TO.C,J3*%
X121950000Y-91800000D03*
G36*
G01*
X121180000Y-92300051D02*
X120180000Y-92300051D01*
G75*
G02*
X120179949Y-92300000I0J51D01*
G01*
X120179949Y-91300000D01*
G75*
G02*
X120180000Y-91299949I51J0D01*
G01*
X121180000Y-91299949D01*
G75*
G02*
X121180051Y-91300000I0J-51D01*
G01*
X121180051Y-92300000D01*
G75*
G02*
X121180000Y-92300051I-51J0D01*
G01*
G37*
%TD*%
D13*
%TO.C,SW5*%
X168100000Y-87450000D03*
X168100000Y-95650000D03*
D14*
X168100000Y-89550000D03*
X168100000Y-91550000D03*
G36*
G01*
X169350000Y-94300051D02*
X166850000Y-94300051D01*
G75*
G02*
X166849949Y-94300000I0J51D01*
G01*
X166849949Y-92800000D01*
G75*
G02*
X166850000Y-92799949I51J0D01*
G01*
X169350000Y-92799949D01*
G75*
G02*
X169350051Y-92800000I0J-51D01*
G01*
X169350051Y-94300000D01*
G75*
G02*
X169350000Y-94300051I-51J0D01*
G01*
G37*
%TD*%
%TO.C,C10*%
G36*
G01*
X91699970Y-118574949D02*
X93000030Y-118574949D01*
G75*
G02*
X93250051Y-118824970I0J-250021D01*
G01*
X93250051Y-119475030D01*
G75*
G02*
X93000030Y-119725051I-250021J0D01*
G01*
X91699970Y-119725051D01*
G75*
G02*
X91449949Y-119475030I0J250021D01*
G01*
X91449949Y-118824970D01*
G75*
G02*
X91699970Y-118574949I250021J0D01*
G01*
G37*
G36*
G01*
X91699970Y-115624949D02*
X93000030Y-115624949D01*
G75*
G02*
X93250051Y-115874970I0J-250021D01*
G01*
X93250051Y-116525030D01*
G75*
G02*
X93000030Y-116775051I-250021J0D01*
G01*
X91699970Y-116775051D01*
G75*
G02*
X91449949Y-116525030I0J250021D01*
G01*
X91449949Y-115874970D01*
G75*
G02*
X91699970Y-115624949I250021J0D01*
G01*
G37*
%TD*%
%TO.C,C2*%
G36*
G01*
X91949970Y-87024949D02*
X93250030Y-87024949D01*
G75*
G02*
X93500051Y-87274970I0J-250021D01*
G01*
X93500051Y-87925030D01*
G75*
G02*
X93250030Y-88175051I-250021J0D01*
G01*
X91949970Y-88175051D01*
G75*
G02*
X91699949Y-87925030I0J250021D01*
G01*
X91699949Y-87274970D01*
G75*
G02*
X91949970Y-87024949I250021J0D01*
G01*
G37*
G36*
G01*
X91949970Y-89974949D02*
X93250030Y-89974949D01*
G75*
G02*
X93500051Y-90224970I0J-250021D01*
G01*
X93500051Y-90875030D01*
G75*
G02*
X93250030Y-91125051I-250021J0D01*
G01*
X91949970Y-91125051D01*
G75*
G02*
X91699949Y-90875030I0J250021D01*
G01*
X91699949Y-90224970D01*
G75*
G02*
X91949970Y-89974949I250021J0D01*
G01*
G37*
%TD*%
%TO.C,C1*%
G36*
G01*
X93350030Y-97125051D02*
X92049970Y-97125051D01*
G75*
G02*
X91799949Y-96875030I0J250021D01*
G01*
X91799949Y-96224970D01*
G75*
G02*
X92049970Y-95974949I250021J0D01*
G01*
X93350030Y-95974949D01*
G75*
G02*
X93600051Y-96224970I0J-250021D01*
G01*
X93600051Y-96875030D01*
G75*
G02*
X93350030Y-97125051I-250021J0D01*
G01*
G37*
G36*
G01*
X93350030Y-94175051D02*
X92049970Y-94175051D01*
G75*
G02*
X91799949Y-93925030I0J250021D01*
G01*
X91799949Y-93274970D01*
G75*
G02*
X92049970Y-93024949I250021J0D01*
G01*
X93350030Y-93024949D01*
G75*
G02*
X93600051Y-93274970I0J-250021D01*
G01*
X93600051Y-93925030D01*
G75*
G02*
X93350030Y-94175051I-250021J0D01*
G01*
G37*
%TD*%
%TO.C,C3*%
G36*
G01*
X151475051Y-106149970D02*
X151475051Y-107450030D01*
G75*
G02*
X151225030Y-107700051I-250021J0D01*
G01*
X150574970Y-107700051D01*
G75*
G02*
X150324949Y-107450030I0J250021D01*
G01*
X150324949Y-106149970D01*
G75*
G02*
X150574970Y-105899949I250021J0D01*
G01*
X151225030Y-105899949D01*
G75*
G02*
X151475051Y-106149970I0J-250021D01*
G01*
G37*
G36*
G01*
X148525051Y-106149970D02*
X148525051Y-107450030D01*
G75*
G02*
X148275030Y-107700051I-250021J0D01*
G01*
X147624970Y-107700051D01*
G75*
G02*
X147374949Y-107450030I0J250021D01*
G01*
X147374949Y-106149970D01*
G75*
G02*
X147624970Y-105899949I250021J0D01*
G01*
X148275030Y-105899949D01*
G75*
G02*
X148525051Y-106149970I0J-250021D01*
G01*
G37*
%TD*%
%TO.C,C4*%
G36*
G01*
X122699970Y-85574949D02*
X124000030Y-85574949D01*
G75*
G02*
X124250051Y-85824970I0J-250021D01*
G01*
X124250051Y-86475030D01*
G75*
G02*
X124000030Y-86725051I-250021J0D01*
G01*
X122699970Y-86725051D01*
G75*
G02*
X122449949Y-86475030I0J250021D01*
G01*
X122449949Y-85824970D01*
G75*
G02*
X122699970Y-85574949I250021J0D01*
G01*
G37*
G36*
G01*
X122699970Y-88524949D02*
X124000030Y-88524949D01*
G75*
G02*
X124250051Y-88774970I0J-250021D01*
G01*
X124250051Y-89425030D01*
G75*
G02*
X124000030Y-89675051I-250021J0D01*
G01*
X122699970Y-89675051D01*
G75*
G02*
X122449949Y-89425030I0J250021D01*
G01*
X122449949Y-88774970D01*
G75*
G02*
X122699970Y-88524949I250021J0D01*
G01*
G37*
%TD*%
%TO.C,C5*%
G36*
G01*
X135349970Y-88474949D02*
X136650030Y-88474949D01*
G75*
G02*
X136900051Y-88724970I0J-250021D01*
G01*
X136900051Y-89375030D01*
G75*
G02*
X136650030Y-89625051I-250021J0D01*
G01*
X135349970Y-89625051D01*
G75*
G02*
X135099949Y-89375030I0J250021D01*
G01*
X135099949Y-88724970D01*
G75*
G02*
X135349970Y-88474949I250021J0D01*
G01*
G37*
G36*
G01*
X135349970Y-85524949D02*
X136650030Y-85524949D01*
G75*
G02*
X136900051Y-85774970I0J-250021D01*
G01*
X136900051Y-86425030D01*
G75*
G02*
X136650030Y-86675051I-250021J0D01*
G01*
X135349970Y-86675051D01*
G75*
G02*
X135099949Y-86425030I0J250021D01*
G01*
X135099949Y-85774970D01*
G75*
G02*
X135349970Y-85524949I250021J0D01*
G01*
G37*
%TD*%
%TO.C,C6*%
G36*
G01*
X126449970Y-104474949D02*
X127750030Y-104474949D01*
G75*
G02*
X128000051Y-104724970I0J-250021D01*
G01*
X128000051Y-105375030D01*
G75*
G02*
X127750030Y-105625051I-250021J0D01*
G01*
X126449970Y-105625051D01*
G75*
G02*
X126199949Y-105375030I0J250021D01*
G01*
X126199949Y-104724970D01*
G75*
G02*
X126449970Y-104474949I250021J0D01*
G01*
G37*
G36*
G01*
X126449970Y-101524949D02*
X127750030Y-101524949D01*
G75*
G02*
X128000051Y-101774970I0J-250021D01*
G01*
X128000051Y-102425030D01*
G75*
G02*
X127750030Y-102675051I-250021J0D01*
G01*
X126449970Y-102675051D01*
G75*
G02*
X126199949Y-102425030I0J250021D01*
G01*
X126199949Y-101774970D01*
G75*
G02*
X126449970Y-101524949I250021J0D01*
G01*
G37*
%TD*%
%TO.C,C7*%
G36*
G01*
X130525051Y-106649970D02*
X130525051Y-107950030D01*
G75*
G02*
X130275030Y-108200051I-250021J0D01*
G01*
X129624970Y-108200051D01*
G75*
G02*
X129374949Y-107950030I0J250021D01*
G01*
X129374949Y-106649970D01*
G75*
G02*
X129624970Y-106399949I250021J0D01*
G01*
X130275030Y-106399949D01*
G75*
G02*
X130525051Y-106649970I0J-250021D01*
G01*
G37*
G36*
G01*
X133475051Y-106649970D02*
X133475051Y-107950030D01*
G75*
G02*
X133225030Y-108200051I-250021J0D01*
G01*
X132574970Y-108200051D01*
G75*
G02*
X132324949Y-107950030I0J250021D01*
G01*
X132324949Y-106649970D01*
G75*
G02*
X132574970Y-106399949I250021J0D01*
G01*
X133225030Y-106399949D01*
G75*
G02*
X133475051Y-106649970I0J-250021D01*
G01*
G37*
%TD*%
%TO.C,C8*%
G36*
G01*
X135349970Y-101524949D02*
X136650030Y-101524949D01*
G75*
G02*
X136900051Y-101774970I0J-250021D01*
G01*
X136900051Y-102425030D01*
G75*
G02*
X136650030Y-102675051I-250021J0D01*
G01*
X135349970Y-102675051D01*
G75*
G02*
X135099949Y-102425030I0J250021D01*
G01*
X135099949Y-101774970D01*
G75*
G02*
X135349970Y-101524949I250021J0D01*
G01*
G37*
G36*
G01*
X135349970Y-104474949D02*
X136650030Y-104474949D01*
G75*
G02*
X136900051Y-104724970I0J-250021D01*
G01*
X136900051Y-105375030D01*
G75*
G02*
X136650030Y-105625051I-250021J0D01*
G01*
X135349970Y-105625051D01*
G75*
G02*
X135099949Y-105375030I0J250021D01*
G01*
X135099949Y-104724970D01*
G75*
G02*
X135349970Y-104474949I250021J0D01*
G01*
G37*
%TD*%
%TO.C,C9*%
G36*
G01*
X139049970Y-104474949D02*
X140350030Y-104474949D01*
G75*
G02*
X140600051Y-104724970I0J-250021D01*
G01*
X140600051Y-105375030D01*
G75*
G02*
X140350030Y-105625051I-250021J0D01*
G01*
X139049970Y-105625051D01*
G75*
G02*
X138799949Y-105375030I0J250021D01*
G01*
X138799949Y-104724970D01*
G75*
G02*
X139049970Y-104474949I250021J0D01*
G01*
G37*
G36*
G01*
X139049970Y-101524949D02*
X140350030Y-101524949D01*
G75*
G02*
X140600051Y-101774970I0J-250021D01*
G01*
X140600051Y-102425030D01*
G75*
G02*
X140350030Y-102675051I-250021J0D01*
G01*
X139049970Y-102675051D01*
G75*
G02*
X138799949Y-102425030I0J250021D01*
G01*
X138799949Y-101774970D01*
G75*
G02*
X139049970Y-101524949I250021J0D01*
G01*
G37*
%TD*%
%TO.C,D2*%
G36*
G01*
X128237449Y-84012526D02*
X128237449Y-83587474D01*
G75*
G02*
X128449974Y-83374949I212525J0D01*
G01*
X129250026Y-83374949D01*
G75*
G02*
X129462551Y-83587474I0J-212525D01*
G01*
X129462551Y-84012526D01*
G75*
G02*
X129250026Y-84225051I-212525J0D01*
G01*
X128449974Y-84225051D01*
G75*
G02*
X128237449Y-84012526I0J212525D01*
G01*
G37*
G36*
G01*
X126612449Y-84012526D02*
X126612449Y-83587474D01*
G75*
G02*
X126824974Y-83374949I212525J0D01*
G01*
X127625026Y-83374949D01*
G75*
G02*
X127837551Y-83587474I0J-212525D01*
G01*
X127837551Y-84012526D01*
G75*
G02*
X127625026Y-84225051I-212525J0D01*
G01*
X126824974Y-84225051D01*
G75*
G02*
X126612449Y-84012526I0J212525D01*
G01*
G37*
%TD*%
%TO.C,D3*%
G36*
G01*
X160100000Y-101899949D02*
X161300000Y-101899949D01*
G75*
G02*
X161300051Y-101900000I0J-51D01*
G01*
X161300051Y-102800000D01*
G75*
G02*
X161300000Y-102800051I-51J0D01*
G01*
X160100000Y-102800051D01*
G75*
G02*
X160099949Y-102800000I0J51D01*
G01*
X160099949Y-101900000D01*
G75*
G02*
X160100000Y-101899949I51J0D01*
G01*
G37*
G36*
G01*
X160100000Y-105199949D02*
X161300000Y-105199949D01*
G75*
G02*
X161300051Y-105200000I0J-51D01*
G01*
X161300051Y-106100000D01*
G75*
G02*
X161300000Y-106100051I-51J0D01*
G01*
X160100000Y-106100051D01*
G75*
G02*
X160099949Y-106100000I0J51D01*
G01*
X160099949Y-105200000D01*
G75*
G02*
X160100000Y-105199949I51J0D01*
G01*
G37*
%TD*%
%TO.C,IC1*%
G36*
G01*
X133749949Y-88650000D02*
X133749949Y-87450000D01*
G75*
G02*
X133750000Y-87449949I51J0D01*
G01*
X134150000Y-87449949D01*
G75*
G02*
X134150051Y-87450000I0J-51D01*
G01*
X134150051Y-88650000D01*
G75*
G02*
X134150000Y-88650051I-51J0D01*
G01*
X133750000Y-88650051D01*
G75*
G02*
X133749949Y-88650000I0J51D01*
G01*
G37*
G36*
G01*
X133099949Y-88650000D02*
X133099949Y-87450000D01*
G75*
G02*
X133100000Y-87449949I51J0D01*
G01*
X133500000Y-87449949D01*
G75*
G02*
X133500051Y-87450000I0J-51D01*
G01*
X133500051Y-88650000D01*
G75*
G02*
X133500000Y-88650051I-51J0D01*
G01*
X133100000Y-88650051D01*
G75*
G02*
X133099949Y-88650000I0J51D01*
G01*
G37*
G36*
G01*
X132449949Y-88650000D02*
X132449949Y-87450000D01*
G75*
G02*
X132450000Y-87449949I51J0D01*
G01*
X132850000Y-87449949D01*
G75*
G02*
X132850051Y-87450000I0J-51D01*
G01*
X132850051Y-88650000D01*
G75*
G02*
X132850000Y-88650051I-51J0D01*
G01*
X132450000Y-88650051D01*
G75*
G02*
X132449949Y-88650000I0J51D01*
G01*
G37*
G36*
G01*
X132449949Y-86750000D02*
X132449949Y-85550000D01*
G75*
G02*
X132450000Y-85549949I51J0D01*
G01*
X132850000Y-85549949D01*
G75*
G02*
X132850051Y-85550000I0J-51D01*
G01*
X132850051Y-86750000D01*
G75*
G02*
X132850000Y-86750051I-51J0D01*
G01*
X132450000Y-86750051D01*
G75*
G02*
X132449949Y-86750000I0J51D01*
G01*
G37*
G36*
G01*
X133099949Y-86750000D02*
X133099949Y-85550000D01*
G75*
G02*
X133100000Y-85549949I51J0D01*
G01*
X133500000Y-85549949D01*
G75*
G02*
X133500051Y-85550000I0J-51D01*
G01*
X133500051Y-86750000D01*
G75*
G02*
X133500000Y-86750051I-51J0D01*
G01*
X133100000Y-86750051D01*
G75*
G02*
X133099949Y-86750000I0J51D01*
G01*
G37*
G36*
G01*
X133749949Y-86750000D02*
X133749949Y-85550000D01*
G75*
G02*
X133750000Y-85549949I51J0D01*
G01*
X134150000Y-85549949D01*
G75*
G02*
X134150051Y-85550000I0J-51D01*
G01*
X134150051Y-86750000D01*
G75*
G02*
X134150000Y-86750051I-51J0D01*
G01*
X133750000Y-86750051D01*
G75*
G02*
X133749949Y-86750000I0J51D01*
G01*
G37*
%TD*%
%TO.C,J2*%
G36*
G01*
X163129949Y-114850000D02*
X163129949Y-113650000D01*
G75*
G02*
X163130000Y-113649949I51J0D01*
G01*
X163830000Y-113649949D01*
G75*
G02*
X163830051Y-113650000I0J-51D01*
G01*
X163830051Y-114850000D01*
G75*
G02*
X163830000Y-114850051I-51J0D01*
G01*
X163130000Y-114850051D01*
G75*
G02*
X163129949Y-114850000I0J51D01*
G01*
G37*
G36*
G01*
X165119949Y-114850000D02*
X165119949Y-113650000D01*
G75*
G02*
X165120000Y-113649949I51J0D01*
G01*
X165880000Y-113649949D01*
G75*
G02*
X165880051Y-113650000I0J-51D01*
G01*
X165880051Y-114850000D01*
G75*
G02*
X165880000Y-114850051I-51J0D01*
G01*
X165120000Y-114850051D01*
G75*
G02*
X165119949Y-114850000I0J51D01*
G01*
G37*
G36*
G01*
X166329949Y-114850000D02*
X166329949Y-113650000D01*
G75*
G02*
X166330000Y-113649949I51J0D01*
G01*
X167130000Y-113649949D01*
G75*
G02*
X167130051Y-113650000I0J-51D01*
G01*
X167130051Y-114850000D01*
G75*
G02*
X167130000Y-114850051I-51J0D01*
G01*
X166330000Y-114850051D01*
G75*
G02*
X166329949Y-114850000I0J51D01*
G01*
G37*
G36*
G01*
X164129949Y-114850000D02*
X164129949Y-113650000D01*
G75*
G02*
X164130000Y-113649949I51J0D01*
G01*
X164830000Y-113649949D01*
G75*
G02*
X164830051Y-113650000I0J-51D01*
G01*
X164830051Y-114850000D01*
G75*
G02*
X164830000Y-114850051I-51J0D01*
G01*
X164130000Y-114850051D01*
G75*
G02*
X164129949Y-114850000I0J51D01*
G01*
G37*
G36*
G01*
X162079949Y-114850000D02*
X162079949Y-113650000D01*
G75*
G02*
X162080000Y-113649949I51J0D01*
G01*
X162840000Y-113649949D01*
G75*
G02*
X162840051Y-113650000I0J-51D01*
G01*
X162840051Y-114850000D01*
G75*
G02*
X162840000Y-114850051I-51J0D01*
G01*
X162080000Y-114850051D01*
G75*
G02*
X162079949Y-114850000I0J51D01*
G01*
G37*
G36*
G01*
X160829949Y-114850000D02*
X160829949Y-113650000D01*
G75*
G02*
X160830000Y-113649949I51J0D01*
G01*
X161630000Y-113649949D01*
G75*
G02*
X161630051Y-113650000I0J-51D01*
G01*
X161630051Y-114850000D01*
G75*
G02*
X161630000Y-114850051I-51J0D01*
G01*
X160830000Y-114850051D01*
G75*
G02*
X160829949Y-114850000I0J51D01*
G01*
G37*
D15*
X159660000Y-118200000D03*
X168300000Y-118200000D03*
X168300000Y-114400000D03*
X159660000Y-114400000D03*
%TD*%
%TO.C,L1*%
G36*
G01*
X125399949Y-97375000D02*
X125399949Y-94325000D01*
G75*
G02*
X125400000Y-94324949I51J0D01*
G01*
X127600000Y-94324949D01*
G75*
G02*
X127600051Y-94325000I0J-51D01*
G01*
X127600051Y-97375000D01*
G75*
G02*
X127600000Y-97375051I-51J0D01*
G01*
X125400000Y-97375051D01*
G75*
G02*
X125399949Y-97375000I0J51D01*
G01*
G37*
G36*
G01*
X134699949Y-97375000D02*
X134699949Y-94325000D01*
G75*
G02*
X134700000Y-94324949I51J0D01*
G01*
X136900000Y-94324949D01*
G75*
G02*
X136900051Y-94325000I0J-51D01*
G01*
X136900051Y-97375000D01*
G75*
G02*
X136900000Y-97375051I-51J0D01*
G01*
X134700000Y-97375051D01*
G75*
G02*
X134699949Y-97375000I0J51D01*
G01*
G37*
%TD*%
%TO.C,Q1*%
G36*
G01*
X164800000Y-105034949D02*
X165900000Y-105034949D01*
G75*
G02*
X165900051Y-105035000I0J-51D01*
G01*
X165900051Y-105685000D01*
G75*
G02*
X165900000Y-105685051I-51J0D01*
G01*
X164800000Y-105685051D01*
G75*
G02*
X164799949Y-105685000I0J51D01*
G01*
X164799949Y-105035000D01*
G75*
G02*
X164800000Y-105034949I51J0D01*
G01*
G37*
G36*
G01*
X164800000Y-103114949D02*
X165900000Y-103114949D01*
G75*
G02*
X165900051Y-103115000I0J-51D01*
G01*
X165900051Y-103765000D01*
G75*
G02*
X165900000Y-103765051I-51J0D01*
G01*
X164800000Y-103765051D01*
G75*
G02*
X164799949Y-103765000I0J51D01*
G01*
X164799949Y-103115000D01*
G75*
G02*
X164800000Y-103114949I51J0D01*
G01*
G37*
G36*
G01*
X162700000Y-104074949D02*
X163800000Y-104074949D01*
G75*
G02*
X163800051Y-104075000I0J-51D01*
G01*
X163800051Y-104725000D01*
G75*
G02*
X163800000Y-104725051I-51J0D01*
G01*
X162700000Y-104725051D01*
G75*
G02*
X162699949Y-104725000I0J51D01*
G01*
X162699949Y-104075000D01*
G75*
G02*
X162700000Y-104074949I51J0D01*
G01*
G37*
%TD*%
%TO.C,R1*%
G36*
G01*
X135350051Y-106474974D02*
X135350051Y-107025026D01*
G75*
G02*
X135150026Y-107225051I-200025J0D01*
G01*
X134749974Y-107225051D01*
G75*
G02*
X134549949Y-107025026I0J200025D01*
G01*
X134549949Y-106474974D01*
G75*
G02*
X134749974Y-106274949I200025J0D01*
G01*
X135150026Y-106274949D01*
G75*
G02*
X135350051Y-106474974I0J-200025D01*
G01*
G37*
G36*
G01*
X137000051Y-106474974D02*
X137000051Y-107025026D01*
G75*
G02*
X136800026Y-107225051I-200025J0D01*
G01*
X136399974Y-107225051D01*
G75*
G02*
X136199949Y-107025026I0J200025D01*
G01*
X136199949Y-106474974D01*
G75*
G02*
X136399974Y-106274949I200025J0D01*
G01*
X136800026Y-106274949D01*
G75*
G02*
X137000051Y-106474974I0J-200025D01*
G01*
G37*
%TD*%
%TO.C,R2*%
G36*
G01*
X105274974Y-110449949D02*
X105825026Y-110449949D01*
G75*
G02*
X106025051Y-110649974I0J-200025D01*
G01*
X106025051Y-111050026D01*
G75*
G02*
X105825026Y-111250051I-200025J0D01*
G01*
X105274974Y-111250051D01*
G75*
G02*
X105074949Y-111050026I0J200025D01*
G01*
X105074949Y-110649974D01*
G75*
G02*
X105274974Y-110449949I200025J0D01*
G01*
G37*
G36*
G01*
X105274974Y-108799949D02*
X105825026Y-108799949D01*
G75*
G02*
X106025051Y-108999974I0J-200025D01*
G01*
X106025051Y-109400026D01*
G75*
G02*
X105825026Y-109600051I-200025J0D01*
G01*
X105274974Y-109600051D01*
G75*
G02*
X105074949Y-109400026I0J200025D01*
G01*
X105074949Y-108999974D01*
G75*
G02*
X105274974Y-108799949I200025J0D01*
G01*
G37*
%TD*%
%TO.C,R3*%
G36*
G01*
X105224974Y-117699949D02*
X105775026Y-117699949D01*
G75*
G02*
X105975051Y-117899974I0J-200025D01*
G01*
X105975051Y-118300026D01*
G75*
G02*
X105775026Y-118500051I-200025J0D01*
G01*
X105224974Y-118500051D01*
G75*
G02*
X105024949Y-118300026I0J200025D01*
G01*
X105024949Y-117899974D01*
G75*
G02*
X105224974Y-117699949I200025J0D01*
G01*
G37*
G36*
G01*
X105224974Y-119349949D02*
X105775026Y-119349949D01*
G75*
G02*
X105975051Y-119549974I0J-200025D01*
G01*
X105975051Y-119950026D01*
G75*
G02*
X105775026Y-120150051I-200025J0D01*
G01*
X105224974Y-120150051D01*
G75*
G02*
X105024949Y-119950026I0J200025D01*
G01*
X105024949Y-119549974D01*
G75*
G02*
X105224974Y-119349949I200025J0D01*
G01*
G37*
%TD*%
%TO.C,R4*%
G36*
G01*
X120075026Y-112300051D02*
X119524974Y-112300051D01*
G75*
G02*
X119324949Y-112100026I0J200025D01*
G01*
X119324949Y-111699974D01*
G75*
G02*
X119524974Y-111499949I200025J0D01*
G01*
X120075026Y-111499949D01*
G75*
G02*
X120275051Y-111699974I0J-200025D01*
G01*
X120275051Y-112100026D01*
G75*
G02*
X120075026Y-112300051I-200025J0D01*
G01*
G37*
G36*
G01*
X120075026Y-110650051D02*
X119524974Y-110650051D01*
G75*
G02*
X119324949Y-110450026I0J200025D01*
G01*
X119324949Y-110049974D01*
G75*
G02*
X119524974Y-109849949I200025J0D01*
G01*
X120075026Y-109849949D01*
G75*
G02*
X120275051Y-110049974I0J-200025D01*
G01*
X120275051Y-110450026D01*
G75*
G02*
X120075026Y-110650051I-200025J0D01*
G01*
G37*
%TD*%
%TO.C,R5*%
G36*
G01*
X155200051Y-106999974D02*
X155200051Y-107550026D01*
G75*
G02*
X155000026Y-107750051I-200025J0D01*
G01*
X154599974Y-107750051D01*
G75*
G02*
X154399949Y-107550026I0J200025D01*
G01*
X154399949Y-106999974D01*
G75*
G02*
X154599974Y-106799949I200025J0D01*
G01*
X155000026Y-106799949D01*
G75*
G02*
X155200051Y-106999974I0J-200025D01*
G01*
G37*
G36*
G01*
X156850051Y-106999974D02*
X156850051Y-107550026D01*
G75*
G02*
X156650026Y-107750051I-200025J0D01*
G01*
X156249974Y-107750051D01*
G75*
G02*
X156049949Y-107550026I0J200025D01*
G01*
X156049949Y-106999974D01*
G75*
G02*
X156249974Y-106799949I200025J0D01*
G01*
X156650026Y-106799949D01*
G75*
G02*
X156850051Y-106999974I0J-200025D01*
G01*
G37*
%TD*%
%TO.C,R6*%
G36*
G01*
X134525026Y-112275051D02*
X133974974Y-112275051D01*
G75*
G02*
X133774949Y-112075026I0J200025D01*
G01*
X133774949Y-111674974D01*
G75*
G02*
X133974974Y-111474949I200025J0D01*
G01*
X134525026Y-111474949D01*
G75*
G02*
X134725051Y-111674974I0J-200025D01*
G01*
X134725051Y-112075026D01*
G75*
G02*
X134525026Y-112275051I-200025J0D01*
G01*
G37*
G36*
G01*
X134525026Y-110625051D02*
X133974974Y-110625051D01*
G75*
G02*
X133774949Y-110425026I0J200025D01*
G01*
X133774949Y-110024974D01*
G75*
G02*
X133974974Y-109824949I200025J0D01*
G01*
X134525026Y-109824949D01*
G75*
G02*
X134725051Y-110024974I0J-200025D01*
G01*
X134725051Y-110425026D01*
G75*
G02*
X134525026Y-110625051I-200025J0D01*
G01*
G37*
%TD*%
%TO.C,R7*%
G36*
G01*
X128249949Y-85675026D02*
X128249949Y-85124974D01*
G75*
G02*
X128449974Y-84924949I200025J0D01*
G01*
X128850026Y-84924949D01*
G75*
G02*
X129050051Y-85124974I0J-200025D01*
G01*
X129050051Y-85675026D01*
G75*
G02*
X128850026Y-85875051I-200025J0D01*
G01*
X128449974Y-85875051D01*
G75*
G02*
X128249949Y-85675026I0J200025D01*
G01*
G37*
G36*
G01*
X126599949Y-85675026D02*
X126599949Y-85124974D01*
G75*
G02*
X126799974Y-84924949I200025J0D01*
G01*
X127200026Y-84924949D01*
G75*
G02*
X127400051Y-85124974I0J-200025D01*
G01*
X127400051Y-85675026D01*
G75*
G02*
X127200026Y-85875051I-200025J0D01*
G01*
X126799974Y-85875051D01*
G75*
G02*
X126599949Y-85675026I0J200025D01*
G01*
G37*
%TD*%
%TO.C,R8*%
G36*
G01*
X125725026Y-85850051D02*
X125174974Y-85850051D01*
G75*
G02*
X124974949Y-85650026I0J200025D01*
G01*
X124974949Y-85249974D01*
G75*
G02*
X125174974Y-85049949I200025J0D01*
G01*
X125725026Y-85049949D01*
G75*
G02*
X125925051Y-85249974I0J-200025D01*
G01*
X125925051Y-85650026D01*
G75*
G02*
X125725026Y-85850051I-200025J0D01*
G01*
G37*
G36*
G01*
X125725026Y-84200051D02*
X125174974Y-84200051D01*
G75*
G02*
X124974949Y-84000026I0J200025D01*
G01*
X124974949Y-83599974D01*
G75*
G02*
X125174974Y-83399949I200025J0D01*
G01*
X125725026Y-83399949D01*
G75*
G02*
X125925051Y-83599974I0J-200025D01*
G01*
X125925051Y-84000026D01*
G75*
G02*
X125725026Y-84200051I-200025J0D01*
G01*
G37*
%TD*%
%TO.C,R9*%
G36*
G01*
X120100051Y-88924974D02*
X120100051Y-89475026D01*
G75*
G02*
X119900026Y-89675051I-200025J0D01*
G01*
X119499974Y-89675051D01*
G75*
G02*
X119299949Y-89475026I0J200025D01*
G01*
X119299949Y-88924974D01*
G75*
G02*
X119499974Y-88724949I200025J0D01*
G01*
X119900026Y-88724949D01*
G75*
G02*
X120100051Y-88924974I0J-200025D01*
G01*
G37*
G36*
G01*
X121750051Y-88924974D02*
X121750051Y-89475026D01*
G75*
G02*
X121550026Y-89675051I-200025J0D01*
G01*
X121149974Y-89675051D01*
G75*
G02*
X120949949Y-89475026I0J200025D01*
G01*
X120949949Y-88924974D01*
G75*
G02*
X121149974Y-88724949I200025J0D01*
G01*
X121550026Y-88724949D01*
G75*
G02*
X121750051Y-88924974I0J-200025D01*
G01*
G37*
%TD*%
%TO.C,R10*%
G36*
G01*
X119299949Y-86325026D02*
X119299949Y-85774974D01*
G75*
G02*
X119499974Y-85574949I200025J0D01*
G01*
X119900026Y-85574949D01*
G75*
G02*
X120100051Y-85774974I0J-200025D01*
G01*
X120100051Y-86325026D01*
G75*
G02*
X119900026Y-86525051I-200025J0D01*
G01*
X119499974Y-86525051D01*
G75*
G02*
X119299949Y-86325026I0J200025D01*
G01*
G37*
G36*
G01*
X120949949Y-86325026D02*
X120949949Y-85774974D01*
G75*
G02*
X121149974Y-85574949I200025J0D01*
G01*
X121550026Y-85574949D01*
G75*
G02*
X121750051Y-85774974I0J-200025D01*
G01*
X121750051Y-86325026D01*
G75*
G02*
X121550026Y-86525051I-200025J0D01*
G01*
X121149974Y-86525051D01*
G75*
G02*
X120949949Y-86325026I0J200025D01*
G01*
G37*
%TD*%
%TO.C,R11*%
G36*
G01*
X168725051Y-110449974D02*
X168725051Y-111000026D01*
G75*
G02*
X168525026Y-111200051I-200025J0D01*
G01*
X168124974Y-111200051D01*
G75*
G02*
X167924949Y-111000026I0J200025D01*
G01*
X167924949Y-110449974D01*
G75*
G02*
X168124974Y-110249949I200025J0D01*
G01*
X168525026Y-110249949D01*
G75*
G02*
X168725051Y-110449974I0J-200025D01*
G01*
G37*
G36*
G01*
X167075051Y-110449974D02*
X167075051Y-111000026D01*
G75*
G02*
X166875026Y-111200051I-200025J0D01*
G01*
X166474974Y-111200051D01*
G75*
G02*
X166274949Y-111000026I0J200025D01*
G01*
X166274949Y-110449974D01*
G75*
G02*
X166474974Y-110249949I200025J0D01*
G01*
X166875026Y-110249949D01*
G75*
G02*
X167075051Y-110449974I0J-200025D01*
G01*
G37*
%TD*%
%TO.C,R12*%
G36*
G01*
X160849949Y-111000026D02*
X160849949Y-110449974D01*
G75*
G02*
X161049974Y-110249949I200025J0D01*
G01*
X161450026Y-110249949D01*
G75*
G02*
X161650051Y-110449974I0J-200025D01*
G01*
X161650051Y-111000026D01*
G75*
G02*
X161450026Y-111200051I-200025J0D01*
G01*
X161049974Y-111200051D01*
G75*
G02*
X160849949Y-111000026I0J200025D01*
G01*
G37*
G36*
G01*
X159199949Y-111000026D02*
X159199949Y-110449974D01*
G75*
G02*
X159399974Y-110249949I200025J0D01*
G01*
X159800026Y-110249949D01*
G75*
G02*
X160000051Y-110449974I0J-200025D01*
G01*
X160000051Y-111000026D01*
G75*
G02*
X159800026Y-111200051I-200025J0D01*
G01*
X159399974Y-111200051D01*
G75*
G02*
X159199949Y-111000026I0J200025D01*
G01*
G37*
%TD*%
%TO.C,R13*%
G36*
G01*
X167375026Y-105800051D02*
X166824974Y-105800051D01*
G75*
G02*
X166624949Y-105600026I0J200025D01*
G01*
X166624949Y-105199974D01*
G75*
G02*
X166824974Y-104999949I200025J0D01*
G01*
X167375026Y-104999949D01*
G75*
G02*
X167575051Y-105199974I0J-200025D01*
G01*
X167575051Y-105600026D01*
G75*
G02*
X167375026Y-105800051I-200025J0D01*
G01*
G37*
G36*
G01*
X167375026Y-104150051D02*
X166824974Y-104150051D01*
G75*
G02*
X166624949Y-103950026I0J200025D01*
G01*
X166624949Y-103549974D01*
G75*
G02*
X166824974Y-103349949I200025J0D01*
G01*
X167375026Y-103349949D01*
G75*
G02*
X167575051Y-103549974I0J-200025D01*
G01*
X167575051Y-103950026D01*
G75*
G02*
X167375026Y-104150051I-200025J0D01*
G01*
G37*
%TD*%
%TO.C,R14*%
G36*
G01*
X119524974Y-115024949D02*
X120075026Y-115024949D01*
G75*
G02*
X120275051Y-115224974I0J-200025D01*
G01*
X120275051Y-115625026D01*
G75*
G02*
X120075026Y-115825051I-200025J0D01*
G01*
X119524974Y-115825051D01*
G75*
G02*
X119324949Y-115625026I0J200025D01*
G01*
X119324949Y-115224974D01*
G75*
G02*
X119524974Y-115024949I200025J0D01*
G01*
G37*
G36*
G01*
X119524974Y-113374949D02*
X120075026Y-113374949D01*
G75*
G02*
X120275051Y-113574974I0J-200025D01*
G01*
X120275051Y-113975026D01*
G75*
G02*
X120075026Y-114175051I-200025J0D01*
G01*
X119524974Y-114175051D01*
G75*
G02*
X119324949Y-113975026I0J200025D01*
G01*
X119324949Y-113574974D01*
G75*
G02*
X119524974Y-113374949I200025J0D01*
G01*
G37*
%TD*%
%TO.C,UP*%
G36*
G01*
X110075051Y-109950000D02*
X110075051Y-111250000D01*
G75*
G02*
X110075000Y-111250051I-51J0D01*
G01*
X108525000Y-111250051D01*
G75*
G02*
X108524949Y-111250000I0J51D01*
G01*
X108524949Y-109950000D01*
G75*
G02*
X108525000Y-109949949I51J0D01*
G01*
X110075000Y-109949949D01*
G75*
G02*
X110075051Y-109950000I0J-51D01*
G01*
G37*
G36*
G01*
X110075051Y-114450000D02*
X110075051Y-115750000D01*
G75*
G02*
X110075000Y-115750051I-51J0D01*
G01*
X108525000Y-115750051D01*
G75*
G02*
X108524949Y-115750000I0J51D01*
G01*
X108524949Y-114450000D01*
G75*
G02*
X108525000Y-114449949I51J0D01*
G01*
X110075000Y-114449949D01*
G75*
G02*
X110075051Y-114450000I0J-51D01*
G01*
G37*
G36*
G01*
X118025051Y-114450000D02*
X118025051Y-115750000D01*
G75*
G02*
X118025000Y-115750051I-51J0D01*
G01*
X116475000Y-115750051D01*
G75*
G02*
X116474949Y-115750000I0J51D01*
G01*
X116474949Y-114450000D01*
G75*
G02*
X116475000Y-114449949I51J0D01*
G01*
X118025000Y-114449949D01*
G75*
G02*
X118025051Y-114450000I0J-51D01*
G01*
G37*
G36*
G01*
X118025051Y-109950000D02*
X118025051Y-111250000D01*
G75*
G02*
X118025000Y-111250051I-51J0D01*
G01*
X116475000Y-111250051D01*
G75*
G02*
X116474949Y-111250000I0J51D01*
G01*
X116474949Y-109950000D01*
G75*
G02*
X116475000Y-109949949I51J0D01*
G01*
X118025000Y-109949949D01*
G75*
G02*
X118025051Y-109950000I0J-51D01*
G01*
G37*
%TD*%
%TO.C,DOWN*%
G36*
G01*
X122249949Y-115725000D02*
X122249949Y-114425000D01*
G75*
G02*
X122250000Y-114424949I51J0D01*
G01*
X123800000Y-114424949D01*
G75*
G02*
X123800051Y-114425000I0J-51D01*
G01*
X123800051Y-115725000D01*
G75*
G02*
X123800000Y-115725051I-51J0D01*
G01*
X122250000Y-115725051D01*
G75*
G02*
X122249949Y-115725000I0J51D01*
G01*
G37*
G36*
G01*
X122249949Y-111225000D02*
X122249949Y-109925000D01*
G75*
G02*
X122250000Y-109924949I51J0D01*
G01*
X123800000Y-109924949D01*
G75*
G02*
X123800051Y-109925000I0J-51D01*
G01*
X123800051Y-111225000D01*
G75*
G02*
X123800000Y-111225051I-51J0D01*
G01*
X122250000Y-111225051D01*
G75*
G02*
X122249949Y-111225000I0J51D01*
G01*
G37*
G36*
G01*
X130199949Y-111225000D02*
X130199949Y-109925000D01*
G75*
G02*
X130200000Y-109924949I51J0D01*
G01*
X131750000Y-109924949D01*
G75*
G02*
X131750051Y-109925000I0J-51D01*
G01*
X131750051Y-111225000D01*
G75*
G02*
X131750000Y-111225051I-51J0D01*
G01*
X130200000Y-111225051D01*
G75*
G02*
X130199949Y-111225000I0J51D01*
G01*
G37*
G36*
G01*
X130199949Y-115725000D02*
X130199949Y-114425000D01*
G75*
G02*
X130200000Y-114424949I51J0D01*
G01*
X131750000Y-114424949D01*
G75*
G02*
X131750051Y-114425000I0J-51D01*
G01*
X131750051Y-115725000D01*
G75*
G02*
X131750000Y-115725051I-51J0D01*
G01*
X130200000Y-115725051D01*
G75*
G02*
X130199949Y-115725000I0J51D01*
G01*
G37*
%TD*%
%TO.C,SELECT*%
G36*
G01*
X137150051Y-109875000D02*
X137150051Y-111175000D01*
G75*
G02*
X137150000Y-111175051I-51J0D01*
G01*
X135600000Y-111175051D01*
G75*
G02*
X135599949Y-111175000I0J51D01*
G01*
X135599949Y-109875000D01*
G75*
G02*
X135600000Y-109874949I51J0D01*
G01*
X137150000Y-109874949D01*
G75*
G02*
X137150051Y-109875000I0J-51D01*
G01*
G37*
G36*
G01*
X137150051Y-114375000D02*
X137150051Y-115675000D01*
G75*
G02*
X137150000Y-115675051I-51J0D01*
G01*
X135600000Y-115675051D01*
G75*
G02*
X135599949Y-115675000I0J51D01*
G01*
X135599949Y-114375000D01*
G75*
G02*
X135600000Y-114374949I51J0D01*
G01*
X137150000Y-114374949D01*
G75*
G02*
X137150051Y-114375000I0J-51D01*
G01*
G37*
G36*
G01*
X145100051Y-114375000D02*
X145100051Y-115675000D01*
G75*
G02*
X145100000Y-115675051I-51J0D01*
G01*
X143550000Y-115675051D01*
G75*
G02*
X143549949Y-115675000I0J51D01*
G01*
X143549949Y-114375000D01*
G75*
G02*
X143550000Y-114374949I51J0D01*
G01*
X145100000Y-114374949D01*
G75*
G02*
X145100051Y-114375000I0J-51D01*
G01*
G37*
G36*
G01*
X145100051Y-109875000D02*
X145100051Y-111175000D01*
G75*
G02*
X145100000Y-111175051I-51J0D01*
G01*
X143550000Y-111175051D01*
G75*
G02*
X143549949Y-111175000I0J51D01*
G01*
X143549949Y-109875000D01*
G75*
G02*
X143550000Y-109874949I51J0D01*
G01*
X145100000Y-109874949D01*
G75*
G02*
X145100051Y-109875000I0J-51D01*
G01*
G37*
%TD*%
%TO.C,RESET*%
G36*
G01*
X156850051Y-109825000D02*
X156850051Y-111125000D01*
G75*
G02*
X156850000Y-111125051I-51J0D01*
G01*
X155300000Y-111125051D01*
G75*
G02*
X155299949Y-111125000I0J51D01*
G01*
X155299949Y-109825000D01*
G75*
G02*
X155300000Y-109824949I51J0D01*
G01*
X156850000Y-109824949D01*
G75*
G02*
X156850051Y-109825000I0J-51D01*
G01*
G37*
G36*
G01*
X156850051Y-114325000D02*
X156850051Y-115625000D01*
G75*
G02*
X156850000Y-115625051I-51J0D01*
G01*
X155300000Y-115625051D01*
G75*
G02*
X155299949Y-115625000I0J51D01*
G01*
X155299949Y-114325000D01*
G75*
G02*
X155300000Y-114324949I51J0D01*
G01*
X156850000Y-114324949D01*
G75*
G02*
X156850051Y-114325000I0J-51D01*
G01*
G37*
G36*
G01*
X148900051Y-114325000D02*
X148900051Y-115625000D01*
G75*
G02*
X148900000Y-115625051I-51J0D01*
G01*
X147350000Y-115625051D01*
G75*
G02*
X147349949Y-115625000I0J51D01*
G01*
X147349949Y-114325000D01*
G75*
G02*
X147350000Y-114324949I51J0D01*
G01*
X148900000Y-114324949D01*
G75*
G02*
X148900051Y-114325000I0J-51D01*
G01*
G37*
G36*
G01*
X148900051Y-109825000D02*
X148900051Y-111125000D01*
G75*
G02*
X148900000Y-111125051I-51J0D01*
G01*
X147350000Y-111125051D01*
G75*
G02*
X147349949Y-111125000I0J51D01*
G01*
X147349949Y-109825000D01*
G75*
G02*
X147350000Y-109824949I51J0D01*
G01*
X148900000Y-109824949D01*
G75*
G02*
X148900051Y-109825000I0J-51D01*
G01*
G37*
%TD*%
%TO.C,U1*%
G36*
G01*
X111449949Y-88095000D02*
X111449949Y-87195000D01*
G75*
G02*
X111450000Y-87194949I51J0D01*
G01*
X113450000Y-87194949D01*
G75*
G02*
X113450051Y-87195000I0J-51D01*
G01*
X113450051Y-88095000D01*
G75*
G02*
X113450000Y-88095051I-51J0D01*
G01*
X111450000Y-88095051D01*
G75*
G02*
X111449949Y-88095000I0J51D01*
G01*
G37*
G36*
G01*
X111449949Y-89365000D02*
X111449949Y-88465000D01*
G75*
G02*
X111450000Y-88464949I51J0D01*
G01*
X113450000Y-88464949D01*
G75*
G02*
X113450051Y-88465000I0J-51D01*
G01*
X113450051Y-89365000D01*
G75*
G02*
X113450000Y-89365051I-51J0D01*
G01*
X111450000Y-89365051D01*
G75*
G02*
X111449949Y-89365000I0J51D01*
G01*
G37*
G36*
G01*
X111449949Y-90635000D02*
X111449949Y-89735000D01*
G75*
G02*
X111450000Y-89734949I51J0D01*
G01*
X113450000Y-89734949D01*
G75*
G02*
X113450051Y-89735000I0J-51D01*
G01*
X113450051Y-90635000D01*
G75*
G02*
X113450000Y-90635051I-51J0D01*
G01*
X111450000Y-90635051D01*
G75*
G02*
X111449949Y-90635000I0J51D01*
G01*
G37*
G36*
G01*
X111449949Y-91905000D02*
X111449949Y-91005000D01*
G75*
G02*
X111450000Y-91004949I51J0D01*
G01*
X113450000Y-91004949D01*
G75*
G02*
X113450051Y-91005000I0J-51D01*
G01*
X113450051Y-91905000D01*
G75*
G02*
X113450000Y-91905051I-51J0D01*
G01*
X111450000Y-91905051D01*
G75*
G02*
X111449949Y-91905000I0J51D01*
G01*
G37*
G36*
G01*
X111449949Y-93175000D02*
X111449949Y-92275000D01*
G75*
G02*
X111450000Y-92274949I51J0D01*
G01*
X113450000Y-92274949D01*
G75*
G02*
X113450051Y-92275000I0J-51D01*
G01*
X113450051Y-93175000D01*
G75*
G02*
X113450000Y-93175051I-51J0D01*
G01*
X111450000Y-93175051D01*
G75*
G02*
X111449949Y-93175000I0J51D01*
G01*
G37*
G36*
G01*
X111449949Y-94445000D02*
X111449949Y-93545000D01*
G75*
G02*
X111450000Y-93544949I51J0D01*
G01*
X113450000Y-93544949D01*
G75*
G02*
X113450051Y-93545000I0J-51D01*
G01*
X113450051Y-94445000D01*
G75*
G02*
X113450000Y-94445051I-51J0D01*
G01*
X111450000Y-94445051D01*
G75*
G02*
X111449949Y-94445000I0J51D01*
G01*
G37*
G36*
G01*
X111449949Y-95715000D02*
X111449949Y-94815000D01*
G75*
G02*
X111450000Y-94814949I51J0D01*
G01*
X113450000Y-94814949D01*
G75*
G02*
X113450051Y-94815000I0J-51D01*
G01*
X113450051Y-95715000D01*
G75*
G02*
X113450000Y-95715051I-51J0D01*
G01*
X111450000Y-95715051D01*
G75*
G02*
X111449949Y-95715000I0J51D01*
G01*
G37*
G36*
G01*
X111449949Y-96985000D02*
X111449949Y-96085000D01*
G75*
G02*
X111450000Y-96084949I51J0D01*
G01*
X113450000Y-96084949D01*
G75*
G02*
X113450051Y-96085000I0J-51D01*
G01*
X113450051Y-96985000D01*
G75*
G02*
X113450000Y-96985051I-51J0D01*
G01*
X111450000Y-96985051D01*
G75*
G02*
X111449949Y-96985000I0J51D01*
G01*
G37*
G36*
G01*
X111449949Y-98255000D02*
X111449949Y-97355000D01*
G75*
G02*
X111450000Y-97354949I51J0D01*
G01*
X113450000Y-97354949D01*
G75*
G02*
X113450051Y-97355000I0J-51D01*
G01*
X113450051Y-98255000D01*
G75*
G02*
X113450000Y-98255051I-51J0D01*
G01*
X111450000Y-98255051D01*
G75*
G02*
X111449949Y-98255000I0J51D01*
G01*
G37*
G36*
G01*
X111449949Y-99525000D02*
X111449949Y-98625000D01*
G75*
G02*
X111450000Y-98624949I51J0D01*
G01*
X113450000Y-98624949D01*
G75*
G02*
X113450051Y-98625000I0J-51D01*
G01*
X113450051Y-99525000D01*
G75*
G02*
X113450000Y-99525051I-51J0D01*
G01*
X111450000Y-99525051D01*
G75*
G02*
X111449949Y-99525000I0J51D01*
G01*
G37*
G36*
G01*
X111449949Y-100795000D02*
X111449949Y-99895000D01*
G75*
G02*
X111450000Y-99894949I51J0D01*
G01*
X113450000Y-99894949D01*
G75*
G02*
X113450051Y-99895000I0J-51D01*
G01*
X113450051Y-100795000D01*
G75*
G02*
X113450000Y-100795051I-51J0D01*
G01*
X111450000Y-100795051D01*
G75*
G02*
X111449949Y-100795000I0J51D01*
G01*
G37*
G36*
G01*
X111449949Y-102065000D02*
X111449949Y-101165000D01*
G75*
G02*
X111450000Y-101164949I51J0D01*
G01*
X113450000Y-101164949D01*
G75*
G02*
X113450051Y-101165000I0J-51D01*
G01*
X113450051Y-102065000D01*
G75*
G02*
X113450000Y-102065051I-51J0D01*
G01*
X111450000Y-102065051D01*
G75*
G02*
X111449949Y-102065000I0J51D01*
G01*
G37*
G36*
G01*
X111449949Y-103335000D02*
X111449949Y-102435000D01*
G75*
G02*
X111450000Y-102434949I51J0D01*
G01*
X113450000Y-102434949D01*
G75*
G02*
X113450051Y-102435000I0J-51D01*
G01*
X113450051Y-103335000D01*
G75*
G02*
X113450000Y-103335051I-51J0D01*
G01*
X111450000Y-103335051D01*
G75*
G02*
X111449949Y-103335000I0J51D01*
G01*
G37*
G36*
G01*
X111449949Y-104605000D02*
X111449949Y-103705000D01*
G75*
G02*
X111450000Y-103704949I51J0D01*
G01*
X113450000Y-103704949D01*
G75*
G02*
X113450051Y-103705000I0J-51D01*
G01*
X113450051Y-104605000D01*
G75*
G02*
X113450000Y-104605051I-51J0D01*
G01*
X111450000Y-104605051D01*
G75*
G02*
X111449949Y-104605000I0J51D01*
G01*
G37*
G36*
G01*
X110115000Y-106155051D02*
X109215000Y-106155051D01*
G75*
G02*
X109214949Y-106155000I0J51D01*
G01*
X109214949Y-104155000D01*
G75*
G02*
X109215000Y-104154949I51J0D01*
G01*
X110115000Y-104154949D01*
G75*
G02*
X110115051Y-104155000I0J-51D01*
G01*
X110115051Y-106155000D01*
G75*
G02*
X110115000Y-106155051I-51J0D01*
G01*
G37*
G36*
G01*
X108845000Y-106155051D02*
X107945000Y-106155051D01*
G75*
G02*
X107944949Y-106155000I0J51D01*
G01*
X107944949Y-104155000D01*
G75*
G02*
X107945000Y-104154949I51J0D01*
G01*
X108845000Y-104154949D01*
G75*
G02*
X108845051Y-104155000I0J-51D01*
G01*
X108845051Y-106155000D01*
G75*
G02*
X108845000Y-106155051I-51J0D01*
G01*
G37*
G36*
G01*
X107575000Y-106155051D02*
X106675000Y-106155051D01*
G75*
G02*
X106674949Y-106155000I0J51D01*
G01*
X106674949Y-104155000D01*
G75*
G02*
X106675000Y-104154949I51J0D01*
G01*
X107575000Y-104154949D01*
G75*
G02*
X107575051Y-104155000I0J-51D01*
G01*
X107575051Y-106155000D01*
G75*
G02*
X107575000Y-106155051I-51J0D01*
G01*
G37*
G36*
G01*
X106305000Y-106155051D02*
X105405000Y-106155051D01*
G75*
G02*
X105404949Y-106155000I0J51D01*
G01*
X105404949Y-104155000D01*
G75*
G02*
X105405000Y-104154949I51J0D01*
G01*
X106305000Y-104154949D01*
G75*
G02*
X106305051Y-104155000I0J-51D01*
G01*
X106305051Y-106155000D01*
G75*
G02*
X106305000Y-106155051I-51J0D01*
G01*
G37*
G36*
G01*
X105035000Y-106155051D02*
X104135000Y-106155051D01*
G75*
G02*
X104134949Y-106155000I0J51D01*
G01*
X104134949Y-104155000D01*
G75*
G02*
X104135000Y-104154949I51J0D01*
G01*
X105035000Y-104154949D01*
G75*
G02*
X105035051Y-104155000I0J-51D01*
G01*
X105035051Y-106155000D01*
G75*
G02*
X105035000Y-106155051I-51J0D01*
G01*
G37*
G36*
G01*
X103765000Y-106155051D02*
X102865000Y-106155051D01*
G75*
G02*
X102864949Y-106155000I0J51D01*
G01*
X102864949Y-104155000D01*
G75*
G02*
X102865000Y-104154949I51J0D01*
G01*
X103765000Y-104154949D01*
G75*
G02*
X103765051Y-104155000I0J-51D01*
G01*
X103765051Y-106155000D01*
G75*
G02*
X103765000Y-106155051I-51J0D01*
G01*
G37*
G36*
G01*
X102495000Y-106155051D02*
X101595000Y-106155051D01*
G75*
G02*
X101594949Y-106155000I0J51D01*
G01*
X101594949Y-104155000D01*
G75*
G02*
X101595000Y-104154949I51J0D01*
G01*
X102495000Y-104154949D01*
G75*
G02*
X102495051Y-104155000I0J-51D01*
G01*
X102495051Y-106155000D01*
G75*
G02*
X102495000Y-106155051I-51J0D01*
G01*
G37*
G36*
G01*
X101225000Y-106155051D02*
X100325000Y-106155051D01*
G75*
G02*
X100324949Y-106155000I0J51D01*
G01*
X100324949Y-104155000D01*
G75*
G02*
X100325000Y-104154949I51J0D01*
G01*
X101225000Y-104154949D01*
G75*
G02*
X101225051Y-104155000I0J-51D01*
G01*
X101225051Y-106155000D01*
G75*
G02*
X101225000Y-106155051I-51J0D01*
G01*
G37*
G36*
G01*
X99955000Y-106155051D02*
X99055000Y-106155051D01*
G75*
G02*
X99054949Y-106155000I0J51D01*
G01*
X99054949Y-104155000D01*
G75*
G02*
X99055000Y-104154949I51J0D01*
G01*
X99955000Y-104154949D01*
G75*
G02*
X99955051Y-104155000I0J-51D01*
G01*
X99955051Y-106155000D01*
G75*
G02*
X99955000Y-106155051I-51J0D01*
G01*
G37*
G36*
G01*
X98685000Y-106155051D02*
X97785000Y-106155051D01*
G75*
G02*
X97784949Y-106155000I0J51D01*
G01*
X97784949Y-104155000D01*
G75*
G02*
X97785000Y-104154949I51J0D01*
G01*
X98685000Y-104154949D01*
G75*
G02*
X98685051Y-104155000I0J-51D01*
G01*
X98685051Y-106155000D01*
G75*
G02*
X98685000Y-106155051I-51J0D01*
G01*
G37*
G36*
G01*
X94449949Y-104605000D02*
X94449949Y-103705000D01*
G75*
G02*
X94450000Y-103704949I51J0D01*
G01*
X96450000Y-103704949D01*
G75*
G02*
X96450051Y-103705000I0J-51D01*
G01*
X96450051Y-104605000D01*
G75*
G02*
X96450000Y-104605051I-51J0D01*
G01*
X94450000Y-104605051D01*
G75*
G02*
X94449949Y-104605000I0J51D01*
G01*
G37*
G36*
G01*
X94449949Y-103335000D02*
X94449949Y-102435000D01*
G75*
G02*
X94450000Y-102434949I51J0D01*
G01*
X96450000Y-102434949D01*
G75*
G02*
X96450051Y-102435000I0J-51D01*
G01*
X96450051Y-103335000D01*
G75*
G02*
X96450000Y-103335051I-51J0D01*
G01*
X94450000Y-103335051D01*
G75*
G02*
X94449949Y-103335000I0J51D01*
G01*
G37*
G36*
G01*
X94449949Y-102065000D02*
X94449949Y-101165000D01*
G75*
G02*
X94450000Y-101164949I51J0D01*
G01*
X96450000Y-101164949D01*
G75*
G02*
X96450051Y-101165000I0J-51D01*
G01*
X96450051Y-102065000D01*
G75*
G02*
X96450000Y-102065051I-51J0D01*
G01*
X94450000Y-102065051D01*
G75*
G02*
X94449949Y-102065000I0J51D01*
G01*
G37*
G36*
G01*
X94449949Y-100795000D02*
X94449949Y-99895000D01*
G75*
G02*
X94450000Y-99894949I51J0D01*
G01*
X96450000Y-99894949D01*
G75*
G02*
X96450051Y-99895000I0J-51D01*
G01*
X96450051Y-100795000D01*
G75*
G02*
X96450000Y-100795051I-51J0D01*
G01*
X94450000Y-100795051D01*
G75*
G02*
X94449949Y-100795000I0J51D01*
G01*
G37*
G36*
G01*
X94449949Y-99525000D02*
X94449949Y-98625000D01*
G75*
G02*
X94450000Y-98624949I51J0D01*
G01*
X96450000Y-98624949D01*
G75*
G02*
X96450051Y-98625000I0J-51D01*
G01*
X96450051Y-99525000D01*
G75*
G02*
X96450000Y-99525051I-51J0D01*
G01*
X94450000Y-99525051D01*
G75*
G02*
X94449949Y-99525000I0J51D01*
G01*
G37*
G36*
G01*
X94449949Y-98255000D02*
X94449949Y-97355000D01*
G75*
G02*
X94450000Y-97354949I51J0D01*
G01*
X96450000Y-97354949D01*
G75*
G02*
X96450051Y-97355000I0J-51D01*
G01*
X96450051Y-98255000D01*
G75*
G02*
X96450000Y-98255051I-51J0D01*
G01*
X94450000Y-98255051D01*
G75*
G02*
X94449949Y-98255000I0J51D01*
G01*
G37*
G36*
G01*
X94449949Y-96985000D02*
X94449949Y-96085000D01*
G75*
G02*
X94450000Y-96084949I51J0D01*
G01*
X96450000Y-96084949D01*
G75*
G02*
X96450051Y-96085000I0J-51D01*
G01*
X96450051Y-96985000D01*
G75*
G02*
X96450000Y-96985051I-51J0D01*
G01*
X94450000Y-96985051D01*
G75*
G02*
X94449949Y-96985000I0J51D01*
G01*
G37*
G36*
G01*
X94449949Y-95715000D02*
X94449949Y-94815000D01*
G75*
G02*
X94450000Y-94814949I51J0D01*
G01*
X96450000Y-94814949D01*
G75*
G02*
X96450051Y-94815000I0J-51D01*
G01*
X96450051Y-95715000D01*
G75*
G02*
X96450000Y-95715051I-51J0D01*
G01*
X94450000Y-95715051D01*
G75*
G02*
X94449949Y-95715000I0J51D01*
G01*
G37*
G36*
G01*
X94449949Y-94445000D02*
X94449949Y-93545000D01*
G75*
G02*
X94450000Y-93544949I51J0D01*
G01*
X96450000Y-93544949D01*
G75*
G02*
X96450051Y-93545000I0J-51D01*
G01*
X96450051Y-94445000D01*
G75*
G02*
X96450000Y-94445051I-51J0D01*
G01*
X94450000Y-94445051D01*
G75*
G02*
X94449949Y-94445000I0J51D01*
G01*
G37*
G36*
G01*
X94449949Y-93175000D02*
X94449949Y-92275000D01*
G75*
G02*
X94450000Y-92274949I51J0D01*
G01*
X96450000Y-92274949D01*
G75*
G02*
X96450051Y-92275000I0J-51D01*
G01*
X96450051Y-93175000D01*
G75*
G02*
X96450000Y-93175051I-51J0D01*
G01*
X94450000Y-93175051D01*
G75*
G02*
X94449949Y-93175000I0J51D01*
G01*
G37*
G36*
G01*
X94449949Y-91905000D02*
X94449949Y-91005000D01*
G75*
G02*
X94450000Y-91004949I51J0D01*
G01*
X96450000Y-91004949D01*
G75*
G02*
X96450051Y-91005000I0J-51D01*
G01*
X96450051Y-91905000D01*
G75*
G02*
X96450000Y-91905051I-51J0D01*
G01*
X94450000Y-91905051D01*
G75*
G02*
X94449949Y-91905000I0J51D01*
G01*
G37*
G36*
G01*
X94449949Y-90635000D02*
X94449949Y-89735000D01*
G75*
G02*
X94450000Y-89734949I51J0D01*
G01*
X96450000Y-89734949D01*
G75*
G02*
X96450051Y-89735000I0J-51D01*
G01*
X96450051Y-90635000D01*
G75*
G02*
X96450000Y-90635051I-51J0D01*
G01*
X94450000Y-90635051D01*
G75*
G02*
X94449949Y-90635000I0J51D01*
G01*
G37*
G36*
G01*
X94449949Y-89365000D02*
X94449949Y-88465000D01*
G75*
G02*
X94450000Y-88464949I51J0D01*
G01*
X96450000Y-88464949D01*
G75*
G02*
X96450051Y-88465000I0J-51D01*
G01*
X96450051Y-89365000D01*
G75*
G02*
X96450000Y-89365051I-51J0D01*
G01*
X94450000Y-89365051D01*
G75*
G02*
X94449949Y-89365000I0J51D01*
G01*
G37*
G36*
G01*
X94449949Y-88095000D02*
X94449949Y-87195000D01*
G75*
G02*
X94450000Y-87194949I51J0D01*
G01*
X96450000Y-87194949D01*
G75*
G02*
X96450051Y-87195000I0J-51D01*
G01*
X96450051Y-88095000D01*
G75*
G02*
X96450000Y-88095051I-51J0D01*
G01*
X94450000Y-88095051D01*
G75*
G02*
X94449949Y-88095000I0J51D01*
G01*
G37*
G36*
G01*
X100449949Y-97645000D02*
X100449949Y-92645000D01*
G75*
G02*
X100450000Y-92644949I51J0D01*
G01*
X105450000Y-92644949D01*
G75*
G02*
X105450051Y-92645000I0J-51D01*
G01*
X105450051Y-97645000D01*
G75*
G02*
X105450000Y-97645051I-51J0D01*
G01*
X100450000Y-97645051D01*
G75*
G02*
X100449949Y-97645000I0J51D01*
G01*
G37*
%TD*%
%TO.C,U2*%
G36*
G01*
X103394974Y-108824949D02*
X103695026Y-108824949D01*
G75*
G02*
X103845051Y-108974974I0J-150025D01*
G01*
X103845051Y-110725026D01*
G75*
G02*
X103695026Y-110875051I-150025J0D01*
G01*
X103394974Y-110875051D01*
G75*
G02*
X103244949Y-110725026I0J150025D01*
G01*
X103244949Y-108974974D01*
G75*
G02*
X103394974Y-108824949I150025J0D01*
G01*
G37*
G36*
G01*
X102124974Y-108824949D02*
X102425026Y-108824949D01*
G75*
G02*
X102575051Y-108974974I0J-150025D01*
G01*
X102575051Y-110725026D01*
G75*
G02*
X102425026Y-110875051I-150025J0D01*
G01*
X102124974Y-110875051D01*
G75*
G02*
X101974949Y-110725026I0J150025D01*
G01*
X101974949Y-108974974D01*
G75*
G02*
X102124974Y-108824949I150025J0D01*
G01*
G37*
G36*
G01*
X100854974Y-108824949D02*
X101155026Y-108824949D01*
G75*
G02*
X101305051Y-108974974I0J-150025D01*
G01*
X101305051Y-110725026D01*
G75*
G02*
X101155026Y-110875051I-150025J0D01*
G01*
X100854974Y-110875051D01*
G75*
G02*
X100704949Y-110725026I0J150025D01*
G01*
X100704949Y-108974974D01*
G75*
G02*
X100854974Y-108824949I150025J0D01*
G01*
G37*
G36*
G01*
X99584974Y-108824949D02*
X99885026Y-108824949D01*
G75*
G02*
X100035051Y-108974974I0J-150025D01*
G01*
X100035051Y-110725026D01*
G75*
G02*
X99885026Y-110875051I-150025J0D01*
G01*
X99584974Y-110875051D01*
G75*
G02*
X99434949Y-110725026I0J150025D01*
G01*
X99434949Y-108974974D01*
G75*
G02*
X99584974Y-108824949I150025J0D01*
G01*
G37*
G36*
G01*
X98314974Y-108824949D02*
X98615026Y-108824949D01*
G75*
G02*
X98765051Y-108974974I0J-150025D01*
G01*
X98765051Y-110725026D01*
G75*
G02*
X98615026Y-110875051I-150025J0D01*
G01*
X98314974Y-110875051D01*
G75*
G02*
X98164949Y-110725026I0J150025D01*
G01*
X98164949Y-108974974D01*
G75*
G02*
X98314974Y-108824949I150025J0D01*
G01*
G37*
G36*
G01*
X97044974Y-108824949D02*
X97345026Y-108824949D01*
G75*
G02*
X97495051Y-108974974I0J-150025D01*
G01*
X97495051Y-110725026D01*
G75*
G02*
X97345026Y-110875051I-150025J0D01*
G01*
X97044974Y-110875051D01*
G75*
G02*
X96894949Y-110725026I0J150025D01*
G01*
X96894949Y-108974974D01*
G75*
G02*
X97044974Y-108824949I150025J0D01*
G01*
G37*
G36*
G01*
X95774974Y-108824949D02*
X96075026Y-108824949D01*
G75*
G02*
X96225051Y-108974974I0J-150025D01*
G01*
X96225051Y-110725026D01*
G75*
G02*
X96075026Y-110875051I-150025J0D01*
G01*
X95774974Y-110875051D01*
G75*
G02*
X95624949Y-110725026I0J150025D01*
G01*
X95624949Y-108974974D01*
G75*
G02*
X95774974Y-108824949I150025J0D01*
G01*
G37*
G36*
G01*
X94504974Y-108824949D02*
X94805026Y-108824949D01*
G75*
G02*
X94955051Y-108974974I0J-150025D01*
G01*
X94955051Y-110725026D01*
G75*
G02*
X94805026Y-110875051I-150025J0D01*
G01*
X94504974Y-110875051D01*
G75*
G02*
X94354949Y-110725026I0J150025D01*
G01*
X94354949Y-108974974D01*
G75*
G02*
X94504974Y-108824949I150025J0D01*
G01*
G37*
G36*
G01*
X94504974Y-118124949D02*
X94805026Y-118124949D01*
G75*
G02*
X94955051Y-118274974I0J-150025D01*
G01*
X94955051Y-120025026D01*
G75*
G02*
X94805026Y-120175051I-150025J0D01*
G01*
X94504974Y-120175051D01*
G75*
G02*
X94354949Y-120025026I0J150025D01*
G01*
X94354949Y-118274974D01*
G75*
G02*
X94504974Y-118124949I150025J0D01*
G01*
G37*
G36*
G01*
X95774974Y-118124949D02*
X96075026Y-118124949D01*
G75*
G02*
X96225051Y-118274974I0J-150025D01*
G01*
X96225051Y-120025026D01*
G75*
G02*
X96075026Y-120175051I-150025J0D01*
G01*
X95774974Y-120175051D01*
G75*
G02*
X95624949Y-120025026I0J150025D01*
G01*
X95624949Y-118274974D01*
G75*
G02*
X95774974Y-118124949I150025J0D01*
G01*
G37*
G36*
G01*
X97044974Y-118124949D02*
X97345026Y-118124949D01*
G75*
G02*
X97495051Y-118274974I0J-150025D01*
G01*
X97495051Y-120025026D01*
G75*
G02*
X97345026Y-120175051I-150025J0D01*
G01*
X97044974Y-120175051D01*
G75*
G02*
X96894949Y-120025026I0J150025D01*
G01*
X96894949Y-118274974D01*
G75*
G02*
X97044974Y-118124949I150025J0D01*
G01*
G37*
G36*
G01*
X98314974Y-118124949D02*
X98615026Y-118124949D01*
G75*
G02*
X98765051Y-118274974I0J-150025D01*
G01*
X98765051Y-120025026D01*
G75*
G02*
X98615026Y-120175051I-150025J0D01*
G01*
X98314974Y-120175051D01*
G75*
G02*
X98164949Y-120025026I0J150025D01*
G01*
X98164949Y-118274974D01*
G75*
G02*
X98314974Y-118124949I150025J0D01*
G01*
G37*
G36*
G01*
X99584974Y-118124949D02*
X99885026Y-118124949D01*
G75*
G02*
X100035051Y-118274974I0J-150025D01*
G01*
X100035051Y-120025026D01*
G75*
G02*
X99885026Y-120175051I-150025J0D01*
G01*
X99584974Y-120175051D01*
G75*
G02*
X99434949Y-120025026I0J150025D01*
G01*
X99434949Y-118274974D01*
G75*
G02*
X99584974Y-118124949I150025J0D01*
G01*
G37*
G36*
G01*
X100854974Y-118124949D02*
X101155026Y-118124949D01*
G75*
G02*
X101305051Y-118274974I0J-150025D01*
G01*
X101305051Y-120025026D01*
G75*
G02*
X101155026Y-120175051I-150025J0D01*
G01*
X100854974Y-120175051D01*
G75*
G02*
X100704949Y-120025026I0J150025D01*
G01*
X100704949Y-118274974D01*
G75*
G02*
X100854974Y-118124949I150025J0D01*
G01*
G37*
G36*
G01*
X102124974Y-118124949D02*
X102425026Y-118124949D01*
G75*
G02*
X102575051Y-118274974I0J-150025D01*
G01*
X102575051Y-120025026D01*
G75*
G02*
X102425026Y-120175051I-150025J0D01*
G01*
X102124974Y-120175051D01*
G75*
G02*
X101974949Y-120025026I0J150025D01*
G01*
X101974949Y-118274974D01*
G75*
G02*
X102124974Y-118124949I150025J0D01*
G01*
G37*
G36*
G01*
X103394974Y-118124949D02*
X103695026Y-118124949D01*
G75*
G02*
X103845051Y-118274974I0J-150025D01*
G01*
X103845051Y-120025026D01*
G75*
G02*
X103695026Y-120175051I-150025J0D01*
G01*
X103394974Y-120175051D01*
G75*
G02*
X103244949Y-120025026I0J150025D01*
G01*
X103244949Y-118274974D01*
G75*
G02*
X103394974Y-118124949I150025J0D01*
G01*
G37*
%TD*%
%TO.C,U3*%
G36*
G01*
X124919949Y-87425000D02*
X124919949Y-86775000D01*
G75*
G02*
X124920000Y-86774949I51J0D01*
G01*
X125980000Y-86774949D01*
G75*
G02*
X125980051Y-86775000I0J-51D01*
G01*
X125980051Y-87425000D01*
G75*
G02*
X125980000Y-87425051I-51J0D01*
G01*
X124920000Y-87425051D01*
G75*
G02*
X124919949Y-87425000I0J51D01*
G01*
G37*
G36*
G01*
X124919949Y-88375000D02*
X124919949Y-87725000D01*
G75*
G02*
X124920000Y-87724949I51J0D01*
G01*
X125980000Y-87724949D01*
G75*
G02*
X125980051Y-87725000I0J-51D01*
G01*
X125980051Y-88375000D01*
G75*
G02*
X125980000Y-88375051I-51J0D01*
G01*
X124920000Y-88375051D01*
G75*
G02*
X124919949Y-88375000I0J51D01*
G01*
G37*
G36*
G01*
X124919949Y-89325000D02*
X124919949Y-88675000D01*
G75*
G02*
X124920000Y-88674949I51J0D01*
G01*
X125980000Y-88674949D01*
G75*
G02*
X125980051Y-88675000I0J-51D01*
G01*
X125980051Y-89325000D01*
G75*
G02*
X125980000Y-89325051I-51J0D01*
G01*
X124920000Y-89325051D01*
G75*
G02*
X124919949Y-89325000I0J51D01*
G01*
G37*
G36*
G01*
X127119949Y-89325000D02*
X127119949Y-88675000D01*
G75*
G02*
X127120000Y-88674949I51J0D01*
G01*
X128180000Y-88674949D01*
G75*
G02*
X128180051Y-88675000I0J-51D01*
G01*
X128180051Y-89325000D01*
G75*
G02*
X128180000Y-89325051I-51J0D01*
G01*
X127120000Y-89325051D01*
G75*
G02*
X127119949Y-89325000I0J51D01*
G01*
G37*
G36*
G01*
X127119949Y-87425000D02*
X127119949Y-86775000D01*
G75*
G02*
X127120000Y-86774949I51J0D01*
G01*
X128180000Y-86774949D01*
G75*
G02*
X128180051Y-86775000I0J-51D01*
G01*
X128180051Y-87425000D01*
G75*
G02*
X128180000Y-87425051I-51J0D01*
G01*
X127120000Y-87425051D01*
G75*
G02*
X127119949Y-87425000I0J51D01*
G01*
G37*
%TD*%
M02*
