%FSLAX45Y45*%
G04 Gerber Fmt 4.5, Leading zero omitted, Abs format (unit mm)*
G04 Created by KiCad (PCBNEW 5.1.8-db9833491~87~ubuntu20.04.1) date 2020-11-28 22:09:26*
%MOMM*%
%LPD*%
G01*
G04 APERTURE LIST*
%TA.AperFunction,Profile*%
%ADD10C,0.050000*%
%TD*%
%ADD11C,0.200000*%
%ADD12C,0.300000*%
G04 APERTURE END LIST*
D10*
X17200000Y-12100000D02*
G75*
G02*
X17100000Y-12200000I-100000J0D01*
G01*
X9100000Y-12200000D02*
G75*
G02*
X9000000Y-12100000I0J100000D01*
G01*
X9000000Y-8100000D02*
X9000000Y-12100000D01*
X17200000Y-8100000D02*
X17200000Y-12100000D01*
X9000000Y-8100000D02*
G75*
G02*
X9100000Y-8000000I100000J0D01*
G01*
X9100000Y-8000000D02*
X17100000Y-8000000D01*
X17100000Y-8000000D02*
G75*
G02*
X17200000Y-8100000I0J-100000D01*
G01*
X17100000Y-12200000D02*
X9100000Y-12200000D01*
D11*
X13045000Y-10340000D02*
X13065000Y-10360000D01*
X13065000Y-10340000D02*
X13045000Y-10360000D01*
X13140000Y-10282500D02*
X13160000Y-10302500D01*
X13160000Y-10282500D02*
X13140000Y-10302500D01*
X13140000Y-10397500D02*
X13160000Y-10417500D01*
X13160000Y-10397500D02*
X13140000Y-10417500D01*
X13235000Y-10340000D02*
X13255000Y-10360000D01*
X13255000Y-10340000D02*
X13235000Y-10360000D01*
X9155000Y-11340000D02*
G75*
G03*
X9155000Y-11340000I-20000J0D01*
G01*
X9325000Y-9215000D02*
G75*
G03*
X9325000Y-9215000I-20000J0D01*
G01*
X9340000Y-10905000D02*
G75*
G03*
X9340000Y-10905000I-20000J0D01*
G01*
X9340000Y-11495000D02*
G75*
G03*
X9340000Y-11495000I-20000J0D01*
G01*
X9360000Y-9820000D02*
G75*
G03*
X9360000Y-9820000I-20000J0D01*
G01*
X9485000Y-10795000D02*
G75*
G03*
X9485000Y-10795000I-20000J0D01*
G01*
X9485500Y-11544500D02*
G75*
G03*
X9485500Y-11544500I-20000J0D01*
G01*
X9485500Y-11764500D02*
G75*
G03*
X9485500Y-11764500I-20000J0D01*
G01*
X9615000Y-11765000D02*
G75*
G03*
X9615000Y-11765000I-20000J0D01*
G01*
X9670000Y-11320000D02*
G75*
G03*
X9670000Y-11320000I-20000J0D01*
G01*
X9739500Y-11765500D02*
G75*
G03*
X9739500Y-11765500I-20000J0D01*
G01*
X9820000Y-11275000D02*
G75*
G03*
X9820000Y-11275000I-20000J0D01*
G01*
X9845000Y-10340000D02*
G75*
G03*
X9845000Y-10340000I-20000J0D01*
G01*
X9860000Y-10015000D02*
G75*
G03*
X9860000Y-10015000I-20000J0D01*
G01*
X9866500Y-11121500D02*
G75*
G03*
X9866500Y-11121500I-20000J0D01*
G01*
X9885000Y-9005000D02*
G75*
G03*
X9885000Y-9005000I-20000J0D01*
G01*
X9885000Y-9250000D02*
G75*
G03*
X9885000Y-9250000I-20000J0D01*
G01*
X9970000Y-9660000D02*
G75*
G03*
X9970000Y-9660000I-20000J0D01*
G01*
X10130500Y-8764500D02*
G75*
G03*
X10130500Y-8764500I-20000J0D01*
G01*
X10310000Y-10795001D02*
G75*
G03*
X10310000Y-10795001I-20000J0D01*
G01*
X10310000Y-11465000D02*
G75*
G03*
X10310000Y-11465000I-20000J0D01*
G01*
X10315000Y-9845000D02*
G75*
G03*
X10315000Y-9845000I-20000J0D01*
G01*
X10418033Y-11573033D02*
G75*
G03*
X10418033Y-11573033I-20000J0D01*
G01*
X10435000Y-10330000D02*
G75*
G03*
X10435000Y-10330000I-20000J0D01*
G01*
X10450500Y-8764500D02*
G75*
G03*
X10450500Y-8764500I-20000J0D01*
G01*
X10655000Y-9515000D02*
G75*
G03*
X10655000Y-9515000I-20000J0D01*
G01*
X10670000Y-11225000D02*
G75*
G03*
X10670000Y-11225000I-20000J0D01*
G01*
X10735000Y-11020000D02*
G75*
G03*
X10735000Y-11020000I-20000J0D01*
G01*
X10740500Y-8764500D02*
G75*
G03*
X10740500Y-8764500I-20000J0D01*
G01*
X10780533Y-10784467D02*
G75*
G03*
X10780533Y-10784467I-20000J0D01*
G01*
X10853100Y-10015220D02*
G75*
G03*
X10853100Y-10015220I-20000J0D01*
G01*
X10853100Y-10180320D02*
G75*
G03*
X10853100Y-10180320I-20000J0D01*
G01*
X10905000Y-9365000D02*
G75*
G03*
X10905000Y-9365000I-20000J0D01*
G01*
X10964860Y-9931400D02*
G75*
G03*
X10964860Y-9931400I-20000J0D01*
G01*
X10964860Y-10256520D02*
G75*
G03*
X10964860Y-10256520I-20000J0D01*
G01*
X11000500Y-8764500D02*
G75*
G03*
X11000500Y-8764500I-20000J0D01*
G01*
X11005000Y-9725000D02*
G75*
G03*
X11005000Y-9725000I-20000J0D01*
G01*
X11005000Y-10750000D02*
G75*
G03*
X11005000Y-10750000I-20000J0D01*
G01*
X11060000Y-8920000D02*
G75*
G03*
X11060000Y-8920000I-20000J0D01*
G01*
X11080000Y-9360000D02*
G75*
G03*
X11080000Y-9360000I-20000J0D01*
G01*
X11125000Y-10750000D02*
G75*
G03*
X11125000Y-10750000I-20000J0D01*
G01*
X11125000Y-11050000D02*
G75*
G03*
X11125000Y-11050000I-20000J0D01*
G01*
X11135000Y-11510000D02*
G75*
G03*
X11135000Y-11510000I-20000J0D01*
G01*
X11270000Y-10895000D02*
G75*
G03*
X11270000Y-10895000I-20000J0D01*
G01*
X11365000Y-11510000D02*
G75*
G03*
X11365000Y-11510000I-20000J0D01*
G01*
X11390000Y-11145000D02*
G75*
G03*
X11390000Y-11145000I-20000J0D01*
G01*
X11470000Y-9555000D02*
G75*
G03*
X11470000Y-9555000I-20000J0D01*
G01*
X11470000Y-9780000D02*
G75*
G03*
X11470000Y-9780000I-20000J0D01*
G01*
X11470320Y-9931400D02*
G75*
G03*
X11470320Y-9931400I-20000J0D01*
G01*
X11470320Y-10256520D02*
G75*
G03*
X11470320Y-10256520I-20000J0D01*
G01*
X11575000Y-9670000D02*
G75*
G03*
X11575000Y-9670000I-20000J0D01*
G01*
X11577000Y-10852150D02*
G75*
G03*
X11577000Y-10852150I-20000J0D01*
G01*
X11590000Y-11510000D02*
G75*
G03*
X11590000Y-11510000I-20000J0D01*
G01*
X11600000Y-10015000D02*
G75*
G03*
X11600000Y-10015000I-20000J0D01*
G01*
X11600000Y-10175000D02*
G75*
G03*
X11600000Y-10175000I-20000J0D01*
G01*
X11655000Y-8920000D02*
G75*
G03*
X11655000Y-8920000I-20000J0D01*
G01*
X11735000Y-9815000D02*
G75*
G03*
X11735000Y-9815000I-20000J0D01*
G01*
X11735000Y-9930000D02*
G75*
G03*
X11735000Y-9930000I-20000J0D01*
G01*
X11745000Y-11695000D02*
G75*
G03*
X11745000Y-11695000I-20000J0D01*
G01*
X11851320Y-11877040D02*
G75*
G03*
X11851320Y-11877040I-20000J0D01*
G01*
X11870000Y-10105000D02*
G75*
G03*
X11870000Y-10105000I-20000J0D01*
G01*
X11888150Y-9588500D02*
G75*
G03*
X11888150Y-9588500I-20000J0D01*
G01*
X11926250Y-9480550D02*
G75*
G03*
X11926250Y-9480550I-20000J0D01*
G01*
X11980000Y-9930000D02*
G75*
G03*
X11980000Y-9930000I-20000J0D01*
G01*
X12035000Y-9815000D02*
G75*
G03*
X12035000Y-9815000I-20000J0D01*
G01*
X12065000Y-9400000D02*
G75*
G03*
X12065000Y-9400000I-20000J0D01*
G01*
X12090000Y-10010000D02*
G75*
G03*
X12090000Y-10010000I-20000J0D01*
G01*
X12142150Y-9696450D02*
G75*
G03*
X12142150Y-9696450I-20000J0D01*
G01*
X12186600Y-10873740D02*
G75*
G03*
X12186600Y-10873740I-20000J0D01*
G01*
X12231050Y-9607550D02*
G75*
G03*
X12231050Y-9607550I-20000J0D01*
G01*
X12275500Y-9817100D02*
G75*
G03*
X12275500Y-9817100I-20000J0D01*
G01*
X12275500Y-10172700D02*
G75*
G03*
X12275500Y-10172700I-20000J0D01*
G01*
X12300000Y-8355000D02*
G75*
G03*
X12300000Y-8355000I-20000J0D01*
G01*
X12345000Y-9165000D02*
G75*
G03*
X12345000Y-9165000I-20000J0D01*
G01*
X12345000Y-9370000D02*
G75*
G03*
X12345000Y-9370000I-20000J0D01*
G01*
X12345000Y-9615000D02*
G75*
G03*
X12345000Y-9615000I-20000J0D01*
G01*
X12345350Y-11753850D02*
G75*
G03*
X12345350Y-11753850I-20000J0D01*
G01*
X12355000Y-8465000D02*
G75*
G03*
X12355000Y-8465000I-20000J0D01*
G01*
X12447500Y-10395000D02*
G75*
G03*
X12447500Y-10395000I-20000J0D01*
G01*
X12480000Y-10682500D02*
G75*
G03*
X12480000Y-10682500I-20000J0D01*
G01*
X12485000Y-9170000D02*
G75*
G03*
X12485000Y-9170000I-20000J0D01*
G01*
X12495000Y-8160000D02*
G75*
G03*
X12495000Y-8160000I-20000J0D01*
G01*
X12722500Y-11057500D02*
G75*
G03*
X12722500Y-11057500I-20000J0D01*
G01*
X12730000Y-10402500D02*
G75*
G03*
X12730000Y-10402500I-20000J0D01*
G01*
X12815000Y-9255000D02*
G75*
G03*
X12815000Y-9255000I-20000J0D01*
G01*
X12820000Y-10680000D02*
G75*
G03*
X12820000Y-10680000I-20000J0D01*
G01*
X12885000Y-9150000D02*
G75*
G03*
X12885000Y-9150000I-20000J0D01*
G01*
X12905000Y-10195000D02*
G75*
G03*
X12905000Y-10195000I-20000J0D01*
G01*
X12927500Y-11057500D02*
G75*
G03*
X12927500Y-11057500I-20000J0D01*
G01*
X12960000Y-8650000D02*
G75*
G03*
X12960000Y-8650000I-20000J0D01*
G01*
X13150000Y-8635000D02*
G75*
G03*
X13150000Y-8635000I-20000J0D01*
G01*
X13150104Y-9144896D02*
G75*
G03*
X13150104Y-9144896I-20000J0D01*
G01*
X13180000Y-8935000D02*
G75*
G03*
X13180000Y-8935000I-20000J0D01*
G01*
X13305000Y-10575000D02*
G75*
G03*
X13305000Y-10575000I-20000J0D01*
G01*
X13349920Y-8260080D02*
G75*
G03*
X13349920Y-8260080I-20000J0D01*
G01*
X13415000Y-8955000D02*
G75*
G03*
X13415000Y-8955000I-20000J0D01*
G01*
X13435000Y-10165000D02*
G75*
G03*
X13435000Y-10165000I-20000J0D01*
G01*
X13530260Y-8341360D02*
G75*
G03*
X13530260Y-8341360I-20000J0D01*
G01*
X13590000Y-10799999D02*
G75*
G03*
X13590000Y-10799999I-20000J0D01*
G01*
X13605000Y-11235000D02*
G75*
G03*
X13605000Y-11235000I-20000J0D01*
G01*
X13809660Y-10589260D02*
G75*
G03*
X13809660Y-10589260I-20000J0D01*
G01*
X13825000Y-10360000D02*
G75*
G03*
X13825000Y-10360000I-20000J0D01*
G01*
X13840000Y-10900000D02*
G75*
G03*
X13840000Y-10900000I-20000J0D01*
G01*
X13840140Y-11122660D02*
G75*
G03*
X13840140Y-11122660I-20000J0D01*
G01*
X13840140Y-11369040D02*
G75*
G03*
X13840140Y-11369040I-20000J0D01*
G01*
X13845220Y-8636000D02*
G75*
G03*
X13845220Y-8636000I-20000J0D01*
G01*
X13852500Y-11502500D02*
G75*
G03*
X13852500Y-11502500I-20000J0D01*
G01*
X13985000Y-8660000D02*
G75*
G03*
X13985000Y-8660000I-20000J0D01*
G01*
X14010000Y-9050000D02*
G75*
G03*
X14010000Y-9050000I-20000J0D01*
G01*
X14070000Y-8840000D02*
G75*
G03*
X14070000Y-8840000I-20000J0D01*
G01*
X14106840Y-11226800D02*
G75*
G03*
X14106840Y-11226800I-20000J0D01*
G01*
X14120000Y-10900000D02*
G75*
G03*
X14120000Y-10900000I-20000J0D01*
G01*
X14175000Y-9340001D02*
G75*
G03*
X14175000Y-9340001I-20000J0D01*
G01*
X14188120Y-8750300D02*
G75*
G03*
X14188120Y-8750300I-20000J0D01*
G01*
X14242500Y-11502500D02*
G75*
G03*
X14242500Y-11502500I-20000J0D01*
G01*
X14274480Y-9618980D02*
G75*
G03*
X14274480Y-9618980I-20000J0D01*
G01*
X14275750Y-9461500D02*
G75*
G03*
X14275750Y-9461500I-20000J0D01*
G01*
X14345000Y-9050000D02*
G75*
G03*
X14345000Y-9050000I-20000J0D01*
G01*
X14381160Y-10414000D02*
G75*
G03*
X14381160Y-10414000I-20000J0D01*
G01*
X14465000Y-10565000D02*
G75*
G03*
X14465000Y-10565000I-20000J0D01*
G01*
X14569120Y-10215880D02*
G75*
G03*
X14569120Y-10215880I-20000J0D01*
G01*
X14617380Y-9618980D02*
G75*
G03*
X14617380Y-9618980I-20000J0D01*
G01*
X14618650Y-9461500D02*
G75*
G03*
X14618650Y-9461500I-20000J0D01*
G01*
X14650000Y-10680000D02*
G75*
G03*
X14650000Y-10680000I-20000J0D01*
G01*
X14650000Y-10680000D02*
G75*
G03*
X14650000Y-10680000I-20000J0D01*
G01*
X14728000Y-8285000D02*
G75*
G03*
X14728000Y-8285000I-20000J0D01*
G01*
X14785020Y-10244980D02*
G75*
G03*
X14785020Y-10244980I-20000J0D01*
G01*
X14833280Y-10393680D02*
G75*
G03*
X14833280Y-10393680I-20000J0D01*
G01*
X15042500Y-11497500D02*
G75*
G03*
X15042500Y-11497500I-20000J0D01*
G01*
X15085000Y-9945000D02*
G75*
G03*
X15085000Y-9945000I-20000J0D01*
G01*
X15317150Y-8731250D02*
G75*
G03*
X15317150Y-8731250I-20000J0D01*
G01*
X15375000Y-9655000D02*
G75*
G03*
X15375000Y-9655000I-20000J0D01*
G01*
X15457500Y-11497500D02*
G75*
G03*
X15457500Y-11497500I-20000J0D01*
G01*
X15666400Y-8382000D02*
G75*
G03*
X15666400Y-8382000I-20000J0D01*
G01*
X16009300Y-8115300D02*
G75*
G03*
X16009300Y-8115300I-20000J0D01*
G01*
X16009300Y-8724900D02*
G75*
G03*
X16009300Y-8724900I-20000J0D01*
G01*
X16136300Y-9154160D02*
G75*
G03*
X16136300Y-9154160I-20000J0D01*
G01*
X16136300Y-9565640D02*
G75*
G03*
X16136300Y-9565640I-20000J0D01*
G01*
X16250600Y-8115300D02*
G75*
G03*
X16250600Y-8115300I-20000J0D01*
G01*
X16250600Y-8724900D02*
G75*
G03*
X16250600Y-8724900I-20000J0D01*
G01*
X16333150Y-9239250D02*
G75*
G03*
X16333150Y-9239250I-20000J0D01*
G01*
X16333150Y-9493250D02*
G75*
G03*
X16333150Y-9493250I-20000J0D01*
G01*
X16555000Y-10965000D02*
G75*
G03*
X16555000Y-10965000I-20000J0D01*
G01*
X16560000Y-10835000D02*
G75*
G03*
X16560000Y-10835000I-20000J0D01*
G01*
X16600000Y-10695000D02*
G75*
G03*
X16600000Y-10695000I-20000J0D01*
G01*
X16680000Y-11190000D02*
G75*
G03*
X16680000Y-11190000I-20000J0D01*
G01*
X16795000Y-10835000D02*
G75*
G03*
X16795000Y-10835000I-20000J0D01*
G01*
X16829720Y-10208260D02*
G75*
G03*
X16829720Y-10208260I-20000J0D01*
G01*
X16950000Y-10950000D02*
G75*
G03*
X16950000Y-10950000I-20000J0D01*
G01*
X11640000Y-9112500D02*
X11640000Y-9177500D01*
X11607500Y-9145000D02*
X11672500Y-9145000D01*
X11640000Y-9239500D02*
X11640000Y-9304500D01*
X11607500Y-9272000D02*
X11672500Y-9272000D01*
X12068000Y-9147500D02*
X12068000Y-9212500D01*
X12035500Y-9180000D02*
X12100500Y-9180000D01*
X12195000Y-9147500D02*
X12195000Y-9212500D01*
X12162500Y-9180000D02*
X12227500Y-9180000D01*
X16838285Y-8983285D02*
X16838285Y-8926716D01*
X16781716Y-8926716D01*
X16781716Y-8983285D01*
X16838285Y-8983285D01*
X16838285Y-9183285D02*
X16838285Y-9126716D01*
X16781716Y-9126716D01*
X16781716Y-9183285D01*
X16838285Y-9183285D01*
X16838285Y-9383285D02*
X16838285Y-9326716D01*
X16781716Y-9326716D01*
X16781716Y-9383285D01*
X16838285Y-9383285D01*
X14708000Y-8335000D02*
X14758000Y-8285000D01*
X14708000Y-8235000D01*
X14658000Y-8285000D01*
X14708000Y-8335000D01*
X14962000Y-8335000D02*
X15012000Y-8285000D01*
X14962000Y-8235000D01*
X14912000Y-8285000D01*
X14962000Y-8335000D01*
X15216000Y-8335000D02*
X15266000Y-8285000D01*
X15216000Y-8235000D01*
X15166000Y-8285000D01*
X15216000Y-8335000D01*
X15470000Y-8335000D02*
X15520000Y-8285000D01*
X15470000Y-8235000D01*
X15420000Y-8285000D01*
X15470000Y-8335000D01*
X15898700Y-11372700D02*
X16033300Y-11507300D01*
X16033300Y-11372700D02*
X15898700Y-11507300D01*
X16033300Y-11440000D02*
G75*
G03*
X16033300Y-11440000I-67300J0D01*
G01*
X15898700Y-11752700D02*
X16033300Y-11887300D01*
X16033300Y-11752700D02*
X15898700Y-11887300D01*
X16033300Y-11820000D02*
G75*
G03*
X16033300Y-11820000I-67300J0D01*
G01*
X16762700Y-11372700D02*
X16897300Y-11507300D01*
X16897300Y-11372700D02*
X16762700Y-11507300D01*
X16897300Y-11440000D02*
G75*
G03*
X16897300Y-11440000I-67300J0D01*
G01*
X16762700Y-11752700D02*
X16897300Y-11887300D01*
X16897300Y-11752700D02*
X16762700Y-11887300D01*
X16897300Y-11820000D02*
G75*
G03*
X16897300Y-11820000I-67300J0D01*
G01*
X16735000Y-8670000D02*
X16885000Y-8820000D01*
X16885000Y-8670000D02*
X16735000Y-8820000D01*
X16810000Y-8670000D02*
X16810000Y-8820000D01*
X16735000Y-8745000D02*
X16885000Y-8745000D01*
X16735000Y-9490000D02*
X16885000Y-9640000D01*
X16885000Y-9490000D02*
X16735000Y-9640000D01*
X16810000Y-9490000D02*
X16810000Y-9640000D01*
X16735000Y-9565000D02*
X16885000Y-9565000D01*
D12*
X9283928Y-12668214D02*
X9283928Y-12368214D01*
X9355357Y-12368214D01*
X9398214Y-12382500D01*
X9426786Y-12411071D01*
X9441071Y-12439643D01*
X9455357Y-12496786D01*
X9455357Y-12539643D01*
X9441071Y-12596786D01*
X9426786Y-12625357D01*
X9398214Y-12653929D01*
X9355357Y-12668214D01*
X9283928Y-12668214D01*
X9583928Y-12668214D02*
X9583928Y-12468214D01*
X9583928Y-12525357D02*
X9598214Y-12496786D01*
X9612500Y-12482500D01*
X9641071Y-12468214D01*
X9669643Y-12468214D01*
X9769643Y-12668214D02*
X9769643Y-12468214D01*
X9769643Y-12368214D02*
X9755357Y-12382500D01*
X9769643Y-12396786D01*
X9783928Y-12382500D01*
X9769643Y-12368214D01*
X9769643Y-12396786D01*
X9955357Y-12668214D02*
X9926786Y-12653929D01*
X9912500Y-12625357D01*
X9912500Y-12368214D01*
X10112500Y-12668214D02*
X10083928Y-12653929D01*
X10069643Y-12625357D01*
X10069643Y-12368214D01*
X10455357Y-12668214D02*
X10455357Y-12368214D01*
X10555357Y-12582500D01*
X10655357Y-12368214D01*
X10655357Y-12668214D01*
X10926786Y-12668214D02*
X10926786Y-12511071D01*
X10912500Y-12482500D01*
X10883928Y-12468214D01*
X10826786Y-12468214D01*
X10798214Y-12482500D01*
X10926786Y-12653929D02*
X10898214Y-12668214D01*
X10826786Y-12668214D01*
X10798214Y-12653929D01*
X10783928Y-12625357D01*
X10783928Y-12596786D01*
X10798214Y-12568214D01*
X10826786Y-12553929D01*
X10898214Y-12553929D01*
X10926786Y-12539643D01*
X11069643Y-12468214D02*
X11069643Y-12768214D01*
X11069643Y-12482500D02*
X11098214Y-12468214D01*
X11155357Y-12468214D01*
X11183928Y-12482500D01*
X11198214Y-12496786D01*
X11212500Y-12525357D01*
X11212500Y-12611071D01*
X11198214Y-12639643D01*
X11183928Y-12653929D01*
X11155357Y-12668214D01*
X11098214Y-12668214D01*
X11069643Y-12653929D01*
X11341071Y-12639643D02*
X11355357Y-12653929D01*
X11341071Y-12668214D01*
X11326786Y-12653929D01*
X11341071Y-12639643D01*
X11341071Y-12668214D01*
X11341071Y-12482500D02*
X11355357Y-12496786D01*
X11341071Y-12511071D01*
X11326786Y-12496786D01*
X11341071Y-12482500D01*
X11341071Y-12511071D01*
X8977500Y-13152500D02*
X8997500Y-13172500D01*
X8997500Y-13152500D02*
X8977500Y-13172500D01*
X9341071Y-12998214D02*
X9369643Y-12998214D01*
X9398214Y-13012500D01*
X9412500Y-13026786D01*
X9426786Y-13055357D01*
X9441071Y-13112500D01*
X9441071Y-13183929D01*
X9426786Y-13241071D01*
X9412500Y-13269643D01*
X9398214Y-13283929D01*
X9369643Y-13298214D01*
X9341071Y-13298214D01*
X9312500Y-13283929D01*
X9298214Y-13269643D01*
X9283928Y-13241071D01*
X9269643Y-13183929D01*
X9269643Y-13112500D01*
X9283928Y-13055357D01*
X9298214Y-13026786D01*
X9312500Y-13012500D01*
X9341071Y-12998214D01*
X9569643Y-13269643D02*
X9583928Y-13283929D01*
X9569643Y-13298214D01*
X9555357Y-13283929D01*
X9569643Y-13269643D01*
X9569643Y-13298214D01*
X9698214Y-13026786D02*
X9712500Y-13012500D01*
X9741071Y-12998214D01*
X9812500Y-12998214D01*
X9841071Y-13012500D01*
X9855357Y-13026786D01*
X9869643Y-13055357D01*
X9869643Y-13083929D01*
X9855357Y-13126786D01*
X9683928Y-13298214D01*
X9869643Y-13298214D01*
X10055357Y-12998214D02*
X10083928Y-12998214D01*
X10112500Y-13012500D01*
X10126786Y-13026786D01*
X10141071Y-13055357D01*
X10155357Y-13112500D01*
X10155357Y-13183929D01*
X10141071Y-13241071D01*
X10126786Y-13269643D01*
X10112500Y-13283929D01*
X10083928Y-13298214D01*
X10055357Y-13298214D01*
X10026786Y-13283929D01*
X10012500Y-13269643D01*
X9998214Y-13241071D01*
X9983928Y-13183929D01*
X9983928Y-13112500D01*
X9998214Y-13055357D01*
X10012500Y-13026786D01*
X10026786Y-13012500D01*
X10055357Y-12998214D01*
X10283928Y-13298214D02*
X10283928Y-13098214D01*
X10283928Y-13126786D02*
X10298214Y-13112500D01*
X10326786Y-13098214D01*
X10369643Y-13098214D01*
X10398214Y-13112500D01*
X10412500Y-13141071D01*
X10412500Y-13298214D01*
X10412500Y-13141071D02*
X10426786Y-13112500D01*
X10455357Y-13098214D01*
X10498214Y-13098214D01*
X10526786Y-13112500D01*
X10541071Y-13141071D01*
X10541071Y-13298214D01*
X10683928Y-13298214D02*
X10683928Y-13098214D01*
X10683928Y-13126786D02*
X10698214Y-13112500D01*
X10726786Y-13098214D01*
X10769643Y-13098214D01*
X10798214Y-13112500D01*
X10812500Y-13141071D01*
X10812500Y-13298214D01*
X10812500Y-13141071D02*
X10826786Y-13112500D01*
X10855357Y-13098214D01*
X10898214Y-13098214D01*
X10926786Y-13112500D01*
X10941071Y-13141071D01*
X10941071Y-13298214D01*
X11526786Y-12983929D02*
X11269643Y-13369643D01*
X11912500Y-12998214D02*
X11941071Y-12998214D01*
X11969643Y-13012500D01*
X11983928Y-13026786D01*
X11998214Y-13055357D01*
X12012500Y-13112500D01*
X12012500Y-13183929D01*
X11998214Y-13241071D01*
X11983928Y-13269643D01*
X11969643Y-13283929D01*
X11941071Y-13298214D01*
X11912500Y-13298214D01*
X11883928Y-13283929D01*
X11869643Y-13269643D01*
X11855357Y-13241071D01*
X11841071Y-13183929D01*
X11841071Y-13112500D01*
X11855357Y-13055357D01*
X11869643Y-13026786D01*
X11883928Y-13012500D01*
X11912500Y-12998214D01*
X12141071Y-13269643D02*
X12155357Y-13283929D01*
X12141071Y-13298214D01*
X12126786Y-13283929D01*
X12141071Y-13269643D01*
X12141071Y-13298214D01*
X12341071Y-12998214D02*
X12369643Y-12998214D01*
X12398214Y-13012500D01*
X12412500Y-13026786D01*
X12426786Y-13055357D01*
X12441071Y-13112500D01*
X12441071Y-13183929D01*
X12426786Y-13241071D01*
X12412500Y-13269643D01*
X12398214Y-13283929D01*
X12369643Y-13298214D01*
X12341071Y-13298214D01*
X12312500Y-13283929D01*
X12298214Y-13269643D01*
X12283928Y-13241071D01*
X12269643Y-13183929D01*
X12269643Y-13112500D01*
X12283928Y-13055357D01*
X12298214Y-13026786D01*
X12312500Y-13012500D01*
X12341071Y-12998214D01*
X12626786Y-12998214D02*
X12655357Y-12998214D01*
X12683928Y-13012500D01*
X12698214Y-13026786D01*
X12712500Y-13055357D01*
X12726786Y-13112500D01*
X12726786Y-13183929D01*
X12712500Y-13241071D01*
X12698214Y-13269643D01*
X12683928Y-13283929D01*
X12655357Y-13298214D01*
X12626786Y-13298214D01*
X12598214Y-13283929D01*
X12583928Y-13269643D01*
X12569643Y-13241071D01*
X12555357Y-13183929D01*
X12555357Y-13112500D01*
X12569643Y-13055357D01*
X12583928Y-13026786D01*
X12598214Y-13012500D01*
X12626786Y-12998214D01*
X12898214Y-13126786D02*
X12869643Y-13112500D01*
X12855357Y-13098214D01*
X12841071Y-13069643D01*
X12841071Y-13055357D01*
X12855357Y-13026786D01*
X12869643Y-13012500D01*
X12898214Y-12998214D01*
X12955357Y-12998214D01*
X12983928Y-13012500D01*
X12998214Y-13026786D01*
X13012500Y-13055357D01*
X13012500Y-13069643D01*
X12998214Y-13098214D01*
X12983928Y-13112500D01*
X12955357Y-13126786D01*
X12898214Y-13126786D01*
X12869643Y-13141071D01*
X12855357Y-13155357D01*
X12841071Y-13183929D01*
X12841071Y-13241071D01*
X12855357Y-13269643D01*
X12869643Y-13283929D01*
X12898214Y-13298214D01*
X12955357Y-13298214D01*
X12983928Y-13283929D01*
X12998214Y-13269643D01*
X13012500Y-13241071D01*
X13012500Y-13183929D01*
X12998214Y-13155357D01*
X12983928Y-13141071D01*
X12955357Y-13126786D01*
X13126786Y-12998214D02*
X13126786Y-13055357D01*
X13241071Y-12998214D02*
X13241071Y-13055357D01*
X13683928Y-13412500D02*
X13669643Y-13398214D01*
X13641071Y-13355357D01*
X13626786Y-13326786D01*
X13612500Y-13283929D01*
X13598214Y-13212500D01*
X13598214Y-13155357D01*
X13612500Y-13083929D01*
X13626786Y-13041071D01*
X13641071Y-13012500D01*
X13669643Y-12969643D01*
X13683928Y-12955357D01*
X13926786Y-13098214D02*
X13926786Y-13298214D01*
X13855357Y-12983929D02*
X13783928Y-13198214D01*
X13969643Y-13198214D01*
X14312500Y-13298214D02*
X14312500Y-12998214D01*
X14441071Y-13298214D02*
X14441071Y-13141071D01*
X14426786Y-13112500D01*
X14398214Y-13098214D01*
X14355357Y-13098214D01*
X14326786Y-13112500D01*
X14312500Y-13126786D01*
X14626786Y-13298214D02*
X14598214Y-13283929D01*
X14583928Y-13269643D01*
X14569643Y-13241071D01*
X14569643Y-13155357D01*
X14583928Y-13126786D01*
X14598214Y-13112500D01*
X14626786Y-13098214D01*
X14669643Y-13098214D01*
X14698214Y-13112500D01*
X14712500Y-13126786D01*
X14726786Y-13155357D01*
X14726786Y-13241071D01*
X14712500Y-13269643D01*
X14698214Y-13283929D01*
X14669643Y-13298214D01*
X14626786Y-13298214D01*
X14898214Y-13298214D02*
X14869643Y-13283929D01*
X14855357Y-13255357D01*
X14855357Y-12998214D01*
X15126786Y-13283929D02*
X15098214Y-13298214D01*
X15041071Y-13298214D01*
X15012500Y-13283929D01*
X14998214Y-13255357D01*
X14998214Y-13141071D01*
X15012500Y-13112500D01*
X15041071Y-13098214D01*
X15098214Y-13098214D01*
X15126786Y-13112500D01*
X15141071Y-13141071D01*
X15141071Y-13169643D01*
X14998214Y-13198214D01*
X15255357Y-13283929D02*
X15283928Y-13298214D01*
X15341071Y-13298214D01*
X15369643Y-13283929D01*
X15383928Y-13255357D01*
X15383928Y-13241071D01*
X15369643Y-13212500D01*
X15341071Y-13198214D01*
X15298214Y-13198214D01*
X15269643Y-13183929D01*
X15255357Y-13155357D01*
X15255357Y-13141071D01*
X15269643Y-13112500D01*
X15298214Y-13098214D01*
X15341071Y-13098214D01*
X15369643Y-13112500D01*
X15483928Y-13412500D02*
X15498214Y-13398214D01*
X15526786Y-13355357D01*
X15541071Y-13326786D01*
X15555357Y-13283929D01*
X15569643Y-13212500D01*
X15569643Y-13155357D01*
X15555357Y-13083929D01*
X15541071Y-13041071D01*
X15526786Y-13012500D01*
X15498214Y-12969643D01*
X15483928Y-12955357D01*
X8997500Y-13558500D02*
G75*
G03*
X8997500Y-13558500I-20000J0D01*
G01*
X9341071Y-13394214D02*
X9369643Y-13394214D01*
X9398214Y-13408500D01*
X9412500Y-13422786D01*
X9426786Y-13451357D01*
X9441071Y-13508500D01*
X9441071Y-13579929D01*
X9426786Y-13637071D01*
X9412500Y-13665643D01*
X9398214Y-13679929D01*
X9369643Y-13694214D01*
X9341071Y-13694214D01*
X9312500Y-13679929D01*
X9298214Y-13665643D01*
X9283928Y-13637071D01*
X9269643Y-13579929D01*
X9269643Y-13508500D01*
X9283928Y-13451357D01*
X9298214Y-13422786D01*
X9312500Y-13408500D01*
X9341071Y-13394214D01*
X9569643Y-13665643D02*
X9583928Y-13679929D01*
X9569643Y-13694214D01*
X9555357Y-13679929D01*
X9569643Y-13665643D01*
X9569643Y-13694214D01*
X9841071Y-13494214D02*
X9841071Y-13694214D01*
X9769643Y-13379929D02*
X9698214Y-13594214D01*
X9883928Y-13594214D01*
X10055357Y-13394214D02*
X10083928Y-13394214D01*
X10112500Y-13408500D01*
X10126786Y-13422786D01*
X10141071Y-13451357D01*
X10155357Y-13508500D01*
X10155357Y-13579929D01*
X10141071Y-13637071D01*
X10126786Y-13665643D01*
X10112500Y-13679929D01*
X10083928Y-13694214D01*
X10055357Y-13694214D01*
X10026786Y-13679929D01*
X10012500Y-13665643D01*
X9998214Y-13637071D01*
X9983928Y-13579929D01*
X9983928Y-13508500D01*
X9998214Y-13451357D01*
X10012500Y-13422786D01*
X10026786Y-13408500D01*
X10055357Y-13394214D01*
X10283928Y-13694214D02*
X10283928Y-13494214D01*
X10283928Y-13522786D02*
X10298214Y-13508500D01*
X10326786Y-13494214D01*
X10369643Y-13494214D01*
X10398214Y-13508500D01*
X10412500Y-13537071D01*
X10412500Y-13694214D01*
X10412500Y-13537071D02*
X10426786Y-13508500D01*
X10455357Y-13494214D01*
X10498214Y-13494214D01*
X10526786Y-13508500D01*
X10541071Y-13537071D01*
X10541071Y-13694214D01*
X10683928Y-13694214D02*
X10683928Y-13494214D01*
X10683928Y-13522786D02*
X10698214Y-13508500D01*
X10726786Y-13494214D01*
X10769643Y-13494214D01*
X10798214Y-13508500D01*
X10812500Y-13537071D01*
X10812500Y-13694214D01*
X10812500Y-13537071D02*
X10826786Y-13508500D01*
X10855357Y-13494214D01*
X10898214Y-13494214D01*
X10926786Y-13508500D01*
X10941071Y-13537071D01*
X10941071Y-13694214D01*
X11526786Y-13379929D02*
X11269643Y-13765643D01*
X11912500Y-13394214D02*
X11941071Y-13394214D01*
X11969643Y-13408500D01*
X11983928Y-13422786D01*
X11998214Y-13451357D01*
X12012500Y-13508500D01*
X12012500Y-13579929D01*
X11998214Y-13637071D01*
X11983928Y-13665643D01*
X11969643Y-13679929D01*
X11941071Y-13694214D01*
X11912500Y-13694214D01*
X11883928Y-13679929D01*
X11869643Y-13665643D01*
X11855357Y-13637071D01*
X11841071Y-13579929D01*
X11841071Y-13508500D01*
X11855357Y-13451357D01*
X11869643Y-13422786D01*
X11883928Y-13408500D01*
X11912500Y-13394214D01*
X12141071Y-13665643D02*
X12155357Y-13679929D01*
X12141071Y-13694214D01*
X12126786Y-13679929D01*
X12141071Y-13665643D01*
X12141071Y-13694214D01*
X12341071Y-13394214D02*
X12369643Y-13394214D01*
X12398214Y-13408500D01*
X12412500Y-13422786D01*
X12426786Y-13451357D01*
X12441071Y-13508500D01*
X12441071Y-13579929D01*
X12426786Y-13637071D01*
X12412500Y-13665643D01*
X12398214Y-13679929D01*
X12369643Y-13694214D01*
X12341071Y-13694214D01*
X12312500Y-13679929D01*
X12298214Y-13665643D01*
X12283928Y-13637071D01*
X12269643Y-13579929D01*
X12269643Y-13508500D01*
X12283928Y-13451357D01*
X12298214Y-13422786D01*
X12312500Y-13408500D01*
X12341071Y-13394214D01*
X12726786Y-13694214D02*
X12555357Y-13694214D01*
X12641071Y-13694214D02*
X12641071Y-13394214D01*
X12612500Y-13437071D01*
X12583928Y-13465643D01*
X12555357Y-13479929D01*
X12983928Y-13394214D02*
X12926786Y-13394214D01*
X12898214Y-13408500D01*
X12883928Y-13422786D01*
X12855357Y-13465643D01*
X12841071Y-13522786D01*
X12841071Y-13637071D01*
X12855357Y-13665643D01*
X12869643Y-13679929D01*
X12898214Y-13694214D01*
X12955357Y-13694214D01*
X12983928Y-13679929D01*
X12998214Y-13665643D01*
X13012500Y-13637071D01*
X13012500Y-13565643D01*
X12998214Y-13537071D01*
X12983928Y-13522786D01*
X12955357Y-13508500D01*
X12898214Y-13508500D01*
X12869643Y-13522786D01*
X12855357Y-13537071D01*
X12841071Y-13565643D01*
X13126786Y-13394214D02*
X13126786Y-13451357D01*
X13241071Y-13394214D02*
X13241071Y-13451357D01*
X13683928Y-13808500D02*
X13669643Y-13794214D01*
X13641071Y-13751357D01*
X13626786Y-13722786D01*
X13612500Y-13679929D01*
X13598214Y-13608500D01*
X13598214Y-13551357D01*
X13612500Y-13479929D01*
X13626786Y-13437071D01*
X13641071Y-13408500D01*
X13669643Y-13365643D01*
X13683928Y-13351357D01*
X13955357Y-13694214D02*
X13783928Y-13694214D01*
X13869643Y-13694214D02*
X13869643Y-13394214D01*
X13841071Y-13437071D01*
X13812500Y-13465643D01*
X13783928Y-13479929D01*
X14212500Y-13494214D02*
X14212500Y-13694214D01*
X14141071Y-13379929D02*
X14069643Y-13594214D01*
X14255357Y-13594214D01*
X14383928Y-13694214D02*
X14441071Y-13694214D01*
X14469643Y-13679929D01*
X14483928Y-13665643D01*
X14512500Y-13622786D01*
X14526786Y-13565643D01*
X14526786Y-13451357D01*
X14512500Y-13422786D01*
X14498214Y-13408500D01*
X14469643Y-13394214D01*
X14412500Y-13394214D01*
X14383928Y-13408500D01*
X14369643Y-13422786D01*
X14355357Y-13451357D01*
X14355357Y-13522786D01*
X14369643Y-13551357D01*
X14383928Y-13565643D01*
X14412500Y-13579929D01*
X14469643Y-13579929D01*
X14498214Y-13565643D01*
X14512500Y-13551357D01*
X14526786Y-13522786D01*
X14883928Y-13694214D02*
X14883928Y-13394214D01*
X15012500Y-13694214D02*
X15012500Y-13537071D01*
X14998214Y-13508500D01*
X14969643Y-13494214D01*
X14926786Y-13494214D01*
X14898214Y-13508500D01*
X14883928Y-13522786D01*
X15198214Y-13694214D02*
X15169643Y-13679929D01*
X15155357Y-13665643D01*
X15141071Y-13637071D01*
X15141071Y-13551357D01*
X15155357Y-13522786D01*
X15169643Y-13508500D01*
X15198214Y-13494214D01*
X15241071Y-13494214D01*
X15269643Y-13508500D01*
X15283928Y-13522786D01*
X15298214Y-13551357D01*
X15298214Y-13637071D01*
X15283928Y-13665643D01*
X15269643Y-13679929D01*
X15241071Y-13694214D01*
X15198214Y-13694214D01*
X15469643Y-13694214D02*
X15441071Y-13679929D01*
X15426786Y-13651357D01*
X15426786Y-13394214D01*
X15698214Y-13679929D02*
X15669643Y-13694214D01*
X15612500Y-13694214D01*
X15583928Y-13679929D01*
X15569643Y-13651357D01*
X15569643Y-13537071D01*
X15583928Y-13508500D01*
X15612500Y-13494214D01*
X15669643Y-13494214D01*
X15698214Y-13508500D01*
X15712500Y-13537071D01*
X15712500Y-13565643D01*
X15569643Y-13594214D01*
X15826786Y-13679929D02*
X15855357Y-13694214D01*
X15912500Y-13694214D01*
X15941071Y-13679929D01*
X15955357Y-13651357D01*
X15955357Y-13637071D01*
X15941071Y-13608500D01*
X15912500Y-13594214D01*
X15869643Y-13594214D01*
X15841071Y-13579929D01*
X15826786Y-13551357D01*
X15826786Y-13537071D01*
X15841071Y-13508500D01*
X15869643Y-13494214D01*
X15912500Y-13494214D01*
X15941071Y-13508500D01*
X16055357Y-13808500D02*
X16069643Y-13794214D01*
X16098214Y-13751357D01*
X16112500Y-13722786D01*
X16126786Y-13679929D01*
X16141071Y-13608500D01*
X16141071Y-13551357D01*
X16126786Y-13479929D01*
X16112500Y-13437071D01*
X16098214Y-13408500D01*
X16069643Y-13365643D01*
X16055357Y-13351357D01*
X8965000Y-13922000D02*
X8965000Y-13987000D01*
X8932500Y-13954500D02*
X8997500Y-13954500D01*
X9341071Y-13790214D02*
X9369643Y-13790214D01*
X9398214Y-13804500D01*
X9412500Y-13818786D01*
X9426786Y-13847357D01*
X9441071Y-13904500D01*
X9441071Y-13975929D01*
X9426786Y-14033071D01*
X9412500Y-14061643D01*
X9398214Y-14075929D01*
X9369643Y-14090214D01*
X9341071Y-14090214D01*
X9312500Y-14075929D01*
X9298214Y-14061643D01*
X9283928Y-14033071D01*
X9269643Y-13975929D01*
X9269643Y-13904500D01*
X9283928Y-13847357D01*
X9298214Y-13818786D01*
X9312500Y-13804500D01*
X9341071Y-13790214D01*
X9569643Y-14061643D02*
X9583928Y-14075929D01*
X9569643Y-14090214D01*
X9555357Y-14075929D01*
X9569643Y-14061643D01*
X9569643Y-14090214D01*
X9841071Y-13790214D02*
X9783928Y-13790214D01*
X9755357Y-13804500D01*
X9741071Y-13818786D01*
X9712500Y-13861643D01*
X9698214Y-13918786D01*
X9698214Y-14033071D01*
X9712500Y-14061643D01*
X9726786Y-14075929D01*
X9755357Y-14090214D01*
X9812500Y-14090214D01*
X9841071Y-14075929D01*
X9855357Y-14061643D01*
X9869643Y-14033071D01*
X9869643Y-13961643D01*
X9855357Y-13933071D01*
X9841071Y-13918786D01*
X9812500Y-13904500D01*
X9755357Y-13904500D01*
X9726786Y-13918786D01*
X9712500Y-13933071D01*
X9698214Y-13961643D01*
X10141071Y-13790214D02*
X9998214Y-13790214D01*
X9983928Y-13933071D01*
X9998214Y-13918786D01*
X10026786Y-13904500D01*
X10098214Y-13904500D01*
X10126786Y-13918786D01*
X10141071Y-13933071D01*
X10155357Y-13961643D01*
X10155357Y-14033071D01*
X10141071Y-14061643D01*
X10126786Y-14075929D01*
X10098214Y-14090214D01*
X10026786Y-14090214D01*
X9998214Y-14075929D01*
X9983928Y-14061643D01*
X10283928Y-14090214D02*
X10283928Y-13890214D01*
X10283928Y-13918786D02*
X10298214Y-13904500D01*
X10326786Y-13890214D01*
X10369643Y-13890214D01*
X10398214Y-13904500D01*
X10412500Y-13933071D01*
X10412500Y-14090214D01*
X10412500Y-13933071D02*
X10426786Y-13904500D01*
X10455357Y-13890214D01*
X10498214Y-13890214D01*
X10526786Y-13904500D01*
X10541071Y-13933071D01*
X10541071Y-14090214D01*
X10683928Y-14090214D02*
X10683928Y-13890214D01*
X10683928Y-13918786D02*
X10698214Y-13904500D01*
X10726786Y-13890214D01*
X10769643Y-13890214D01*
X10798214Y-13904500D01*
X10812500Y-13933071D01*
X10812500Y-14090214D01*
X10812500Y-13933071D02*
X10826786Y-13904500D01*
X10855357Y-13890214D01*
X10898214Y-13890214D01*
X10926786Y-13904500D01*
X10941071Y-13933071D01*
X10941071Y-14090214D01*
X11526786Y-13775929D02*
X11269643Y-14161643D01*
X11912500Y-13790214D02*
X11941071Y-13790214D01*
X11969643Y-13804500D01*
X11983928Y-13818786D01*
X11998214Y-13847357D01*
X12012500Y-13904500D01*
X12012500Y-13975929D01*
X11998214Y-14033071D01*
X11983928Y-14061643D01*
X11969643Y-14075929D01*
X11941071Y-14090214D01*
X11912500Y-14090214D01*
X11883928Y-14075929D01*
X11869643Y-14061643D01*
X11855357Y-14033071D01*
X11841071Y-13975929D01*
X11841071Y-13904500D01*
X11855357Y-13847357D01*
X11869643Y-13818786D01*
X11883928Y-13804500D01*
X11912500Y-13790214D01*
X12141071Y-14061643D02*
X12155357Y-14075929D01*
X12141071Y-14090214D01*
X12126786Y-14075929D01*
X12141071Y-14061643D01*
X12141071Y-14090214D01*
X12341071Y-13790214D02*
X12369643Y-13790214D01*
X12398214Y-13804500D01*
X12412500Y-13818786D01*
X12426786Y-13847357D01*
X12441071Y-13904500D01*
X12441071Y-13975929D01*
X12426786Y-14033071D01*
X12412500Y-14061643D01*
X12398214Y-14075929D01*
X12369643Y-14090214D01*
X12341071Y-14090214D01*
X12312500Y-14075929D01*
X12298214Y-14061643D01*
X12283928Y-14033071D01*
X12269643Y-13975929D01*
X12269643Y-13904500D01*
X12283928Y-13847357D01*
X12298214Y-13818786D01*
X12312500Y-13804500D01*
X12341071Y-13790214D01*
X12555357Y-13818786D02*
X12569643Y-13804500D01*
X12598214Y-13790214D01*
X12669643Y-13790214D01*
X12698214Y-13804500D01*
X12712500Y-13818786D01*
X12726786Y-13847357D01*
X12726786Y-13875929D01*
X12712500Y-13918786D01*
X12541071Y-14090214D01*
X12726786Y-14090214D01*
X12983928Y-13790214D02*
X12926786Y-13790214D01*
X12898214Y-13804500D01*
X12883928Y-13818786D01*
X12855357Y-13861643D01*
X12841071Y-13918786D01*
X12841071Y-14033071D01*
X12855357Y-14061643D01*
X12869643Y-14075929D01*
X12898214Y-14090214D01*
X12955357Y-14090214D01*
X12983928Y-14075929D01*
X12998214Y-14061643D01*
X13012500Y-14033071D01*
X13012500Y-13961643D01*
X12998214Y-13933071D01*
X12983928Y-13918786D01*
X12955357Y-13904500D01*
X12898214Y-13904500D01*
X12869643Y-13918786D01*
X12855357Y-13933071D01*
X12841071Y-13961643D01*
X13126786Y-13790214D02*
X13126786Y-13847357D01*
X13241071Y-13790214D02*
X13241071Y-13847357D01*
X13683928Y-14204500D02*
X13669643Y-14190214D01*
X13641071Y-14147357D01*
X13626786Y-14118786D01*
X13612500Y-14075929D01*
X13598214Y-14004500D01*
X13598214Y-13947357D01*
X13612500Y-13875929D01*
X13626786Y-13833071D01*
X13641071Y-13804500D01*
X13669643Y-13761643D01*
X13683928Y-13747357D01*
X13926786Y-13890214D02*
X13926786Y-14090214D01*
X13855357Y-13775929D02*
X13783928Y-13990214D01*
X13969643Y-13990214D01*
X14312500Y-14090214D02*
X14312500Y-13790214D01*
X14441071Y-14090214D02*
X14441071Y-13933071D01*
X14426786Y-13904500D01*
X14398214Y-13890214D01*
X14355357Y-13890214D01*
X14326786Y-13904500D01*
X14312500Y-13918786D01*
X14626786Y-14090214D02*
X14598214Y-14075929D01*
X14583928Y-14061643D01*
X14569643Y-14033071D01*
X14569643Y-13947357D01*
X14583928Y-13918786D01*
X14598214Y-13904500D01*
X14626786Y-13890214D01*
X14669643Y-13890214D01*
X14698214Y-13904500D01*
X14712500Y-13918786D01*
X14726786Y-13947357D01*
X14726786Y-14033071D01*
X14712500Y-14061643D01*
X14698214Y-14075929D01*
X14669643Y-14090214D01*
X14626786Y-14090214D01*
X14898214Y-14090214D02*
X14869643Y-14075929D01*
X14855357Y-14047357D01*
X14855357Y-13790214D01*
X15126786Y-14075929D02*
X15098214Y-14090214D01*
X15041071Y-14090214D01*
X15012500Y-14075929D01*
X14998214Y-14047357D01*
X14998214Y-13933071D01*
X15012500Y-13904500D01*
X15041071Y-13890214D01*
X15098214Y-13890214D01*
X15126786Y-13904500D01*
X15141071Y-13933071D01*
X15141071Y-13961643D01*
X14998214Y-13990214D01*
X15255357Y-14075929D02*
X15283928Y-14090214D01*
X15341071Y-14090214D01*
X15369643Y-14075929D01*
X15383928Y-14047357D01*
X15383928Y-14033071D01*
X15369643Y-14004500D01*
X15341071Y-13990214D01*
X15298214Y-13990214D01*
X15269643Y-13975929D01*
X15255357Y-13947357D01*
X15255357Y-13933071D01*
X15269643Y-13904500D01*
X15298214Y-13890214D01*
X15341071Y-13890214D01*
X15369643Y-13904500D01*
X15483928Y-14204500D02*
X15498214Y-14190214D01*
X15526786Y-14147357D01*
X15541071Y-14118786D01*
X15555357Y-14075929D01*
X15569643Y-14004500D01*
X15569643Y-13947357D01*
X15555357Y-13875929D01*
X15541071Y-13833071D01*
X15526786Y-13804500D01*
X15498214Y-13761643D01*
X15483928Y-13747357D01*
X8985784Y-14378785D02*
X8985784Y-14322216D01*
X8929215Y-14322216D01*
X8929215Y-14378785D01*
X8985784Y-14378785D01*
X9341071Y-14186214D02*
X9369643Y-14186214D01*
X9398214Y-14200500D01*
X9412500Y-14214786D01*
X9426786Y-14243357D01*
X9441071Y-14300500D01*
X9441071Y-14371929D01*
X9426786Y-14429071D01*
X9412500Y-14457643D01*
X9398214Y-14471929D01*
X9369643Y-14486214D01*
X9341071Y-14486214D01*
X9312500Y-14471929D01*
X9298214Y-14457643D01*
X9283928Y-14429071D01*
X9269643Y-14371929D01*
X9269643Y-14300500D01*
X9283928Y-14243357D01*
X9298214Y-14214786D01*
X9312500Y-14200500D01*
X9341071Y-14186214D01*
X9569643Y-14457643D02*
X9583928Y-14471929D01*
X9569643Y-14486214D01*
X9555357Y-14471929D01*
X9569643Y-14457643D01*
X9569643Y-14486214D01*
X9755357Y-14314786D02*
X9726786Y-14300500D01*
X9712500Y-14286214D01*
X9698214Y-14257643D01*
X9698214Y-14243357D01*
X9712500Y-14214786D01*
X9726786Y-14200500D01*
X9755357Y-14186214D01*
X9812500Y-14186214D01*
X9841071Y-14200500D01*
X9855357Y-14214786D01*
X9869643Y-14243357D01*
X9869643Y-14257643D01*
X9855357Y-14286214D01*
X9841071Y-14300500D01*
X9812500Y-14314786D01*
X9755357Y-14314786D01*
X9726786Y-14329071D01*
X9712500Y-14343357D01*
X9698214Y-14371929D01*
X9698214Y-14429071D01*
X9712500Y-14457643D01*
X9726786Y-14471929D01*
X9755357Y-14486214D01*
X9812500Y-14486214D01*
X9841071Y-14471929D01*
X9855357Y-14457643D01*
X9869643Y-14429071D01*
X9869643Y-14371929D01*
X9855357Y-14343357D01*
X9841071Y-14329071D01*
X9812500Y-14314786D01*
X10055357Y-14186214D02*
X10083928Y-14186214D01*
X10112500Y-14200500D01*
X10126786Y-14214786D01*
X10141071Y-14243357D01*
X10155357Y-14300500D01*
X10155357Y-14371929D01*
X10141071Y-14429071D01*
X10126786Y-14457643D01*
X10112500Y-14471929D01*
X10083928Y-14486214D01*
X10055357Y-14486214D01*
X10026786Y-14471929D01*
X10012500Y-14457643D01*
X9998214Y-14429071D01*
X9983928Y-14371929D01*
X9983928Y-14300500D01*
X9998214Y-14243357D01*
X10012500Y-14214786D01*
X10026786Y-14200500D01*
X10055357Y-14186214D01*
X10283928Y-14486214D02*
X10283928Y-14286214D01*
X10283928Y-14314786D02*
X10298214Y-14300500D01*
X10326786Y-14286214D01*
X10369643Y-14286214D01*
X10398214Y-14300500D01*
X10412500Y-14329071D01*
X10412500Y-14486214D01*
X10412500Y-14329071D02*
X10426786Y-14300500D01*
X10455357Y-14286214D01*
X10498214Y-14286214D01*
X10526786Y-14300500D01*
X10541071Y-14329071D01*
X10541071Y-14486214D01*
X10683928Y-14486214D02*
X10683928Y-14286214D01*
X10683928Y-14314786D02*
X10698214Y-14300500D01*
X10726786Y-14286214D01*
X10769643Y-14286214D01*
X10798214Y-14300500D01*
X10812500Y-14329071D01*
X10812500Y-14486214D01*
X10812500Y-14329071D02*
X10826786Y-14300500D01*
X10855357Y-14286214D01*
X10898214Y-14286214D01*
X10926786Y-14300500D01*
X10941071Y-14329071D01*
X10941071Y-14486214D01*
X11526786Y-14171929D02*
X11269643Y-14557643D01*
X11912500Y-14186214D02*
X11941071Y-14186214D01*
X11969643Y-14200500D01*
X11983928Y-14214786D01*
X11998214Y-14243357D01*
X12012500Y-14300500D01*
X12012500Y-14371929D01*
X11998214Y-14429071D01*
X11983928Y-14457643D01*
X11969643Y-14471929D01*
X11941071Y-14486214D01*
X11912500Y-14486214D01*
X11883928Y-14471929D01*
X11869643Y-14457643D01*
X11855357Y-14429071D01*
X11841071Y-14371929D01*
X11841071Y-14300500D01*
X11855357Y-14243357D01*
X11869643Y-14214786D01*
X11883928Y-14200500D01*
X11912500Y-14186214D01*
X12141071Y-14457643D02*
X12155357Y-14471929D01*
X12141071Y-14486214D01*
X12126786Y-14471929D01*
X12141071Y-14457643D01*
X12141071Y-14486214D01*
X12341071Y-14186214D02*
X12369643Y-14186214D01*
X12398214Y-14200500D01*
X12412500Y-14214786D01*
X12426786Y-14243357D01*
X12441071Y-14300500D01*
X12441071Y-14371929D01*
X12426786Y-14429071D01*
X12412500Y-14457643D01*
X12398214Y-14471929D01*
X12369643Y-14486214D01*
X12341071Y-14486214D01*
X12312500Y-14471929D01*
X12298214Y-14457643D01*
X12283928Y-14429071D01*
X12269643Y-14371929D01*
X12269643Y-14300500D01*
X12283928Y-14243357D01*
X12298214Y-14214786D01*
X12312500Y-14200500D01*
X12341071Y-14186214D01*
X12541071Y-14186214D02*
X12726786Y-14186214D01*
X12626786Y-14300500D01*
X12669643Y-14300500D01*
X12698214Y-14314786D01*
X12712500Y-14329071D01*
X12726786Y-14357643D01*
X12726786Y-14429071D01*
X12712500Y-14457643D01*
X12698214Y-14471929D01*
X12669643Y-14486214D01*
X12583928Y-14486214D01*
X12555357Y-14471929D01*
X12541071Y-14457643D01*
X13012500Y-14486214D02*
X12841071Y-14486214D01*
X12926786Y-14486214D02*
X12926786Y-14186214D01*
X12898214Y-14229071D01*
X12869643Y-14257643D01*
X12841071Y-14271929D01*
X13126786Y-14186214D02*
X13126786Y-14243357D01*
X13241071Y-14186214D02*
X13241071Y-14243357D01*
X13683928Y-14600500D02*
X13669643Y-14586214D01*
X13641071Y-14543357D01*
X13626786Y-14514786D01*
X13612500Y-14471929D01*
X13598214Y-14400500D01*
X13598214Y-14343357D01*
X13612500Y-14271929D01*
X13626786Y-14229071D01*
X13641071Y-14200500D01*
X13669643Y-14157643D01*
X13683928Y-14143357D01*
X13769643Y-14186214D02*
X13955357Y-14186214D01*
X13855357Y-14300500D01*
X13898214Y-14300500D01*
X13926786Y-14314786D01*
X13941071Y-14329071D01*
X13955357Y-14357643D01*
X13955357Y-14429071D01*
X13941071Y-14457643D01*
X13926786Y-14471929D01*
X13898214Y-14486214D01*
X13812500Y-14486214D01*
X13783928Y-14471929D01*
X13769643Y-14457643D01*
X14312500Y-14486214D02*
X14312500Y-14186214D01*
X14441071Y-14486214D02*
X14441071Y-14329071D01*
X14426786Y-14300500D01*
X14398214Y-14286214D01*
X14355357Y-14286214D01*
X14326786Y-14300500D01*
X14312500Y-14314786D01*
X14626786Y-14486214D02*
X14598214Y-14471929D01*
X14583928Y-14457643D01*
X14569643Y-14429071D01*
X14569643Y-14343357D01*
X14583928Y-14314786D01*
X14598214Y-14300500D01*
X14626786Y-14286214D01*
X14669643Y-14286214D01*
X14698214Y-14300500D01*
X14712500Y-14314786D01*
X14726786Y-14343357D01*
X14726786Y-14429071D01*
X14712500Y-14457643D01*
X14698214Y-14471929D01*
X14669643Y-14486214D01*
X14626786Y-14486214D01*
X14898214Y-14486214D02*
X14869643Y-14471929D01*
X14855357Y-14443357D01*
X14855357Y-14186214D01*
X15126786Y-14471929D02*
X15098214Y-14486214D01*
X15041071Y-14486214D01*
X15012500Y-14471929D01*
X14998214Y-14443357D01*
X14998214Y-14329071D01*
X15012500Y-14300500D01*
X15041071Y-14286214D01*
X15098214Y-14286214D01*
X15126786Y-14300500D01*
X15141071Y-14329071D01*
X15141071Y-14357643D01*
X14998214Y-14386214D01*
X15255357Y-14471929D02*
X15283928Y-14486214D01*
X15341071Y-14486214D01*
X15369643Y-14471929D01*
X15383928Y-14443357D01*
X15383928Y-14429071D01*
X15369643Y-14400500D01*
X15341071Y-14386214D01*
X15298214Y-14386214D01*
X15269643Y-14371929D01*
X15255357Y-14343357D01*
X15255357Y-14329071D01*
X15269643Y-14300500D01*
X15298214Y-14286214D01*
X15341071Y-14286214D01*
X15369643Y-14300500D01*
X15483928Y-14600500D02*
X15498214Y-14586214D01*
X15526786Y-14543357D01*
X15541071Y-14514786D01*
X15555357Y-14471929D01*
X15569643Y-14400500D01*
X15569643Y-14343357D01*
X15555357Y-14271929D01*
X15541071Y-14229071D01*
X15526786Y-14200500D01*
X15498214Y-14157643D01*
X15483928Y-14143357D01*
X8947500Y-14796500D02*
X8997500Y-14746500D01*
X8947500Y-14696500D01*
X8897500Y-14746500D01*
X8947500Y-14796500D01*
X9441071Y-14882214D02*
X9269643Y-14882214D01*
X9355357Y-14882214D02*
X9355357Y-14582214D01*
X9326786Y-14625071D01*
X9298214Y-14653643D01*
X9269643Y-14667929D01*
X9569643Y-14853643D02*
X9583928Y-14867929D01*
X9569643Y-14882214D01*
X9555357Y-14867929D01*
X9569643Y-14853643D01*
X9569643Y-14882214D01*
X9769643Y-14582214D02*
X9798214Y-14582214D01*
X9826786Y-14596500D01*
X9841071Y-14610786D01*
X9855357Y-14639357D01*
X9869643Y-14696500D01*
X9869643Y-14767929D01*
X9855357Y-14825071D01*
X9841071Y-14853643D01*
X9826786Y-14867929D01*
X9798214Y-14882214D01*
X9769643Y-14882214D01*
X9741071Y-14867929D01*
X9726786Y-14853643D01*
X9712500Y-14825071D01*
X9698214Y-14767929D01*
X9698214Y-14696500D01*
X9712500Y-14639357D01*
X9726786Y-14610786D01*
X9741071Y-14596500D01*
X9769643Y-14582214D01*
X10055357Y-14582214D02*
X10083928Y-14582214D01*
X10112500Y-14596500D01*
X10126786Y-14610786D01*
X10141071Y-14639357D01*
X10155357Y-14696500D01*
X10155357Y-14767929D01*
X10141071Y-14825071D01*
X10126786Y-14853643D01*
X10112500Y-14867929D01*
X10083928Y-14882214D01*
X10055357Y-14882214D01*
X10026786Y-14867929D01*
X10012500Y-14853643D01*
X9998214Y-14825071D01*
X9983928Y-14767929D01*
X9983928Y-14696500D01*
X9998214Y-14639357D01*
X10012500Y-14610786D01*
X10026786Y-14596500D01*
X10055357Y-14582214D01*
X10283928Y-14882214D02*
X10283928Y-14682214D01*
X10283928Y-14710786D02*
X10298214Y-14696500D01*
X10326786Y-14682214D01*
X10369643Y-14682214D01*
X10398214Y-14696500D01*
X10412500Y-14725071D01*
X10412500Y-14882214D01*
X10412500Y-14725071D02*
X10426786Y-14696500D01*
X10455357Y-14682214D01*
X10498214Y-14682214D01*
X10526786Y-14696500D01*
X10541071Y-14725071D01*
X10541071Y-14882214D01*
X10683928Y-14882214D02*
X10683928Y-14682214D01*
X10683928Y-14710786D02*
X10698214Y-14696500D01*
X10726786Y-14682214D01*
X10769643Y-14682214D01*
X10798214Y-14696500D01*
X10812500Y-14725071D01*
X10812500Y-14882214D01*
X10812500Y-14725071D02*
X10826786Y-14696500D01*
X10855357Y-14682214D01*
X10898214Y-14682214D01*
X10926786Y-14696500D01*
X10941071Y-14725071D01*
X10941071Y-14882214D01*
X11526786Y-14567929D02*
X11269643Y-14953643D01*
X11912500Y-14582214D02*
X11941071Y-14582214D01*
X11969643Y-14596500D01*
X11983928Y-14610786D01*
X11998214Y-14639357D01*
X12012500Y-14696500D01*
X12012500Y-14767929D01*
X11998214Y-14825071D01*
X11983928Y-14853643D01*
X11969643Y-14867929D01*
X11941071Y-14882214D01*
X11912500Y-14882214D01*
X11883928Y-14867929D01*
X11869643Y-14853643D01*
X11855357Y-14825071D01*
X11841071Y-14767929D01*
X11841071Y-14696500D01*
X11855357Y-14639357D01*
X11869643Y-14610786D01*
X11883928Y-14596500D01*
X11912500Y-14582214D01*
X12141071Y-14853643D02*
X12155357Y-14867929D01*
X12141071Y-14882214D01*
X12126786Y-14867929D01*
X12141071Y-14853643D01*
X12141071Y-14882214D01*
X12341071Y-14582214D02*
X12369643Y-14582214D01*
X12398214Y-14596500D01*
X12412500Y-14610786D01*
X12426786Y-14639357D01*
X12441071Y-14696500D01*
X12441071Y-14767929D01*
X12426786Y-14825071D01*
X12412500Y-14853643D01*
X12398214Y-14867929D01*
X12369643Y-14882214D01*
X12341071Y-14882214D01*
X12312500Y-14867929D01*
X12298214Y-14853643D01*
X12283928Y-14825071D01*
X12269643Y-14767929D01*
X12269643Y-14696500D01*
X12283928Y-14639357D01*
X12298214Y-14610786D01*
X12312500Y-14596500D01*
X12341071Y-14582214D01*
X12541071Y-14582214D02*
X12726786Y-14582214D01*
X12626786Y-14696500D01*
X12669643Y-14696500D01*
X12698214Y-14710786D01*
X12712500Y-14725071D01*
X12726786Y-14753643D01*
X12726786Y-14825071D01*
X12712500Y-14853643D01*
X12698214Y-14867929D01*
X12669643Y-14882214D01*
X12583928Y-14882214D01*
X12555357Y-14867929D01*
X12541071Y-14853643D01*
X12869643Y-14882214D02*
X12926786Y-14882214D01*
X12955357Y-14867929D01*
X12969643Y-14853643D01*
X12998214Y-14810786D01*
X13012500Y-14753643D01*
X13012500Y-14639357D01*
X12998214Y-14610786D01*
X12983928Y-14596500D01*
X12955357Y-14582214D01*
X12898214Y-14582214D01*
X12869643Y-14596500D01*
X12855357Y-14610786D01*
X12841071Y-14639357D01*
X12841071Y-14710786D01*
X12855357Y-14739357D01*
X12869643Y-14753643D01*
X12898214Y-14767929D01*
X12955357Y-14767929D01*
X12983928Y-14753643D01*
X12998214Y-14739357D01*
X13012500Y-14710786D01*
X13126786Y-14582214D02*
X13126786Y-14639357D01*
X13241071Y-14582214D02*
X13241071Y-14639357D01*
X13683928Y-14996500D02*
X13669643Y-14982214D01*
X13641071Y-14939357D01*
X13626786Y-14910786D01*
X13612500Y-14867929D01*
X13598214Y-14796500D01*
X13598214Y-14739357D01*
X13612500Y-14667929D01*
X13626786Y-14625071D01*
X13641071Y-14596500D01*
X13669643Y-14553643D01*
X13683928Y-14539357D01*
X13926786Y-14682214D02*
X13926786Y-14882214D01*
X13855357Y-14567929D02*
X13783928Y-14782214D01*
X13969643Y-14782214D01*
X14312500Y-14882214D02*
X14312500Y-14582214D01*
X14441071Y-14882214D02*
X14441071Y-14725071D01*
X14426786Y-14696500D01*
X14398214Y-14682214D01*
X14355357Y-14682214D01*
X14326786Y-14696500D01*
X14312500Y-14710786D01*
X14626786Y-14882214D02*
X14598214Y-14867929D01*
X14583928Y-14853643D01*
X14569643Y-14825071D01*
X14569643Y-14739357D01*
X14583928Y-14710786D01*
X14598214Y-14696500D01*
X14626786Y-14682214D01*
X14669643Y-14682214D01*
X14698214Y-14696500D01*
X14712500Y-14710786D01*
X14726786Y-14739357D01*
X14726786Y-14825071D01*
X14712500Y-14853643D01*
X14698214Y-14867929D01*
X14669643Y-14882214D01*
X14626786Y-14882214D01*
X14898214Y-14882214D02*
X14869643Y-14867929D01*
X14855357Y-14839357D01*
X14855357Y-14582214D01*
X15126786Y-14867929D02*
X15098214Y-14882214D01*
X15041071Y-14882214D01*
X15012500Y-14867929D01*
X14998214Y-14839357D01*
X14998214Y-14725071D01*
X15012500Y-14696500D01*
X15041071Y-14682214D01*
X15098214Y-14682214D01*
X15126786Y-14696500D01*
X15141071Y-14725071D01*
X15141071Y-14753643D01*
X14998214Y-14782214D01*
X15255357Y-14867929D02*
X15283928Y-14882214D01*
X15341071Y-14882214D01*
X15369643Y-14867929D01*
X15383928Y-14839357D01*
X15383928Y-14825071D01*
X15369643Y-14796500D01*
X15341071Y-14782214D01*
X15298214Y-14782214D01*
X15269643Y-14767929D01*
X15255357Y-14739357D01*
X15255357Y-14725071D01*
X15269643Y-14696500D01*
X15298214Y-14682214D01*
X15341071Y-14682214D01*
X15369643Y-14696500D01*
X15483928Y-14996500D02*
X15498214Y-14982214D01*
X15526786Y-14939357D01*
X15541071Y-14910786D01*
X15555357Y-14867929D01*
X15569643Y-14796500D01*
X15569643Y-14739357D01*
X15555357Y-14667929D01*
X15541071Y-14625071D01*
X15526786Y-14596500D01*
X15498214Y-14553643D01*
X15483928Y-14539357D01*
X8862900Y-15075200D02*
X8997500Y-15209800D01*
X8997500Y-15075200D02*
X8862900Y-15209800D01*
X8997500Y-15142500D02*
G75*
G03*
X8997500Y-15142500I-67300J0D01*
G01*
X9441071Y-15278214D02*
X9269643Y-15278214D01*
X9355357Y-15278214D02*
X9355357Y-14978214D01*
X9326786Y-15021071D01*
X9298214Y-15049643D01*
X9269643Y-15063929D01*
X9569643Y-15249643D02*
X9583928Y-15263929D01*
X9569643Y-15278214D01*
X9555357Y-15263929D01*
X9569643Y-15249643D01*
X9569643Y-15278214D01*
X9683928Y-14978214D02*
X9869643Y-14978214D01*
X9769643Y-15092500D01*
X9812500Y-15092500D01*
X9841071Y-15106786D01*
X9855357Y-15121071D01*
X9869643Y-15149643D01*
X9869643Y-15221071D01*
X9855357Y-15249643D01*
X9841071Y-15263929D01*
X9812500Y-15278214D01*
X9726786Y-15278214D01*
X9698214Y-15263929D01*
X9683928Y-15249643D01*
X10141071Y-14978214D02*
X9998214Y-14978214D01*
X9983928Y-15121071D01*
X9998214Y-15106786D01*
X10026786Y-15092500D01*
X10098214Y-15092500D01*
X10126786Y-15106786D01*
X10141071Y-15121071D01*
X10155357Y-15149643D01*
X10155357Y-15221071D01*
X10141071Y-15249643D01*
X10126786Y-15263929D01*
X10098214Y-15278214D01*
X10026786Y-15278214D01*
X9998214Y-15263929D01*
X9983928Y-15249643D01*
X10283928Y-15278214D02*
X10283928Y-15078214D01*
X10283928Y-15106786D02*
X10298214Y-15092500D01*
X10326786Y-15078214D01*
X10369643Y-15078214D01*
X10398214Y-15092500D01*
X10412500Y-15121071D01*
X10412500Y-15278214D01*
X10412500Y-15121071D02*
X10426786Y-15092500D01*
X10455357Y-15078214D01*
X10498214Y-15078214D01*
X10526786Y-15092500D01*
X10541071Y-15121071D01*
X10541071Y-15278214D01*
X10683928Y-15278214D02*
X10683928Y-15078214D01*
X10683928Y-15106786D02*
X10698214Y-15092500D01*
X10726786Y-15078214D01*
X10769643Y-15078214D01*
X10798214Y-15092500D01*
X10812500Y-15121071D01*
X10812500Y-15278214D01*
X10812500Y-15121071D02*
X10826786Y-15092500D01*
X10855357Y-15078214D01*
X10898214Y-15078214D01*
X10926786Y-15092500D01*
X10941071Y-15121071D01*
X10941071Y-15278214D01*
X11526786Y-14963929D02*
X11269643Y-15349643D01*
X11912500Y-14978214D02*
X11941071Y-14978214D01*
X11969643Y-14992500D01*
X11983928Y-15006786D01*
X11998214Y-15035357D01*
X12012500Y-15092500D01*
X12012500Y-15163929D01*
X11998214Y-15221071D01*
X11983928Y-15249643D01*
X11969643Y-15263929D01*
X11941071Y-15278214D01*
X11912500Y-15278214D01*
X11883928Y-15263929D01*
X11869643Y-15249643D01*
X11855357Y-15221071D01*
X11841071Y-15163929D01*
X11841071Y-15092500D01*
X11855357Y-15035357D01*
X11869643Y-15006786D01*
X11883928Y-14992500D01*
X11912500Y-14978214D01*
X12141071Y-15249643D02*
X12155357Y-15263929D01*
X12141071Y-15278214D01*
X12126786Y-15263929D01*
X12141071Y-15249643D01*
X12141071Y-15278214D01*
X12341071Y-14978214D02*
X12369643Y-14978214D01*
X12398214Y-14992500D01*
X12412500Y-15006786D01*
X12426786Y-15035357D01*
X12441071Y-15092500D01*
X12441071Y-15163929D01*
X12426786Y-15221071D01*
X12412500Y-15249643D01*
X12398214Y-15263929D01*
X12369643Y-15278214D01*
X12341071Y-15278214D01*
X12312500Y-15263929D01*
X12298214Y-15249643D01*
X12283928Y-15221071D01*
X12269643Y-15163929D01*
X12269643Y-15092500D01*
X12283928Y-15035357D01*
X12298214Y-15006786D01*
X12312500Y-14992500D01*
X12341071Y-14978214D01*
X12712500Y-14978214D02*
X12569643Y-14978214D01*
X12555357Y-15121071D01*
X12569643Y-15106786D01*
X12598214Y-15092500D01*
X12669643Y-15092500D01*
X12698214Y-15106786D01*
X12712500Y-15121071D01*
X12726786Y-15149643D01*
X12726786Y-15221071D01*
X12712500Y-15249643D01*
X12698214Y-15263929D01*
X12669643Y-15278214D01*
X12598214Y-15278214D01*
X12569643Y-15263929D01*
X12555357Y-15249643D01*
X12826786Y-14978214D02*
X13012500Y-14978214D01*
X12912500Y-15092500D01*
X12955357Y-15092500D01*
X12983928Y-15106786D01*
X12998214Y-15121071D01*
X13012500Y-15149643D01*
X13012500Y-15221071D01*
X12998214Y-15249643D01*
X12983928Y-15263929D01*
X12955357Y-15278214D01*
X12869643Y-15278214D01*
X12841071Y-15263929D01*
X12826786Y-15249643D01*
X13126786Y-14978214D02*
X13126786Y-15035357D01*
X13241071Y-14978214D02*
X13241071Y-15035357D01*
X13683928Y-15392500D02*
X13669643Y-15378214D01*
X13641071Y-15335357D01*
X13626786Y-15306786D01*
X13612500Y-15263929D01*
X13598214Y-15192500D01*
X13598214Y-15135357D01*
X13612500Y-15063929D01*
X13626786Y-15021071D01*
X13641071Y-14992500D01*
X13669643Y-14949643D01*
X13683928Y-14935357D01*
X13926786Y-15078214D02*
X13926786Y-15278214D01*
X13855357Y-14963929D02*
X13783928Y-15178214D01*
X13969643Y-15178214D01*
X14312500Y-15278214D02*
X14312500Y-14978214D01*
X14441071Y-15278214D02*
X14441071Y-15121071D01*
X14426786Y-15092500D01*
X14398214Y-15078214D01*
X14355357Y-15078214D01*
X14326786Y-15092500D01*
X14312500Y-15106786D01*
X14626786Y-15278214D02*
X14598214Y-15263929D01*
X14583928Y-15249643D01*
X14569643Y-15221071D01*
X14569643Y-15135357D01*
X14583928Y-15106786D01*
X14598214Y-15092500D01*
X14626786Y-15078214D01*
X14669643Y-15078214D01*
X14698214Y-15092500D01*
X14712500Y-15106786D01*
X14726786Y-15135357D01*
X14726786Y-15221071D01*
X14712500Y-15249643D01*
X14698214Y-15263929D01*
X14669643Y-15278214D01*
X14626786Y-15278214D01*
X14898214Y-15278214D02*
X14869643Y-15263929D01*
X14855357Y-15235357D01*
X14855357Y-14978214D01*
X15126786Y-15263929D02*
X15098214Y-15278214D01*
X15041071Y-15278214D01*
X15012500Y-15263929D01*
X14998214Y-15235357D01*
X14998214Y-15121071D01*
X15012500Y-15092500D01*
X15041071Y-15078214D01*
X15098214Y-15078214D01*
X15126786Y-15092500D01*
X15141071Y-15121071D01*
X15141071Y-15149643D01*
X14998214Y-15178214D01*
X15255357Y-15263929D02*
X15283928Y-15278214D01*
X15341071Y-15278214D01*
X15369643Y-15263929D01*
X15383928Y-15235357D01*
X15383928Y-15221071D01*
X15369643Y-15192500D01*
X15341071Y-15178214D01*
X15298214Y-15178214D01*
X15269643Y-15163929D01*
X15255357Y-15135357D01*
X15255357Y-15121071D01*
X15269643Y-15092500D01*
X15298214Y-15078214D01*
X15341071Y-15078214D01*
X15369643Y-15092500D01*
X15483928Y-15392500D02*
X15498214Y-15378214D01*
X15526786Y-15335357D01*
X15541071Y-15306786D01*
X15555357Y-15263929D01*
X15569643Y-15192500D01*
X15569643Y-15135357D01*
X15555357Y-15063929D01*
X15541071Y-15021071D01*
X15526786Y-14992500D01*
X15498214Y-14949643D01*
X15483928Y-14935357D01*
X8847500Y-15463500D02*
X8997500Y-15613500D01*
X8997500Y-15463500D02*
X8847500Y-15613500D01*
X8922500Y-15463500D02*
X8922500Y-15613500D01*
X8847500Y-15538500D02*
X8997500Y-15538500D01*
X9441071Y-15674214D02*
X9269643Y-15674214D01*
X9355357Y-15674214D02*
X9355357Y-15374214D01*
X9326786Y-15417071D01*
X9298214Y-15445643D01*
X9269643Y-15459929D01*
X9569643Y-15645643D02*
X9583928Y-15659929D01*
X9569643Y-15674214D01*
X9555357Y-15659929D01*
X9569643Y-15645643D01*
X9569643Y-15674214D01*
X9855357Y-15374214D02*
X9712500Y-15374214D01*
X9698214Y-15517071D01*
X9712500Y-15502786D01*
X9741071Y-15488500D01*
X9812500Y-15488500D01*
X9841071Y-15502786D01*
X9855357Y-15517071D01*
X9869643Y-15545643D01*
X9869643Y-15617071D01*
X9855357Y-15645643D01*
X9841071Y-15659929D01*
X9812500Y-15674214D01*
X9741071Y-15674214D01*
X9712500Y-15659929D01*
X9698214Y-15645643D01*
X10055357Y-15374214D02*
X10083928Y-15374214D01*
X10112500Y-15388500D01*
X10126786Y-15402786D01*
X10141071Y-15431357D01*
X10155357Y-15488500D01*
X10155357Y-15559929D01*
X10141071Y-15617071D01*
X10126786Y-15645643D01*
X10112500Y-15659929D01*
X10083928Y-15674214D01*
X10055357Y-15674214D01*
X10026786Y-15659929D01*
X10012500Y-15645643D01*
X9998214Y-15617071D01*
X9983928Y-15559929D01*
X9983928Y-15488500D01*
X9998214Y-15431357D01*
X10012500Y-15402786D01*
X10026786Y-15388500D01*
X10055357Y-15374214D01*
X10283928Y-15674214D02*
X10283928Y-15474214D01*
X10283928Y-15502786D02*
X10298214Y-15488500D01*
X10326786Y-15474214D01*
X10369643Y-15474214D01*
X10398214Y-15488500D01*
X10412500Y-15517071D01*
X10412500Y-15674214D01*
X10412500Y-15517071D02*
X10426786Y-15488500D01*
X10455357Y-15474214D01*
X10498214Y-15474214D01*
X10526786Y-15488500D01*
X10541071Y-15517071D01*
X10541071Y-15674214D01*
X10683928Y-15674214D02*
X10683928Y-15474214D01*
X10683928Y-15502786D02*
X10698214Y-15488500D01*
X10726786Y-15474214D01*
X10769643Y-15474214D01*
X10798214Y-15488500D01*
X10812500Y-15517071D01*
X10812500Y-15674214D01*
X10812500Y-15517071D02*
X10826786Y-15488500D01*
X10855357Y-15474214D01*
X10898214Y-15474214D01*
X10926786Y-15488500D01*
X10941071Y-15517071D01*
X10941071Y-15674214D01*
X11526786Y-15359929D02*
X11269643Y-15745643D01*
X11912500Y-15374214D02*
X11941071Y-15374214D01*
X11969643Y-15388500D01*
X11983928Y-15402786D01*
X11998214Y-15431357D01*
X12012500Y-15488500D01*
X12012500Y-15559929D01*
X11998214Y-15617071D01*
X11983928Y-15645643D01*
X11969643Y-15659929D01*
X11941071Y-15674214D01*
X11912500Y-15674214D01*
X11883928Y-15659929D01*
X11869643Y-15645643D01*
X11855357Y-15617071D01*
X11841071Y-15559929D01*
X11841071Y-15488500D01*
X11855357Y-15431357D01*
X11869643Y-15402786D01*
X11883928Y-15388500D01*
X11912500Y-15374214D01*
X12141071Y-15645643D02*
X12155357Y-15659929D01*
X12141071Y-15674214D01*
X12126786Y-15659929D01*
X12141071Y-15645643D01*
X12141071Y-15674214D01*
X12341071Y-15374214D02*
X12369643Y-15374214D01*
X12398214Y-15388500D01*
X12412500Y-15402786D01*
X12426786Y-15431357D01*
X12441071Y-15488500D01*
X12441071Y-15559929D01*
X12426786Y-15617071D01*
X12412500Y-15645643D01*
X12398214Y-15659929D01*
X12369643Y-15674214D01*
X12341071Y-15674214D01*
X12312500Y-15659929D01*
X12298214Y-15645643D01*
X12283928Y-15617071D01*
X12269643Y-15559929D01*
X12269643Y-15488500D01*
X12283928Y-15431357D01*
X12298214Y-15402786D01*
X12312500Y-15388500D01*
X12341071Y-15374214D01*
X12712500Y-15374214D02*
X12569643Y-15374214D01*
X12555357Y-15517071D01*
X12569643Y-15502786D01*
X12598214Y-15488500D01*
X12669643Y-15488500D01*
X12698214Y-15502786D01*
X12712500Y-15517071D01*
X12726786Y-15545643D01*
X12726786Y-15617071D01*
X12712500Y-15645643D01*
X12698214Y-15659929D01*
X12669643Y-15674214D01*
X12598214Y-15674214D01*
X12569643Y-15659929D01*
X12555357Y-15645643D01*
X12869643Y-15674214D02*
X12926786Y-15674214D01*
X12955357Y-15659929D01*
X12969643Y-15645643D01*
X12998214Y-15602786D01*
X13012500Y-15545643D01*
X13012500Y-15431357D01*
X12998214Y-15402786D01*
X12983928Y-15388500D01*
X12955357Y-15374214D01*
X12898214Y-15374214D01*
X12869643Y-15388500D01*
X12855357Y-15402786D01*
X12841071Y-15431357D01*
X12841071Y-15502786D01*
X12855357Y-15531357D01*
X12869643Y-15545643D01*
X12898214Y-15559929D01*
X12955357Y-15559929D01*
X12983928Y-15545643D01*
X12998214Y-15531357D01*
X13012500Y-15502786D01*
X13126786Y-15374214D02*
X13126786Y-15431357D01*
X13241071Y-15374214D02*
X13241071Y-15431357D01*
X13683928Y-15788500D02*
X13669643Y-15774214D01*
X13641071Y-15731357D01*
X13626786Y-15702786D01*
X13612500Y-15659929D01*
X13598214Y-15588500D01*
X13598214Y-15531357D01*
X13612500Y-15459929D01*
X13626786Y-15417071D01*
X13641071Y-15388500D01*
X13669643Y-15345643D01*
X13683928Y-15331357D01*
X13783928Y-15402786D02*
X13798214Y-15388500D01*
X13826786Y-15374214D01*
X13898214Y-15374214D01*
X13926786Y-15388500D01*
X13941071Y-15402786D01*
X13955357Y-15431357D01*
X13955357Y-15459929D01*
X13941071Y-15502786D01*
X13769643Y-15674214D01*
X13955357Y-15674214D01*
X14312500Y-15674214D02*
X14312500Y-15374214D01*
X14441071Y-15674214D02*
X14441071Y-15517071D01*
X14426786Y-15488500D01*
X14398214Y-15474214D01*
X14355357Y-15474214D01*
X14326786Y-15488500D01*
X14312500Y-15502786D01*
X14626786Y-15674214D02*
X14598214Y-15659929D01*
X14583928Y-15645643D01*
X14569643Y-15617071D01*
X14569643Y-15531357D01*
X14583928Y-15502786D01*
X14598214Y-15488500D01*
X14626786Y-15474214D01*
X14669643Y-15474214D01*
X14698214Y-15488500D01*
X14712500Y-15502786D01*
X14726786Y-15531357D01*
X14726786Y-15617071D01*
X14712500Y-15645643D01*
X14698214Y-15659929D01*
X14669643Y-15674214D01*
X14626786Y-15674214D01*
X14898214Y-15674214D02*
X14869643Y-15659929D01*
X14855357Y-15631357D01*
X14855357Y-15374214D01*
X15126786Y-15659929D02*
X15098214Y-15674214D01*
X15041071Y-15674214D01*
X15012500Y-15659929D01*
X14998214Y-15631357D01*
X14998214Y-15517071D01*
X15012500Y-15488500D01*
X15041071Y-15474214D01*
X15098214Y-15474214D01*
X15126786Y-15488500D01*
X15141071Y-15517071D01*
X15141071Y-15545643D01*
X14998214Y-15574214D01*
X15255357Y-15659929D02*
X15283928Y-15674214D01*
X15341071Y-15674214D01*
X15369643Y-15659929D01*
X15383928Y-15631357D01*
X15383928Y-15617071D01*
X15369643Y-15588500D01*
X15341071Y-15574214D01*
X15298214Y-15574214D01*
X15269643Y-15559929D01*
X15255357Y-15531357D01*
X15255357Y-15517071D01*
X15269643Y-15488500D01*
X15298214Y-15474214D01*
X15341071Y-15474214D01*
X15369643Y-15488500D01*
X15483928Y-15788500D02*
X15498214Y-15774214D01*
X15526786Y-15731357D01*
X15541071Y-15702786D01*
X15555357Y-15659929D01*
X15569643Y-15588500D01*
X15569643Y-15531357D01*
X15555357Y-15459929D01*
X15541071Y-15417071D01*
X15526786Y-15388500D01*
X15498214Y-15345643D01*
X15483928Y-15331357D01*
M02*
