%TF.GenerationSoftware,KiCad,Pcbnew,5.1.8-db9833491~87~ubuntu20.04.1*%
%TF.CreationDate,2020-12-02T18:26:53+05:30*%
%TF.ProjectId,open_authenticator,6f70656e-5f61-4757-9468-656e74696361,v01*%
%TF.SameCoordinates,Original*%
%TF.FileFunction,Copper,L1,Top*%
%TF.FilePolarity,Positive*%
%FSLAX46Y46*%
G04 Gerber Fmt 4.6, Leading zero omitted, Abs format (unit mm)*
G04 Created by KiCad (PCBNEW 5.1.8-db9833491~87~ubuntu20.04.1) date 2020-12-02 18:26:53*
%MOMM*%
%LPD*%
G01*
G04 APERTURE LIST*
%TA.AperFunction,SMDPad,CuDef*%
%ADD10R,0.240000X0.600000*%
%TD*%
%TA.AperFunction,SMDPad,CuDef*%
%ADD11C,0.100000*%
%TD*%
%TA.AperFunction,ComponentPad*%
%ADD12C,0.600000*%
%TD*%
%TA.AperFunction,ComponentPad*%
%ADD13O,1.600000X2.000000*%
%TD*%
%TA.AperFunction,ComponentPad*%
%ADD14O,1.000000X1.000000*%
%TD*%
%TA.AperFunction,ComponentPad*%
%ADD15R,1.000000X1.000000*%
%TD*%
%TA.AperFunction,SMDPad,CuDef*%
%ADD16R,1.200000X0.900000*%
%TD*%
%TA.AperFunction,SMDPad,CuDef*%
%ADD17R,0.400000X1.200000*%
%TD*%
%TA.AperFunction,SMDPad,CuDef*%
%ADD18R,0.700000X1.200000*%
%TD*%
%TA.AperFunction,SMDPad,CuDef*%
%ADD19R,0.760000X1.200000*%
%TD*%
%TA.AperFunction,SMDPad,CuDef*%
%ADD20R,0.800000X1.200000*%
%TD*%
%TA.AperFunction,ComponentPad*%
%ADD21C,2.000000*%
%TD*%
%TA.AperFunction,SMDPad,CuDef*%
%ADD22R,2.200000X3.050000*%
%TD*%
%TA.AperFunction,SMDPad,CuDef*%
%ADD23R,1.100000X0.650000*%
%TD*%
%TA.AperFunction,SMDPad,CuDef*%
%ADD24R,1.550000X1.300000*%
%TD*%
%TA.AperFunction,SMDPad,CuDef*%
%ADD25R,2.000000X0.900000*%
%TD*%
%TA.AperFunction,SMDPad,CuDef*%
%ADD26R,0.900000X2.000000*%
%TD*%
%TA.AperFunction,SMDPad,CuDef*%
%ADD27R,5.000000X5.000000*%
%TD*%
%TA.AperFunction,SMDPad,CuDef*%
%ADD28R,1.060000X0.650000*%
%TD*%
%TA.AperFunction,ComponentPad*%
%ADD29R,1.700000X1.700000*%
%TD*%
%TA.AperFunction,ComponentPad*%
%ADD30O,1.700000X1.700000*%
%TD*%
%TA.AperFunction,ComponentPad*%
%ADD31C,1.524000*%
%TD*%
%TA.AperFunction,ViaPad*%
%ADD32C,0.800000*%
%TD*%
%TA.AperFunction,Conductor*%
%ADD33C,0.300000*%
%TD*%
%TA.AperFunction,Conductor*%
%ADD34C,0.500000*%
%TD*%
%TA.AperFunction,Conductor*%
%ADD35C,0.254000*%
%TD*%
%TA.AperFunction,Conductor*%
%ADD36C,0.100000*%
%TD*%
G04 APERTURE END LIST*
%TO.P,C11,2*%
%TO.N,GND*%
%TA.AperFunction,SMDPad,CuDef*%
G36*
G01*
X123674999Y-104475000D02*
X124975001Y-104475000D01*
G75*
G02*
X125225000Y-104724999I0J-249999D01*
G01*
X125225000Y-105375001D01*
G75*
G02*
X124975001Y-105625000I-249999J0D01*
G01*
X123674999Y-105625000D01*
G75*
G02*
X123425000Y-105375001I0J249999D01*
G01*
X123425000Y-104724999D01*
G75*
G02*
X123674999Y-104475000I249999J0D01*
G01*
G37*
%TD.AperFunction*%
%TO.P,C11,1*%
%TO.N,Net-(C11-Pad1)*%
%TA.AperFunction,SMDPad,CuDef*%
G36*
G01*
X123674999Y-101525000D02*
X124975001Y-101525000D01*
G75*
G02*
X125225000Y-101774999I0J-249999D01*
G01*
X125225000Y-102425001D01*
G75*
G02*
X124975001Y-102675000I-249999J0D01*
G01*
X123674999Y-102675000D01*
G75*
G02*
X123425000Y-102425001I0J249999D01*
G01*
X123425000Y-101774999D01*
G75*
G02*
X123674999Y-101525000I249999J0D01*
G01*
G37*
%TD.AperFunction*%
%TD*%
D10*
%TO.P,U4,1*%
%TO.N,+3V3*%
X132500000Y-102100000D03*
%TO.P,U4,2*%
%TO.N,Net-(L1-Pad2)*%
X132000000Y-102100000D03*
%TO.P,U4,3*%
%TO.N,GND*%
X131500000Y-102100000D03*
%TO.P,U4,4*%
%TO.N,Net-(L1-Pad1)*%
X131000000Y-102100000D03*
%TO.P,U4,5*%
%TO.N,Net-(C11-Pad1)*%
X130500000Y-102100000D03*
%TO.P,U4,6*%
%TO.N,Net-(C7-Pad1)*%
X130500000Y-104900000D03*
%TO.P,U4,7*%
X131000000Y-104900000D03*
%TO.P,U4,8*%
X131500000Y-104900000D03*
%TO.P,U4,9*%
%TO.N,GND*%
X132000000Y-104900000D03*
%TO.P,U4,10*%
%TO.N,+3V3*%
X132500000Y-104900000D03*
%TA.AperFunction,SMDPad,CuDef*%
D11*
%TO.P,U4,11*%
%TO.N,GND*%
G36*
X132700000Y-103375000D02*
G01*
X132700000Y-103625000D01*
X133200000Y-103625000D01*
X133200000Y-103875000D01*
X132700000Y-103875000D01*
X132700000Y-104325000D01*
X130300000Y-104325000D01*
X130300000Y-103875000D01*
X129800000Y-103875000D01*
X129800000Y-103625000D01*
X130300000Y-103625000D01*
X130300000Y-103375000D01*
X129800000Y-103375000D01*
X129800000Y-103125000D01*
X130300000Y-103125000D01*
X130300000Y-102675000D01*
X132700000Y-102675000D01*
X132700000Y-103125000D01*
X133200000Y-103125000D01*
X133200000Y-103375000D01*
X132700000Y-103375000D01*
G37*
%TD.AperFunction*%
D12*
X130550000Y-103500000D03*
X131500000Y-102925000D03*
X131500000Y-104075000D03*
X132450000Y-103500000D03*
%TD*%
D13*
%TO.P,Brd1,4*%
%TO.N,/IO21_SDA*%
X154700000Y-82850000D03*
%TO.P,Brd1,3*%
%TO.N,/IO22_SCL*%
X152160000Y-82850000D03*
%TO.P,Brd1,1*%
%TO.N,GND*%
X147080000Y-82850000D03*
%TO.P,Brd1,2*%
%TO.N,/LOAD_SWITCH_VCC*%
X149620000Y-82850000D03*
%TD*%
D14*
%TO.P,J3,2*%
%TO.N,+BATT*%
X121950000Y-91800000D03*
D15*
%TO.P,J3,1*%
%TO.N,GND*%
X120680000Y-91800000D03*
%TD*%
%TO.P,C10,2*%
%TO.N,GND*%
%TA.AperFunction,SMDPad,CuDef*%
G36*
G01*
X91699999Y-118575000D02*
X93000001Y-118575000D01*
G75*
G02*
X93250000Y-118824999I0J-249999D01*
G01*
X93250000Y-119475001D01*
G75*
G02*
X93000001Y-119725000I-249999J0D01*
G01*
X91699999Y-119725000D01*
G75*
G02*
X91450000Y-119475001I0J249999D01*
G01*
X91450000Y-118824999D01*
G75*
G02*
X91699999Y-118575000I249999J0D01*
G01*
G37*
%TD.AperFunction*%
%TO.P,C10,1*%
%TO.N,Net-(BT1-Pad1)*%
%TA.AperFunction,SMDPad,CuDef*%
G36*
G01*
X91699999Y-115625000D02*
X93000001Y-115625000D01*
G75*
G02*
X93250000Y-115874999I0J-249999D01*
G01*
X93250000Y-116525001D01*
G75*
G02*
X93000001Y-116775000I-249999J0D01*
G01*
X91699999Y-116775000D01*
G75*
G02*
X91450000Y-116525001I0J249999D01*
G01*
X91450000Y-115874999D01*
G75*
G02*
X91699999Y-115625000I249999J0D01*
G01*
G37*
%TD.AperFunction*%
%TD*%
%TO.P,C2,1*%
%TO.N,GND*%
%TA.AperFunction,SMDPad,CuDef*%
G36*
G01*
X91949999Y-87025000D02*
X93250001Y-87025000D01*
G75*
G02*
X93500000Y-87274999I0J-249999D01*
G01*
X93500000Y-87925001D01*
G75*
G02*
X93250001Y-88175000I-249999J0D01*
G01*
X91949999Y-88175000D01*
G75*
G02*
X91700000Y-87925001I0J249999D01*
G01*
X91700000Y-87274999D01*
G75*
G02*
X91949999Y-87025000I249999J0D01*
G01*
G37*
%TD.AperFunction*%
%TO.P,C2,2*%
%TO.N,+3V3*%
%TA.AperFunction,SMDPad,CuDef*%
G36*
G01*
X91949999Y-89975000D02*
X93250001Y-89975000D01*
G75*
G02*
X93500000Y-90224999I0J-249999D01*
G01*
X93500000Y-90875001D01*
G75*
G02*
X93250001Y-91125000I-249999J0D01*
G01*
X91949999Y-91125000D01*
G75*
G02*
X91700000Y-90875001I0J249999D01*
G01*
X91700000Y-90224999D01*
G75*
G02*
X91949999Y-89975000I249999J0D01*
G01*
G37*
%TD.AperFunction*%
%TD*%
%TO.P,C1,1*%
%TO.N,+3V3*%
%TA.AperFunction,SMDPad,CuDef*%
G36*
G01*
X93350001Y-97125000D02*
X92049999Y-97125000D01*
G75*
G02*
X91800000Y-96875001I0J249999D01*
G01*
X91800000Y-96224999D01*
G75*
G02*
X92049999Y-95975000I249999J0D01*
G01*
X93350001Y-95975000D01*
G75*
G02*
X93600000Y-96224999I0J-249999D01*
G01*
X93600000Y-96875001D01*
G75*
G02*
X93350001Y-97125000I-249999J0D01*
G01*
G37*
%TD.AperFunction*%
%TO.P,C1,2*%
%TO.N,GND*%
%TA.AperFunction,SMDPad,CuDef*%
G36*
G01*
X93350001Y-94175000D02*
X92049999Y-94175000D01*
G75*
G02*
X91800000Y-93925001I0J249999D01*
G01*
X91800000Y-93274999D01*
G75*
G02*
X92049999Y-93025000I249999J0D01*
G01*
X93350001Y-93025000D01*
G75*
G02*
X93600000Y-93274999I0J-249999D01*
G01*
X93600000Y-93925001D01*
G75*
G02*
X93350001Y-94175000I-249999J0D01*
G01*
G37*
%TD.AperFunction*%
%TD*%
%TO.P,C3,1*%
%TO.N,/EN*%
%TA.AperFunction,SMDPad,CuDef*%
G36*
G01*
X151475000Y-106149999D02*
X151475000Y-107450001D01*
G75*
G02*
X151225001Y-107700000I-249999J0D01*
G01*
X150574999Y-107700000D01*
G75*
G02*
X150325000Y-107450001I0J249999D01*
G01*
X150325000Y-106149999D01*
G75*
G02*
X150574999Y-105900000I249999J0D01*
G01*
X151225001Y-105900000D01*
G75*
G02*
X151475000Y-106149999I0J-249999D01*
G01*
G37*
%TD.AperFunction*%
%TO.P,C3,2*%
%TO.N,GND*%
%TA.AperFunction,SMDPad,CuDef*%
G36*
G01*
X148525000Y-106149999D02*
X148525000Y-107450001D01*
G75*
G02*
X148275001Y-107700000I-249999J0D01*
G01*
X147624999Y-107700000D01*
G75*
G02*
X147375000Y-107450001I0J249999D01*
G01*
X147375000Y-106149999D01*
G75*
G02*
X147624999Y-105900000I249999J0D01*
G01*
X148275001Y-105900000D01*
G75*
G02*
X148525000Y-106149999I0J-249999D01*
G01*
G37*
%TD.AperFunction*%
%TD*%
%TO.P,C4,1*%
%TO.N,GND*%
%TA.AperFunction,SMDPad,CuDef*%
G36*
G01*
X122699999Y-85575000D02*
X124000001Y-85575000D01*
G75*
G02*
X124250000Y-85824999I0J-249999D01*
G01*
X124250000Y-86475001D01*
G75*
G02*
X124000001Y-86725000I-249999J0D01*
G01*
X122699999Y-86725000D01*
G75*
G02*
X122450000Y-86475001I0J249999D01*
G01*
X122450000Y-85824999D01*
G75*
G02*
X122699999Y-85575000I249999J0D01*
G01*
G37*
%TD.AperFunction*%
%TO.P,C4,2*%
%TO.N,+BATT*%
%TA.AperFunction,SMDPad,CuDef*%
G36*
G01*
X122699999Y-88525000D02*
X124000001Y-88525000D01*
G75*
G02*
X124250000Y-88774999I0J-249999D01*
G01*
X124250000Y-89425001D01*
G75*
G02*
X124000001Y-89675000I-249999J0D01*
G01*
X122699999Y-89675000D01*
G75*
G02*
X122450000Y-89425001I0J249999D01*
G01*
X122450000Y-88774999D01*
G75*
G02*
X122699999Y-88525000I249999J0D01*
G01*
G37*
%TD.AperFunction*%
%TD*%
%TO.P,C5,2*%
%TO.N,+3V3*%
%TA.AperFunction,SMDPad,CuDef*%
G36*
G01*
X135349999Y-88475000D02*
X136650001Y-88475000D01*
G75*
G02*
X136900000Y-88724999I0J-249999D01*
G01*
X136900000Y-89375001D01*
G75*
G02*
X136650001Y-89625000I-249999J0D01*
G01*
X135349999Y-89625000D01*
G75*
G02*
X135100000Y-89375001I0J249999D01*
G01*
X135100000Y-88724999D01*
G75*
G02*
X135349999Y-88475000I249999J0D01*
G01*
G37*
%TD.AperFunction*%
%TO.P,C5,1*%
%TO.N,GND*%
%TA.AperFunction,SMDPad,CuDef*%
G36*
G01*
X135349999Y-85525000D02*
X136650001Y-85525000D01*
G75*
G02*
X136900000Y-85774999I0J-249999D01*
G01*
X136900000Y-86425001D01*
G75*
G02*
X136650001Y-86675000I-249999J0D01*
G01*
X135349999Y-86675000D01*
G75*
G02*
X135100000Y-86425001I0J249999D01*
G01*
X135100000Y-85774999D01*
G75*
G02*
X135349999Y-85525000I249999J0D01*
G01*
G37*
%TD.AperFunction*%
%TD*%
%TO.P,C6,2*%
%TO.N,GND*%
%TA.AperFunction,SMDPad,CuDef*%
G36*
G01*
X126449999Y-104475000D02*
X127750001Y-104475000D01*
G75*
G02*
X128000000Y-104724999I0J-249999D01*
G01*
X128000000Y-105375001D01*
G75*
G02*
X127750001Y-105625000I-249999J0D01*
G01*
X126449999Y-105625000D01*
G75*
G02*
X126200000Y-105375001I0J249999D01*
G01*
X126200000Y-104724999D01*
G75*
G02*
X126449999Y-104475000I249999J0D01*
G01*
G37*
%TD.AperFunction*%
%TO.P,C6,1*%
%TO.N,Net-(C11-Pad1)*%
%TA.AperFunction,SMDPad,CuDef*%
G36*
G01*
X126449999Y-101525000D02*
X127750001Y-101525000D01*
G75*
G02*
X128000000Y-101774999I0J-249999D01*
G01*
X128000000Y-102425001D01*
G75*
G02*
X127750001Y-102675000I-249999J0D01*
G01*
X126449999Y-102675000D01*
G75*
G02*
X126200000Y-102425001I0J249999D01*
G01*
X126200000Y-101774999D01*
G75*
G02*
X126449999Y-101525000I249999J0D01*
G01*
G37*
%TD.AperFunction*%
%TD*%
%TO.P,C7,2*%
%TO.N,GND*%
%TA.AperFunction,SMDPad,CuDef*%
G36*
G01*
X130525000Y-106649999D02*
X130525000Y-107950001D01*
G75*
G02*
X130275001Y-108200000I-249999J0D01*
G01*
X129624999Y-108200000D01*
G75*
G02*
X129375000Y-107950001I0J249999D01*
G01*
X129375000Y-106649999D01*
G75*
G02*
X129624999Y-106400000I249999J0D01*
G01*
X130275001Y-106400000D01*
G75*
G02*
X130525000Y-106649999I0J-249999D01*
G01*
G37*
%TD.AperFunction*%
%TO.P,C7,1*%
%TO.N,Net-(C7-Pad1)*%
%TA.AperFunction,SMDPad,CuDef*%
G36*
G01*
X133475000Y-106649999D02*
X133475000Y-107950001D01*
G75*
G02*
X133225001Y-108200000I-249999J0D01*
G01*
X132574999Y-108200000D01*
G75*
G02*
X132325000Y-107950001I0J249999D01*
G01*
X132325000Y-106649999D01*
G75*
G02*
X132574999Y-106400000I249999J0D01*
G01*
X133225001Y-106400000D01*
G75*
G02*
X133475000Y-106649999I0J-249999D01*
G01*
G37*
%TD.AperFunction*%
%TD*%
%TO.P,C8,1*%
%TO.N,+3V3*%
%TA.AperFunction,SMDPad,CuDef*%
G36*
G01*
X135349999Y-101525000D02*
X136650001Y-101525000D01*
G75*
G02*
X136900000Y-101774999I0J-249999D01*
G01*
X136900000Y-102425001D01*
G75*
G02*
X136650001Y-102675000I-249999J0D01*
G01*
X135349999Y-102675000D01*
G75*
G02*
X135100000Y-102425001I0J249999D01*
G01*
X135100000Y-101774999D01*
G75*
G02*
X135349999Y-101525000I249999J0D01*
G01*
G37*
%TD.AperFunction*%
%TO.P,C8,2*%
%TO.N,GND*%
%TA.AperFunction,SMDPad,CuDef*%
G36*
G01*
X135349999Y-104475000D02*
X136650001Y-104475000D01*
G75*
G02*
X136900000Y-104724999I0J-249999D01*
G01*
X136900000Y-105375001D01*
G75*
G02*
X136650001Y-105625000I-249999J0D01*
G01*
X135349999Y-105625000D01*
G75*
G02*
X135100000Y-105375001I0J249999D01*
G01*
X135100000Y-104724999D01*
G75*
G02*
X135349999Y-104475000I249999J0D01*
G01*
G37*
%TD.AperFunction*%
%TD*%
%TO.P,C9,2*%
%TO.N,GND*%
%TA.AperFunction,SMDPad,CuDef*%
G36*
G01*
X139049999Y-104475000D02*
X140350001Y-104475000D01*
G75*
G02*
X140600000Y-104724999I0J-249999D01*
G01*
X140600000Y-105375001D01*
G75*
G02*
X140350001Y-105625000I-249999J0D01*
G01*
X139049999Y-105625000D01*
G75*
G02*
X138800000Y-105375001I0J249999D01*
G01*
X138800000Y-104724999D01*
G75*
G02*
X139049999Y-104475000I249999J0D01*
G01*
G37*
%TD.AperFunction*%
%TO.P,C9,1*%
%TO.N,+3V3*%
%TA.AperFunction,SMDPad,CuDef*%
G36*
G01*
X139049999Y-101525000D02*
X140350001Y-101525000D01*
G75*
G02*
X140600000Y-101774999I0J-249999D01*
G01*
X140600000Y-102425001D01*
G75*
G02*
X140350001Y-102675000I-249999J0D01*
G01*
X139049999Y-102675000D01*
G75*
G02*
X138800000Y-102425001I0J249999D01*
G01*
X138800000Y-101774999D01*
G75*
G02*
X139049999Y-101525000I249999J0D01*
G01*
G37*
%TD.AperFunction*%
%TD*%
%TO.P,D2,2*%
%TO.N,VBUS*%
%TA.AperFunction,SMDPad,CuDef*%
G36*
G01*
X128237500Y-84012500D02*
X128237500Y-83587500D01*
G75*
G02*
X128450000Y-83375000I212500J0D01*
G01*
X129250000Y-83375000D01*
G75*
G02*
X129462500Y-83587500I0J-212500D01*
G01*
X129462500Y-84012500D01*
G75*
G02*
X129250000Y-84225000I-212500J0D01*
G01*
X128450000Y-84225000D01*
G75*
G02*
X128237500Y-84012500I0J212500D01*
G01*
G37*
%TD.AperFunction*%
%TO.P,D2,1*%
%TO.N,Net-(D2-Pad1)*%
%TA.AperFunction,SMDPad,CuDef*%
G36*
G01*
X126612500Y-84012500D02*
X126612500Y-83587500D01*
G75*
G02*
X126825000Y-83375000I212500J0D01*
G01*
X127625000Y-83375000D01*
G75*
G02*
X127837500Y-83587500I0J-212500D01*
G01*
X127837500Y-84012500D01*
G75*
G02*
X127625000Y-84225000I-212500J0D01*
G01*
X126825000Y-84225000D01*
G75*
G02*
X126612500Y-84012500I0J212500D01*
G01*
G37*
%TD.AperFunction*%
%TD*%
D16*
%TO.P,D3,1*%
%TO.N,/V_INPUT*%
X160700000Y-102350000D03*
%TO.P,D3,2*%
%TO.N,VBUS*%
X160700000Y-105650000D03*
%TD*%
D17*
%TO.P,IC1,6*%
%TO.N,/LOAD_SWITCH_VCC*%
X133950000Y-88050000D03*
%TO.P,IC1,5*%
%TO.N,Net-(IC1-Pad5)*%
X133300000Y-88050000D03*
%TO.P,IC1,4*%
%TO.N,Net-(IC1-Pad4)*%
X132650000Y-88050000D03*
%TO.P,IC1,3*%
%TO.N,/IO23*%
X132650000Y-86150000D03*
%TO.P,IC1,2*%
%TO.N,GND*%
X133300000Y-86150000D03*
%TO.P,IC1,1*%
%TO.N,+3V3*%
X133950000Y-86150000D03*
%TD*%
D18*
%TO.P,J2,A5*%
%TO.N,Net-(J2-PadA5)*%
X163480000Y-114250000D03*
D19*
%TO.P,J2,A9*%
%TO.N,VBUS*%
X165500000Y-114250000D03*
D20*
%TO.P,J2,A12*%
%TO.N,GND*%
X166730000Y-114250000D03*
D18*
%TO.P,J2,B5*%
%TO.N,Net-(J2-PadB5)*%
X164480000Y-114250000D03*
D19*
%TO.P,J2,B9*%
%TO.N,VBUS*%
X162460000Y-114250000D03*
D20*
%TO.P,J2,B12*%
%TO.N,GND*%
X161230000Y-114250000D03*
D21*
%TO.P,J2,MH1*%
X159660000Y-118200000D03*
%TO.P,J2,MH2*%
X168300000Y-118200000D03*
%TO.P,J2,MH3*%
X168300000Y-114400000D03*
%TO.P,J2,MH4*%
X159660000Y-114400000D03*
%TD*%
D22*
%TO.P,L1,1*%
%TO.N,Net-(L1-Pad1)*%
X126500000Y-95850000D03*
%TO.P,L1,2*%
%TO.N,Net-(L1-Pad2)*%
X135800000Y-95850000D03*
%TD*%
D23*
%TO.P,Q1,1*%
%TO.N,VBUS*%
X165350000Y-105360000D03*
%TO.P,Q1,2*%
%TO.N,/V_INPUT*%
X165350000Y-103440000D03*
%TO.P,Q1,3*%
%TO.N,+BATT*%
X163250000Y-104400000D03*
%TD*%
%TO.P,R1,2*%
%TO.N,Net-(C7-Pad1)*%
%TA.AperFunction,SMDPad,CuDef*%
G36*
G01*
X135350000Y-106475000D02*
X135350000Y-107025000D01*
G75*
G02*
X135150000Y-107225000I-200000J0D01*
G01*
X134750000Y-107225000D01*
G75*
G02*
X134550000Y-107025000I0J200000D01*
G01*
X134550000Y-106475000D01*
G75*
G02*
X134750000Y-106275000I200000J0D01*
G01*
X135150000Y-106275000D01*
G75*
G02*
X135350000Y-106475000I0J-200000D01*
G01*
G37*
%TD.AperFunction*%
%TO.P,R1,1*%
%TO.N,Net-(C11-Pad1)*%
%TA.AperFunction,SMDPad,CuDef*%
G36*
G01*
X137000000Y-106475000D02*
X137000000Y-107025000D01*
G75*
G02*
X136800000Y-107225000I-200000J0D01*
G01*
X136400000Y-107225000D01*
G75*
G02*
X136200000Y-107025000I0J200000D01*
G01*
X136200000Y-106475000D01*
G75*
G02*
X136400000Y-106275000I200000J0D01*
G01*
X136800000Y-106275000D01*
G75*
G02*
X137000000Y-106475000I0J-200000D01*
G01*
G37*
%TD.AperFunction*%
%TD*%
%TO.P,R2,2*%
%TO.N,/IO5_SDA*%
%TA.AperFunction,SMDPad,CuDef*%
G36*
G01*
X105275000Y-110450000D02*
X105825000Y-110450000D01*
G75*
G02*
X106025000Y-110650000I0J-200000D01*
G01*
X106025000Y-111050000D01*
G75*
G02*
X105825000Y-111250000I-200000J0D01*
G01*
X105275000Y-111250000D01*
G75*
G02*
X105075000Y-111050000I0J200000D01*
G01*
X105075000Y-110650000D01*
G75*
G02*
X105275000Y-110450000I200000J0D01*
G01*
G37*
%TD.AperFunction*%
%TO.P,R2,1*%
%TO.N,/LOAD_SWITCH_VCC*%
%TA.AperFunction,SMDPad,CuDef*%
G36*
G01*
X105275000Y-108800000D02*
X105825000Y-108800000D01*
G75*
G02*
X106025000Y-109000000I0J-200000D01*
G01*
X106025000Y-109400000D01*
G75*
G02*
X105825000Y-109600000I-200000J0D01*
G01*
X105275000Y-109600000D01*
G75*
G02*
X105075000Y-109400000I0J200000D01*
G01*
X105075000Y-109000000D01*
G75*
G02*
X105275000Y-108800000I200000J0D01*
G01*
G37*
%TD.AperFunction*%
%TD*%
%TO.P,R3,1*%
%TO.N,/LOAD_SWITCH_VCC*%
%TA.AperFunction,SMDPad,CuDef*%
G36*
G01*
X105225000Y-117700000D02*
X105775000Y-117700000D01*
G75*
G02*
X105975000Y-117900000I0J-200000D01*
G01*
X105975000Y-118300000D01*
G75*
G02*
X105775000Y-118500000I-200000J0D01*
G01*
X105225000Y-118500000D01*
G75*
G02*
X105025000Y-118300000I0J200000D01*
G01*
X105025000Y-117900000D01*
G75*
G02*
X105225000Y-117700000I200000J0D01*
G01*
G37*
%TD.AperFunction*%
%TO.P,R3,2*%
%TO.N,/IO18_SCL*%
%TA.AperFunction,SMDPad,CuDef*%
G36*
G01*
X105225000Y-119350000D02*
X105775000Y-119350000D01*
G75*
G02*
X105975000Y-119550000I0J-200000D01*
G01*
X105975000Y-119950000D01*
G75*
G02*
X105775000Y-120150000I-200000J0D01*
G01*
X105225000Y-120150000D01*
G75*
G02*
X105025000Y-119950000I0J200000D01*
G01*
X105025000Y-119550000D01*
G75*
G02*
X105225000Y-119350000I200000J0D01*
G01*
G37*
%TD.AperFunction*%
%TD*%
%TO.P,R4,1*%
%TO.N,+3V3*%
%TA.AperFunction,SMDPad,CuDef*%
G36*
G01*
X120075000Y-112300000D02*
X119525000Y-112300000D01*
G75*
G02*
X119325000Y-112100000I0J200000D01*
G01*
X119325000Y-111700000D01*
G75*
G02*
X119525000Y-111500000I200000J0D01*
G01*
X120075000Y-111500000D01*
G75*
G02*
X120275000Y-111700000I0J-200000D01*
G01*
X120275000Y-112100000D01*
G75*
G02*
X120075000Y-112300000I-200000J0D01*
G01*
G37*
%TD.AperFunction*%
%TO.P,R4,2*%
%TO.N,/IO26*%
%TA.AperFunction,SMDPad,CuDef*%
G36*
G01*
X120075000Y-110650000D02*
X119525000Y-110650000D01*
G75*
G02*
X119325000Y-110450000I0J200000D01*
G01*
X119325000Y-110050000D01*
G75*
G02*
X119525000Y-109850000I200000J0D01*
G01*
X120075000Y-109850000D01*
G75*
G02*
X120275000Y-110050000I0J-200000D01*
G01*
X120275000Y-110450000D01*
G75*
G02*
X120075000Y-110650000I-200000J0D01*
G01*
G37*
%TD.AperFunction*%
%TD*%
%TO.P,R5,2*%
%TO.N,/EN*%
%TA.AperFunction,SMDPad,CuDef*%
G36*
G01*
X155200000Y-107000000D02*
X155200000Y-107550000D01*
G75*
G02*
X155000000Y-107750000I-200000J0D01*
G01*
X154600000Y-107750000D01*
G75*
G02*
X154400000Y-107550000I0J200000D01*
G01*
X154400000Y-107000000D01*
G75*
G02*
X154600000Y-106800000I200000J0D01*
G01*
X155000000Y-106800000D01*
G75*
G02*
X155200000Y-107000000I0J-200000D01*
G01*
G37*
%TD.AperFunction*%
%TO.P,R5,1*%
%TO.N,+3V3*%
%TA.AperFunction,SMDPad,CuDef*%
G36*
G01*
X156850000Y-107000000D02*
X156850000Y-107550000D01*
G75*
G02*
X156650000Y-107750000I-200000J0D01*
G01*
X156250000Y-107750000D01*
G75*
G02*
X156050000Y-107550000I0J200000D01*
G01*
X156050000Y-107000000D01*
G75*
G02*
X156250000Y-106800000I200000J0D01*
G01*
X156650000Y-106800000D01*
G75*
G02*
X156850000Y-107000000I0J-200000D01*
G01*
G37*
%TD.AperFunction*%
%TD*%
%TO.P,R6,1*%
%TO.N,+3V3*%
%TA.AperFunction,SMDPad,CuDef*%
G36*
G01*
X134525000Y-112275000D02*
X133975000Y-112275000D01*
G75*
G02*
X133775000Y-112075000I0J200000D01*
G01*
X133775000Y-111675000D01*
G75*
G02*
X133975000Y-111475000I200000J0D01*
G01*
X134525000Y-111475000D01*
G75*
G02*
X134725000Y-111675000I0J-200000D01*
G01*
X134725000Y-112075000D01*
G75*
G02*
X134525000Y-112275000I-200000J0D01*
G01*
G37*
%TD.AperFunction*%
%TO.P,R6,2*%
%TO.N,/BOOT*%
%TA.AperFunction,SMDPad,CuDef*%
G36*
G01*
X134525000Y-110625000D02*
X133975000Y-110625000D01*
G75*
G02*
X133775000Y-110425000I0J200000D01*
G01*
X133775000Y-110025000D01*
G75*
G02*
X133975000Y-109825000I200000J0D01*
G01*
X134525000Y-109825000D01*
G75*
G02*
X134725000Y-110025000I0J-200000D01*
G01*
X134725000Y-110425000D01*
G75*
G02*
X134525000Y-110625000I-200000J0D01*
G01*
G37*
%TD.AperFunction*%
%TD*%
%TO.P,R7,2*%
%TO.N,GND*%
%TA.AperFunction,SMDPad,CuDef*%
G36*
G01*
X128250000Y-85675000D02*
X128250000Y-85125000D01*
G75*
G02*
X128450000Y-84925000I200000J0D01*
G01*
X128850000Y-84925000D01*
G75*
G02*
X129050000Y-85125000I0J-200000D01*
G01*
X129050000Y-85675000D01*
G75*
G02*
X128850000Y-85875000I-200000J0D01*
G01*
X128450000Y-85875000D01*
G75*
G02*
X128250000Y-85675000I0J200000D01*
G01*
G37*
%TD.AperFunction*%
%TO.P,R7,1*%
%TO.N,Net-(R7-Pad1)*%
%TA.AperFunction,SMDPad,CuDef*%
G36*
G01*
X126600000Y-85675000D02*
X126600000Y-85125000D01*
G75*
G02*
X126800000Y-84925000I200000J0D01*
G01*
X127200000Y-84925000D01*
G75*
G02*
X127400000Y-85125000I0J-200000D01*
G01*
X127400000Y-85675000D01*
G75*
G02*
X127200000Y-85875000I-200000J0D01*
G01*
X126800000Y-85875000D01*
G75*
G02*
X126600000Y-85675000I0J200000D01*
G01*
G37*
%TD.AperFunction*%
%TD*%
%TO.P,R8,1*%
%TO.N,Net-(R8-Pad1)*%
%TA.AperFunction,SMDPad,CuDef*%
G36*
G01*
X125725000Y-85850000D02*
X125175000Y-85850000D01*
G75*
G02*
X124975000Y-85650000I0J200000D01*
G01*
X124975000Y-85250000D01*
G75*
G02*
X125175000Y-85050000I200000J0D01*
G01*
X125725000Y-85050000D01*
G75*
G02*
X125925000Y-85250000I0J-200000D01*
G01*
X125925000Y-85650000D01*
G75*
G02*
X125725000Y-85850000I-200000J0D01*
G01*
G37*
%TD.AperFunction*%
%TO.P,R8,2*%
%TO.N,Net-(D2-Pad1)*%
%TA.AperFunction,SMDPad,CuDef*%
G36*
G01*
X125725000Y-84200000D02*
X125175000Y-84200000D01*
G75*
G02*
X124975000Y-84000000I0J200000D01*
G01*
X124975000Y-83600000D01*
G75*
G02*
X125175000Y-83400000I200000J0D01*
G01*
X125725000Y-83400000D01*
G75*
G02*
X125925000Y-83600000I0J-200000D01*
G01*
X125925000Y-84000000D01*
G75*
G02*
X125725000Y-84200000I-200000J0D01*
G01*
G37*
%TD.AperFunction*%
%TD*%
%TO.P,R9,2*%
%TO.N,/A1_7_BATT*%
%TA.AperFunction,SMDPad,CuDef*%
G36*
G01*
X120100000Y-88925000D02*
X120100000Y-89475000D01*
G75*
G02*
X119900000Y-89675000I-200000J0D01*
G01*
X119500000Y-89675000D01*
G75*
G02*
X119300000Y-89475000I0J200000D01*
G01*
X119300000Y-88925000D01*
G75*
G02*
X119500000Y-88725000I200000J0D01*
G01*
X119900000Y-88725000D01*
G75*
G02*
X120100000Y-88925000I0J-200000D01*
G01*
G37*
%TD.AperFunction*%
%TO.P,R9,1*%
%TO.N,+BATT*%
%TA.AperFunction,SMDPad,CuDef*%
G36*
G01*
X121750000Y-88925000D02*
X121750000Y-89475000D01*
G75*
G02*
X121550000Y-89675000I-200000J0D01*
G01*
X121150000Y-89675000D01*
G75*
G02*
X120950000Y-89475000I0J200000D01*
G01*
X120950000Y-88925000D01*
G75*
G02*
X121150000Y-88725000I200000J0D01*
G01*
X121550000Y-88725000D01*
G75*
G02*
X121750000Y-88925000I0J-200000D01*
G01*
G37*
%TD.AperFunction*%
%TD*%
%TO.P,R10,1*%
%TO.N,/A1_7_BATT*%
%TA.AperFunction,SMDPad,CuDef*%
G36*
G01*
X119300000Y-86325000D02*
X119300000Y-85775000D01*
G75*
G02*
X119500000Y-85575000I200000J0D01*
G01*
X119900000Y-85575000D01*
G75*
G02*
X120100000Y-85775000I0J-200000D01*
G01*
X120100000Y-86325000D01*
G75*
G02*
X119900000Y-86525000I-200000J0D01*
G01*
X119500000Y-86525000D01*
G75*
G02*
X119300000Y-86325000I0J200000D01*
G01*
G37*
%TD.AperFunction*%
%TO.P,R10,2*%
%TO.N,GND*%
%TA.AperFunction,SMDPad,CuDef*%
G36*
G01*
X120950000Y-86325000D02*
X120950000Y-85775000D01*
G75*
G02*
X121150000Y-85575000I200000J0D01*
G01*
X121550000Y-85575000D01*
G75*
G02*
X121750000Y-85775000I0J-200000D01*
G01*
X121750000Y-86325000D01*
G75*
G02*
X121550000Y-86525000I-200000J0D01*
G01*
X121150000Y-86525000D01*
G75*
G02*
X120950000Y-86325000I0J200000D01*
G01*
G37*
%TD.AperFunction*%
%TD*%
%TO.P,R11,1*%
%TO.N,GND*%
%TA.AperFunction,SMDPad,CuDef*%
G36*
G01*
X168725000Y-110450000D02*
X168725000Y-111000000D01*
G75*
G02*
X168525000Y-111200000I-200000J0D01*
G01*
X168125000Y-111200000D01*
G75*
G02*
X167925000Y-111000000I0J200000D01*
G01*
X167925000Y-110450000D01*
G75*
G02*
X168125000Y-110250000I200000J0D01*
G01*
X168525000Y-110250000D01*
G75*
G02*
X168725000Y-110450000I0J-200000D01*
G01*
G37*
%TD.AperFunction*%
%TO.P,R11,2*%
%TO.N,Net-(J2-PadB5)*%
%TA.AperFunction,SMDPad,CuDef*%
G36*
G01*
X167075000Y-110450000D02*
X167075000Y-111000000D01*
G75*
G02*
X166875000Y-111200000I-200000J0D01*
G01*
X166475000Y-111200000D01*
G75*
G02*
X166275000Y-111000000I0J200000D01*
G01*
X166275000Y-110450000D01*
G75*
G02*
X166475000Y-110250000I200000J0D01*
G01*
X166875000Y-110250000D01*
G75*
G02*
X167075000Y-110450000I0J-200000D01*
G01*
G37*
%TD.AperFunction*%
%TD*%
%TO.P,R12,2*%
%TO.N,Net-(J2-PadA5)*%
%TA.AperFunction,SMDPad,CuDef*%
G36*
G01*
X160850000Y-111000000D02*
X160850000Y-110450000D01*
G75*
G02*
X161050000Y-110250000I200000J0D01*
G01*
X161450000Y-110250000D01*
G75*
G02*
X161650000Y-110450000I0J-200000D01*
G01*
X161650000Y-111000000D01*
G75*
G02*
X161450000Y-111200000I-200000J0D01*
G01*
X161050000Y-111200000D01*
G75*
G02*
X160850000Y-111000000I0J200000D01*
G01*
G37*
%TD.AperFunction*%
%TO.P,R12,1*%
%TO.N,GND*%
%TA.AperFunction,SMDPad,CuDef*%
G36*
G01*
X159200000Y-111000000D02*
X159200000Y-110450000D01*
G75*
G02*
X159400000Y-110250000I200000J0D01*
G01*
X159800000Y-110250000D01*
G75*
G02*
X160000000Y-110450000I0J-200000D01*
G01*
X160000000Y-111000000D01*
G75*
G02*
X159800000Y-111200000I-200000J0D01*
G01*
X159400000Y-111200000D01*
G75*
G02*
X159200000Y-111000000I0J200000D01*
G01*
G37*
%TD.AperFunction*%
%TD*%
%TO.P,R13,1*%
%TO.N,VBUS*%
%TA.AperFunction,SMDPad,CuDef*%
G36*
G01*
X167375000Y-105800000D02*
X166825000Y-105800000D01*
G75*
G02*
X166625000Y-105600000I0J200000D01*
G01*
X166625000Y-105200000D01*
G75*
G02*
X166825000Y-105000000I200000J0D01*
G01*
X167375000Y-105000000D01*
G75*
G02*
X167575000Y-105200000I0J-200000D01*
G01*
X167575000Y-105600000D01*
G75*
G02*
X167375000Y-105800000I-200000J0D01*
G01*
G37*
%TD.AperFunction*%
%TO.P,R13,2*%
%TO.N,GND*%
%TA.AperFunction,SMDPad,CuDef*%
G36*
G01*
X167375000Y-104150000D02*
X166825000Y-104150000D01*
G75*
G02*
X166625000Y-103950000I0J200000D01*
G01*
X166625000Y-103550000D01*
G75*
G02*
X166825000Y-103350000I200000J0D01*
G01*
X167375000Y-103350000D01*
G75*
G02*
X167575000Y-103550000I0J-200000D01*
G01*
X167575000Y-103950000D01*
G75*
G02*
X167375000Y-104150000I-200000J0D01*
G01*
G37*
%TD.AperFunction*%
%TD*%
%TO.P,R14,2*%
%TO.N,/IO25*%
%TA.AperFunction,SMDPad,CuDef*%
G36*
G01*
X119525000Y-115025000D02*
X120075000Y-115025000D01*
G75*
G02*
X120275000Y-115225000I0J-200000D01*
G01*
X120275000Y-115625000D01*
G75*
G02*
X120075000Y-115825000I-200000J0D01*
G01*
X119525000Y-115825000D01*
G75*
G02*
X119325000Y-115625000I0J200000D01*
G01*
X119325000Y-115225000D01*
G75*
G02*
X119525000Y-115025000I200000J0D01*
G01*
G37*
%TD.AperFunction*%
%TO.P,R14,1*%
%TO.N,+3V3*%
%TA.AperFunction,SMDPad,CuDef*%
G36*
G01*
X119525000Y-113375000D02*
X120075000Y-113375000D01*
G75*
G02*
X120275000Y-113575000I0J-200000D01*
G01*
X120275000Y-113975000D01*
G75*
G02*
X120075000Y-114175000I-200000J0D01*
G01*
X119525000Y-114175000D01*
G75*
G02*
X119325000Y-113975000I0J200000D01*
G01*
X119325000Y-113575000D01*
G75*
G02*
X119525000Y-113375000I200000J0D01*
G01*
G37*
%TD.AperFunction*%
%TD*%
D24*
%TO.P,SW1,2*%
%TO.N,/IO26*%
X109300000Y-110600000D03*
%TO.P,SW1,1*%
%TO.N,GND*%
X109300000Y-115100000D03*
X117250000Y-115100000D03*
%TO.P,SW1,2*%
%TO.N,/IO26*%
X117250000Y-110600000D03*
%TD*%
%TO.P,SW2,2*%
%TO.N,/IO25*%
X123025000Y-115075000D03*
%TO.P,SW2,1*%
%TO.N,GND*%
X123025000Y-110575000D03*
X130975000Y-110575000D03*
%TO.P,SW2,2*%
%TO.N,/IO25*%
X130975000Y-115075000D03*
%TD*%
%TO.P,SW3,2*%
%TO.N,/BOOT*%
X136375000Y-110525000D03*
%TO.P,SW3,1*%
%TO.N,GND*%
X136375000Y-115025000D03*
X144325000Y-115025000D03*
%TO.P,SW3,2*%
%TO.N,/BOOT*%
X144325000Y-110525000D03*
%TD*%
%TO.P,SW4,2*%
%TO.N,/EN*%
X156075000Y-110475000D03*
%TO.P,SW4,1*%
%TO.N,GND*%
X156075000Y-114975000D03*
X148125000Y-114975000D03*
%TO.P,SW4,2*%
%TO.N,/EN*%
X148125000Y-110475000D03*
%TD*%
D25*
%TO.P,U1,38*%
%TO.N,GND*%
X112450000Y-87645000D03*
%TO.P,U1,37*%
%TO.N,/IO23*%
X112450000Y-88915000D03*
%TO.P,U1,36*%
%TO.N,/IO22_SCL*%
X112450000Y-90185000D03*
%TO.P,U1,35*%
%TO.N,/TX*%
X112450000Y-91455000D03*
%TO.P,U1,34*%
%TO.N,/RX*%
X112450000Y-92725000D03*
%TO.P,U1,33*%
%TO.N,/IO21_SDA*%
X112450000Y-93995000D03*
%TO.P,U1,32*%
%TO.N,Net-(U1-Pad32)*%
X112450000Y-95265000D03*
%TO.P,U1,31*%
%TO.N,Net-(U1-Pad31)*%
X112450000Y-96535000D03*
%TO.P,U1,30*%
%TO.N,/IO18_SCL*%
X112450000Y-97805000D03*
%TO.P,U1,29*%
%TO.N,/IO5_SDA*%
X112450000Y-99075000D03*
%TO.P,U1,28*%
%TO.N,Net-(U1-Pad28)*%
X112450000Y-100345000D03*
%TO.P,U1,27*%
%TO.N,Net-(U1-Pad27)*%
X112450000Y-101615000D03*
%TO.P,U1,26*%
%TO.N,Net-(U1-Pad26)*%
X112450000Y-102885000D03*
%TO.P,U1,25*%
%TO.N,/BOOT*%
X112450000Y-104155000D03*
D26*
%TO.P,U1,24*%
%TO.N,Net-(U1-Pad24)*%
X109665000Y-105155000D03*
%TO.P,U1,23*%
%TO.N,Net-(U1-Pad23)*%
X108395000Y-105155000D03*
%TO.P,U1,22*%
%TO.N,Net-(U1-Pad22)*%
X107125000Y-105155000D03*
%TO.P,U1,21*%
%TO.N,Net-(U1-Pad21)*%
X105855000Y-105155000D03*
%TO.P,U1,20*%
%TO.N,Net-(U1-Pad20)*%
X104585000Y-105155000D03*
%TO.P,U1,19*%
%TO.N,Net-(U1-Pad19)*%
X103315000Y-105155000D03*
%TO.P,U1,18*%
%TO.N,Net-(U1-Pad18)*%
X102045000Y-105155000D03*
%TO.P,U1,17*%
%TO.N,Net-(U1-Pad17)*%
X100775000Y-105155000D03*
%TO.P,U1,16*%
%TO.N,Net-(U1-Pad16)*%
X99505000Y-105155000D03*
%TO.P,U1,15*%
%TO.N,GND*%
X98235000Y-105155000D03*
D25*
%TO.P,U1,14*%
%TO.N,Net-(U1-Pad14)*%
X95450000Y-104155000D03*
%TO.P,U1,13*%
%TO.N,Net-(U1-Pad13)*%
X95450000Y-102885000D03*
%TO.P,U1,12*%
%TO.N,Net-(U1-Pad12)*%
X95450000Y-101615000D03*
%TO.P,U1,11*%
%TO.N,/IO26*%
X95450000Y-100345000D03*
%TO.P,U1,10*%
%TO.N,/IO25*%
X95450000Y-99075000D03*
%TO.P,U1,9*%
%TO.N,Net-(U1-Pad9)*%
X95450000Y-97805000D03*
%TO.P,U1,8*%
%TO.N,Net-(U1-Pad8)*%
X95450000Y-96535000D03*
%TO.P,U1,7*%
%TO.N,/A1_7_BATT*%
X95450000Y-95265000D03*
%TO.P,U1,6*%
%TO.N,Net-(U1-Pad6)*%
X95450000Y-93995000D03*
%TO.P,U1,5*%
%TO.N,Net-(U1-Pad5)*%
X95450000Y-92725000D03*
%TO.P,U1,4*%
%TO.N,Net-(U1-Pad4)*%
X95450000Y-91455000D03*
%TO.P,U1,3*%
%TO.N,/EN*%
X95450000Y-90185000D03*
%TO.P,U1,2*%
%TO.N,+3V3*%
X95450000Y-88915000D03*
%TO.P,U1,1*%
%TO.N,GND*%
X95450000Y-87645000D03*
D27*
%TO.P,U1,39*%
X102950000Y-95145000D03*
%TD*%
%TO.P,U2,1*%
%TO.N,Net-(U2-Pad1)*%
%TA.AperFunction,SMDPad,CuDef*%
G36*
G01*
X103395000Y-108825000D02*
X103695000Y-108825000D01*
G75*
G02*
X103845000Y-108975000I0J-150000D01*
G01*
X103845000Y-110725000D01*
G75*
G02*
X103695000Y-110875000I-150000J0D01*
G01*
X103395000Y-110875000D01*
G75*
G02*
X103245000Y-110725000I0J150000D01*
G01*
X103245000Y-108975000D01*
G75*
G02*
X103395000Y-108825000I150000J0D01*
G01*
G37*
%TD.AperFunction*%
%TO.P,U2,2*%
%TO.N,/LOAD_SWITCH_VCC*%
%TA.AperFunction,SMDPad,CuDef*%
G36*
G01*
X102125000Y-108825000D02*
X102425000Y-108825000D01*
G75*
G02*
X102575000Y-108975000I0J-150000D01*
G01*
X102575000Y-110725000D01*
G75*
G02*
X102425000Y-110875000I-150000J0D01*
G01*
X102125000Y-110875000D01*
G75*
G02*
X101975000Y-110725000I0J150000D01*
G01*
X101975000Y-108975000D01*
G75*
G02*
X102125000Y-108825000I150000J0D01*
G01*
G37*
%TD.AperFunction*%
%TO.P,U2,3*%
%TO.N,Net-(U2-Pad3)*%
%TA.AperFunction,SMDPad,CuDef*%
G36*
G01*
X100855000Y-108825000D02*
X101155000Y-108825000D01*
G75*
G02*
X101305000Y-108975000I0J-150000D01*
G01*
X101305000Y-110725000D01*
G75*
G02*
X101155000Y-110875000I-150000J0D01*
G01*
X100855000Y-110875000D01*
G75*
G02*
X100705000Y-110725000I0J150000D01*
G01*
X100705000Y-108975000D01*
G75*
G02*
X100855000Y-108825000I150000J0D01*
G01*
G37*
%TD.AperFunction*%
%TO.P,U2,4*%
%TO.N,Net-(U2-Pad4)*%
%TA.AperFunction,SMDPad,CuDef*%
G36*
G01*
X99585000Y-108825000D02*
X99885000Y-108825000D01*
G75*
G02*
X100035000Y-108975000I0J-150000D01*
G01*
X100035000Y-110725000D01*
G75*
G02*
X99885000Y-110875000I-150000J0D01*
G01*
X99585000Y-110875000D01*
G75*
G02*
X99435000Y-110725000I0J150000D01*
G01*
X99435000Y-108975000D01*
G75*
G02*
X99585000Y-108825000I150000J0D01*
G01*
G37*
%TD.AperFunction*%
%TO.P,U2,5*%
%TO.N,GND*%
%TA.AperFunction,SMDPad,CuDef*%
G36*
G01*
X98315000Y-108825000D02*
X98615000Y-108825000D01*
G75*
G02*
X98765000Y-108975000I0J-150000D01*
G01*
X98765000Y-110725000D01*
G75*
G02*
X98615000Y-110875000I-150000J0D01*
G01*
X98315000Y-110875000D01*
G75*
G02*
X98165000Y-110725000I0J150000D01*
G01*
X98165000Y-108975000D01*
G75*
G02*
X98315000Y-108825000I150000J0D01*
G01*
G37*
%TD.AperFunction*%
%TO.P,U2,6*%
%TA.AperFunction,SMDPad,CuDef*%
G36*
G01*
X97045000Y-108825000D02*
X97345000Y-108825000D01*
G75*
G02*
X97495000Y-108975000I0J-150000D01*
G01*
X97495000Y-110725000D01*
G75*
G02*
X97345000Y-110875000I-150000J0D01*
G01*
X97045000Y-110875000D01*
G75*
G02*
X96895000Y-110725000I0J150000D01*
G01*
X96895000Y-108975000D01*
G75*
G02*
X97045000Y-108825000I150000J0D01*
G01*
G37*
%TD.AperFunction*%
%TO.P,U2,7*%
%TA.AperFunction,SMDPad,CuDef*%
G36*
G01*
X95775000Y-108825000D02*
X96075000Y-108825000D01*
G75*
G02*
X96225000Y-108975000I0J-150000D01*
G01*
X96225000Y-110725000D01*
G75*
G02*
X96075000Y-110875000I-150000J0D01*
G01*
X95775000Y-110875000D01*
G75*
G02*
X95625000Y-110725000I0J150000D01*
G01*
X95625000Y-108975000D01*
G75*
G02*
X95775000Y-108825000I150000J0D01*
G01*
G37*
%TD.AperFunction*%
%TO.P,U2,8*%
%TA.AperFunction,SMDPad,CuDef*%
G36*
G01*
X94505000Y-108825000D02*
X94805000Y-108825000D01*
G75*
G02*
X94955000Y-108975000I0J-150000D01*
G01*
X94955000Y-110725000D01*
G75*
G02*
X94805000Y-110875000I-150000J0D01*
G01*
X94505000Y-110875000D01*
G75*
G02*
X94355000Y-110725000I0J150000D01*
G01*
X94355000Y-108975000D01*
G75*
G02*
X94505000Y-108825000I150000J0D01*
G01*
G37*
%TD.AperFunction*%
%TO.P,U2,9*%
%TA.AperFunction,SMDPad,CuDef*%
G36*
G01*
X94505000Y-118125000D02*
X94805000Y-118125000D01*
G75*
G02*
X94955000Y-118275000I0J-150000D01*
G01*
X94955000Y-120025000D01*
G75*
G02*
X94805000Y-120175000I-150000J0D01*
G01*
X94505000Y-120175000D01*
G75*
G02*
X94355000Y-120025000I0J150000D01*
G01*
X94355000Y-118275000D01*
G75*
G02*
X94505000Y-118125000I150000J0D01*
G01*
G37*
%TD.AperFunction*%
%TO.P,U2,10*%
%TA.AperFunction,SMDPad,CuDef*%
G36*
G01*
X95775000Y-118125000D02*
X96075000Y-118125000D01*
G75*
G02*
X96225000Y-118275000I0J-150000D01*
G01*
X96225000Y-120025000D01*
G75*
G02*
X96075000Y-120175000I-150000J0D01*
G01*
X95775000Y-120175000D01*
G75*
G02*
X95625000Y-120025000I0J150000D01*
G01*
X95625000Y-118275000D01*
G75*
G02*
X95775000Y-118125000I150000J0D01*
G01*
G37*
%TD.AperFunction*%
%TO.P,U2,11*%
%TA.AperFunction,SMDPad,CuDef*%
G36*
G01*
X97045000Y-118125000D02*
X97345000Y-118125000D01*
G75*
G02*
X97495000Y-118275000I0J-150000D01*
G01*
X97495000Y-120025000D01*
G75*
G02*
X97345000Y-120175000I-150000J0D01*
G01*
X97045000Y-120175000D01*
G75*
G02*
X96895000Y-120025000I0J150000D01*
G01*
X96895000Y-118275000D01*
G75*
G02*
X97045000Y-118125000I150000J0D01*
G01*
G37*
%TD.AperFunction*%
%TO.P,U2,12*%
%TA.AperFunction,SMDPad,CuDef*%
G36*
G01*
X98315000Y-118125000D02*
X98615000Y-118125000D01*
G75*
G02*
X98765000Y-118275000I0J-150000D01*
G01*
X98765000Y-120025000D01*
G75*
G02*
X98615000Y-120175000I-150000J0D01*
G01*
X98315000Y-120175000D01*
G75*
G02*
X98165000Y-120025000I0J150000D01*
G01*
X98165000Y-118275000D01*
G75*
G02*
X98315000Y-118125000I150000J0D01*
G01*
G37*
%TD.AperFunction*%
%TO.P,U2,13*%
%TA.AperFunction,SMDPad,CuDef*%
G36*
G01*
X99585000Y-118125000D02*
X99885000Y-118125000D01*
G75*
G02*
X100035000Y-118275000I0J-150000D01*
G01*
X100035000Y-120025000D01*
G75*
G02*
X99885000Y-120175000I-150000J0D01*
G01*
X99585000Y-120175000D01*
G75*
G02*
X99435000Y-120025000I0J150000D01*
G01*
X99435000Y-118275000D01*
G75*
G02*
X99585000Y-118125000I150000J0D01*
G01*
G37*
%TD.AperFunction*%
%TO.P,U2,14*%
%TO.N,Net-(BT1-Pad1)*%
%TA.AperFunction,SMDPad,CuDef*%
G36*
G01*
X100855000Y-118125000D02*
X101155000Y-118125000D01*
G75*
G02*
X101305000Y-118275000I0J-150000D01*
G01*
X101305000Y-120025000D01*
G75*
G02*
X101155000Y-120175000I-150000J0D01*
G01*
X100855000Y-120175000D01*
G75*
G02*
X100705000Y-120025000I0J150000D01*
G01*
X100705000Y-118275000D01*
G75*
G02*
X100855000Y-118125000I150000J0D01*
G01*
G37*
%TD.AperFunction*%
%TO.P,U2,15*%
%TO.N,/IO5_SDA*%
%TA.AperFunction,SMDPad,CuDef*%
G36*
G01*
X102125000Y-118125000D02*
X102425000Y-118125000D01*
G75*
G02*
X102575000Y-118275000I0J-150000D01*
G01*
X102575000Y-120025000D01*
G75*
G02*
X102425000Y-120175000I-150000J0D01*
G01*
X102125000Y-120175000D01*
G75*
G02*
X101975000Y-120025000I0J150000D01*
G01*
X101975000Y-118275000D01*
G75*
G02*
X102125000Y-118125000I150000J0D01*
G01*
G37*
%TD.AperFunction*%
%TO.P,U2,16*%
%TO.N,/IO18_SCL*%
%TA.AperFunction,SMDPad,CuDef*%
G36*
G01*
X103395000Y-118125000D02*
X103695000Y-118125000D01*
G75*
G02*
X103845000Y-118275000I0J-150000D01*
G01*
X103845000Y-120025000D01*
G75*
G02*
X103695000Y-120175000I-150000J0D01*
G01*
X103395000Y-120175000D01*
G75*
G02*
X103245000Y-120025000I0J150000D01*
G01*
X103245000Y-118275000D01*
G75*
G02*
X103395000Y-118125000I150000J0D01*
G01*
G37*
%TD.AperFunction*%
%TD*%
D28*
%TO.P,U3,1*%
%TO.N,Net-(R8-Pad1)*%
X125450000Y-87100000D03*
%TO.P,U3,2*%
%TO.N,GND*%
X125450000Y-88050000D03*
%TO.P,U3,3*%
%TO.N,+BATT*%
X125450000Y-89000000D03*
%TO.P,U3,4*%
%TO.N,VBUS*%
X127650000Y-89000000D03*
%TO.P,U3,5*%
%TO.N,Net-(R7-Pad1)*%
X127650000Y-87100000D03*
%TD*%
D29*
%TO.P,J1,1*%
%TO.N,/TX*%
X116636800Y-91033600D03*
D30*
%TO.P,J1,2*%
%TO.N,/RX*%
X116636800Y-93573600D03*
%TD*%
D31*
%TO.P,SW5,1*%
%TO.N,/V_INPUT*%
X168198800Y-93548200D03*
%TO.P,SW5,2*%
%TO.N,Net-(C11-Pad1)*%
X168198800Y-91008200D03*
%TO.P,SW5,3*%
%TO.N,N/C*%
X168198800Y-88468200D03*
%TD*%
D32*
%TO.N,/IO21_SDA*%
X120450000Y-94000000D03*
X139650000Y-86600000D03*
%TO.N,/IO22_SCL*%
X122800000Y-83550000D03*
X124750000Y-81600000D03*
%TO.N,GND*%
X106350000Y-95150000D03*
X94655000Y-115445000D03*
X117250000Y-116950000D03*
X102950000Y-98450000D03*
X96500000Y-113200000D03*
X146300000Y-106800000D03*
X93050000Y-92150000D03*
X94655000Y-117645000D03*
X95950000Y-117650000D03*
X97195000Y-117655000D03*
X98250000Y-103400000D03*
X115700000Y-115100000D03*
X93200000Y-114950000D03*
X98465000Y-111215000D03*
X93200000Y-109050000D03*
X94650000Y-107950000D03*
X114500000Y-97800000D03*
X114500000Y-95550000D03*
X123250000Y-93700000D03*
X123250000Y-96150000D03*
X111050000Y-110500000D03*
X165400000Y-108350000D03*
X167750000Y-108350000D03*
X165350000Y-109650000D03*
X169300000Y-109500000D03*
X139900000Y-90500000D03*
X143250000Y-90500000D03*
X131600000Y-89350000D03*
X127950000Y-92550000D03*
X124650000Y-91700000D03*
X123250000Y-91650000D03*
X131300000Y-86350000D03*
X147080000Y-82850000D03*
X99500000Y-96600000D03*
X101105000Y-87645000D03*
X104305000Y-87645000D03*
X107205000Y-87645000D03*
X109805000Y-87645000D03*
X110600000Y-93600000D03*
X109850000Y-97250000D03*
X119600000Y-99300000D03*
X120150000Y-98150000D03*
X117150000Y-98150000D03*
X117150000Y-99300000D03*
X111150000Y-115100000D03*
X113450000Y-115100000D03*
X127025000Y-110575000D03*
X129075000Y-110575000D03*
X138325000Y-115025000D03*
X142225000Y-115025000D03*
X150225000Y-114975000D03*
X154375000Y-114975000D03*
X107605331Y-107844669D03*
X141000000Y-109000000D03*
X138200000Y-109000000D03*
X138050000Y-103600000D03*
X128000000Y-106800000D03*
X127100000Y-104025000D03*
X124600000Y-106825000D03*
X124275000Y-103950000D03*
X122555000Y-98171000D03*
X122555000Y-101727000D03*
X121221500Y-96964500D03*
X122110500Y-96075500D03*
X119062500Y-94805500D03*
X115570000Y-108521500D03*
X142557500Y-94615000D03*
X145986500Y-94615000D03*
X163131500Y-92392500D03*
X163131500Y-94932500D03*
X159893000Y-87249000D03*
X162306000Y-87249000D03*
X152971500Y-87312500D03*
X109448600Y-99314000D03*
X109448600Y-102565200D03*
X114503200Y-99314000D03*
X114503200Y-102565200D03*
X138252200Y-86360000D03*
X141681200Y-87503000D03*
X146300000Y-106800000D03*
X161163000Y-91541600D03*
X161163000Y-95656400D03*
X156464000Y-83820000D03*
X138201400Y-113690400D03*
X140868400Y-112268000D03*
X142544800Y-96189800D03*
X145973800Y-96189800D03*
X133299200Y-82600800D03*
X135102600Y-83413600D03*
X121666000Y-108737400D03*
X168097200Y-102082600D03*
X145491200Y-102158800D03*
X148132800Y-103936800D03*
X114503200Y-92354400D03*
X118472001Y-92347999D03*
X162306000Y-81153000D03*
X159893000Y-81153000D03*
X161493200Y-84963000D03*
X160985200Y-87249000D03*
X95935800Y-107950000D03*
X128879600Y-86715600D03*
X123342400Y-87528400D03*
X123850400Y-84785200D03*
X122605800Y-84785200D03*
X121869200Y-87528400D03*
X119075200Y-95885000D03*
X142468600Y-103301800D03*
X137896600Y-105816400D03*
X141528800Y-105816400D03*
X143611600Y-104140000D03*
X142468600Y-105029000D03*
X138201400Y-111099600D03*
%TO.N,/LOAD_SWITCH_VCC*%
X102900000Y-114650000D03*
X103980331Y-115730331D03*
X102900000Y-107950010D03*
X115800000Y-101750000D03*
X118500000Y-101050000D03*
X104150000Y-103300000D03*
X133950000Y-89550000D03*
X108331000Y-101803200D03*
%TO.N,Net-(BT1-Pad1)*%
X91350000Y-113400000D03*
X98348800Y-113106200D03*
%TO.N,/EN*%
X115550000Y-96700000D03*
X108850000Y-93650000D03*
%TO.N,+BATT*%
X131301041Y-91448959D03*
X128650000Y-91500000D03*
%TO.N,+3V3*%
X93400000Y-98200000D03*
X134150000Y-101650000D03*
X135850000Y-112350000D03*
X141550000Y-93400010D03*
X140500000Y-88400000D03*
X115800000Y-100150000D03*
X120700000Y-100100000D03*
X98400000Y-100150000D03*
X132850000Y-105750000D03*
X108331000Y-100152200D03*
%TO.N,VBUS*%
X165800000Y-106950000D03*
X166600000Y-111900000D03*
%TO.N,/IO5_SDA*%
X111050000Y-107500000D03*
X106500000Y-112250000D03*
X125044200Y-119532400D03*
%TO.N,/IO18_SCL*%
X109850000Y-107500000D03*
X107150000Y-110200000D03*
X124155200Y-117906800D03*
%TO.N,/A1_7_BATT*%
X98650000Y-92500000D03*
X98650000Y-90050000D03*
X110400000Y-89200000D03*
X116350000Y-89200000D03*
%TO.N,/IO25*%
X112500000Y-108950000D03*
X113700000Y-111450000D03*
%TO.N,Net-(C11-Pad1)*%
X153550000Y-96550000D03*
X150650000Y-99450000D03*
X144450000Y-105650000D03*
X135700000Y-107999990D03*
X128850000Y-101950000D03*
X147650200Y-102449800D03*
%TD*%
D33*
%TO.N,/IO21_SDA*%
X120445000Y-93995000D02*
X120450000Y-94000000D01*
X150950000Y-86600000D02*
X154700000Y-82850000D01*
X139650000Y-86600000D02*
X150950000Y-86600000D01*
X114055002Y-93995000D02*
X115208402Y-95148400D01*
X112450000Y-93995000D02*
X114055002Y-93995000D01*
X115208402Y-95148400D02*
X117475000Y-95148400D01*
X118623400Y-94000000D02*
X117475000Y-95148400D01*
X120450000Y-94000000D02*
X118623400Y-94000000D01*
%TO.N,/IO22_SCL*%
X113965000Y-90185000D02*
X116450000Y-87700000D01*
X112450000Y-90185000D02*
X113965000Y-90185000D01*
X149510000Y-85500000D02*
X152160000Y-82850000D01*
X138550000Y-85500000D02*
X149510000Y-85500000D01*
X117207120Y-87700000D02*
X118800000Y-86107120D01*
X116450000Y-87700000D02*
X117207120Y-87700000D01*
X118800000Y-86107120D02*
X118800000Y-84250000D01*
X119500000Y-83550000D02*
X122800000Y-83550000D01*
X118800000Y-84250000D02*
X119500000Y-83550000D01*
X134650000Y-81600000D02*
X138550000Y-85500000D01*
X124750000Y-81600000D02*
X134650000Y-81600000D01*
D34*
%TO.N,GND*%
X95405000Y-87600000D02*
X95450000Y-87645000D01*
X92600000Y-87600000D02*
X95405000Y-87600000D01*
X102950000Y-93645000D02*
X102950000Y-95145000D01*
X95450000Y-87645000D02*
X96950000Y-87645000D01*
X95450000Y-87645000D02*
X101105000Y-87645000D01*
X95450000Y-87645000D02*
X98895000Y-87645000D01*
X102355000Y-87645000D02*
X102505000Y-87645000D01*
X105455000Y-87645000D02*
X107205000Y-87645000D01*
X102505000Y-87645000D02*
X104305000Y-87645000D01*
X105305000Y-87645000D02*
X105455000Y-87645000D01*
X106345000Y-95145000D02*
X106350000Y-95150000D01*
X102950000Y-95145000D02*
X106345000Y-95145000D01*
X168150000Y-114250000D02*
X168300000Y-114400000D01*
X166730000Y-114250000D02*
X168150000Y-114250000D01*
X159810000Y-114250000D02*
X159660000Y-114400000D01*
X161230000Y-114250000D02*
X159810000Y-114250000D01*
X159085000Y-114975000D02*
X159660000Y-114400000D01*
X156075000Y-114975000D02*
X159085000Y-114975000D01*
X148125000Y-114975000D02*
X150225000Y-114975000D01*
X148075000Y-115025000D02*
X148125000Y-114975000D01*
X144325000Y-115025000D02*
X148075000Y-115025000D01*
X136375000Y-115025000D02*
X138325000Y-115025000D01*
X168575000Y-114125000D02*
X168300000Y-114400000D01*
X159660000Y-110785000D02*
X159600000Y-110725000D01*
X159660000Y-114400000D02*
X159660000Y-110785000D01*
X168325000Y-114375000D02*
X168300000Y-114400000D01*
X168325000Y-110725000D02*
X168325000Y-114375000D01*
X94655000Y-109850000D02*
X95925000Y-109850000D01*
X95925000Y-109850000D02*
X97195000Y-109850000D01*
X97195000Y-109850000D02*
X98465000Y-109850000D01*
X94655000Y-119150000D02*
X92350000Y-119150000D01*
X94655000Y-119150000D02*
X95925000Y-119150000D01*
X95925000Y-119150000D02*
X97195000Y-119150000D01*
X97195000Y-119150000D02*
X98465000Y-119150000D01*
X98465000Y-119150000D02*
X99735000Y-119150000D01*
X94655000Y-115445000D02*
X94655000Y-117095000D01*
X94655000Y-117095000D02*
X94655000Y-117645000D01*
X109300000Y-115100000D02*
X111150000Y-115100000D01*
X123025000Y-110575000D02*
X127025000Y-110575000D01*
X117250000Y-115100000D02*
X117250000Y-116950000D01*
X123250000Y-86050000D02*
X123350000Y-86150000D01*
X105300000Y-87650000D02*
X105305000Y-87645000D01*
X102950000Y-95145000D02*
X102950000Y-98450000D01*
X95925000Y-112625000D02*
X96500000Y-113200000D01*
X95925000Y-109850000D02*
X95925000Y-112625000D01*
X147950000Y-106800000D02*
X146300000Y-106800000D01*
X92700000Y-92500000D02*
X93050000Y-92150000D01*
X92700000Y-93600000D02*
X92700000Y-92500000D01*
X98465000Y-109850000D02*
X98465000Y-111215000D01*
X94655000Y-117645000D02*
X94655000Y-119150000D01*
X95925000Y-117675000D02*
X95950000Y-117650000D01*
X95925000Y-119150000D02*
X95925000Y-117675000D01*
X97195000Y-119150000D02*
X97195000Y-117655000D01*
X97195000Y-117655000D02*
X97195000Y-117655000D01*
X98235000Y-103415000D02*
X98250000Y-103400000D01*
X98235000Y-105155000D02*
X98235000Y-103415000D01*
X115700000Y-115100000D02*
X117250000Y-115100000D01*
D33*
X96500000Y-113200000D02*
X96500000Y-113139998D01*
X93300000Y-114850000D02*
X93200000Y-114950000D01*
D34*
X98465000Y-111215000D02*
X98465000Y-111215000D01*
X93200000Y-114950000D02*
X93200000Y-109050000D01*
X94655000Y-109850000D02*
X94655000Y-115445000D01*
X94655000Y-107955000D02*
X94650000Y-107950000D01*
X94655000Y-109850000D02*
X94655000Y-107955000D01*
X115650000Y-115050000D02*
X115700000Y-115100000D01*
X114500000Y-97800000D02*
X114500000Y-95550000D01*
X107755000Y-87645000D02*
X109805000Y-87645000D01*
X109805000Y-87645000D02*
X112450000Y-87645000D01*
X123250000Y-93700000D02*
X123250000Y-96150000D01*
X165400000Y-108350000D02*
X167750000Y-108350000D01*
X169150000Y-109650000D02*
X169300000Y-109500000D01*
X165350000Y-109650000D02*
X169150000Y-109650000D01*
X139900000Y-90500000D02*
X143250000Y-90500000D01*
D33*
X133300000Y-86150000D02*
X133300000Y-84300000D01*
D34*
X131300000Y-89050000D02*
X131600000Y-89350000D01*
X131300000Y-86350000D02*
X131300000Y-89050000D01*
X125500000Y-92550000D02*
X127950000Y-92550000D01*
X124650000Y-91700000D02*
X125500000Y-92550000D01*
X123250000Y-93700000D02*
X123250000Y-93100000D01*
X123250000Y-93100000D02*
X123250000Y-91650000D01*
X135950000Y-86150000D02*
X136000000Y-86100000D01*
X139299999Y-91100001D02*
X139900000Y-90500000D01*
X133350001Y-91100001D02*
X139299999Y-91100001D01*
X131600000Y-89350000D02*
X133350001Y-91100001D01*
X147258002Y-82850000D02*
X147080000Y-82850000D01*
X100955000Y-95145000D02*
X99500000Y-96600000D01*
X102950000Y-95145000D02*
X100955000Y-95145000D01*
X101105000Y-87645000D02*
X102355000Y-87645000D01*
X104305000Y-87645000D02*
X105305000Y-87645000D01*
X107205000Y-87645000D02*
X107755000Y-87645000D01*
X109805000Y-87645000D02*
X109805000Y-87645000D01*
X110600000Y-96500000D02*
X109850000Y-97250000D01*
X110600000Y-93600000D02*
X110600000Y-96500000D01*
X120150000Y-98150000D02*
X117150000Y-98150000D01*
X119600000Y-99300000D02*
X117150000Y-99300000D01*
X111150000Y-115100000D02*
X113450000Y-115100000D01*
X113450000Y-115100000D02*
X115700000Y-115100000D01*
X127025000Y-110575000D02*
X129075000Y-110575000D01*
X129075000Y-110575000D02*
X130975000Y-110575000D01*
X138325000Y-115025000D02*
X142225000Y-115025000D01*
X142225000Y-115025000D02*
X144325000Y-115025000D01*
X150225000Y-114975000D02*
X154375000Y-114975000D01*
X154375000Y-114975000D02*
X156075000Y-114975000D01*
X141000000Y-109000000D02*
X138200000Y-109000000D01*
D33*
X131500000Y-102100000D02*
X131500000Y-102925000D01*
X132000000Y-104900000D02*
X132000000Y-104300000D01*
D34*
X128550000Y-105050000D02*
X127100000Y-105050000D01*
X128550000Y-105900000D02*
X128550000Y-105050000D01*
X129950000Y-107300000D02*
X128550000Y-105900000D01*
X122555000Y-98171000D02*
X122555000Y-101727000D01*
X121221500Y-96964500D02*
X120142000Y-95885000D01*
X122110500Y-96075500D02*
X121348500Y-96075500D01*
X120078500Y-94805500D02*
X119062500Y-94805500D01*
X121348500Y-96075500D02*
X120078500Y-94805500D01*
X114191499Y-109900001D02*
X115570000Y-108521500D01*
X111449999Y-109900001D02*
X114191499Y-109900001D01*
X111050000Y-109734315D02*
X111050000Y-110300000D01*
X110765685Y-109450000D02*
X111050000Y-109734315D01*
X111050000Y-110300000D02*
X111449999Y-109900001D01*
X109210662Y-109450000D02*
X110765685Y-109450000D01*
X107605331Y-107844669D02*
X109210662Y-109450000D01*
X142557500Y-94615000D02*
X145986500Y-94615000D01*
X163131500Y-92392500D02*
X163131500Y-94932500D01*
X159893000Y-81153000D02*
X159893000Y-87249000D01*
X162306000Y-81153000D02*
X162306000Y-87249000D01*
X156464000Y-83820000D02*
X156464000Y-83820000D01*
X109448600Y-99314000D02*
X109448600Y-102565200D01*
X114503200Y-99314000D02*
X114503200Y-102565200D01*
X138829515Y-87503000D02*
X141681200Y-87503000D01*
X138252200Y-86925685D02*
X138829515Y-87503000D01*
X138252200Y-86360000D02*
X138252200Y-86925685D01*
X161163000Y-91541600D02*
X161163000Y-95656400D01*
X156464000Y-83820000D02*
X152971500Y-87312500D01*
X142544800Y-96189800D02*
X145973800Y-96189800D01*
X137896600Y-103753400D02*
X138050000Y-103600000D01*
D33*
X133300000Y-82601600D02*
X133299200Y-82600800D01*
X133300000Y-84300000D02*
X133300000Y-82601600D01*
D34*
X136000000Y-84311000D02*
X135102600Y-83413600D01*
X136000000Y-86100000D02*
X136000000Y-84311000D01*
X123025000Y-110096400D02*
X121666000Y-108737400D01*
X123025000Y-110575000D02*
X123025000Y-110096400D01*
X120680000Y-92800000D02*
X120680000Y-91800000D01*
X121580000Y-93700000D02*
X120680000Y-92800000D01*
X123250000Y-93700000D02*
X121580000Y-93700000D01*
X167100000Y-103079800D02*
X168097200Y-102082600D01*
X167100000Y-103750000D02*
X167100000Y-103079800D01*
X147269200Y-103936800D02*
X145491200Y-102158800D01*
X148132800Y-103936800D02*
X147269200Y-103936800D01*
X128000000Y-106050000D02*
X128000000Y-106800000D01*
X130550000Y-103500000D02*
X128000000Y-106050000D01*
D33*
X131775000Y-104075000D02*
X131500000Y-104075000D01*
X132000000Y-104300000D02*
X131775000Y-104075000D01*
X114509601Y-92347999D02*
X114503200Y-92354400D01*
X118472001Y-92347999D02*
X118472001Y-92347999D01*
X118472001Y-92347999D02*
X114509601Y-92347999D01*
D34*
X161493200Y-84963000D02*
X160985200Y-85471000D01*
X160985200Y-85471000D02*
X160985200Y-87249000D01*
X96500000Y-113180000D02*
X98465000Y-111215000D01*
X96500000Y-113200000D02*
X96500000Y-113180000D01*
X95925000Y-107960800D02*
X95935800Y-107950000D01*
X95925000Y-109850000D02*
X95925000Y-107960800D01*
X123875800Y-85624200D02*
X123350000Y-86150000D01*
X123875800Y-84632800D02*
X123875800Y-85624200D01*
X119075200Y-95885000D02*
X120142000Y-95885000D01*
X132450000Y-103500000D02*
X134538800Y-103500000D01*
X146300000Y-106234315D02*
X144205685Y-104140000D01*
X144205685Y-104140000D02*
X143611600Y-104140000D01*
X146300000Y-106800000D02*
X146300000Y-106234315D01*
X143611600Y-104140000D02*
X143611600Y-104140000D01*
X138201400Y-113690400D02*
X138201400Y-111099600D01*
X139700000Y-111099600D02*
X140868400Y-112268000D01*
X138201400Y-111099600D02*
X139700000Y-111099600D01*
%TO.N,/LOAD_SWITCH_VCC*%
X102300000Y-109875000D02*
X102275000Y-109850000D01*
X105550000Y-109200000D02*
X105550000Y-109250000D01*
X102275000Y-110875000D02*
X102900000Y-111500000D01*
X102275000Y-109850000D02*
X102275000Y-110875000D01*
X104624990Y-110125010D02*
X105550000Y-109200000D01*
X104624990Y-110643554D02*
X104624990Y-110125010D01*
X103768544Y-111500000D02*
X104624990Y-110643554D01*
X102900000Y-111500000D02*
X103768544Y-111500000D01*
X105500000Y-117250000D02*
X103980331Y-115730331D01*
X105500000Y-118100000D02*
X105500000Y-117250000D01*
X102275000Y-108575010D02*
X102900000Y-107950010D01*
X102275000Y-109850000D02*
X102275000Y-108575010D01*
X102275000Y-114025000D02*
X102275000Y-109850000D01*
X102900000Y-114650000D02*
X102275000Y-114025000D01*
X138449999Y-89250001D02*
X137450000Y-90250000D01*
X157400000Y-84350000D02*
X152499999Y-89250001D01*
X152499999Y-89250001D02*
X138449999Y-89250001D01*
X157400000Y-81850000D02*
X157400000Y-84350000D01*
X156500000Y-80950000D02*
X157400000Y-81850000D01*
X150020000Y-80950000D02*
X156500000Y-80950000D01*
X149620000Y-81350000D02*
X150020000Y-80950000D01*
X149620000Y-82850000D02*
X149620000Y-81350000D01*
X117800000Y-101750000D02*
X118500000Y-101050000D01*
X115800000Y-101750000D02*
X117800000Y-101750000D01*
X133950000Y-89550000D02*
X133950000Y-88050000D01*
X134650000Y-90250000D02*
X137450000Y-90250000D01*
X133950000Y-89550000D02*
X134650000Y-90250000D01*
X104150000Y-103300000D02*
X105646800Y-101803200D01*
X105646800Y-101803200D02*
X108331000Y-101803200D01*
%TO.N,Net-(BT1-Pad1)*%
X101005000Y-119150000D02*
X101005000Y-115755000D01*
X100997600Y-115755000D02*
X101005000Y-115755000D01*
X98348800Y-113106200D02*
X100997600Y-115755000D01*
X92350000Y-116200000D02*
X91338400Y-115188400D01*
X91338400Y-113411600D02*
X91350000Y-113400000D01*
X91338400Y-115188400D02*
X91338400Y-113411600D01*
D33*
%TO.N,/EN*%
X151375000Y-107275000D02*
X150900000Y-106800000D01*
X154800000Y-107275000D02*
X151375000Y-107275000D01*
X148125000Y-110475000D02*
X149825000Y-110475000D01*
X150900000Y-109400000D02*
X150900000Y-106800000D01*
X149825000Y-110475000D02*
X150900000Y-109400000D01*
X156075000Y-110475000D02*
X155425000Y-110475000D01*
X154800000Y-109850000D02*
X154800000Y-107275000D01*
X155425000Y-110475000D02*
X154800000Y-109850000D01*
X95450000Y-90185000D02*
X97285000Y-90185000D01*
X97285000Y-90185000D02*
X98800000Y-91700000D01*
X106900000Y-91700000D02*
X108850000Y-93650000D01*
X98800000Y-91700000D02*
X106900000Y-91700000D01*
X119800000Y-96700000D02*
X115550000Y-96700000D01*
X121750000Y-105332878D02*
X121750000Y-98650000D01*
X121750000Y-98650000D02*
X119800000Y-96700000D01*
X125167112Y-108749990D02*
X121750000Y-105332878D01*
X137200010Y-108749990D02*
X125167112Y-108749990D01*
X137700001Y-108249999D02*
X137200010Y-108749990D01*
X145900000Y-108250000D02*
X137700001Y-108249999D01*
X148125000Y-110475000D02*
X145900000Y-108250000D01*
D34*
%TO.N,+BATT*%
X121450000Y-89100000D02*
X121350000Y-89200000D01*
X128650000Y-91500000D02*
X125900000Y-91500000D01*
X122000000Y-91750000D02*
X121950000Y-91800000D01*
X132642400Y-91850000D02*
X146750000Y-91850000D01*
X132241359Y-91448959D02*
X132642400Y-91850000D01*
X131301041Y-91448959D02*
X132241359Y-91448959D01*
X159300000Y-104400000D02*
X146750000Y-91850000D01*
X163250000Y-104400000D02*
X159300000Y-104400000D01*
X125350000Y-89100000D02*
X125450000Y-89000000D01*
X121350000Y-89200000D02*
X121950000Y-89800000D01*
X125900000Y-91500000D02*
X125891600Y-91500000D01*
X125891600Y-91500000D02*
X124663200Y-90271600D01*
X121950000Y-91800000D02*
X121950000Y-89800000D01*
%TO.N,+3V3*%
X94235000Y-88915000D02*
X95450000Y-88915000D01*
X92600000Y-90550000D02*
X94235000Y-88915000D01*
X92700000Y-90650000D02*
X92600000Y-90550000D01*
X119800000Y-111900000D02*
X119800000Y-113775000D01*
X134225000Y-111900000D02*
X134250000Y-111875000D01*
X119800000Y-111900000D02*
X134225000Y-111900000D01*
X156450000Y-107275000D02*
X156450000Y-106100000D01*
X156450000Y-106100000D02*
X155200000Y-104850000D01*
X155200000Y-104850000D02*
X145950000Y-104850000D01*
X143200000Y-102100000D02*
X139700000Y-102100000D01*
X145950000Y-104850000D02*
X143200000Y-102100000D01*
X92600000Y-90550000D02*
X91100000Y-92050000D01*
X91100000Y-94950000D02*
X92700000Y-96550000D01*
X91100000Y-92050000D02*
X91100000Y-94950000D01*
X92700000Y-97500000D02*
X93400000Y-98200000D01*
X92700000Y-96550000D02*
X92700000Y-97500000D01*
X135375000Y-111875000D02*
X135850000Y-112350000D01*
X134250000Y-111875000D02*
X135375000Y-111875000D01*
X141550000Y-98250000D02*
X140200000Y-99600000D01*
X141550000Y-93400010D02*
X141550000Y-98250000D01*
X134700000Y-86900000D02*
X133950000Y-86150000D01*
X134700000Y-88650000D02*
X134700000Y-86900000D01*
X135100000Y-89050000D02*
X134700000Y-88650000D01*
X136000000Y-89050000D02*
X135100000Y-89050000D01*
X136000000Y-89050000D02*
X137300000Y-89050000D01*
X137950000Y-88400000D02*
X140500000Y-88400000D01*
X137300000Y-89050000D02*
X137950000Y-88400000D01*
X120650000Y-100150000D02*
X120700000Y-100100000D01*
X115800000Y-100150000D02*
X120650000Y-100150000D01*
D33*
X132500000Y-105400000D02*
X132850000Y-105750000D01*
X132500000Y-104900000D02*
X132500000Y-105400000D01*
D34*
X108328800Y-100150000D02*
X108331000Y-100152200D01*
X98400000Y-100150000D02*
X108328800Y-100150000D01*
%TO.N,/V_INPUT*%
X164260000Y-102350000D02*
X165350000Y-103440000D01*
X160700000Y-102350000D02*
X164260000Y-102350000D01*
X160700000Y-102350000D02*
X160700000Y-99200000D01*
X168198800Y-93548200D02*
X166319200Y-93548200D01*
X160700000Y-99167400D02*
X160700000Y-99200000D01*
X166319200Y-93548200D02*
X160700000Y-99167400D01*
D33*
%TO.N,Net-(C7-Pad1)*%
X130500000Y-104900000D02*
X131000000Y-104900000D01*
X131000000Y-104900000D02*
X131500000Y-104900000D01*
X131500000Y-105900000D02*
X132900000Y-107300000D01*
X131500000Y-104900000D02*
X131500000Y-105900000D01*
X134400000Y-107300000D02*
X134950000Y-106750000D01*
X132900000Y-107300000D02*
X134400000Y-107300000D01*
D34*
%TO.N,Net-(D2-Pad1)*%
X125450000Y-83800000D02*
X127225000Y-83800000D01*
%TO.N,VBUS*%
X165500000Y-114990002D02*
X165500000Y-114250000D01*
X162769999Y-115300001D02*
X165190001Y-115300001D01*
X162460000Y-114990002D02*
X162769999Y-115300001D01*
X165190001Y-115300001D02*
X165500000Y-114990002D01*
X162460000Y-114250000D02*
X162460000Y-114990002D01*
X165500000Y-114250000D02*
X165500000Y-113450000D01*
X162000000Y-106950000D02*
X160700000Y-105650000D01*
X165800000Y-106950000D02*
X165800000Y-106950000D01*
X165390000Y-105400000D02*
X165350000Y-105360000D01*
X167100000Y-105400000D02*
X165390000Y-105400000D01*
X128850000Y-83800000D02*
X130300000Y-85250000D01*
X165500000Y-113450000D02*
X165500000Y-113000000D01*
X160990000Y-105360000D02*
X160700000Y-105650000D01*
X165350000Y-105360000D02*
X160990000Y-105360000D01*
X165800000Y-106950000D02*
X162000000Y-106950000D01*
X165500000Y-113000000D02*
X166600000Y-111900000D01*
X128705647Y-89000000D02*
X127650000Y-89000000D01*
X130300000Y-85250000D02*
X130300000Y-87405647D01*
X127650000Y-89000000D02*
X127658800Y-89000000D01*
X158800000Y-105650000D02*
X160700000Y-105650000D01*
X131144090Y-92550010D02*
X145700010Y-92550010D01*
X127650000Y-89055920D02*
X131144090Y-92550010D01*
X145700010Y-92550010D02*
X158800000Y-105650000D01*
X127650000Y-89000000D02*
X127650000Y-89055920D01*
X130300000Y-87405647D02*
X130300000Y-89050400D01*
D33*
%TO.N,/IO23*%
X132650000Y-84650000D02*
X132650000Y-86150000D01*
X130700000Y-82700000D02*
X132650000Y-84650000D01*
X118300000Y-83500000D02*
X119100000Y-82700000D01*
X118300000Y-85900000D02*
X118300000Y-83500000D01*
X119100000Y-82700000D02*
X130700000Y-82700000D01*
X117000000Y-87200000D02*
X118300000Y-85900000D01*
X116657112Y-87199992D02*
X116242888Y-87199992D01*
X116657120Y-87200000D02*
X116657112Y-87199992D01*
X117000000Y-87200000D02*
X116657120Y-87200000D01*
X114527880Y-88915000D02*
X112450000Y-88915000D01*
X116242888Y-87199992D02*
X114527880Y-88915000D01*
%TO.N,/TX*%
X116395000Y-91455000D02*
X116400000Y-91450000D01*
X116215400Y-91455000D02*
X116636800Y-91033600D01*
X112450000Y-91455000D02*
X116215400Y-91455000D01*
%TO.N,/RX*%
X112455000Y-92720000D02*
X112450000Y-92725000D01*
X116258199Y-93194999D02*
X116636800Y-93573600D01*
X113464199Y-93194999D02*
X116258199Y-93194999D01*
X112994200Y-92725000D02*
X113464199Y-93194999D01*
X112450000Y-92725000D02*
X112994200Y-92725000D01*
%TO.N,Net-(J2-PadA5)*%
X161250000Y-110725000D02*
X161825000Y-110725000D01*
X163480000Y-112380000D02*
X163480000Y-114250000D01*
X161825000Y-110725000D02*
X163480000Y-112380000D01*
%TO.N,Net-(J2-PadB5)*%
X166675000Y-110725000D02*
X166125000Y-110725000D01*
X164480000Y-112370000D02*
X164480000Y-114250000D01*
X166125000Y-110725000D02*
X164480000Y-112370000D01*
%TO.N,Net-(L1-Pad1)*%
X131000000Y-100350000D02*
X126500000Y-95850000D01*
X131000000Y-102100000D02*
X131000000Y-100350000D01*
%TO.N,Net-(L1-Pad2)*%
X132000000Y-99650000D02*
X135800000Y-95850000D01*
X132000000Y-102100000D02*
X132000000Y-99650000D01*
%TO.N,/IO5_SDA*%
X105550000Y-110850000D02*
X105550000Y-113100000D01*
X102275000Y-116375000D02*
X102275000Y-119150000D01*
X105550000Y-113100000D02*
X102275000Y-116375000D01*
X111000010Y-99224990D02*
X111000010Y-104142890D01*
X111150000Y-99075000D02*
X111000010Y-99224990D01*
X112450000Y-99075000D02*
X111150000Y-99075000D01*
X111000010Y-104142890D02*
X111000010Y-106699990D01*
X111000010Y-107450010D02*
X111050000Y-107500000D01*
X111000010Y-106699990D02*
X111000010Y-107450010D01*
X105550000Y-111300000D02*
X106500000Y-112250000D01*
X105550000Y-110850000D02*
X105550000Y-111300000D01*
X102275000Y-119150000D02*
X102275000Y-118133500D01*
D34*
X102725010Y-120625010D02*
X116458590Y-120625010D01*
X102275000Y-120175000D02*
X102725010Y-120625010D01*
X102275000Y-119150000D02*
X102275000Y-120175000D01*
X123951590Y-120625010D02*
X125044200Y-119532400D01*
X116458590Y-120625010D02*
X123951590Y-120625010D01*
D33*
%TO.N,/IO18_SCL*%
X104145000Y-119750000D02*
X103545000Y-119150000D01*
X105500000Y-119750000D02*
X104145000Y-119750000D01*
X111150000Y-97805000D02*
X110500000Y-98455000D01*
X112450000Y-97805000D02*
X111150000Y-97805000D01*
X110500000Y-98455000D02*
X110500000Y-104350000D01*
X110500000Y-104350000D02*
X110500000Y-106700000D01*
X110500000Y-106850000D02*
X109850000Y-107500000D01*
X106850000Y-118400000D02*
X105500000Y-119750000D01*
X107800000Y-117450000D02*
X106850000Y-118400000D01*
X107150000Y-111300000D02*
X107800000Y-111950000D01*
X107150000Y-110200000D02*
X107150000Y-111300000D01*
X110500000Y-106700000D02*
X110500000Y-106850000D01*
X107800000Y-117450000D02*
X107800000Y-117452000D01*
X107800000Y-116055000D02*
X107800000Y-117450000D01*
X107800000Y-111950000D02*
X107800000Y-116055000D01*
D34*
X122312000Y-119750000D02*
X124155200Y-117906800D01*
X105500000Y-119750000D02*
X122312000Y-119750000D01*
D33*
%TO.N,/IO26*%
X117600000Y-110250000D02*
X117250000Y-110600000D01*
X119800000Y-110250000D02*
X117600000Y-110250000D01*
X96260002Y-100345000D02*
X95450000Y-100345000D01*
X96934991Y-101019989D02*
X96260002Y-100345000D01*
X96934991Y-106642113D02*
X96934991Y-101019989D01*
X97492888Y-107200010D02*
X96934991Y-106642113D01*
X105900010Y-107200010D02*
X97492888Y-107200010D01*
X109300000Y-110600000D02*
X105900010Y-107200010D01*
X117200000Y-110550000D02*
X117250000Y-110600000D01*
X109300000Y-110600000D02*
X109300000Y-110849400D01*
X109300000Y-110849400D02*
X110464600Y-112014000D01*
X111575200Y-112014000D02*
X113039200Y-110550000D01*
X110464600Y-112014000D02*
X111575200Y-112014000D01*
X113039200Y-110550000D02*
X117200000Y-110550000D01*
%TO.N,/BOOT*%
X136075000Y-110225000D02*
X136375000Y-110525000D01*
X134250000Y-110225000D02*
X136075000Y-110225000D01*
X133275000Y-109250000D02*
X134250000Y-110225000D01*
X124960002Y-109250000D02*
X133275000Y-109250000D01*
X119865002Y-104155000D02*
X124960002Y-109250000D01*
X112450000Y-104155000D02*
X119865002Y-104155000D01*
X136867200Y-110032800D02*
X136375000Y-110525000D01*
X139903200Y-110032800D02*
X136867200Y-110032800D01*
X140395400Y-110525000D02*
X139903200Y-110032800D01*
X144325000Y-110525000D02*
X140395400Y-110525000D01*
D34*
%TO.N,Net-(R7-Pad1)*%
X127000000Y-86450000D02*
X127650000Y-87100000D01*
X127000000Y-85400000D02*
X127000000Y-86450000D01*
%TO.N,Net-(R8-Pad1)*%
X125450000Y-87100000D02*
X125450000Y-85450000D01*
%TO.N,/A1_7_BATT*%
X119700000Y-86050000D02*
X119700000Y-89200000D01*
X95485000Y-95300000D02*
X95450000Y-95265000D01*
X95450000Y-95265000D02*
X97785000Y-95265000D01*
X98650000Y-94400000D02*
X98650000Y-92500000D01*
X97785000Y-95265000D02*
X98650000Y-94400000D01*
X98650000Y-90050000D02*
X99500000Y-89200000D01*
X99500000Y-89200000D02*
X110400000Y-89200000D01*
X116350000Y-89200000D02*
X119700000Y-89200000D01*
D33*
%TO.N,/IO25*%
X123025000Y-115075000D02*
X130975000Y-115075000D01*
X122675000Y-115425000D02*
X123025000Y-115075000D01*
X119800000Y-115425000D02*
X122675000Y-115425000D01*
X109659992Y-108749990D02*
X111499990Y-108749990D01*
X97699998Y-106700000D02*
X107610002Y-106700000D01*
X97434999Y-106435001D02*
X97699998Y-106700000D01*
X107610002Y-106700000D02*
X109659992Y-108749990D01*
X97434999Y-99759999D02*
X97434999Y-106435001D01*
X96750000Y-99075000D02*
X97434999Y-99759999D01*
X95450000Y-99075000D02*
X96750000Y-99075000D01*
X112299990Y-108749990D02*
X112500000Y-108950000D01*
X111499990Y-108749990D02*
X112299990Y-108749990D01*
X113700000Y-111450000D02*
X114441800Y-112191800D01*
X116566800Y-112191800D02*
X119800000Y-115425000D01*
X114441800Y-112191800D02*
X116566800Y-112191800D01*
D34*
%TO.N,Net-(C11-Pad1)*%
X143350000Y-106750000D02*
X136600000Y-106750000D01*
X144450000Y-105650000D02*
X143350000Y-106750000D01*
X136600000Y-107099990D02*
X135700000Y-107999990D01*
X136600000Y-106750000D02*
X136600000Y-107099990D01*
X153550000Y-96550000D02*
X160615800Y-89484200D01*
X150650000Y-99450000D02*
X147650200Y-102449800D01*
X166674800Y-89484200D02*
X168198800Y-91008200D01*
X160615800Y-89484200D02*
X166674800Y-89484200D01*
%TD*%
D35*
%TO.N,Net-(C11-Pad1)*%
X130473000Y-101515281D02*
X130473000Y-102125880D01*
X130480626Y-102203309D01*
X130501176Y-102271052D01*
X130501176Y-102296176D01*
X130300000Y-102296176D01*
X130226095Y-102303455D01*
X130155030Y-102325012D01*
X130089537Y-102360019D01*
X130032131Y-102407131D01*
X129985019Y-102464537D01*
X129950012Y-102530030D01*
X129928455Y-102601095D01*
X129921176Y-102675000D01*
X129921176Y-102746176D01*
X129800000Y-102746176D01*
X129726095Y-102753455D01*
X129655030Y-102775012D01*
X129589537Y-102810019D01*
X129532131Y-102857131D01*
X129485019Y-102914537D01*
X129480495Y-102923000D01*
X123317000Y-102923000D01*
X123317000Y-101878940D01*
X123332000Y-101803528D01*
X123332000Y-101650472D01*
X123317000Y-101575060D01*
X123317000Y-99712953D01*
X130473000Y-101515281D01*
%TA.AperFunction,Conductor*%
D36*
G36*
X130473000Y-101515281D02*
G01*
X130473000Y-102125880D01*
X130480626Y-102203309D01*
X130501176Y-102271052D01*
X130501176Y-102296176D01*
X130300000Y-102296176D01*
X130226095Y-102303455D01*
X130155030Y-102325012D01*
X130089537Y-102360019D01*
X130032131Y-102407131D01*
X129985019Y-102464537D01*
X129950012Y-102530030D01*
X129928455Y-102601095D01*
X129921176Y-102675000D01*
X129921176Y-102746176D01*
X129800000Y-102746176D01*
X129726095Y-102753455D01*
X129655030Y-102775012D01*
X129589537Y-102810019D01*
X129532131Y-102857131D01*
X129485019Y-102914537D01*
X129480495Y-102923000D01*
X123317000Y-102923000D01*
X123317000Y-101878940D01*
X123332000Y-101803528D01*
X123332000Y-101650472D01*
X123317000Y-101575060D01*
X123317000Y-99712953D01*
X130473000Y-101515281D01*
G37*
%TD.AperFunction*%
%TD*%
D35*
%TO.N,Net-(L1-Pad1)*%
X131023000Y-101127611D02*
X124027000Y-98956438D01*
X124027000Y-93401127D01*
X131023000Y-93352879D01*
X131023000Y-101127611D01*
%TA.AperFunction,Conductor*%
D36*
G36*
X131023000Y-101127611D02*
G01*
X124027000Y-98956438D01*
X124027000Y-93401127D01*
X131023000Y-93352879D01*
X131023000Y-101127611D01*
G37*
%TD.AperFunction*%
%TD*%
D35*
%TO.N,Net-(L1-Pad2)*%
X138488824Y-98871257D02*
X132238220Y-100993007D01*
X132150459Y-101036196D01*
X132093254Y-101082988D01*
X132046276Y-101140041D01*
X132011332Y-101205163D01*
X131999876Y-101242711D01*
X131952758Y-93327000D01*
X138488824Y-93327000D01*
X138488824Y-98871257D01*
%TA.AperFunction,Conductor*%
D36*
G36*
X138488824Y-98871257D02*
G01*
X132238220Y-100993007D01*
X132150459Y-101036196D01*
X132093254Y-101082988D01*
X132046276Y-101140041D01*
X132011332Y-101205163D01*
X131999876Y-101242711D01*
X131952758Y-93327000D01*
X138488824Y-93327000D01*
X138488824Y-98871257D01*
G37*
%TD.AperFunction*%
%TD*%
D35*
%TO.N,+3V3*%
X140921159Y-102381575D02*
X132950140Y-102392581D01*
X132910463Y-102360019D01*
X132844970Y-102325012D01*
X132773905Y-102303455D01*
X132700000Y-102296176D01*
X132498824Y-102296176D01*
X132498824Y-102271053D01*
X132519374Y-102203310D01*
X132527000Y-102125881D01*
X132527000Y-101427226D01*
X140922918Y-98577255D01*
X140921159Y-102381575D01*
%TA.AperFunction,Conductor*%
D36*
G36*
X140921159Y-102381575D02*
G01*
X132950140Y-102392581D01*
X132910463Y-102360019D01*
X132844970Y-102325012D01*
X132773905Y-102303455D01*
X132700000Y-102296176D01*
X132498824Y-102296176D01*
X132498824Y-102271053D01*
X132519374Y-102203310D01*
X132527000Y-102125881D01*
X132527000Y-101427226D01*
X140922918Y-98577255D01*
X140921159Y-102381575D01*
G37*
%TD.AperFunction*%
%TD*%
D35*
%TO.N,GND*%
X135000644Y-102947848D02*
X135109359Y-103005958D01*
X135227322Y-103041741D01*
X135349999Y-103053824D01*
X136650001Y-103053824D01*
X136772678Y-103041741D01*
X136890641Y-103005958D01*
X136999356Y-102947848D01*
X137032314Y-102920800D01*
X138667686Y-102920800D01*
X138700644Y-102947848D01*
X138809359Y-103005958D01*
X138927322Y-103041741D01*
X139049999Y-103053824D01*
X140350001Y-103053824D01*
X140472678Y-103041741D01*
X140590641Y-103005958D01*
X140699356Y-102947848D01*
X140732314Y-102920800D01*
X143134089Y-102920800D01*
X143987058Y-103773770D01*
X143996284Y-105018672D01*
X143954691Y-105046464D01*
X143846464Y-105154691D01*
X143761431Y-105281952D01*
X143702859Y-105423357D01*
X143681239Y-105532049D01*
X143092089Y-106121200D01*
X137254830Y-106121200D01*
X137209290Y-106065710D01*
X137121577Y-105993725D01*
X137021506Y-105940236D01*
X136912923Y-105907298D01*
X136800000Y-105896176D01*
X136400000Y-105896176D01*
X136287077Y-105907298D01*
X136178494Y-105940236D01*
X136078423Y-105993725D01*
X135990710Y-106065710D01*
X135945170Y-106121200D01*
X135604830Y-106121200D01*
X135559290Y-106065710D01*
X135471577Y-105993725D01*
X135371506Y-105940236D01*
X135262923Y-105907298D01*
X135150000Y-105896176D01*
X134750000Y-105896176D01*
X134637077Y-105907298D01*
X134528494Y-105940236D01*
X134428423Y-105993725D01*
X134340710Y-106065710D01*
X134295170Y-106121200D01*
X134061200Y-106121200D01*
X134061200Y-102920800D01*
X134967686Y-102920800D01*
X135000644Y-102947848D01*
%TA.AperFunction,Conductor*%
D36*
G36*
X135000644Y-102947848D02*
G01*
X135109359Y-103005958D01*
X135227322Y-103041741D01*
X135349999Y-103053824D01*
X136650001Y-103053824D01*
X136772678Y-103041741D01*
X136890641Y-103005958D01*
X136999356Y-102947848D01*
X137032314Y-102920800D01*
X138667686Y-102920800D01*
X138700644Y-102947848D01*
X138809359Y-103005958D01*
X138927322Y-103041741D01*
X139049999Y-103053824D01*
X140350001Y-103053824D01*
X140472678Y-103041741D01*
X140590641Y-103005958D01*
X140699356Y-102947848D01*
X140732314Y-102920800D01*
X143134089Y-102920800D01*
X143987058Y-103773770D01*
X143996284Y-105018672D01*
X143954691Y-105046464D01*
X143846464Y-105154691D01*
X143761431Y-105281952D01*
X143702859Y-105423357D01*
X143681239Y-105532049D01*
X143092089Y-106121200D01*
X137254830Y-106121200D01*
X137209290Y-106065710D01*
X137121577Y-105993725D01*
X137021506Y-105940236D01*
X136912923Y-105907298D01*
X136800000Y-105896176D01*
X136400000Y-105896176D01*
X136287077Y-105907298D01*
X136178494Y-105940236D01*
X136078423Y-105993725D01*
X135990710Y-106065710D01*
X135945170Y-106121200D01*
X135604830Y-106121200D01*
X135559290Y-106065710D01*
X135471577Y-105993725D01*
X135371506Y-105940236D01*
X135262923Y-105907298D01*
X135150000Y-105896176D01*
X134750000Y-105896176D01*
X134637077Y-105907298D01*
X134528494Y-105940236D01*
X134428423Y-105993725D01*
X134340710Y-106065710D01*
X134295170Y-106121200D01*
X134061200Y-106121200D01*
X134061200Y-102920800D01*
X134967686Y-102920800D01*
X135000644Y-102947848D01*
G37*
%TD.AperFunction*%
%TD*%
D35*
%TO.N,GND*%
X129161928Y-103875000D02*
X129174188Y-103999482D01*
X129210498Y-104119180D01*
X129269463Y-104229494D01*
X129348815Y-104326185D01*
X129445506Y-104405537D01*
X129555820Y-104464502D01*
X129675518Y-104500812D01*
X129690197Y-104502258D01*
X129710498Y-104569180D01*
X129769463Y-104679494D01*
X129848815Y-104776185D01*
X129945506Y-104855537D01*
X129973364Y-104870427D01*
X129970451Y-104900000D01*
X129980626Y-105003310D01*
X130001176Y-105071053D01*
X130001176Y-105200000D01*
X130008455Y-105273905D01*
X130030012Y-105344970D01*
X130065019Y-105410463D01*
X130112131Y-105467869D01*
X130169537Y-105514981D01*
X130235030Y-105549988D01*
X130306095Y-105571545D01*
X130380000Y-105578824D01*
X130620000Y-105578824D01*
X130693905Y-105571545D01*
X130750000Y-105554529D01*
X130806095Y-105571545D01*
X130880000Y-105578824D01*
X130973001Y-105578824D01*
X130973001Y-105874110D01*
X130970451Y-105900000D01*
X130980626Y-106003309D01*
X131010761Y-106102649D01*
X131010762Y-106102650D01*
X131059697Y-106194202D01*
X131073000Y-106210412D01*
X131073000Y-107223373D01*
X124405346Y-107242934D01*
X123317000Y-106154589D01*
X123317000Y-103700127D01*
X129161928Y-103682980D01*
X129161928Y-103875000D01*
%TA.AperFunction,Conductor*%
D36*
G36*
X129161928Y-103875000D02*
G01*
X129174188Y-103999482D01*
X129210498Y-104119180D01*
X129269463Y-104229494D01*
X129348815Y-104326185D01*
X129445506Y-104405537D01*
X129555820Y-104464502D01*
X129675518Y-104500812D01*
X129690197Y-104502258D01*
X129710498Y-104569180D01*
X129769463Y-104679494D01*
X129848815Y-104776185D01*
X129945506Y-104855537D01*
X129973364Y-104870427D01*
X129970451Y-104900000D01*
X129980626Y-105003310D01*
X130001176Y-105071053D01*
X130001176Y-105200000D01*
X130008455Y-105273905D01*
X130030012Y-105344970D01*
X130065019Y-105410463D01*
X130112131Y-105467869D01*
X130169537Y-105514981D01*
X130235030Y-105549988D01*
X130306095Y-105571545D01*
X130380000Y-105578824D01*
X130620000Y-105578824D01*
X130693905Y-105571545D01*
X130750000Y-105554529D01*
X130806095Y-105571545D01*
X130880000Y-105578824D01*
X130973001Y-105578824D01*
X130973001Y-105874110D01*
X130970451Y-105900000D01*
X130980626Y-106003309D01*
X131010761Y-106102649D01*
X131010762Y-106102650D01*
X131059697Y-106194202D01*
X131073000Y-106210412D01*
X131073000Y-107223373D01*
X124405346Y-107242934D01*
X123317000Y-106154589D01*
X123317000Y-103700127D01*
X129161928Y-103682980D01*
X129161928Y-103875000D01*
G37*
%TD.AperFunction*%
%TD*%
D35*
%TO.N,+BATT*%
X124846095Y-88746545D02*
X124920000Y-88753824D01*
X125980000Y-88753824D01*
X126053905Y-88746545D01*
X126063614Y-88743600D01*
X126365000Y-88743600D01*
X126365000Y-90601800D01*
X120827800Y-90601800D01*
X120827800Y-88743600D01*
X124836386Y-88743600D01*
X124846095Y-88746545D01*
%TA.AperFunction,Conductor*%
D36*
G36*
X124846095Y-88746545D02*
G01*
X124920000Y-88753824D01*
X125980000Y-88753824D01*
X126053905Y-88746545D01*
X126063614Y-88743600D01*
X126365000Y-88743600D01*
X126365000Y-90601800D01*
X120827800Y-90601800D01*
X120827800Y-88743600D01*
X124836386Y-88743600D01*
X124846095Y-88746545D01*
G37*
%TD.AperFunction*%
%TD*%
D35*
%TO.N,VBUS*%
X130632200Y-90246200D02*
X126949200Y-90246200D01*
X126949200Y-88798400D01*
X130632200Y-88798400D01*
X130632200Y-90246200D01*
%TA.AperFunction,Conductor*%
D36*
G36*
X130632200Y-90246200D02*
G01*
X126949200Y-90246200D01*
X126949200Y-88798400D01*
X130632200Y-88798400D01*
X130632200Y-90246200D01*
G37*
%TD.AperFunction*%
%TD*%
D35*
%TO.N,GND*%
X124409200Y-87503000D02*
X124411640Y-87527776D01*
X124418867Y-87551601D01*
X124430603Y-87573557D01*
X124446397Y-87592803D01*
X124465643Y-87608597D01*
X124487599Y-87620333D01*
X124511424Y-87627560D01*
X124536200Y-87630000D01*
X124602099Y-87630000D01*
X124605019Y-87635463D01*
X124652131Y-87692869D01*
X124709537Y-87739981D01*
X124775030Y-87774988D01*
X124846095Y-87796545D01*
X124920000Y-87803824D01*
X125980000Y-87803824D01*
X126053905Y-87796545D01*
X126124970Y-87774988D01*
X126190463Y-87739981D01*
X126247869Y-87692869D01*
X126294981Y-87635463D01*
X126297901Y-87630000D01*
X126802099Y-87630000D01*
X126805019Y-87635463D01*
X126852131Y-87692869D01*
X126909537Y-87739981D01*
X126975030Y-87774988D01*
X127046095Y-87796545D01*
X127120000Y-87803824D01*
X128180000Y-87803824D01*
X128253905Y-87796545D01*
X128324970Y-87774988D01*
X128390463Y-87739981D01*
X128447869Y-87692869D01*
X128494981Y-87635463D01*
X128529988Y-87569970D01*
X128551545Y-87498905D01*
X128558824Y-87425000D01*
X128558824Y-86775000D01*
X128551545Y-86701095D01*
X128529988Y-86630030D01*
X128494981Y-86564537D01*
X128447869Y-86507131D01*
X128390463Y-86460019D01*
X128324970Y-86425012D01*
X128270000Y-86408337D01*
X128270000Y-85064600D01*
X129184400Y-85064600D01*
X129184400Y-88239600D01*
X124325873Y-88239600D01*
X124240641Y-88194042D01*
X124122678Y-88158259D01*
X124000001Y-88146176D01*
X122699999Y-88146176D01*
X122577322Y-88158259D01*
X122459359Y-88194042D01*
X122374127Y-88239600D01*
X120827800Y-88239600D01*
X120827800Y-84353400D01*
X124409200Y-84353400D01*
X124409200Y-87503000D01*
%TA.AperFunction,Conductor*%
D36*
G36*
X124409200Y-87503000D02*
G01*
X124411640Y-87527776D01*
X124418867Y-87551601D01*
X124430603Y-87573557D01*
X124446397Y-87592803D01*
X124465643Y-87608597D01*
X124487599Y-87620333D01*
X124511424Y-87627560D01*
X124536200Y-87630000D01*
X124602099Y-87630000D01*
X124605019Y-87635463D01*
X124652131Y-87692869D01*
X124709537Y-87739981D01*
X124775030Y-87774988D01*
X124846095Y-87796545D01*
X124920000Y-87803824D01*
X125980000Y-87803824D01*
X126053905Y-87796545D01*
X126124970Y-87774988D01*
X126190463Y-87739981D01*
X126247869Y-87692869D01*
X126294981Y-87635463D01*
X126297901Y-87630000D01*
X126802099Y-87630000D01*
X126805019Y-87635463D01*
X126852131Y-87692869D01*
X126909537Y-87739981D01*
X126975030Y-87774988D01*
X127046095Y-87796545D01*
X127120000Y-87803824D01*
X128180000Y-87803824D01*
X128253905Y-87796545D01*
X128324970Y-87774988D01*
X128390463Y-87739981D01*
X128447869Y-87692869D01*
X128494981Y-87635463D01*
X128529988Y-87569970D01*
X128551545Y-87498905D01*
X128558824Y-87425000D01*
X128558824Y-86775000D01*
X128551545Y-86701095D01*
X128529988Y-86630030D01*
X128494981Y-86564537D01*
X128447869Y-86507131D01*
X128390463Y-86460019D01*
X128324970Y-86425012D01*
X128270000Y-86408337D01*
X128270000Y-85064600D01*
X129184400Y-85064600D01*
X129184400Y-88239600D01*
X124325873Y-88239600D01*
X124240641Y-88194042D01*
X124122678Y-88158259D01*
X124000001Y-88146176D01*
X122699999Y-88146176D01*
X122577322Y-88158259D01*
X122459359Y-88194042D01*
X122374127Y-88239600D01*
X120827800Y-88239600D01*
X120827800Y-84353400D01*
X124409200Y-84353400D01*
X124409200Y-87503000D01*
G37*
%TD.AperFunction*%
%TD*%
M02*
