%TF.GenerationSoftware,KiCad,Pcbnew,5.1.8-db9833491~87~ubuntu20.04.1*%
%TF.CreationDate,2020-12-03T15:39:07+05:30*%
%TF.ProjectId,open_authenticator,6f70656e-5f61-4757-9468-656e74696361,v01*%
%TF.SameCoordinates,Original*%
%TF.FileFunction,Soldermask,Bot*%
%TF.FilePolarity,Negative*%
%FSLAX46Y46*%
G04 Gerber Fmt 4.6, Leading zero omitted, Abs format (unit mm)*
G04 Created by KiCad (PCBNEW 5.1.8-db9833491~87~ubuntu20.04.1) date 2020-12-03 15:39:07*
%MOMM*%
%LPD*%
G01*
G04 APERTURE LIST*
%ADD10O,1.600000X2.000000*%
%ADD11O,1.000000X1.000000*%
%ADD12R,1.000000X1.000000*%
%ADD13R,3.200000X4.200000*%
%ADD14C,2.000000*%
%ADD15R,1.700000X1.700000*%
%ADD16O,1.700000X1.700000*%
%ADD17C,1.524000*%
G04 APERTURE END LIST*
D10*
%TO.C,Brd1*%
X154700000Y-82850000D03*
X152160000Y-82850000D03*
X147080000Y-82850000D03*
X149620000Y-82850000D03*
%TD*%
%TO.C,TP5*%
G36*
G01*
X160663000Y-94285500D02*
X160663000Y-92785500D01*
G75*
G02*
X160913000Y-92535500I250000J0D01*
G01*
X161413000Y-92535500D01*
G75*
G02*
X161663000Y-92785500I0J-250000D01*
G01*
X161663000Y-94285500D01*
G75*
G02*
X161413000Y-94535500I-250000J0D01*
G01*
X160913000Y-94535500D01*
G75*
G02*
X160663000Y-94285500I0J250000D01*
G01*
G37*
%TD*%
D11*
%TO.C,J3*%
X121950000Y-91800000D03*
D12*
X120680000Y-91800000D03*
%TD*%
%TO.C,TP8*%
G36*
G01*
X144026000Y-100318000D02*
X144026000Y-98818000D01*
G75*
G02*
X144276000Y-98568000I250000J0D01*
G01*
X144776000Y-98568000D01*
G75*
G02*
X145026000Y-98818000I0J-250000D01*
G01*
X145026000Y-100318000D01*
G75*
G02*
X144776000Y-100568000I-250000J0D01*
G01*
X144276000Y-100568000D01*
G75*
G02*
X144026000Y-100318000I0J250000D01*
G01*
G37*
%TD*%
%TO.C,TP7*%
G36*
G01*
X158313500Y-83617500D02*
X158313500Y-82117500D01*
G75*
G02*
X158563500Y-81867500I250000J0D01*
G01*
X159063500Y-81867500D01*
G75*
G02*
X159313500Y-82117500I0J-250000D01*
G01*
X159313500Y-83617500D01*
G75*
G02*
X159063500Y-83867500I-250000J0D01*
G01*
X158563500Y-83867500D01*
G75*
G02*
X158313500Y-83617500I0J250000D01*
G01*
G37*
%TD*%
%TO.C,TP6*%
G36*
G01*
X160536000Y-83617500D02*
X160536000Y-82117500D01*
G75*
G02*
X160786000Y-81867500I250000J0D01*
G01*
X161286000Y-81867500D01*
G75*
G02*
X161536000Y-82117500I0J-250000D01*
G01*
X161536000Y-83617500D01*
G75*
G02*
X161286000Y-83867500I-250000J0D01*
G01*
X160786000Y-83867500D01*
G75*
G02*
X160536000Y-83617500I0J250000D01*
G01*
G37*
%TD*%
%TO.C,TP3*%
G36*
G01*
X128773300Y-120066500D02*
X128773300Y-118566500D01*
G75*
G02*
X129023300Y-118316500I250000J0D01*
G01*
X129523300Y-118316500D01*
G75*
G02*
X129773300Y-118566500I0J-250000D01*
G01*
X129773300Y-120066500D01*
G75*
G02*
X129523300Y-120316500I-250000J0D01*
G01*
X129023300Y-120316500D01*
G75*
G02*
X128773300Y-120066500I0J250000D01*
G01*
G37*
%TD*%
%TO.C,TP2*%
G36*
G01*
X127122300Y-120066500D02*
X127122300Y-118566500D01*
G75*
G02*
X127372300Y-118316500I250000J0D01*
G01*
X127872300Y-118316500D01*
G75*
G02*
X128122300Y-118566500I0J-250000D01*
G01*
X128122300Y-120066500D01*
G75*
G02*
X127872300Y-120316500I-250000J0D01*
G01*
X127372300Y-120316500D01*
G75*
G02*
X127122300Y-120066500I0J250000D01*
G01*
G37*
%TD*%
%TO.C,TP4*%
G36*
G01*
X162758500Y-83617500D02*
X162758500Y-82117500D01*
G75*
G02*
X163008500Y-81867500I250000J0D01*
G01*
X163508500Y-81867500D01*
G75*
G02*
X163758500Y-82117500I0J-250000D01*
G01*
X163758500Y-83617500D01*
G75*
G02*
X163508500Y-83867500I-250000J0D01*
G01*
X163008500Y-83867500D01*
G75*
G02*
X162758500Y-83617500I0J250000D01*
G01*
G37*
%TD*%
%TO.C,TP1*%
G36*
G01*
X144026000Y-97206500D02*
X144026000Y-95706500D01*
G75*
G02*
X144276000Y-95456500I250000J0D01*
G01*
X144776000Y-95456500D01*
G75*
G02*
X145026000Y-95706500I0J-250000D01*
G01*
X145026000Y-97206500D01*
G75*
G02*
X144776000Y-97456500I-250000J0D01*
G01*
X144276000Y-97456500D01*
G75*
G02*
X144026000Y-97206500I0J250000D01*
G01*
G37*
%TD*%
D13*
%TO.C,BT1*%
X93850000Y-112000000D03*
X123150000Y-112000000D03*
%TD*%
D14*
%TO.C,J2*%
X159660000Y-118200000D03*
X168300000Y-118200000D03*
X168300000Y-114400000D03*
X159660000Y-114400000D03*
%TD*%
D15*
%TO.C,J1*%
X116636800Y-91033600D03*
D16*
X116636800Y-93573600D03*
%TD*%
D17*
%TO.C,SW5*%
X168198800Y-93548200D03*
X168198800Y-91008200D03*
X168198800Y-88468200D03*
%TD*%
M02*
