%TF.GenerationSoftware,KiCad,Pcbnew,5.1.8-db9833491~87~ubuntu20.04.1*%
%TF.CreationDate,2020-12-02T18:26:53+05:30*%
%TF.ProjectId,open_authenticator,6f70656e-5f61-4757-9468-656e74696361,v01*%
%TF.SameCoordinates,Original*%
%TF.FileFunction,Soldermask,Top*%
%TF.FilePolarity,Negative*%
%FSLAX46Y46*%
G04 Gerber Fmt 4.6, Leading zero omitted, Abs format (unit mm)*
G04 Created by KiCad (PCBNEW 5.1.8-db9833491~87~ubuntu20.04.1) date 2020-12-02 18:26:53*
%MOMM*%
%LPD*%
G01*
G04 APERTURE LIST*
%ADD10R,0.240000X0.600000*%
%ADD11C,0.100000*%
%ADD12O,1.600000X2.000000*%
%ADD13O,1.000000X1.000000*%
%ADD14R,1.000000X1.000000*%
%ADD15R,1.200000X0.900000*%
%ADD16R,0.400000X1.200000*%
%ADD17R,0.700000X1.200000*%
%ADD18R,0.760000X1.200000*%
%ADD19R,0.800000X1.200000*%
%ADD20C,2.000000*%
%ADD21R,2.200000X3.050000*%
%ADD22R,1.100000X0.650000*%
%ADD23R,1.550000X1.300000*%
%ADD24R,2.000000X0.900000*%
%ADD25R,0.900000X2.000000*%
%ADD26R,5.000000X5.000000*%
%ADD27R,1.060000X0.650000*%
%ADD28R,1.700000X1.700000*%
%ADD29O,1.700000X1.700000*%
%ADD30C,1.524000*%
G04 APERTURE END LIST*
%TO.C,C11*%
G36*
G01*
X123674999Y-104475000D02*
X124975001Y-104475000D01*
G75*
G02*
X125225000Y-104724999I0J-249999D01*
G01*
X125225000Y-105375001D01*
G75*
G02*
X124975001Y-105625000I-249999J0D01*
G01*
X123674999Y-105625000D01*
G75*
G02*
X123425000Y-105375001I0J249999D01*
G01*
X123425000Y-104724999D01*
G75*
G02*
X123674999Y-104475000I249999J0D01*
G01*
G37*
G36*
G01*
X123674999Y-101525000D02*
X124975001Y-101525000D01*
G75*
G02*
X125225000Y-101774999I0J-249999D01*
G01*
X125225000Y-102425001D01*
G75*
G02*
X124975001Y-102675000I-249999J0D01*
G01*
X123674999Y-102675000D01*
G75*
G02*
X123425000Y-102425001I0J249999D01*
G01*
X123425000Y-101774999D01*
G75*
G02*
X123674999Y-101525000I249999J0D01*
G01*
G37*
%TD*%
D10*
%TO.C,U4*%
X132500000Y-102100000D03*
X132000000Y-102100000D03*
X131500000Y-102100000D03*
X131000000Y-102100000D03*
X130500000Y-102100000D03*
X130500000Y-104900000D03*
X131000000Y-104900000D03*
X131500000Y-104900000D03*
X132000000Y-104900000D03*
X132500000Y-104900000D03*
D11*
G36*
X132700000Y-103375000D02*
G01*
X132700000Y-103625000D01*
X133200000Y-103625000D01*
X133200000Y-103875000D01*
X132700000Y-103875000D01*
X132700000Y-104325000D01*
X130300000Y-104325000D01*
X130300000Y-103875000D01*
X129800000Y-103875000D01*
X129800000Y-103625000D01*
X130300000Y-103625000D01*
X130300000Y-103375000D01*
X129800000Y-103375000D01*
X129800000Y-103125000D01*
X130300000Y-103125000D01*
X130300000Y-102675000D01*
X132700000Y-102675000D01*
X132700000Y-103125000D01*
X133200000Y-103125000D01*
X133200000Y-103375000D01*
X132700000Y-103375000D01*
G37*
%TD*%
D12*
%TO.C,Brd1*%
X154700000Y-82850000D03*
X152160000Y-82850000D03*
X147080000Y-82850000D03*
X149620000Y-82850000D03*
%TD*%
D13*
%TO.C,J3*%
X121950000Y-91800000D03*
D14*
X120680000Y-91800000D03*
%TD*%
%TO.C,C10*%
G36*
G01*
X91699999Y-118575000D02*
X93000001Y-118575000D01*
G75*
G02*
X93250000Y-118824999I0J-249999D01*
G01*
X93250000Y-119475001D01*
G75*
G02*
X93000001Y-119725000I-249999J0D01*
G01*
X91699999Y-119725000D01*
G75*
G02*
X91450000Y-119475001I0J249999D01*
G01*
X91450000Y-118824999D01*
G75*
G02*
X91699999Y-118575000I249999J0D01*
G01*
G37*
G36*
G01*
X91699999Y-115625000D02*
X93000001Y-115625000D01*
G75*
G02*
X93250000Y-115874999I0J-249999D01*
G01*
X93250000Y-116525001D01*
G75*
G02*
X93000001Y-116775000I-249999J0D01*
G01*
X91699999Y-116775000D01*
G75*
G02*
X91450000Y-116525001I0J249999D01*
G01*
X91450000Y-115874999D01*
G75*
G02*
X91699999Y-115625000I249999J0D01*
G01*
G37*
%TD*%
%TO.C,C2*%
G36*
G01*
X91949999Y-87025000D02*
X93250001Y-87025000D01*
G75*
G02*
X93500000Y-87274999I0J-249999D01*
G01*
X93500000Y-87925001D01*
G75*
G02*
X93250001Y-88175000I-249999J0D01*
G01*
X91949999Y-88175000D01*
G75*
G02*
X91700000Y-87925001I0J249999D01*
G01*
X91700000Y-87274999D01*
G75*
G02*
X91949999Y-87025000I249999J0D01*
G01*
G37*
G36*
G01*
X91949999Y-89975000D02*
X93250001Y-89975000D01*
G75*
G02*
X93500000Y-90224999I0J-249999D01*
G01*
X93500000Y-90875001D01*
G75*
G02*
X93250001Y-91125000I-249999J0D01*
G01*
X91949999Y-91125000D01*
G75*
G02*
X91700000Y-90875001I0J249999D01*
G01*
X91700000Y-90224999D01*
G75*
G02*
X91949999Y-89975000I249999J0D01*
G01*
G37*
%TD*%
%TO.C,C1*%
G36*
G01*
X93350001Y-97125000D02*
X92049999Y-97125000D01*
G75*
G02*
X91800000Y-96875001I0J249999D01*
G01*
X91800000Y-96224999D01*
G75*
G02*
X92049999Y-95975000I249999J0D01*
G01*
X93350001Y-95975000D01*
G75*
G02*
X93600000Y-96224999I0J-249999D01*
G01*
X93600000Y-96875001D01*
G75*
G02*
X93350001Y-97125000I-249999J0D01*
G01*
G37*
G36*
G01*
X93350001Y-94175000D02*
X92049999Y-94175000D01*
G75*
G02*
X91800000Y-93925001I0J249999D01*
G01*
X91800000Y-93274999D01*
G75*
G02*
X92049999Y-93025000I249999J0D01*
G01*
X93350001Y-93025000D01*
G75*
G02*
X93600000Y-93274999I0J-249999D01*
G01*
X93600000Y-93925001D01*
G75*
G02*
X93350001Y-94175000I-249999J0D01*
G01*
G37*
%TD*%
%TO.C,C3*%
G36*
G01*
X151475000Y-106149999D02*
X151475000Y-107450001D01*
G75*
G02*
X151225001Y-107700000I-249999J0D01*
G01*
X150574999Y-107700000D01*
G75*
G02*
X150325000Y-107450001I0J249999D01*
G01*
X150325000Y-106149999D01*
G75*
G02*
X150574999Y-105900000I249999J0D01*
G01*
X151225001Y-105900000D01*
G75*
G02*
X151475000Y-106149999I0J-249999D01*
G01*
G37*
G36*
G01*
X148525000Y-106149999D02*
X148525000Y-107450001D01*
G75*
G02*
X148275001Y-107700000I-249999J0D01*
G01*
X147624999Y-107700000D01*
G75*
G02*
X147375000Y-107450001I0J249999D01*
G01*
X147375000Y-106149999D01*
G75*
G02*
X147624999Y-105900000I249999J0D01*
G01*
X148275001Y-105900000D01*
G75*
G02*
X148525000Y-106149999I0J-249999D01*
G01*
G37*
%TD*%
%TO.C,C4*%
G36*
G01*
X122699999Y-85575000D02*
X124000001Y-85575000D01*
G75*
G02*
X124250000Y-85824999I0J-249999D01*
G01*
X124250000Y-86475001D01*
G75*
G02*
X124000001Y-86725000I-249999J0D01*
G01*
X122699999Y-86725000D01*
G75*
G02*
X122450000Y-86475001I0J249999D01*
G01*
X122450000Y-85824999D01*
G75*
G02*
X122699999Y-85575000I249999J0D01*
G01*
G37*
G36*
G01*
X122699999Y-88525000D02*
X124000001Y-88525000D01*
G75*
G02*
X124250000Y-88774999I0J-249999D01*
G01*
X124250000Y-89425001D01*
G75*
G02*
X124000001Y-89675000I-249999J0D01*
G01*
X122699999Y-89675000D01*
G75*
G02*
X122450000Y-89425001I0J249999D01*
G01*
X122450000Y-88774999D01*
G75*
G02*
X122699999Y-88525000I249999J0D01*
G01*
G37*
%TD*%
%TO.C,C5*%
G36*
G01*
X135349999Y-88475000D02*
X136650001Y-88475000D01*
G75*
G02*
X136900000Y-88724999I0J-249999D01*
G01*
X136900000Y-89375001D01*
G75*
G02*
X136650001Y-89625000I-249999J0D01*
G01*
X135349999Y-89625000D01*
G75*
G02*
X135100000Y-89375001I0J249999D01*
G01*
X135100000Y-88724999D01*
G75*
G02*
X135349999Y-88475000I249999J0D01*
G01*
G37*
G36*
G01*
X135349999Y-85525000D02*
X136650001Y-85525000D01*
G75*
G02*
X136900000Y-85774999I0J-249999D01*
G01*
X136900000Y-86425001D01*
G75*
G02*
X136650001Y-86675000I-249999J0D01*
G01*
X135349999Y-86675000D01*
G75*
G02*
X135100000Y-86425001I0J249999D01*
G01*
X135100000Y-85774999D01*
G75*
G02*
X135349999Y-85525000I249999J0D01*
G01*
G37*
%TD*%
%TO.C,C6*%
G36*
G01*
X126449999Y-104475000D02*
X127750001Y-104475000D01*
G75*
G02*
X128000000Y-104724999I0J-249999D01*
G01*
X128000000Y-105375001D01*
G75*
G02*
X127750001Y-105625000I-249999J0D01*
G01*
X126449999Y-105625000D01*
G75*
G02*
X126200000Y-105375001I0J249999D01*
G01*
X126200000Y-104724999D01*
G75*
G02*
X126449999Y-104475000I249999J0D01*
G01*
G37*
G36*
G01*
X126449999Y-101525000D02*
X127750001Y-101525000D01*
G75*
G02*
X128000000Y-101774999I0J-249999D01*
G01*
X128000000Y-102425001D01*
G75*
G02*
X127750001Y-102675000I-249999J0D01*
G01*
X126449999Y-102675000D01*
G75*
G02*
X126200000Y-102425001I0J249999D01*
G01*
X126200000Y-101774999D01*
G75*
G02*
X126449999Y-101525000I249999J0D01*
G01*
G37*
%TD*%
%TO.C,C7*%
G36*
G01*
X130525000Y-106649999D02*
X130525000Y-107950001D01*
G75*
G02*
X130275001Y-108200000I-249999J0D01*
G01*
X129624999Y-108200000D01*
G75*
G02*
X129375000Y-107950001I0J249999D01*
G01*
X129375000Y-106649999D01*
G75*
G02*
X129624999Y-106400000I249999J0D01*
G01*
X130275001Y-106400000D01*
G75*
G02*
X130525000Y-106649999I0J-249999D01*
G01*
G37*
G36*
G01*
X133475000Y-106649999D02*
X133475000Y-107950001D01*
G75*
G02*
X133225001Y-108200000I-249999J0D01*
G01*
X132574999Y-108200000D01*
G75*
G02*
X132325000Y-107950001I0J249999D01*
G01*
X132325000Y-106649999D01*
G75*
G02*
X132574999Y-106400000I249999J0D01*
G01*
X133225001Y-106400000D01*
G75*
G02*
X133475000Y-106649999I0J-249999D01*
G01*
G37*
%TD*%
%TO.C,C8*%
G36*
G01*
X135349999Y-101525000D02*
X136650001Y-101525000D01*
G75*
G02*
X136900000Y-101774999I0J-249999D01*
G01*
X136900000Y-102425001D01*
G75*
G02*
X136650001Y-102675000I-249999J0D01*
G01*
X135349999Y-102675000D01*
G75*
G02*
X135100000Y-102425001I0J249999D01*
G01*
X135100000Y-101774999D01*
G75*
G02*
X135349999Y-101525000I249999J0D01*
G01*
G37*
G36*
G01*
X135349999Y-104475000D02*
X136650001Y-104475000D01*
G75*
G02*
X136900000Y-104724999I0J-249999D01*
G01*
X136900000Y-105375001D01*
G75*
G02*
X136650001Y-105625000I-249999J0D01*
G01*
X135349999Y-105625000D01*
G75*
G02*
X135100000Y-105375001I0J249999D01*
G01*
X135100000Y-104724999D01*
G75*
G02*
X135349999Y-104475000I249999J0D01*
G01*
G37*
%TD*%
%TO.C,C9*%
G36*
G01*
X139049999Y-104475000D02*
X140350001Y-104475000D01*
G75*
G02*
X140600000Y-104724999I0J-249999D01*
G01*
X140600000Y-105375001D01*
G75*
G02*
X140350001Y-105625000I-249999J0D01*
G01*
X139049999Y-105625000D01*
G75*
G02*
X138800000Y-105375001I0J249999D01*
G01*
X138800000Y-104724999D01*
G75*
G02*
X139049999Y-104475000I249999J0D01*
G01*
G37*
G36*
G01*
X139049999Y-101525000D02*
X140350001Y-101525000D01*
G75*
G02*
X140600000Y-101774999I0J-249999D01*
G01*
X140600000Y-102425001D01*
G75*
G02*
X140350001Y-102675000I-249999J0D01*
G01*
X139049999Y-102675000D01*
G75*
G02*
X138800000Y-102425001I0J249999D01*
G01*
X138800000Y-101774999D01*
G75*
G02*
X139049999Y-101525000I249999J0D01*
G01*
G37*
%TD*%
%TO.C,D2*%
G36*
G01*
X128237500Y-84012500D02*
X128237500Y-83587500D01*
G75*
G02*
X128450000Y-83375000I212500J0D01*
G01*
X129250000Y-83375000D01*
G75*
G02*
X129462500Y-83587500I0J-212500D01*
G01*
X129462500Y-84012500D01*
G75*
G02*
X129250000Y-84225000I-212500J0D01*
G01*
X128450000Y-84225000D01*
G75*
G02*
X128237500Y-84012500I0J212500D01*
G01*
G37*
G36*
G01*
X126612500Y-84012500D02*
X126612500Y-83587500D01*
G75*
G02*
X126825000Y-83375000I212500J0D01*
G01*
X127625000Y-83375000D01*
G75*
G02*
X127837500Y-83587500I0J-212500D01*
G01*
X127837500Y-84012500D01*
G75*
G02*
X127625000Y-84225000I-212500J0D01*
G01*
X126825000Y-84225000D01*
G75*
G02*
X126612500Y-84012500I0J212500D01*
G01*
G37*
%TD*%
D15*
%TO.C,D3*%
X160700000Y-102350000D03*
X160700000Y-105650000D03*
%TD*%
D16*
%TO.C,IC1*%
X133950000Y-88050000D03*
X133300000Y-88050000D03*
X132650000Y-88050000D03*
X132650000Y-86150000D03*
X133300000Y-86150000D03*
X133950000Y-86150000D03*
%TD*%
D17*
%TO.C,J2*%
X163480000Y-114250000D03*
D18*
X165500000Y-114250000D03*
D19*
X166730000Y-114250000D03*
D17*
X164480000Y-114250000D03*
D18*
X162460000Y-114250000D03*
D19*
X161230000Y-114250000D03*
D20*
X159660000Y-118200000D03*
X168300000Y-118200000D03*
X168300000Y-114400000D03*
X159660000Y-114400000D03*
%TD*%
D21*
%TO.C,L1*%
X126500000Y-95850000D03*
X135800000Y-95850000D03*
%TD*%
D22*
%TO.C,Q1*%
X165350000Y-105360000D03*
X165350000Y-103440000D03*
X163250000Y-104400000D03*
%TD*%
%TO.C,R1*%
G36*
G01*
X135350000Y-106475000D02*
X135350000Y-107025000D01*
G75*
G02*
X135150000Y-107225000I-200000J0D01*
G01*
X134750000Y-107225000D01*
G75*
G02*
X134550000Y-107025000I0J200000D01*
G01*
X134550000Y-106475000D01*
G75*
G02*
X134750000Y-106275000I200000J0D01*
G01*
X135150000Y-106275000D01*
G75*
G02*
X135350000Y-106475000I0J-200000D01*
G01*
G37*
G36*
G01*
X137000000Y-106475000D02*
X137000000Y-107025000D01*
G75*
G02*
X136800000Y-107225000I-200000J0D01*
G01*
X136400000Y-107225000D01*
G75*
G02*
X136200000Y-107025000I0J200000D01*
G01*
X136200000Y-106475000D01*
G75*
G02*
X136400000Y-106275000I200000J0D01*
G01*
X136800000Y-106275000D01*
G75*
G02*
X137000000Y-106475000I0J-200000D01*
G01*
G37*
%TD*%
%TO.C,R2*%
G36*
G01*
X105275000Y-110450000D02*
X105825000Y-110450000D01*
G75*
G02*
X106025000Y-110650000I0J-200000D01*
G01*
X106025000Y-111050000D01*
G75*
G02*
X105825000Y-111250000I-200000J0D01*
G01*
X105275000Y-111250000D01*
G75*
G02*
X105075000Y-111050000I0J200000D01*
G01*
X105075000Y-110650000D01*
G75*
G02*
X105275000Y-110450000I200000J0D01*
G01*
G37*
G36*
G01*
X105275000Y-108800000D02*
X105825000Y-108800000D01*
G75*
G02*
X106025000Y-109000000I0J-200000D01*
G01*
X106025000Y-109400000D01*
G75*
G02*
X105825000Y-109600000I-200000J0D01*
G01*
X105275000Y-109600000D01*
G75*
G02*
X105075000Y-109400000I0J200000D01*
G01*
X105075000Y-109000000D01*
G75*
G02*
X105275000Y-108800000I200000J0D01*
G01*
G37*
%TD*%
%TO.C,R3*%
G36*
G01*
X105225000Y-117700000D02*
X105775000Y-117700000D01*
G75*
G02*
X105975000Y-117900000I0J-200000D01*
G01*
X105975000Y-118300000D01*
G75*
G02*
X105775000Y-118500000I-200000J0D01*
G01*
X105225000Y-118500000D01*
G75*
G02*
X105025000Y-118300000I0J200000D01*
G01*
X105025000Y-117900000D01*
G75*
G02*
X105225000Y-117700000I200000J0D01*
G01*
G37*
G36*
G01*
X105225000Y-119350000D02*
X105775000Y-119350000D01*
G75*
G02*
X105975000Y-119550000I0J-200000D01*
G01*
X105975000Y-119950000D01*
G75*
G02*
X105775000Y-120150000I-200000J0D01*
G01*
X105225000Y-120150000D01*
G75*
G02*
X105025000Y-119950000I0J200000D01*
G01*
X105025000Y-119550000D01*
G75*
G02*
X105225000Y-119350000I200000J0D01*
G01*
G37*
%TD*%
%TO.C,R4*%
G36*
G01*
X120075000Y-112300000D02*
X119525000Y-112300000D01*
G75*
G02*
X119325000Y-112100000I0J200000D01*
G01*
X119325000Y-111700000D01*
G75*
G02*
X119525000Y-111500000I200000J0D01*
G01*
X120075000Y-111500000D01*
G75*
G02*
X120275000Y-111700000I0J-200000D01*
G01*
X120275000Y-112100000D01*
G75*
G02*
X120075000Y-112300000I-200000J0D01*
G01*
G37*
G36*
G01*
X120075000Y-110650000D02*
X119525000Y-110650000D01*
G75*
G02*
X119325000Y-110450000I0J200000D01*
G01*
X119325000Y-110050000D01*
G75*
G02*
X119525000Y-109850000I200000J0D01*
G01*
X120075000Y-109850000D01*
G75*
G02*
X120275000Y-110050000I0J-200000D01*
G01*
X120275000Y-110450000D01*
G75*
G02*
X120075000Y-110650000I-200000J0D01*
G01*
G37*
%TD*%
%TO.C,R5*%
G36*
G01*
X155200000Y-107000000D02*
X155200000Y-107550000D01*
G75*
G02*
X155000000Y-107750000I-200000J0D01*
G01*
X154600000Y-107750000D01*
G75*
G02*
X154400000Y-107550000I0J200000D01*
G01*
X154400000Y-107000000D01*
G75*
G02*
X154600000Y-106800000I200000J0D01*
G01*
X155000000Y-106800000D01*
G75*
G02*
X155200000Y-107000000I0J-200000D01*
G01*
G37*
G36*
G01*
X156850000Y-107000000D02*
X156850000Y-107550000D01*
G75*
G02*
X156650000Y-107750000I-200000J0D01*
G01*
X156250000Y-107750000D01*
G75*
G02*
X156050000Y-107550000I0J200000D01*
G01*
X156050000Y-107000000D01*
G75*
G02*
X156250000Y-106800000I200000J0D01*
G01*
X156650000Y-106800000D01*
G75*
G02*
X156850000Y-107000000I0J-200000D01*
G01*
G37*
%TD*%
%TO.C,R6*%
G36*
G01*
X134525000Y-112275000D02*
X133975000Y-112275000D01*
G75*
G02*
X133775000Y-112075000I0J200000D01*
G01*
X133775000Y-111675000D01*
G75*
G02*
X133975000Y-111475000I200000J0D01*
G01*
X134525000Y-111475000D01*
G75*
G02*
X134725000Y-111675000I0J-200000D01*
G01*
X134725000Y-112075000D01*
G75*
G02*
X134525000Y-112275000I-200000J0D01*
G01*
G37*
G36*
G01*
X134525000Y-110625000D02*
X133975000Y-110625000D01*
G75*
G02*
X133775000Y-110425000I0J200000D01*
G01*
X133775000Y-110025000D01*
G75*
G02*
X133975000Y-109825000I200000J0D01*
G01*
X134525000Y-109825000D01*
G75*
G02*
X134725000Y-110025000I0J-200000D01*
G01*
X134725000Y-110425000D01*
G75*
G02*
X134525000Y-110625000I-200000J0D01*
G01*
G37*
%TD*%
%TO.C,R7*%
G36*
G01*
X128250000Y-85675000D02*
X128250000Y-85125000D01*
G75*
G02*
X128450000Y-84925000I200000J0D01*
G01*
X128850000Y-84925000D01*
G75*
G02*
X129050000Y-85125000I0J-200000D01*
G01*
X129050000Y-85675000D01*
G75*
G02*
X128850000Y-85875000I-200000J0D01*
G01*
X128450000Y-85875000D01*
G75*
G02*
X128250000Y-85675000I0J200000D01*
G01*
G37*
G36*
G01*
X126600000Y-85675000D02*
X126600000Y-85125000D01*
G75*
G02*
X126800000Y-84925000I200000J0D01*
G01*
X127200000Y-84925000D01*
G75*
G02*
X127400000Y-85125000I0J-200000D01*
G01*
X127400000Y-85675000D01*
G75*
G02*
X127200000Y-85875000I-200000J0D01*
G01*
X126800000Y-85875000D01*
G75*
G02*
X126600000Y-85675000I0J200000D01*
G01*
G37*
%TD*%
%TO.C,R8*%
G36*
G01*
X125725000Y-85850000D02*
X125175000Y-85850000D01*
G75*
G02*
X124975000Y-85650000I0J200000D01*
G01*
X124975000Y-85250000D01*
G75*
G02*
X125175000Y-85050000I200000J0D01*
G01*
X125725000Y-85050000D01*
G75*
G02*
X125925000Y-85250000I0J-200000D01*
G01*
X125925000Y-85650000D01*
G75*
G02*
X125725000Y-85850000I-200000J0D01*
G01*
G37*
G36*
G01*
X125725000Y-84200000D02*
X125175000Y-84200000D01*
G75*
G02*
X124975000Y-84000000I0J200000D01*
G01*
X124975000Y-83600000D01*
G75*
G02*
X125175000Y-83400000I200000J0D01*
G01*
X125725000Y-83400000D01*
G75*
G02*
X125925000Y-83600000I0J-200000D01*
G01*
X125925000Y-84000000D01*
G75*
G02*
X125725000Y-84200000I-200000J0D01*
G01*
G37*
%TD*%
%TO.C,R9*%
G36*
G01*
X120100000Y-88925000D02*
X120100000Y-89475000D01*
G75*
G02*
X119900000Y-89675000I-200000J0D01*
G01*
X119500000Y-89675000D01*
G75*
G02*
X119300000Y-89475000I0J200000D01*
G01*
X119300000Y-88925000D01*
G75*
G02*
X119500000Y-88725000I200000J0D01*
G01*
X119900000Y-88725000D01*
G75*
G02*
X120100000Y-88925000I0J-200000D01*
G01*
G37*
G36*
G01*
X121750000Y-88925000D02*
X121750000Y-89475000D01*
G75*
G02*
X121550000Y-89675000I-200000J0D01*
G01*
X121150000Y-89675000D01*
G75*
G02*
X120950000Y-89475000I0J200000D01*
G01*
X120950000Y-88925000D01*
G75*
G02*
X121150000Y-88725000I200000J0D01*
G01*
X121550000Y-88725000D01*
G75*
G02*
X121750000Y-88925000I0J-200000D01*
G01*
G37*
%TD*%
%TO.C,R10*%
G36*
G01*
X119300000Y-86325000D02*
X119300000Y-85775000D01*
G75*
G02*
X119500000Y-85575000I200000J0D01*
G01*
X119900000Y-85575000D01*
G75*
G02*
X120100000Y-85775000I0J-200000D01*
G01*
X120100000Y-86325000D01*
G75*
G02*
X119900000Y-86525000I-200000J0D01*
G01*
X119500000Y-86525000D01*
G75*
G02*
X119300000Y-86325000I0J200000D01*
G01*
G37*
G36*
G01*
X120950000Y-86325000D02*
X120950000Y-85775000D01*
G75*
G02*
X121150000Y-85575000I200000J0D01*
G01*
X121550000Y-85575000D01*
G75*
G02*
X121750000Y-85775000I0J-200000D01*
G01*
X121750000Y-86325000D01*
G75*
G02*
X121550000Y-86525000I-200000J0D01*
G01*
X121150000Y-86525000D01*
G75*
G02*
X120950000Y-86325000I0J200000D01*
G01*
G37*
%TD*%
%TO.C,R11*%
G36*
G01*
X168725000Y-110450000D02*
X168725000Y-111000000D01*
G75*
G02*
X168525000Y-111200000I-200000J0D01*
G01*
X168125000Y-111200000D01*
G75*
G02*
X167925000Y-111000000I0J200000D01*
G01*
X167925000Y-110450000D01*
G75*
G02*
X168125000Y-110250000I200000J0D01*
G01*
X168525000Y-110250000D01*
G75*
G02*
X168725000Y-110450000I0J-200000D01*
G01*
G37*
G36*
G01*
X167075000Y-110450000D02*
X167075000Y-111000000D01*
G75*
G02*
X166875000Y-111200000I-200000J0D01*
G01*
X166475000Y-111200000D01*
G75*
G02*
X166275000Y-111000000I0J200000D01*
G01*
X166275000Y-110450000D01*
G75*
G02*
X166475000Y-110250000I200000J0D01*
G01*
X166875000Y-110250000D01*
G75*
G02*
X167075000Y-110450000I0J-200000D01*
G01*
G37*
%TD*%
%TO.C,R12*%
G36*
G01*
X160850000Y-111000000D02*
X160850000Y-110450000D01*
G75*
G02*
X161050000Y-110250000I200000J0D01*
G01*
X161450000Y-110250000D01*
G75*
G02*
X161650000Y-110450000I0J-200000D01*
G01*
X161650000Y-111000000D01*
G75*
G02*
X161450000Y-111200000I-200000J0D01*
G01*
X161050000Y-111200000D01*
G75*
G02*
X160850000Y-111000000I0J200000D01*
G01*
G37*
G36*
G01*
X159200000Y-111000000D02*
X159200000Y-110450000D01*
G75*
G02*
X159400000Y-110250000I200000J0D01*
G01*
X159800000Y-110250000D01*
G75*
G02*
X160000000Y-110450000I0J-200000D01*
G01*
X160000000Y-111000000D01*
G75*
G02*
X159800000Y-111200000I-200000J0D01*
G01*
X159400000Y-111200000D01*
G75*
G02*
X159200000Y-111000000I0J200000D01*
G01*
G37*
%TD*%
%TO.C,R13*%
G36*
G01*
X167375000Y-105800000D02*
X166825000Y-105800000D01*
G75*
G02*
X166625000Y-105600000I0J200000D01*
G01*
X166625000Y-105200000D01*
G75*
G02*
X166825000Y-105000000I200000J0D01*
G01*
X167375000Y-105000000D01*
G75*
G02*
X167575000Y-105200000I0J-200000D01*
G01*
X167575000Y-105600000D01*
G75*
G02*
X167375000Y-105800000I-200000J0D01*
G01*
G37*
G36*
G01*
X167375000Y-104150000D02*
X166825000Y-104150000D01*
G75*
G02*
X166625000Y-103950000I0J200000D01*
G01*
X166625000Y-103550000D01*
G75*
G02*
X166825000Y-103350000I200000J0D01*
G01*
X167375000Y-103350000D01*
G75*
G02*
X167575000Y-103550000I0J-200000D01*
G01*
X167575000Y-103950000D01*
G75*
G02*
X167375000Y-104150000I-200000J0D01*
G01*
G37*
%TD*%
%TO.C,R14*%
G36*
G01*
X119525000Y-115025000D02*
X120075000Y-115025000D01*
G75*
G02*
X120275000Y-115225000I0J-200000D01*
G01*
X120275000Y-115625000D01*
G75*
G02*
X120075000Y-115825000I-200000J0D01*
G01*
X119525000Y-115825000D01*
G75*
G02*
X119325000Y-115625000I0J200000D01*
G01*
X119325000Y-115225000D01*
G75*
G02*
X119525000Y-115025000I200000J0D01*
G01*
G37*
G36*
G01*
X119525000Y-113375000D02*
X120075000Y-113375000D01*
G75*
G02*
X120275000Y-113575000I0J-200000D01*
G01*
X120275000Y-113975000D01*
G75*
G02*
X120075000Y-114175000I-200000J0D01*
G01*
X119525000Y-114175000D01*
G75*
G02*
X119325000Y-113975000I0J200000D01*
G01*
X119325000Y-113575000D01*
G75*
G02*
X119525000Y-113375000I200000J0D01*
G01*
G37*
%TD*%
D23*
%TO.C,SW1*%
X109300000Y-110600000D03*
X109300000Y-115100000D03*
X117250000Y-115100000D03*
X117250000Y-110600000D03*
%TD*%
%TO.C,SW2*%
X123025000Y-115075000D03*
X123025000Y-110575000D03*
X130975000Y-110575000D03*
X130975000Y-115075000D03*
%TD*%
%TO.C,SW3*%
X136375000Y-110525000D03*
X136375000Y-115025000D03*
X144325000Y-115025000D03*
X144325000Y-110525000D03*
%TD*%
%TO.C,SW4*%
X156075000Y-110475000D03*
X156075000Y-114975000D03*
X148125000Y-114975000D03*
X148125000Y-110475000D03*
%TD*%
D24*
%TO.C,U1*%
X112450000Y-87645000D03*
X112450000Y-88915000D03*
X112450000Y-90185000D03*
X112450000Y-91455000D03*
X112450000Y-92725000D03*
X112450000Y-93995000D03*
X112450000Y-95265000D03*
X112450000Y-96535000D03*
X112450000Y-97805000D03*
X112450000Y-99075000D03*
X112450000Y-100345000D03*
X112450000Y-101615000D03*
X112450000Y-102885000D03*
X112450000Y-104155000D03*
D25*
X109665000Y-105155000D03*
X108395000Y-105155000D03*
X107125000Y-105155000D03*
X105855000Y-105155000D03*
X104585000Y-105155000D03*
X103315000Y-105155000D03*
X102045000Y-105155000D03*
X100775000Y-105155000D03*
X99505000Y-105155000D03*
X98235000Y-105155000D03*
D24*
X95450000Y-104155000D03*
X95450000Y-102885000D03*
X95450000Y-101615000D03*
X95450000Y-100345000D03*
X95450000Y-99075000D03*
X95450000Y-97805000D03*
X95450000Y-96535000D03*
X95450000Y-95265000D03*
X95450000Y-93995000D03*
X95450000Y-92725000D03*
X95450000Y-91455000D03*
X95450000Y-90185000D03*
X95450000Y-88915000D03*
X95450000Y-87645000D03*
D26*
X102950000Y-95145000D03*
%TD*%
%TO.C,U2*%
G36*
G01*
X103395000Y-108825000D02*
X103695000Y-108825000D01*
G75*
G02*
X103845000Y-108975000I0J-150000D01*
G01*
X103845000Y-110725000D01*
G75*
G02*
X103695000Y-110875000I-150000J0D01*
G01*
X103395000Y-110875000D01*
G75*
G02*
X103245000Y-110725000I0J150000D01*
G01*
X103245000Y-108975000D01*
G75*
G02*
X103395000Y-108825000I150000J0D01*
G01*
G37*
G36*
G01*
X102125000Y-108825000D02*
X102425000Y-108825000D01*
G75*
G02*
X102575000Y-108975000I0J-150000D01*
G01*
X102575000Y-110725000D01*
G75*
G02*
X102425000Y-110875000I-150000J0D01*
G01*
X102125000Y-110875000D01*
G75*
G02*
X101975000Y-110725000I0J150000D01*
G01*
X101975000Y-108975000D01*
G75*
G02*
X102125000Y-108825000I150000J0D01*
G01*
G37*
G36*
G01*
X100855000Y-108825000D02*
X101155000Y-108825000D01*
G75*
G02*
X101305000Y-108975000I0J-150000D01*
G01*
X101305000Y-110725000D01*
G75*
G02*
X101155000Y-110875000I-150000J0D01*
G01*
X100855000Y-110875000D01*
G75*
G02*
X100705000Y-110725000I0J150000D01*
G01*
X100705000Y-108975000D01*
G75*
G02*
X100855000Y-108825000I150000J0D01*
G01*
G37*
G36*
G01*
X99585000Y-108825000D02*
X99885000Y-108825000D01*
G75*
G02*
X100035000Y-108975000I0J-150000D01*
G01*
X100035000Y-110725000D01*
G75*
G02*
X99885000Y-110875000I-150000J0D01*
G01*
X99585000Y-110875000D01*
G75*
G02*
X99435000Y-110725000I0J150000D01*
G01*
X99435000Y-108975000D01*
G75*
G02*
X99585000Y-108825000I150000J0D01*
G01*
G37*
G36*
G01*
X98315000Y-108825000D02*
X98615000Y-108825000D01*
G75*
G02*
X98765000Y-108975000I0J-150000D01*
G01*
X98765000Y-110725000D01*
G75*
G02*
X98615000Y-110875000I-150000J0D01*
G01*
X98315000Y-110875000D01*
G75*
G02*
X98165000Y-110725000I0J150000D01*
G01*
X98165000Y-108975000D01*
G75*
G02*
X98315000Y-108825000I150000J0D01*
G01*
G37*
G36*
G01*
X97045000Y-108825000D02*
X97345000Y-108825000D01*
G75*
G02*
X97495000Y-108975000I0J-150000D01*
G01*
X97495000Y-110725000D01*
G75*
G02*
X97345000Y-110875000I-150000J0D01*
G01*
X97045000Y-110875000D01*
G75*
G02*
X96895000Y-110725000I0J150000D01*
G01*
X96895000Y-108975000D01*
G75*
G02*
X97045000Y-108825000I150000J0D01*
G01*
G37*
G36*
G01*
X95775000Y-108825000D02*
X96075000Y-108825000D01*
G75*
G02*
X96225000Y-108975000I0J-150000D01*
G01*
X96225000Y-110725000D01*
G75*
G02*
X96075000Y-110875000I-150000J0D01*
G01*
X95775000Y-110875000D01*
G75*
G02*
X95625000Y-110725000I0J150000D01*
G01*
X95625000Y-108975000D01*
G75*
G02*
X95775000Y-108825000I150000J0D01*
G01*
G37*
G36*
G01*
X94505000Y-108825000D02*
X94805000Y-108825000D01*
G75*
G02*
X94955000Y-108975000I0J-150000D01*
G01*
X94955000Y-110725000D01*
G75*
G02*
X94805000Y-110875000I-150000J0D01*
G01*
X94505000Y-110875000D01*
G75*
G02*
X94355000Y-110725000I0J150000D01*
G01*
X94355000Y-108975000D01*
G75*
G02*
X94505000Y-108825000I150000J0D01*
G01*
G37*
G36*
G01*
X94505000Y-118125000D02*
X94805000Y-118125000D01*
G75*
G02*
X94955000Y-118275000I0J-150000D01*
G01*
X94955000Y-120025000D01*
G75*
G02*
X94805000Y-120175000I-150000J0D01*
G01*
X94505000Y-120175000D01*
G75*
G02*
X94355000Y-120025000I0J150000D01*
G01*
X94355000Y-118275000D01*
G75*
G02*
X94505000Y-118125000I150000J0D01*
G01*
G37*
G36*
G01*
X95775000Y-118125000D02*
X96075000Y-118125000D01*
G75*
G02*
X96225000Y-118275000I0J-150000D01*
G01*
X96225000Y-120025000D01*
G75*
G02*
X96075000Y-120175000I-150000J0D01*
G01*
X95775000Y-120175000D01*
G75*
G02*
X95625000Y-120025000I0J150000D01*
G01*
X95625000Y-118275000D01*
G75*
G02*
X95775000Y-118125000I150000J0D01*
G01*
G37*
G36*
G01*
X97045000Y-118125000D02*
X97345000Y-118125000D01*
G75*
G02*
X97495000Y-118275000I0J-150000D01*
G01*
X97495000Y-120025000D01*
G75*
G02*
X97345000Y-120175000I-150000J0D01*
G01*
X97045000Y-120175000D01*
G75*
G02*
X96895000Y-120025000I0J150000D01*
G01*
X96895000Y-118275000D01*
G75*
G02*
X97045000Y-118125000I150000J0D01*
G01*
G37*
G36*
G01*
X98315000Y-118125000D02*
X98615000Y-118125000D01*
G75*
G02*
X98765000Y-118275000I0J-150000D01*
G01*
X98765000Y-120025000D01*
G75*
G02*
X98615000Y-120175000I-150000J0D01*
G01*
X98315000Y-120175000D01*
G75*
G02*
X98165000Y-120025000I0J150000D01*
G01*
X98165000Y-118275000D01*
G75*
G02*
X98315000Y-118125000I150000J0D01*
G01*
G37*
G36*
G01*
X99585000Y-118125000D02*
X99885000Y-118125000D01*
G75*
G02*
X100035000Y-118275000I0J-150000D01*
G01*
X100035000Y-120025000D01*
G75*
G02*
X99885000Y-120175000I-150000J0D01*
G01*
X99585000Y-120175000D01*
G75*
G02*
X99435000Y-120025000I0J150000D01*
G01*
X99435000Y-118275000D01*
G75*
G02*
X99585000Y-118125000I150000J0D01*
G01*
G37*
G36*
G01*
X100855000Y-118125000D02*
X101155000Y-118125000D01*
G75*
G02*
X101305000Y-118275000I0J-150000D01*
G01*
X101305000Y-120025000D01*
G75*
G02*
X101155000Y-120175000I-150000J0D01*
G01*
X100855000Y-120175000D01*
G75*
G02*
X100705000Y-120025000I0J150000D01*
G01*
X100705000Y-118275000D01*
G75*
G02*
X100855000Y-118125000I150000J0D01*
G01*
G37*
G36*
G01*
X102125000Y-118125000D02*
X102425000Y-118125000D01*
G75*
G02*
X102575000Y-118275000I0J-150000D01*
G01*
X102575000Y-120025000D01*
G75*
G02*
X102425000Y-120175000I-150000J0D01*
G01*
X102125000Y-120175000D01*
G75*
G02*
X101975000Y-120025000I0J150000D01*
G01*
X101975000Y-118275000D01*
G75*
G02*
X102125000Y-118125000I150000J0D01*
G01*
G37*
G36*
G01*
X103395000Y-118125000D02*
X103695000Y-118125000D01*
G75*
G02*
X103845000Y-118275000I0J-150000D01*
G01*
X103845000Y-120025000D01*
G75*
G02*
X103695000Y-120175000I-150000J0D01*
G01*
X103395000Y-120175000D01*
G75*
G02*
X103245000Y-120025000I0J150000D01*
G01*
X103245000Y-118275000D01*
G75*
G02*
X103395000Y-118125000I150000J0D01*
G01*
G37*
%TD*%
D27*
%TO.C,U3*%
X125450000Y-87100000D03*
X125450000Y-88050000D03*
X125450000Y-89000000D03*
X127650000Y-89000000D03*
X127650000Y-87100000D03*
%TD*%
D28*
%TO.C,J1*%
X116636800Y-91033600D03*
D29*
X116636800Y-93573600D03*
%TD*%
D30*
%TO.C,SW5*%
X168198800Y-93548200D03*
X168198800Y-91008200D03*
X168198800Y-88468200D03*
%TD*%
M02*
