G04 #@! TF.GenerationSoftware,KiCad,Pcbnew,5.1.9-73d0e3b20d~88~ubuntu20.04.1*
G04 #@! TF.CreationDate,2021-03-15T12:11:42+05:30*
G04 #@! TF.ProjectId,open_authenticator,6f70656e-5f61-4757-9468-656e74696361,v01*
G04 #@! TF.SameCoordinates,Original*
G04 #@! TF.FileFunction,Soldermask,Bot*
G04 #@! TF.FilePolarity,Negative*
%FSLAX46Y46*%
G04 Gerber Fmt 4.6, Leading zero omitted, Abs format (unit mm)*
G04 Created by KiCad (PCBNEW 5.1.9-73d0e3b20d~88~ubuntu20.04.1) date 2021-03-15 12:11:42*
%MOMM*%
%LPD*%
G01*
G04 APERTURE LIST*
%ADD10R,3.400000X1.500000*%
%ADD11R,3.500000X1.000000*%
%ADD12C,3.500000*%
%ADD13C,2.000000*%
%ADD14R,0.400000X2.000000*%
%ADD15R,2.350000X1.550000*%
%ADD16R,3.000000X4.200000*%
%ADD17R,1.700000X1.700000*%
%ADD18O,1.700000X1.700000*%
%ADD19C,1.524000*%
G04 APERTURE END LIST*
D10*
X127250900Y-86688680D03*
X127250900Y-93388680D03*
D11*
X121500900Y-89038680D03*
X121500900Y-91038680D03*
D12*
X132422900Y-119659400D03*
X147802600Y-119659400D03*
X169395140Y-82555080D03*
G36*
G01*
X162484880Y-90582200D02*
X161984880Y-90582200D01*
G75*
G02*
X161759880Y-90357200I0J225000D01*
G01*
X161759880Y-89907200D01*
G75*
G02*
X161984880Y-89682200I225000J0D01*
G01*
X162484880Y-89682200D01*
G75*
G02*
X162709880Y-89907200I0J-225000D01*
G01*
X162709880Y-90357200D01*
G75*
G02*
X162484880Y-90582200I-225000J0D01*
G01*
G37*
G36*
G01*
X162484880Y-89032200D02*
X161984880Y-89032200D01*
G75*
G02*
X161759880Y-88807200I0J225000D01*
G01*
X161759880Y-88357200D01*
G75*
G02*
X161984880Y-88132200I225000J0D01*
G01*
X162484880Y-88132200D01*
G75*
G02*
X162709880Y-88357200I0J-225000D01*
G01*
X162709880Y-88807200D01*
G75*
G02*
X162484880Y-89032200I-225000J0D01*
G01*
G37*
G36*
G01*
X164588000Y-90577420D02*
X164088000Y-90577420D01*
G75*
G02*
X163863000Y-90352420I0J225000D01*
G01*
X163863000Y-89902420D01*
G75*
G02*
X164088000Y-89677420I225000J0D01*
G01*
X164588000Y-89677420D01*
G75*
G02*
X164813000Y-89902420I0J-225000D01*
G01*
X164813000Y-90352420D01*
G75*
G02*
X164588000Y-90577420I-225000J0D01*
G01*
G37*
G36*
G01*
X164588000Y-89027420D02*
X164088000Y-89027420D01*
G75*
G02*
X163863000Y-88802420I0J225000D01*
G01*
X163863000Y-88352420D01*
G75*
G02*
X164088000Y-88127420I225000J0D01*
G01*
X164588000Y-88127420D01*
G75*
G02*
X164813000Y-88352420I0J-225000D01*
G01*
X164813000Y-88802420D01*
G75*
G02*
X164588000Y-89027420I-225000J0D01*
G01*
G37*
G36*
G01*
X145512600Y-90556800D02*
X145012600Y-90556800D01*
G75*
G02*
X144787600Y-90331800I0J225000D01*
G01*
X144787600Y-89881800D01*
G75*
G02*
X145012600Y-89656800I225000J0D01*
G01*
X145512600Y-89656800D01*
G75*
G02*
X145737600Y-89881800I0J-225000D01*
G01*
X145737600Y-90331800D01*
G75*
G02*
X145512600Y-90556800I-225000J0D01*
G01*
G37*
G36*
G01*
X145512600Y-89006800D02*
X145012600Y-89006800D01*
G75*
G02*
X144787600Y-88781800I0J225000D01*
G01*
X144787600Y-88331800D01*
G75*
G02*
X145012600Y-88106800I225000J0D01*
G01*
X145512600Y-88106800D01*
G75*
G02*
X145737600Y-88331800I0J-225000D01*
G01*
X145737600Y-88781800D01*
G75*
G02*
X145512600Y-89006800I-225000J0D01*
G01*
G37*
G36*
G01*
X147948460Y-90552020D02*
X147448460Y-90552020D01*
G75*
G02*
X147223460Y-90327020I0J225000D01*
G01*
X147223460Y-89877020D01*
G75*
G02*
X147448460Y-89652020I225000J0D01*
G01*
X147948460Y-89652020D01*
G75*
G02*
X148173460Y-89877020I0J-225000D01*
G01*
X148173460Y-90327020D01*
G75*
G02*
X147948460Y-90552020I-225000J0D01*
G01*
G37*
G36*
G01*
X147948460Y-89002020D02*
X147448460Y-89002020D01*
G75*
G02*
X147223460Y-88777020I0J225000D01*
G01*
X147223460Y-88327020D01*
G75*
G02*
X147448460Y-88102020I225000J0D01*
G01*
X147948460Y-88102020D01*
G75*
G02*
X148173460Y-88327020I0J-225000D01*
G01*
X148173460Y-88777020D01*
G75*
G02*
X147948460Y-89002020I-225000J0D01*
G01*
G37*
G36*
G01*
X150323360Y-98801640D02*
X149823360Y-98801640D01*
G75*
G02*
X149598360Y-98576640I0J225000D01*
G01*
X149598360Y-98126640D01*
G75*
G02*
X149823360Y-97901640I225000J0D01*
G01*
X150323360Y-97901640D01*
G75*
G02*
X150548360Y-98126640I0J-225000D01*
G01*
X150548360Y-98576640D01*
G75*
G02*
X150323360Y-98801640I-225000J0D01*
G01*
G37*
G36*
G01*
X150323360Y-97251640D02*
X149823360Y-97251640D01*
G75*
G02*
X149598360Y-97026640I0J225000D01*
G01*
X149598360Y-96576640D01*
G75*
G02*
X149823360Y-96351640I225000J0D01*
G01*
X150323360Y-96351640D01*
G75*
G02*
X150548360Y-96576640I0J-225000D01*
G01*
X150548360Y-97026640D01*
G75*
G02*
X150323360Y-97251640I-225000J0D01*
G01*
G37*
G36*
G01*
X152749060Y-98786400D02*
X152249060Y-98786400D01*
G75*
G02*
X152024060Y-98561400I0J225000D01*
G01*
X152024060Y-98111400D01*
G75*
G02*
X152249060Y-97886400I225000J0D01*
G01*
X152749060Y-97886400D01*
G75*
G02*
X152974060Y-98111400I0J-225000D01*
G01*
X152974060Y-98561400D01*
G75*
G02*
X152749060Y-98786400I-225000J0D01*
G01*
G37*
G36*
G01*
X152749060Y-97236400D02*
X152249060Y-97236400D01*
G75*
G02*
X152024060Y-97011400I0J225000D01*
G01*
X152024060Y-96561400D01*
G75*
G02*
X152249060Y-96336400I225000J0D01*
G01*
X152749060Y-96336400D01*
G75*
G02*
X152974060Y-96561400I0J-225000D01*
G01*
X152974060Y-97011400D01*
G75*
G02*
X152749060Y-97236400I-225000J0D01*
G01*
G37*
G36*
G01*
X150313200Y-94620300D02*
X149813200Y-94620300D01*
G75*
G02*
X149588200Y-94395300I0J225000D01*
G01*
X149588200Y-93945300D01*
G75*
G02*
X149813200Y-93720300I225000J0D01*
G01*
X150313200Y-93720300D01*
G75*
G02*
X150538200Y-93945300I0J-225000D01*
G01*
X150538200Y-94395300D01*
G75*
G02*
X150313200Y-94620300I-225000J0D01*
G01*
G37*
G36*
G01*
X150313200Y-93070300D02*
X149813200Y-93070300D01*
G75*
G02*
X149588200Y-92845300I0J225000D01*
G01*
X149588200Y-92395300D01*
G75*
G02*
X149813200Y-92170300I225000J0D01*
G01*
X150313200Y-92170300D01*
G75*
G02*
X150538200Y-92395300I0J-225000D01*
G01*
X150538200Y-92845300D01*
G75*
G02*
X150313200Y-93070300I-225000J0D01*
G01*
G37*
D13*
X159660000Y-119261720D03*
X168300000Y-119261720D03*
X168300000Y-115461720D03*
X159660000Y-115461720D03*
G36*
G01*
X150333120Y-90546640D02*
X149783120Y-90546640D01*
G75*
G02*
X149583120Y-90346640I0J200000D01*
G01*
X149583120Y-89946640D01*
G75*
G02*
X149783120Y-89746640I200000J0D01*
G01*
X150333120Y-89746640D01*
G75*
G02*
X150533120Y-89946640I0J-200000D01*
G01*
X150533120Y-90346640D01*
G75*
G02*
X150333120Y-90546640I-200000J0D01*
G01*
G37*
G36*
G01*
X150333120Y-88896640D02*
X149783120Y-88896640D01*
G75*
G02*
X149583120Y-88696640I0J200000D01*
G01*
X149583120Y-88296640D01*
G75*
G02*
X149783120Y-88096640I200000J0D01*
G01*
X150333120Y-88096640D01*
G75*
G02*
X150533120Y-88296640I0J-200000D01*
G01*
X150533120Y-88696640D01*
G75*
G02*
X150333120Y-88896640I-200000J0D01*
G01*
G37*
G36*
G01*
X152771520Y-94572540D02*
X152221520Y-94572540D01*
G75*
G02*
X152021520Y-94372540I0J200000D01*
G01*
X152021520Y-93972540D01*
G75*
G02*
X152221520Y-93772540I200000J0D01*
G01*
X152771520Y-93772540D01*
G75*
G02*
X152971520Y-93972540I0J-200000D01*
G01*
X152971520Y-94372540D01*
G75*
G02*
X152771520Y-94572540I-200000J0D01*
G01*
G37*
G36*
G01*
X152771520Y-92922540D02*
X152221520Y-92922540D01*
G75*
G02*
X152021520Y-92722540I0J200000D01*
G01*
X152021520Y-92322540D01*
G75*
G02*
X152221520Y-92122540I200000J0D01*
G01*
X152771520Y-92122540D01*
G75*
G02*
X152971520Y-92322540I0J-200000D01*
G01*
X152971520Y-92722540D01*
G75*
G02*
X152771520Y-92922540I-200000J0D01*
G01*
G37*
D14*
X154406080Y-85046820D03*
X153706080Y-85046820D03*
X164206080Y-85046820D03*
X163506080Y-85046820D03*
X162806080Y-85046820D03*
X162106080Y-85046820D03*
X161406080Y-85046820D03*
X160706080Y-85046820D03*
X160006080Y-85046820D03*
X159306080Y-85046820D03*
X158606080Y-85046820D03*
X157906080Y-85046820D03*
X157206080Y-85046820D03*
X156506080Y-85046820D03*
X155756080Y-85046820D03*
X155106080Y-85046820D03*
X153006080Y-85046820D03*
X152306080Y-85046820D03*
X151606080Y-85046820D03*
X150906080Y-85046820D03*
X150206080Y-85046820D03*
X149506080Y-85046820D03*
X148806080Y-85046820D03*
X148106080Y-85046820D03*
X147406080Y-85046820D03*
X146706080Y-85046820D03*
X146006080Y-85046820D03*
X145306080Y-85046820D03*
X144606080Y-85046820D03*
X143906080Y-85046820D03*
D15*
X159909400Y-93609160D03*
X155609400Y-93609160D03*
D16*
X94000000Y-112000000D03*
X123000000Y-112000000D03*
G36*
G01*
X165578220Y-108828460D02*
X164078220Y-108828460D01*
G75*
G02*
X163828220Y-108578460I0J250000D01*
G01*
X163828220Y-108078460D01*
G75*
G02*
X164078220Y-107828460I250000J0D01*
G01*
X165578220Y-107828460D01*
G75*
G02*
X165828220Y-108078460I0J-250000D01*
G01*
X165828220Y-108578460D01*
G75*
G02*
X165578220Y-108828460I-250000J0D01*
G01*
G37*
G36*
G01*
X143779620Y-95085600D02*
X143779620Y-93585600D01*
G75*
G02*
X144029620Y-93335600I250000J0D01*
G01*
X144529620Y-93335600D01*
G75*
G02*
X144779620Y-93585600I0J-250000D01*
G01*
X144779620Y-95085600D01*
G75*
G02*
X144529620Y-95335600I-250000J0D01*
G01*
X144029620Y-95335600D01*
G75*
G02*
X143779620Y-95085600I0J250000D01*
G01*
G37*
G36*
G01*
X139877100Y-80498060D02*
X141377100Y-80498060D01*
G75*
G02*
X141627100Y-80748060I0J-250000D01*
G01*
X141627100Y-81248060D01*
G75*
G02*
X141377100Y-81498060I-250000J0D01*
G01*
X139877100Y-81498060D01*
G75*
G02*
X139627100Y-81248060I0J250000D01*
G01*
X139627100Y-80748060D01*
G75*
G02*
X139877100Y-80498060I250000J0D01*
G01*
G37*
G36*
G01*
X139811060Y-82395440D02*
X141311060Y-82395440D01*
G75*
G02*
X141561060Y-82645440I0J-250000D01*
G01*
X141561060Y-83145440D01*
G75*
G02*
X141311060Y-83395440I-250000J0D01*
G01*
X139811060Y-83395440D01*
G75*
G02*
X139561060Y-83145440I0J250000D01*
G01*
X139561060Y-82645440D01*
G75*
G02*
X139811060Y-82395440I250000J0D01*
G01*
G37*
G36*
G01*
X129484820Y-119054500D02*
X127984820Y-119054500D01*
G75*
G02*
X127734820Y-118804500I0J250000D01*
G01*
X127734820Y-118304500D01*
G75*
G02*
X127984820Y-118054500I250000J0D01*
G01*
X129484820Y-118054500D01*
G75*
G02*
X129734820Y-118304500I0J-250000D01*
G01*
X129734820Y-118804500D01*
G75*
G02*
X129484820Y-119054500I-250000J0D01*
G01*
G37*
G36*
G01*
X129484820Y-120705500D02*
X127984820Y-120705500D01*
G75*
G02*
X127734820Y-120455500I0J250000D01*
G01*
X127734820Y-119955500D01*
G75*
G02*
X127984820Y-119705500I250000J0D01*
G01*
X129484820Y-119705500D01*
G75*
G02*
X129734820Y-119955500I0J-250000D01*
G01*
X129734820Y-120455500D01*
G75*
G02*
X129484820Y-120705500I-250000J0D01*
G01*
G37*
G36*
G01*
X158943420Y-89032780D02*
X158943420Y-87532780D01*
G75*
G02*
X159193420Y-87282780I250000J0D01*
G01*
X159693420Y-87282780D01*
G75*
G02*
X159943420Y-87532780I0J-250000D01*
G01*
X159943420Y-89032780D01*
G75*
G02*
X159693420Y-89282780I-250000J0D01*
G01*
X159193420Y-89282780D01*
G75*
G02*
X158943420Y-89032780I0J250000D01*
G01*
G37*
G36*
G01*
X141059280Y-95085600D02*
X141059280Y-93585600D01*
G75*
G02*
X141309280Y-93335600I250000J0D01*
G01*
X141809280Y-93335600D01*
G75*
G02*
X142059280Y-93585600I0J-250000D01*
G01*
X142059280Y-95085600D01*
G75*
G02*
X141809280Y-95335600I-250000J0D01*
G01*
X141309280Y-95335600D01*
G75*
G02*
X141059280Y-95085600I0J250000D01*
G01*
G37*
D17*
X116636800Y-91033600D03*
D18*
X116636800Y-93573600D03*
D19*
X168216580Y-103827580D03*
X168216580Y-106367580D03*
X168216580Y-108907580D03*
M02*
