%FSLAX45Y45*%
G04 Gerber Fmt 4.5, Leading zero omitted, Abs format (unit mm)*
G04 Created by KiCad (PCBNEW 5.1.10-88a1d61d58~90~ubuntu20.04.1) date 2021-08-07 17:50:32*
%MOMM*%
%LPD*%
G01*
G04 APERTURE LIST*
%TA.AperFunction,Profile*%
%ADD10C,0.050000*%
%TD*%
%ADD11C,0.200000*%
%ADD12C,0.300000*%
G04 APERTURE END LIST*
D10*
X17200000Y-12100000D02*
G75*
G02*
X17100000Y-12200000I-100000J0D01*
G01*
X9100000Y-12200000D02*
G75*
G02*
X9000000Y-12100000I0J100000D01*
G01*
X9000000Y-8100000D02*
X9000000Y-12100000D01*
X17200000Y-8100000D02*
X17200000Y-12100000D01*
X9000000Y-8100000D02*
G75*
G02*
X9100000Y-8000000I100000J0D01*
G01*
X9100000Y-8000000D02*
X17100000Y-8000000D01*
X17100000Y-8000000D02*
G75*
G02*
X17200000Y-8100000I0J-100000D01*
G01*
X17100000Y-12200000D02*
X9100000Y-12200000D01*
D11*
D12*
X9283928Y-12668214D02*
X9283928Y-12368214D01*
X9355357Y-12368214D01*
X9398214Y-12382500D01*
X9426786Y-12411071D01*
X9441071Y-12439643D01*
X9455357Y-12496786D01*
X9455357Y-12539643D01*
X9441071Y-12596786D01*
X9426786Y-12625357D01*
X9398214Y-12653929D01*
X9355357Y-12668214D01*
X9283928Y-12668214D01*
X9583928Y-12668214D02*
X9583928Y-12468214D01*
X9583928Y-12525357D02*
X9598214Y-12496786D01*
X9612500Y-12482500D01*
X9641071Y-12468214D01*
X9669643Y-12468214D01*
X9769643Y-12668214D02*
X9769643Y-12468214D01*
X9769643Y-12368214D02*
X9755357Y-12382500D01*
X9769643Y-12396786D01*
X9783928Y-12382500D01*
X9769643Y-12368214D01*
X9769643Y-12396786D01*
X9955357Y-12668214D02*
X9926786Y-12653929D01*
X9912500Y-12625357D01*
X9912500Y-12368214D01*
X10112500Y-12668214D02*
X10083928Y-12653929D01*
X10069643Y-12625357D01*
X10069643Y-12368214D01*
X10455357Y-12668214D02*
X10455357Y-12368214D01*
X10555357Y-12582500D01*
X10655357Y-12368214D01*
X10655357Y-12668214D01*
X10926786Y-12668214D02*
X10926786Y-12511071D01*
X10912500Y-12482500D01*
X10883928Y-12468214D01*
X10826786Y-12468214D01*
X10798214Y-12482500D01*
X10926786Y-12653929D02*
X10898214Y-12668214D01*
X10826786Y-12668214D01*
X10798214Y-12653929D01*
X10783928Y-12625357D01*
X10783928Y-12596786D01*
X10798214Y-12568214D01*
X10826786Y-12553929D01*
X10898214Y-12553929D01*
X10926786Y-12539643D01*
X11069643Y-12468214D02*
X11069643Y-12768214D01*
X11069643Y-12482500D02*
X11098214Y-12468214D01*
X11155357Y-12468214D01*
X11183928Y-12482500D01*
X11198214Y-12496786D01*
X11212500Y-12525357D01*
X11212500Y-12611071D01*
X11198214Y-12639643D01*
X11183928Y-12653929D01*
X11155357Y-12668214D01*
X11098214Y-12668214D01*
X11069643Y-12653929D01*
X11341071Y-12639643D02*
X11355357Y-12653929D01*
X11341071Y-12668214D01*
X11326786Y-12653929D01*
X11341071Y-12639643D01*
X11341071Y-12668214D01*
X11341071Y-12482500D02*
X11355357Y-12496786D01*
X11341071Y-12511071D01*
X11326786Y-12496786D01*
X11341071Y-12482500D01*
X11341071Y-12511071D01*
M02*
