M48
METRIC,TZ
T1C0.400
T2C0.762
T3C1.000
T4C1.346
T5C2.200
%
G90
G05
T1
X91350Y-113400
X92705Y-98008
X92705Y-99229
X92705Y-100449
X93050Y-92150
X93200Y-109050
X93200Y-114950
X94650Y-107950
X94655Y-115445
X94655Y-117645
X95936Y-107950
X95950Y-117650
X96131Y-111996
X97195Y-117655
X98250Y-103400
X98344Y-87645
X98489Y-100140
X98650Y-90050
X98650Y-92500
X99500Y-96600
X99621Y-100140
X100754Y-100140
X101105Y-87645
X102273Y-107968
X102276Y-102253
X102950Y-98450
X103851Y-87645
X105500Y-111229
X106350Y-92984
X106350Y-95150
X106350Y-97316
X106429Y-100495
X107224Y-109802
X107575Y-100503
X107755Y-87645
X108331Y-101803
X108722Y-100510
X108850Y-93650
X109350Y-108504
X109606Y-99304
X109606Y-102555
X109805Y-87645
X109850Y-97250
X110600Y-93600
X110807Y-108504
X111150Y-115100
X114500Y-95550
X114500Y-97800
X114503Y-92354
X114503Y-99314
X114503Y-102565
X114927Y-87203
X115286Y-115092
X115550Y-97823
X116345Y-99009
X116914Y-102773
X117279Y-101402
X118234Y-100513
X118319Y-87649
X118472Y-92348
X118641Y-111702
X118646Y-109367
X119690Y-100513
X121145Y-100513
X121869Y-87528
X122606Y-84785
X122743Y-88986
X122800Y-83550
X123342Y-87528
X123850Y-84785
X123957Y-88991
X124275Y-104025
X124521Y-107470
X124727Y-91544
X124750Y-81600
X125063Y-110599
X125674Y-118557
X125674Y-120208
X127100Y-104025
X128246Y-107470
X128880Y-86716
X129065Y-110599
X129850Y-92509
X130550Y-103500
X131232Y-86342
X131500Y-102925
X131500Y-104075
X131600Y-89350
X132450Y-103500
X133299Y-82601
X133950Y-90243
X135979Y-103515
X137864Y-103457
X137869Y-105053
X138022Y-87850
X138321Y-115098
X138339Y-86093
X140299Y-94872
X140307Y-89814
X140312Y-93795
X141000Y-105000
X141576Y-89817
X142220Y-115098
X142748Y-80754
X142845Y-89812
X142852Y-93802
X142852Y-94872
X143614Y-82634
X144201Y-86876
X146129Y-111196
X146596Y-109052
X147765Y-93078
X147765Y-95707
X148745Y-107310
X149509Y-86876
X149654Y-83307
X149990Y-82185
X150218Y-115103
X150652Y-109050
X150884Y-86876
X151282Y-93078
X151282Y-95707
X151541Y-82185
X151680Y-107935
X151680Y-107935
X152443Y-87726
X153319Y-83307
X153698Y-91435
X153698Y-93706
X153807Y-95707
X153815Y-98135
X153906Y-87726
X154366Y-115103
X154968Y-95707
X154968Y-98135
X156129Y-95707
X156129Y-98135
X156685Y-86876
X157777Y-92862
X157777Y-94249
X157780Y-98135
X158158Y-91435
X158361Y-89354
X158364Y-87252
X160538Y-87252
X160538Y-89354
X161232Y-91435
X162433Y-92862
X165274Y-98312
T2
X168217Y-103828
X168217Y-106368
X168217Y-108908
T3
X116637Y-91034
X116637Y-93574
T4
X159660Y-115462
X159660Y-119262
X168300Y-115462
X168300Y-119262
T5
X132423Y-119659
X147803Y-119659
X169395Y-82555
T0
M30
