G04 #@! TF.GenerationSoftware,KiCad,Pcbnew,5.1.9-73d0e3b20d~88~ubuntu20.04.1*
G04 #@! TF.CreationDate,2021-01-28T23:43:33+05:30*
G04 #@! TF.ProjectId,open_authenticator,6f70656e-5f61-4757-9468-656e74696361,v01*
G04 #@! TF.SameCoordinates,Original*
G04 #@! TF.FileFunction,Copper,L2,Bot*
G04 #@! TF.FilePolarity,Positive*
%FSLAX46Y46*%
G04 Gerber Fmt 4.6, Leading zero omitted, Abs format (unit mm)*
G04 Created by KiCad (PCBNEW 5.1.9-73d0e3b20d~88~ubuntu20.04.1) date 2021-01-28 23:43:33*
%MOMM*%
%LPD*%
G01*
G04 APERTURE LIST*
G04 #@! TA.AperFunction,SMDPad,CuDef*
%ADD10R,3.400000X1.500000*%
G04 #@! TD*
G04 #@! TA.AperFunction,SMDPad,CuDef*
%ADD11R,3.500000X1.000000*%
G04 #@! TD*
G04 #@! TA.AperFunction,ComponentPad*
%ADD12C,3.500000*%
G04 #@! TD*
G04 #@! TA.AperFunction,ComponentPad*
%ADD13C,2.000000*%
G04 #@! TD*
G04 #@! TA.AperFunction,SMDPad,CuDef*
%ADD14R,0.400000X2.000000*%
G04 #@! TD*
G04 #@! TA.AperFunction,SMDPad,CuDef*
%ADD15R,2.350000X1.550000*%
G04 #@! TD*
G04 #@! TA.AperFunction,SMDPad,CuDef*
%ADD16R,3.000000X4.200000*%
G04 #@! TD*
G04 #@! TA.AperFunction,ComponentPad*
%ADD17C,0.600000*%
G04 #@! TD*
G04 #@! TA.AperFunction,ComponentPad*
%ADD18R,1.700000X1.700000*%
G04 #@! TD*
G04 #@! TA.AperFunction,ComponentPad*
%ADD19O,1.700000X1.700000*%
G04 #@! TD*
G04 #@! TA.AperFunction,ComponentPad*
%ADD20C,1.524000*%
G04 #@! TD*
G04 #@! TA.AperFunction,ViaPad*
%ADD21C,0.800000*%
G04 #@! TD*
G04 #@! TA.AperFunction,Conductor*
%ADD22C,0.300000*%
G04 #@! TD*
G04 #@! TA.AperFunction,Conductor*
%ADD23C,0.500000*%
G04 #@! TD*
G04 #@! TA.AperFunction,Conductor*
%ADD24C,0.254000*%
G04 #@! TD*
G04 #@! TA.AperFunction,Conductor*
%ADD25C,0.100000*%
G04 #@! TD*
G04 APERTURE END LIST*
D10*
X127250900Y-86688680D03*
X127250900Y-93388680D03*
D11*
X121500900Y-89038680D03*
X121500900Y-91038680D03*
D12*
X132422900Y-119659400D03*
X147802600Y-119659400D03*
X169395140Y-82555080D03*
G04 #@! TA.AperFunction,SMDPad,CuDef*
G36*
G01*
X162484880Y-90582200D02*
X161984880Y-90582200D01*
G75*
G02*
X161759880Y-90357200I0J225000D01*
G01*
X161759880Y-89907200D01*
G75*
G02*
X161984880Y-89682200I225000J0D01*
G01*
X162484880Y-89682200D01*
G75*
G02*
X162709880Y-89907200I0J-225000D01*
G01*
X162709880Y-90357200D01*
G75*
G02*
X162484880Y-90582200I-225000J0D01*
G01*
G37*
G04 #@! TD.AperFunction*
G04 #@! TA.AperFunction,SMDPad,CuDef*
G36*
G01*
X162484880Y-89032200D02*
X161984880Y-89032200D01*
G75*
G02*
X161759880Y-88807200I0J225000D01*
G01*
X161759880Y-88357200D01*
G75*
G02*
X161984880Y-88132200I225000J0D01*
G01*
X162484880Y-88132200D01*
G75*
G02*
X162709880Y-88357200I0J-225000D01*
G01*
X162709880Y-88807200D01*
G75*
G02*
X162484880Y-89032200I-225000J0D01*
G01*
G37*
G04 #@! TD.AperFunction*
G04 #@! TA.AperFunction,SMDPad,CuDef*
G36*
G01*
X164588000Y-90577420D02*
X164088000Y-90577420D01*
G75*
G02*
X163863000Y-90352420I0J225000D01*
G01*
X163863000Y-89902420D01*
G75*
G02*
X164088000Y-89677420I225000J0D01*
G01*
X164588000Y-89677420D01*
G75*
G02*
X164813000Y-89902420I0J-225000D01*
G01*
X164813000Y-90352420D01*
G75*
G02*
X164588000Y-90577420I-225000J0D01*
G01*
G37*
G04 #@! TD.AperFunction*
G04 #@! TA.AperFunction,SMDPad,CuDef*
G36*
G01*
X164588000Y-89027420D02*
X164088000Y-89027420D01*
G75*
G02*
X163863000Y-88802420I0J225000D01*
G01*
X163863000Y-88352420D01*
G75*
G02*
X164088000Y-88127420I225000J0D01*
G01*
X164588000Y-88127420D01*
G75*
G02*
X164813000Y-88352420I0J-225000D01*
G01*
X164813000Y-88802420D01*
G75*
G02*
X164588000Y-89027420I-225000J0D01*
G01*
G37*
G04 #@! TD.AperFunction*
G04 #@! TA.AperFunction,SMDPad,CuDef*
G36*
G01*
X145512600Y-90556800D02*
X145012600Y-90556800D01*
G75*
G02*
X144787600Y-90331800I0J225000D01*
G01*
X144787600Y-89881800D01*
G75*
G02*
X145012600Y-89656800I225000J0D01*
G01*
X145512600Y-89656800D01*
G75*
G02*
X145737600Y-89881800I0J-225000D01*
G01*
X145737600Y-90331800D01*
G75*
G02*
X145512600Y-90556800I-225000J0D01*
G01*
G37*
G04 #@! TD.AperFunction*
G04 #@! TA.AperFunction,SMDPad,CuDef*
G36*
G01*
X145512600Y-89006800D02*
X145012600Y-89006800D01*
G75*
G02*
X144787600Y-88781800I0J225000D01*
G01*
X144787600Y-88331800D01*
G75*
G02*
X145012600Y-88106800I225000J0D01*
G01*
X145512600Y-88106800D01*
G75*
G02*
X145737600Y-88331800I0J-225000D01*
G01*
X145737600Y-88781800D01*
G75*
G02*
X145512600Y-89006800I-225000J0D01*
G01*
G37*
G04 #@! TD.AperFunction*
G04 #@! TA.AperFunction,SMDPad,CuDef*
G36*
G01*
X147948460Y-90552020D02*
X147448460Y-90552020D01*
G75*
G02*
X147223460Y-90327020I0J225000D01*
G01*
X147223460Y-89877020D01*
G75*
G02*
X147448460Y-89652020I225000J0D01*
G01*
X147948460Y-89652020D01*
G75*
G02*
X148173460Y-89877020I0J-225000D01*
G01*
X148173460Y-90327020D01*
G75*
G02*
X147948460Y-90552020I-225000J0D01*
G01*
G37*
G04 #@! TD.AperFunction*
G04 #@! TA.AperFunction,SMDPad,CuDef*
G36*
G01*
X147948460Y-89002020D02*
X147448460Y-89002020D01*
G75*
G02*
X147223460Y-88777020I0J225000D01*
G01*
X147223460Y-88327020D01*
G75*
G02*
X147448460Y-88102020I225000J0D01*
G01*
X147948460Y-88102020D01*
G75*
G02*
X148173460Y-88327020I0J-225000D01*
G01*
X148173460Y-88777020D01*
G75*
G02*
X147948460Y-89002020I-225000J0D01*
G01*
G37*
G04 #@! TD.AperFunction*
G04 #@! TA.AperFunction,SMDPad,CuDef*
G36*
G01*
X150323360Y-98801640D02*
X149823360Y-98801640D01*
G75*
G02*
X149598360Y-98576640I0J225000D01*
G01*
X149598360Y-98126640D01*
G75*
G02*
X149823360Y-97901640I225000J0D01*
G01*
X150323360Y-97901640D01*
G75*
G02*
X150548360Y-98126640I0J-225000D01*
G01*
X150548360Y-98576640D01*
G75*
G02*
X150323360Y-98801640I-225000J0D01*
G01*
G37*
G04 #@! TD.AperFunction*
G04 #@! TA.AperFunction,SMDPad,CuDef*
G36*
G01*
X150323360Y-97251640D02*
X149823360Y-97251640D01*
G75*
G02*
X149598360Y-97026640I0J225000D01*
G01*
X149598360Y-96576640D01*
G75*
G02*
X149823360Y-96351640I225000J0D01*
G01*
X150323360Y-96351640D01*
G75*
G02*
X150548360Y-96576640I0J-225000D01*
G01*
X150548360Y-97026640D01*
G75*
G02*
X150323360Y-97251640I-225000J0D01*
G01*
G37*
G04 #@! TD.AperFunction*
G04 #@! TA.AperFunction,SMDPad,CuDef*
G36*
G01*
X152749060Y-98786400D02*
X152249060Y-98786400D01*
G75*
G02*
X152024060Y-98561400I0J225000D01*
G01*
X152024060Y-98111400D01*
G75*
G02*
X152249060Y-97886400I225000J0D01*
G01*
X152749060Y-97886400D01*
G75*
G02*
X152974060Y-98111400I0J-225000D01*
G01*
X152974060Y-98561400D01*
G75*
G02*
X152749060Y-98786400I-225000J0D01*
G01*
G37*
G04 #@! TD.AperFunction*
G04 #@! TA.AperFunction,SMDPad,CuDef*
G36*
G01*
X152749060Y-97236400D02*
X152249060Y-97236400D01*
G75*
G02*
X152024060Y-97011400I0J225000D01*
G01*
X152024060Y-96561400D01*
G75*
G02*
X152249060Y-96336400I225000J0D01*
G01*
X152749060Y-96336400D01*
G75*
G02*
X152974060Y-96561400I0J-225000D01*
G01*
X152974060Y-97011400D01*
G75*
G02*
X152749060Y-97236400I-225000J0D01*
G01*
G37*
G04 #@! TD.AperFunction*
G04 #@! TA.AperFunction,SMDPad,CuDef*
G36*
G01*
X150313200Y-94620300D02*
X149813200Y-94620300D01*
G75*
G02*
X149588200Y-94395300I0J225000D01*
G01*
X149588200Y-93945300D01*
G75*
G02*
X149813200Y-93720300I225000J0D01*
G01*
X150313200Y-93720300D01*
G75*
G02*
X150538200Y-93945300I0J-225000D01*
G01*
X150538200Y-94395300D01*
G75*
G02*
X150313200Y-94620300I-225000J0D01*
G01*
G37*
G04 #@! TD.AperFunction*
G04 #@! TA.AperFunction,SMDPad,CuDef*
G36*
G01*
X150313200Y-93070300D02*
X149813200Y-93070300D01*
G75*
G02*
X149588200Y-92845300I0J225000D01*
G01*
X149588200Y-92395300D01*
G75*
G02*
X149813200Y-92170300I225000J0D01*
G01*
X150313200Y-92170300D01*
G75*
G02*
X150538200Y-92395300I0J-225000D01*
G01*
X150538200Y-92845300D01*
G75*
G02*
X150313200Y-93070300I-225000J0D01*
G01*
G37*
G04 #@! TD.AperFunction*
D13*
X159660000Y-119261720D03*
X168300000Y-119261720D03*
X168300000Y-115461720D03*
X159660000Y-115461720D03*
G04 #@! TA.AperFunction,SMDPad,CuDef*
G36*
G01*
X150333120Y-90546640D02*
X149783120Y-90546640D01*
G75*
G02*
X149583120Y-90346640I0J200000D01*
G01*
X149583120Y-89946640D01*
G75*
G02*
X149783120Y-89746640I200000J0D01*
G01*
X150333120Y-89746640D01*
G75*
G02*
X150533120Y-89946640I0J-200000D01*
G01*
X150533120Y-90346640D01*
G75*
G02*
X150333120Y-90546640I-200000J0D01*
G01*
G37*
G04 #@! TD.AperFunction*
G04 #@! TA.AperFunction,SMDPad,CuDef*
G36*
G01*
X150333120Y-88896640D02*
X149783120Y-88896640D01*
G75*
G02*
X149583120Y-88696640I0J200000D01*
G01*
X149583120Y-88296640D01*
G75*
G02*
X149783120Y-88096640I200000J0D01*
G01*
X150333120Y-88096640D01*
G75*
G02*
X150533120Y-88296640I0J-200000D01*
G01*
X150533120Y-88696640D01*
G75*
G02*
X150333120Y-88896640I-200000J0D01*
G01*
G37*
G04 #@! TD.AperFunction*
G04 #@! TA.AperFunction,SMDPad,CuDef*
G36*
G01*
X152771520Y-94572540D02*
X152221520Y-94572540D01*
G75*
G02*
X152021520Y-94372540I0J200000D01*
G01*
X152021520Y-93972540D01*
G75*
G02*
X152221520Y-93772540I200000J0D01*
G01*
X152771520Y-93772540D01*
G75*
G02*
X152971520Y-93972540I0J-200000D01*
G01*
X152971520Y-94372540D01*
G75*
G02*
X152771520Y-94572540I-200000J0D01*
G01*
G37*
G04 #@! TD.AperFunction*
G04 #@! TA.AperFunction,SMDPad,CuDef*
G36*
G01*
X152771520Y-92922540D02*
X152221520Y-92922540D01*
G75*
G02*
X152021520Y-92722540I0J200000D01*
G01*
X152021520Y-92322540D01*
G75*
G02*
X152221520Y-92122540I200000J0D01*
G01*
X152771520Y-92122540D01*
G75*
G02*
X152971520Y-92322540I0J-200000D01*
G01*
X152971520Y-92722540D01*
G75*
G02*
X152771520Y-92922540I-200000J0D01*
G01*
G37*
G04 #@! TD.AperFunction*
D14*
X154406080Y-85046820D03*
X153706080Y-85046820D03*
X164206080Y-85046820D03*
X163506080Y-85046820D03*
X162806080Y-85046820D03*
X162106080Y-85046820D03*
X161406080Y-85046820D03*
X160706080Y-85046820D03*
X160006080Y-85046820D03*
X159306080Y-85046820D03*
X158606080Y-85046820D03*
X157906080Y-85046820D03*
X157206080Y-85046820D03*
X156506080Y-85046820D03*
X155756080Y-85046820D03*
X155106080Y-85046820D03*
X153006080Y-85046820D03*
X152306080Y-85046820D03*
X151606080Y-85046820D03*
X150906080Y-85046820D03*
X150206080Y-85046820D03*
X149506080Y-85046820D03*
X148806080Y-85046820D03*
X148106080Y-85046820D03*
X147406080Y-85046820D03*
X146706080Y-85046820D03*
X146006080Y-85046820D03*
X145306080Y-85046820D03*
X144606080Y-85046820D03*
X143906080Y-85046820D03*
D15*
X159909400Y-93609160D03*
X155609400Y-93609160D03*
D16*
X94000000Y-112000000D03*
X123000000Y-112000000D03*
D17*
X130550000Y-103500000D03*
X131500000Y-102925000D03*
X131500000Y-104075000D03*
X132450000Y-103500000D03*
G04 #@! TA.AperFunction,SMDPad,CuDef*
G36*
G01*
X165578220Y-108828460D02*
X164078220Y-108828460D01*
G75*
G02*
X163828220Y-108578460I0J250000D01*
G01*
X163828220Y-108078460D01*
G75*
G02*
X164078220Y-107828460I250000J0D01*
G01*
X165578220Y-107828460D01*
G75*
G02*
X165828220Y-108078460I0J-250000D01*
G01*
X165828220Y-108578460D01*
G75*
G02*
X165578220Y-108828460I-250000J0D01*
G01*
G37*
G04 #@! TD.AperFunction*
G04 #@! TA.AperFunction,SMDPad,CuDef*
G36*
G01*
X143779620Y-95085600D02*
X143779620Y-93585600D01*
G75*
G02*
X144029620Y-93335600I250000J0D01*
G01*
X144529620Y-93335600D01*
G75*
G02*
X144779620Y-93585600I0J-250000D01*
G01*
X144779620Y-95085600D01*
G75*
G02*
X144529620Y-95335600I-250000J0D01*
G01*
X144029620Y-95335600D01*
G75*
G02*
X143779620Y-95085600I0J250000D01*
G01*
G37*
G04 #@! TD.AperFunction*
G04 #@! TA.AperFunction,SMDPad,CuDef*
G36*
G01*
X139877100Y-80498060D02*
X141377100Y-80498060D01*
G75*
G02*
X141627100Y-80748060I0J-250000D01*
G01*
X141627100Y-81248060D01*
G75*
G02*
X141377100Y-81498060I-250000J0D01*
G01*
X139877100Y-81498060D01*
G75*
G02*
X139627100Y-81248060I0J250000D01*
G01*
X139627100Y-80748060D01*
G75*
G02*
X139877100Y-80498060I250000J0D01*
G01*
G37*
G04 #@! TD.AperFunction*
G04 #@! TA.AperFunction,SMDPad,CuDef*
G36*
G01*
X139811060Y-82395440D02*
X141311060Y-82395440D01*
G75*
G02*
X141561060Y-82645440I0J-250000D01*
G01*
X141561060Y-83145440D01*
G75*
G02*
X141311060Y-83395440I-250000J0D01*
G01*
X139811060Y-83395440D01*
G75*
G02*
X139561060Y-83145440I0J250000D01*
G01*
X139561060Y-82645440D01*
G75*
G02*
X139811060Y-82395440I250000J0D01*
G01*
G37*
G04 #@! TD.AperFunction*
G04 #@! TA.AperFunction,SMDPad,CuDef*
G36*
G01*
X129484820Y-119054500D02*
X127984820Y-119054500D01*
G75*
G02*
X127734820Y-118804500I0J250000D01*
G01*
X127734820Y-118304500D01*
G75*
G02*
X127984820Y-118054500I250000J0D01*
G01*
X129484820Y-118054500D01*
G75*
G02*
X129734820Y-118304500I0J-250000D01*
G01*
X129734820Y-118804500D01*
G75*
G02*
X129484820Y-119054500I-250000J0D01*
G01*
G37*
G04 #@! TD.AperFunction*
G04 #@! TA.AperFunction,SMDPad,CuDef*
G36*
G01*
X129484820Y-120705500D02*
X127984820Y-120705500D01*
G75*
G02*
X127734820Y-120455500I0J250000D01*
G01*
X127734820Y-119955500D01*
G75*
G02*
X127984820Y-119705500I250000J0D01*
G01*
X129484820Y-119705500D01*
G75*
G02*
X129734820Y-119955500I0J-250000D01*
G01*
X129734820Y-120455500D01*
G75*
G02*
X129484820Y-120705500I-250000J0D01*
G01*
G37*
G04 #@! TD.AperFunction*
G04 #@! TA.AperFunction,SMDPad,CuDef*
G36*
G01*
X158943420Y-89032780D02*
X158943420Y-87532780D01*
G75*
G02*
X159193420Y-87282780I250000J0D01*
G01*
X159693420Y-87282780D01*
G75*
G02*
X159943420Y-87532780I0J-250000D01*
G01*
X159943420Y-89032780D01*
G75*
G02*
X159693420Y-89282780I-250000J0D01*
G01*
X159193420Y-89282780D01*
G75*
G02*
X158943420Y-89032780I0J250000D01*
G01*
G37*
G04 #@! TD.AperFunction*
G04 #@! TA.AperFunction,SMDPad,CuDef*
G36*
G01*
X141059280Y-95085600D02*
X141059280Y-93585600D01*
G75*
G02*
X141309280Y-93335600I250000J0D01*
G01*
X141809280Y-93335600D01*
G75*
G02*
X142059280Y-93585600I0J-250000D01*
G01*
X142059280Y-95085600D01*
G75*
G02*
X141809280Y-95335600I-250000J0D01*
G01*
X141309280Y-95335600D01*
G75*
G02*
X141059280Y-95085600I0J250000D01*
G01*
G37*
G04 #@! TD.AperFunction*
D18*
X116636800Y-91033600D03*
D19*
X116636800Y-93573600D03*
D20*
X168216580Y-103827580D03*
X168216580Y-106367580D03*
X168216580Y-108907580D03*
D21*
X152443180Y-87725620D03*
X124726700Y-91544140D03*
X143614140Y-82633820D03*
X149989540Y-82184685D03*
X138022040Y-87850000D03*
X122800000Y-83550000D03*
X124750000Y-81600000D03*
X153906220Y-87725620D03*
X142748000Y-80754220D03*
X151541035Y-82184685D03*
X106350000Y-95150000D03*
X94655000Y-115445000D03*
X102950000Y-98450000D03*
X151679720Y-107935380D03*
X93050000Y-92150000D03*
X94655000Y-117645000D03*
X95950000Y-117650000D03*
X97195000Y-117655000D03*
X98250000Y-103400000D03*
X115285520Y-115092480D03*
X93200000Y-114950000D03*
X93200000Y-109050000D03*
X94650000Y-107950000D03*
X114500000Y-97800000D03*
X114500000Y-95550000D03*
X131600000Y-89350000D03*
X131231640Y-86342220D03*
X99500000Y-96600000D03*
X101105000Y-87645000D03*
X109805000Y-87645000D03*
X110600000Y-93600000D03*
X109850000Y-97250000D03*
X111150000Y-115100000D03*
X129065020Y-110599220D03*
X138320780Y-115097560D03*
X142219680Y-115097560D03*
X150218140Y-115102640D03*
X154365960Y-115102640D03*
X128246380Y-107470160D03*
X127100000Y-104025000D03*
X124521380Y-107470160D03*
X124275000Y-104025000D03*
X109606080Y-99303840D03*
X109606080Y-102555040D03*
X114503200Y-99314000D03*
X114503200Y-102565200D03*
X151679720Y-107935380D03*
X133299200Y-82600800D03*
X114503200Y-92354400D03*
X118472001Y-92347999D03*
X95935800Y-107950000D03*
X128879600Y-86715600D03*
X123342400Y-87528400D03*
X123850400Y-84785200D03*
X122605800Y-84785200D03*
X121869200Y-87528400D03*
X125063160Y-110599220D03*
X141000000Y-105000000D03*
X137868660Y-105053340D03*
X137863580Y-103456740D03*
X116344700Y-99009200D03*
X116913660Y-102773480D03*
X149509480Y-86875620D03*
X150883620Y-86875620D03*
X153807160Y-95707200D03*
X154967940Y-95707200D03*
X156128720Y-95707200D03*
X153814780Y-98135440D03*
X156128720Y-98135440D03*
X154967940Y-98135440D03*
X153697940Y-93705680D03*
X153697940Y-91434920D03*
X151282400Y-93078300D03*
X151282400Y-95707200D03*
X158158180Y-91434920D03*
X161231580Y-91434920D03*
X157779720Y-98135440D03*
X157777180Y-94249240D03*
X157777180Y-92862400D03*
X162433000Y-92862400D03*
X146596100Y-109052360D03*
X150652480Y-109049820D03*
X135978900Y-103515160D03*
X103850680Y-87645000D03*
X107755004Y-87645000D03*
X98343960Y-87645000D03*
X106350000Y-92984320D03*
X106350000Y-97315680D03*
X144200880Y-86875620D03*
X156684980Y-86875620D03*
X153319480Y-83306920D03*
X149654260Y-83306920D03*
X165274260Y-98311700D03*
X147764500Y-95707200D03*
X147764500Y-93078300D03*
X138338560Y-86093300D03*
X158361380Y-89353800D03*
X158363920Y-87251540D03*
X108331000Y-101803200D03*
X133950000Y-90243100D03*
X102273100Y-107967780D03*
X102275640Y-102252780D03*
X117279420Y-101401880D03*
X160538160Y-87251540D03*
X160538160Y-89353800D03*
X129849880Y-92509340D03*
X91350000Y-113400000D03*
X96131380Y-111996220D03*
X108850000Y-93650000D03*
X115550000Y-97822700D03*
X123957080Y-88991440D03*
X122742960Y-88986360D03*
X142844520Y-89811860D03*
X141575790Y-89816940D03*
X140307060Y-89814400D03*
X146128740Y-111196120D03*
X140312140Y-93794580D03*
X142852140Y-93802200D03*
X140299440Y-94871540D03*
X142852140Y-94871540D03*
X148744940Y-107309920D03*
X98488500Y-100139500D03*
X100754180Y-100139500D03*
X99621340Y-100139500D03*
X106428540Y-100495100D03*
X107575350Y-100502645D03*
X108722160Y-100510340D03*
X118234460Y-100512880D03*
X119689880Y-100512880D03*
X121145300Y-100512880D03*
X92704920Y-98008440D03*
X92704920Y-99228910D03*
X92704920Y-100449380D03*
X105500000Y-111229140D03*
X110807500Y-108503720D03*
X125674120Y-120208040D03*
X109349540Y-108503720D03*
X107223560Y-109801660D03*
X125674120Y-118557040D03*
X98650000Y-92500000D03*
X98650000Y-90050000D03*
X118319141Y-87648641D03*
X114927380Y-87203280D03*
X118640860Y-111701580D03*
X118645940Y-109367320D03*
D22*
X128420840Y-87850000D02*
X124726700Y-91544140D01*
X138022040Y-87850000D02*
X128420840Y-87850000D01*
X152443180Y-87725620D02*
X152443180Y-87159935D01*
X151606080Y-86322835D02*
X151606080Y-85046820D01*
X152443180Y-87159935D02*
X151606080Y-86322835D01*
X150906080Y-83101225D02*
X150906080Y-85046820D01*
X149989540Y-82184685D02*
X150906080Y-83101225D01*
X140822680Y-82633820D02*
X140561060Y-82895440D01*
X143614140Y-82633820D02*
X140822680Y-82633820D01*
X122800000Y-83550000D02*
X124750000Y-81600000D01*
X153715985Y-87725620D02*
X153906220Y-87725620D01*
X140870940Y-80754220D02*
X140627100Y-80998060D01*
X142748000Y-80754220D02*
X140870940Y-80754220D01*
X152306080Y-85046820D02*
X152306080Y-86315715D01*
X152306080Y-86315715D02*
X153715985Y-87725620D01*
X152306080Y-82949730D02*
X152306080Y-85046820D01*
X151541035Y-82184685D02*
X152306080Y-82949730D01*
D23*
X102273100Y-107967780D02*
X102273100Y-103225600D01*
X102273100Y-102255320D02*
X102275640Y-102252780D01*
X102273100Y-103225600D02*
X102273100Y-102255320D01*
X108730999Y-101403201D02*
X116229181Y-101403201D01*
X108331000Y-101803200D02*
X108730999Y-101403201D01*
X117278099Y-101403201D02*
X117279420Y-101401880D01*
X116229181Y-101403201D02*
X117278099Y-101403201D01*
X159909400Y-89982560D02*
X160538160Y-89353800D01*
X159909400Y-93609160D02*
X159909400Y-89982560D01*
X152499060Y-94168260D02*
X152496520Y-94165720D01*
X152499060Y-94172840D02*
X152496520Y-94170300D01*
X152494280Y-94172540D02*
X152496520Y-94170300D01*
X156732160Y-96786400D02*
X159909400Y-93609160D01*
X152499060Y-96786400D02*
X156732160Y-96786400D01*
X152494280Y-94170300D02*
X152496520Y-94172540D01*
X150063200Y-94170300D02*
X152494280Y-94170300D01*
X152496520Y-96783860D02*
X152499060Y-96786400D01*
X152496520Y-94172540D02*
X152496520Y-96783860D01*
X133950000Y-90243100D02*
X131683760Y-92509340D01*
X131683760Y-92509340D02*
X129849880Y-92509340D01*
D22*
X157206080Y-86093700D02*
X157206080Y-85046820D01*
X158363920Y-87251540D02*
X157206080Y-86093700D01*
X158606080Y-87009380D02*
X158606080Y-85046820D01*
X158363920Y-87251540D02*
X158606080Y-87009380D01*
X160706080Y-87083620D02*
X160706080Y-85046820D01*
X160538160Y-87251540D02*
X160706080Y-87083620D01*
D23*
X92750000Y-112000000D02*
X91350000Y-113400000D01*
X94000000Y-112000000D02*
X92750000Y-112000000D01*
X94003780Y-111996220D02*
X94000000Y-112000000D01*
X96131380Y-111996220D02*
X94003780Y-111996220D01*
D22*
X108850000Y-93650000D02*
X111950000Y-96750000D01*
X115550000Y-97257015D02*
X115550000Y-97822700D01*
X115042985Y-96750000D02*
X115550000Y-97257015D01*
X111950000Y-96750000D02*
X115042985Y-96750000D01*
D23*
X146128740Y-111196120D02*
X148744940Y-108579920D01*
X148744940Y-108579920D02*
X148744940Y-107309920D01*
X140307060Y-93789500D02*
X140312140Y-93794580D01*
X142844520Y-93794580D02*
X142852140Y-93802200D01*
X107567805Y-100495100D02*
X107575350Y-100502645D01*
X106428540Y-100495100D02*
X107567805Y-100495100D01*
X108714465Y-100502645D02*
X108722160Y-100510340D01*
X107575350Y-100502645D02*
X108714465Y-100502645D01*
X108724700Y-100512880D02*
X108722160Y-100510340D01*
X118234460Y-100512880D02*
X108724700Y-100512880D01*
X118234460Y-100512880D02*
X119689880Y-100512880D01*
X119689880Y-100512880D02*
X121145300Y-100512880D01*
X92704920Y-98008440D02*
X92704920Y-98008440D01*
X92704920Y-100698300D02*
X92704920Y-100449380D01*
X93057980Y-101051360D02*
X92704920Y-100698300D01*
X95785642Y-101051360D02*
X93057980Y-101051360D01*
X96697502Y-100139500D02*
X95785642Y-101051360D01*
X100677980Y-100139500D02*
X96697502Y-100139500D01*
X92704920Y-99225100D02*
X92704920Y-98008440D01*
X92704920Y-100449380D02*
X92704920Y-99225100D01*
X164828220Y-107215940D02*
X168216580Y-103827580D01*
X164828220Y-108328460D02*
X164828220Y-107215940D01*
D22*
X108082080Y-111229140D02*
X105500000Y-111229140D01*
X110807500Y-108503720D02*
X108082080Y-111229140D01*
D23*
X128732280Y-120208040D02*
X128734820Y-120205500D01*
X125674120Y-120208040D02*
X128732280Y-120208040D01*
D22*
X108051600Y-109801660D02*
X109349540Y-108503720D01*
X107223560Y-109801660D02*
X108051600Y-109801660D01*
D23*
X128732280Y-118557040D02*
X128734820Y-118554500D01*
X125674120Y-118557040D02*
X128732280Y-118557040D01*
X98650000Y-92500000D02*
X98650000Y-90050000D01*
X114930650Y-87200010D02*
X115313460Y-87200010D01*
X114927380Y-87203280D02*
X114927380Y-87203280D01*
X117873780Y-87203280D02*
X114927380Y-87203280D01*
X118319141Y-87648641D02*
X117873780Y-87203280D01*
X114927380Y-87203280D02*
X114930650Y-87200010D01*
D22*
X118640860Y-109372400D02*
X118645940Y-109367320D01*
X118640860Y-111701580D02*
X118640860Y-109372400D01*
X156068461Y-93150099D02*
X155609400Y-93609160D01*
D23*
X154522780Y-92522540D02*
X155609400Y-93609160D01*
X152496520Y-92522540D02*
X154522780Y-92522540D01*
D22*
X155609400Y-87146240D02*
X155609400Y-93609160D01*
X155106080Y-86642920D02*
X155106080Y-85046820D01*
X155609400Y-87146240D02*
X155106080Y-86642920D01*
X150073360Y-96801640D02*
X149834300Y-96801640D01*
X149834300Y-96801640D02*
X148686520Y-95653860D01*
X148686520Y-95653860D02*
X148686520Y-91866720D01*
X148686520Y-91866720D02*
X149105620Y-91447620D01*
X151421600Y-91447620D02*
X152496520Y-92522540D01*
X149105620Y-91447620D02*
X151421600Y-91447620D01*
X146006080Y-86859640D02*
X147698460Y-88552020D01*
X146006080Y-85046820D02*
X146006080Y-86859640D01*
X145387761Y-88431639D02*
X145262600Y-88556800D01*
X145372120Y-88447280D02*
X145262600Y-88556800D01*
X145306080Y-88513320D02*
X145262600Y-88556800D01*
X145306080Y-85046820D02*
X145306080Y-88513320D01*
X162872120Y-87111540D02*
X164338000Y-88577420D01*
X162806080Y-87045500D02*
X162872120Y-87111540D01*
X162806080Y-85046820D02*
X162806080Y-87045500D01*
X165780720Y-88005920D02*
X165780720Y-89458800D01*
X165366700Y-87591900D02*
X165780720Y-88005920D01*
X165112100Y-90127420D02*
X164338000Y-90127420D01*
X165780720Y-89458800D02*
X165112100Y-90127420D01*
X164292280Y-87591900D02*
X165366700Y-87591900D01*
X163506080Y-86805700D02*
X164292280Y-87591900D01*
X163506080Y-85046820D02*
X163506080Y-86805700D01*
X162106080Y-88453400D02*
X162234880Y-88582200D01*
X162106080Y-85046820D02*
X162106080Y-88453400D01*
X161409870Y-85050610D02*
X161406080Y-85046820D01*
X161409870Y-89307190D02*
X161409870Y-85050610D01*
X162234880Y-90132200D02*
X161409870Y-89307190D01*
X148931270Y-88496640D02*
X149091938Y-88496640D01*
X149091938Y-88496640D02*
X150058120Y-88496640D01*
X146706080Y-85046820D02*
X146706080Y-86271450D01*
X146706080Y-86271450D02*
X148931270Y-88496640D01*
D24*
X143182366Y-95222060D02*
X139964186Y-95222060D01*
X139965404Y-89291160D01*
X143183584Y-89291160D01*
X143182366Y-95222060D01*
G04 #@! TA.AperFunction,Conductor*
D25*
G36*
X143182366Y-95222060D02*
G01*
X139964186Y-95222060D01*
X139965404Y-89291160D01*
X143183584Y-89291160D01*
X143182366Y-95222060D01*
G37*
G04 #@! TD.AperFunction*
D24*
X151723237Y-85996780D02*
X150788923Y-85996780D01*
X150788923Y-84140040D01*
X151723237Y-84140040D01*
X151723237Y-85996780D01*
G04 #@! TA.AperFunction,Conductor*
D25*
G36*
X151723237Y-85996780D02*
G01*
X150788923Y-85996780D01*
X150788923Y-84140040D01*
X151723237Y-84140040D01*
X151723237Y-85996780D01*
G37*
G04 #@! TD.AperFunction*
D24*
X160878870Y-89281116D02*
X160876302Y-89307190D01*
X160878870Y-89333264D01*
X160878870Y-89333273D01*
X160881060Y-89355509D01*
X160881060Y-89695020D01*
X158031180Y-89695020D01*
X158031180Y-86918800D01*
X160878871Y-86918800D01*
X160878870Y-89281116D01*
G04 #@! TA.AperFunction,Conductor*
D25*
G36*
X160878870Y-89281116D02*
G01*
X160876302Y-89307190D01*
X160878870Y-89333264D01*
X160878870Y-89333273D01*
X160881060Y-89355509D01*
X160881060Y-89695020D01*
X158031180Y-89695020D01*
X158031180Y-86918800D01*
X160878871Y-86918800D01*
X160878870Y-89281116D01*
G37*
G04 #@! TD.AperFunction*
D24*
X139248276Y-80748060D02*
X139248276Y-81248060D01*
X139260359Y-81370737D01*
X139296142Y-81488701D01*
X139354252Y-81597416D01*
X139432454Y-81692706D01*
X139527744Y-81770908D01*
X139636459Y-81829018D01*
X139754423Y-81864801D01*
X139877100Y-81876884D01*
X141377100Y-81876884D01*
X141499777Y-81864801D01*
X141617741Y-81829018D01*
X141726456Y-81770908D01*
X141821746Y-81692706D01*
X141899948Y-81597416D01*
X141958058Y-81488701D01*
X141993841Y-81370737D01*
X142002658Y-81281220D01*
X142176155Y-81281220D01*
X142252691Y-81357756D01*
X142379952Y-81442789D01*
X142521357Y-81501361D01*
X142671472Y-81531220D01*
X142824528Y-81531220D01*
X142974643Y-81501361D01*
X143116048Y-81442789D01*
X143243309Y-81357756D01*
X143351536Y-81249529D01*
X143436569Y-81122268D01*
X143495141Y-80980863D01*
X143525000Y-80830748D01*
X143525000Y-80727000D01*
X169873000Y-80727000D01*
X169873000Y-120873000D01*
X129951744Y-120873000D01*
X130007668Y-120804856D01*
X130065778Y-120696141D01*
X130101561Y-120578177D01*
X130113644Y-120455500D01*
X130113644Y-119955500D01*
X130101561Y-119832823D01*
X130065778Y-119714859D01*
X130007668Y-119606144D01*
X129929466Y-119510854D01*
X129834176Y-119432652D01*
X129735672Y-119380000D01*
X129834176Y-119327348D01*
X129929466Y-119249146D01*
X130007668Y-119153856D01*
X130065778Y-119045141D01*
X130101561Y-118927177D01*
X130113644Y-118804500D01*
X130113644Y-118304500D01*
X130101561Y-118181823D01*
X130065778Y-118063859D01*
X130007668Y-117955144D01*
X129929466Y-117859854D01*
X129834176Y-117781652D01*
X129725461Y-117723542D01*
X129607497Y-117687759D01*
X129484820Y-117675676D01*
X127984820Y-117675676D01*
X127862143Y-117687759D01*
X127744179Y-117723542D01*
X127635464Y-117781652D01*
X127540174Y-117859854D01*
X127482574Y-117930040D01*
X126134313Y-117930040D01*
X126042168Y-117868471D01*
X125900763Y-117809899D01*
X125750648Y-117780040D01*
X125597592Y-117780040D01*
X125447477Y-117809899D01*
X125306072Y-117868471D01*
X125178811Y-117953504D01*
X125070584Y-118061731D01*
X124985551Y-118188992D01*
X124926979Y-118330397D01*
X124897120Y-118480512D01*
X124897120Y-118633568D01*
X124926979Y-118783683D01*
X124985551Y-118925088D01*
X125070584Y-119052349D01*
X125178811Y-119160576D01*
X125306072Y-119245609D01*
X125447477Y-119304181D01*
X125597592Y-119334040D01*
X125750648Y-119334040D01*
X125900763Y-119304181D01*
X126042168Y-119245609D01*
X126134313Y-119184040D01*
X127486743Y-119184040D01*
X127540174Y-119249146D01*
X127635464Y-119327348D01*
X127733968Y-119380000D01*
X127635464Y-119432652D01*
X127540174Y-119510854D01*
X127482574Y-119581040D01*
X126134313Y-119581040D01*
X126042168Y-119519471D01*
X125900763Y-119460899D01*
X125750648Y-119431040D01*
X125597592Y-119431040D01*
X125447477Y-119460899D01*
X125306072Y-119519471D01*
X125178811Y-119604504D01*
X125070584Y-119712731D01*
X124985551Y-119839992D01*
X124926979Y-119981397D01*
X124897120Y-120131512D01*
X124897120Y-120284568D01*
X124926979Y-120434683D01*
X124985551Y-120576088D01*
X125070584Y-120703349D01*
X125178811Y-120811576D01*
X125270739Y-120873000D01*
X90627000Y-120873000D01*
X90627000Y-113684924D01*
X90661431Y-113768048D01*
X90746464Y-113895309D01*
X90854691Y-114003536D01*
X90981952Y-114088569D01*
X91123357Y-114147141D01*
X91273472Y-114177000D01*
X91426528Y-114177000D01*
X91576643Y-114147141D01*
X91718048Y-114088569D01*
X91845309Y-114003536D01*
X91953536Y-113895309D01*
X92038569Y-113768048D01*
X92097141Y-113626643D01*
X92118761Y-113517950D01*
X92121176Y-113515535D01*
X92121176Y-114100000D01*
X92128455Y-114173905D01*
X92150012Y-114244970D01*
X92185019Y-114310463D01*
X92232131Y-114367869D01*
X92289537Y-114414981D01*
X92355030Y-114449988D01*
X92426095Y-114471545D01*
X92500000Y-114478824D01*
X95500000Y-114478824D01*
X95573905Y-114471545D01*
X95644970Y-114449988D01*
X95710463Y-114414981D01*
X95767869Y-114367869D01*
X95814981Y-114310463D01*
X95849988Y-114244970D01*
X95871545Y-114173905D01*
X95878824Y-114100000D01*
X95878824Y-112732627D01*
X95904737Y-112743361D01*
X96054852Y-112773220D01*
X96207908Y-112773220D01*
X96358023Y-112743361D01*
X96499428Y-112684789D01*
X96626689Y-112599756D01*
X96734916Y-112491529D01*
X96819949Y-112364268D01*
X96878521Y-112222863D01*
X96908380Y-112072748D01*
X96908380Y-111919692D01*
X96878521Y-111769577D01*
X96819949Y-111628172D01*
X96734916Y-111500911D01*
X96626689Y-111392684D01*
X96499428Y-111307651D01*
X96358023Y-111249079D01*
X96207908Y-111219220D01*
X96054852Y-111219220D01*
X95904737Y-111249079D01*
X95878824Y-111259813D01*
X95878824Y-111152612D01*
X104723000Y-111152612D01*
X104723000Y-111305668D01*
X104752859Y-111455783D01*
X104811431Y-111597188D01*
X104896464Y-111724449D01*
X105004691Y-111832676D01*
X105131952Y-111917709D01*
X105273357Y-111976281D01*
X105423472Y-112006140D01*
X105576528Y-112006140D01*
X105726643Y-111976281D01*
X105868048Y-111917709D01*
X105995309Y-111832676D01*
X106071845Y-111756140D01*
X108056199Y-111756140D01*
X108082080Y-111758689D01*
X108107961Y-111756140D01*
X108185390Y-111748514D01*
X108284730Y-111718379D01*
X108376282Y-111669444D01*
X108430373Y-111625052D01*
X117863860Y-111625052D01*
X117863860Y-111778108D01*
X117893719Y-111928223D01*
X117952291Y-112069628D01*
X118037324Y-112196889D01*
X118145551Y-112305116D01*
X118272812Y-112390149D01*
X118414217Y-112448721D01*
X118564332Y-112478580D01*
X118717388Y-112478580D01*
X118867503Y-112448721D01*
X119008908Y-112390149D01*
X119136169Y-112305116D01*
X119244396Y-112196889D01*
X119329429Y-112069628D01*
X119388001Y-111928223D01*
X119417860Y-111778108D01*
X119417860Y-111625052D01*
X119388001Y-111474937D01*
X119329429Y-111333532D01*
X119244396Y-111206271D01*
X119167860Y-111129735D01*
X119167860Y-111119592D01*
X145351740Y-111119592D01*
X145351740Y-111272648D01*
X145381599Y-111422763D01*
X145440171Y-111564168D01*
X145525204Y-111691429D01*
X145633431Y-111799656D01*
X145760692Y-111884689D01*
X145902097Y-111943261D01*
X146052212Y-111973120D01*
X146205268Y-111973120D01*
X146355383Y-111943261D01*
X146496788Y-111884689D01*
X146624049Y-111799656D01*
X146732276Y-111691429D01*
X146817309Y-111564168D01*
X146875881Y-111422763D01*
X146897501Y-111314070D01*
X149166514Y-109045057D01*
X149190441Y-109025421D01*
X149268793Y-108929948D01*
X149279170Y-108910535D01*
X149327015Y-108821024D01*
X149362867Y-108702833D01*
X149374973Y-108579920D01*
X149371940Y-108549126D01*
X149371940Y-108078460D01*
X163449396Y-108078460D01*
X163449396Y-108578460D01*
X163461479Y-108701137D01*
X163497262Y-108819101D01*
X163555372Y-108927816D01*
X163633574Y-109023106D01*
X163728864Y-109101308D01*
X163837579Y-109159418D01*
X163955543Y-109195201D01*
X164078220Y-109207284D01*
X165578220Y-109207284D01*
X165700897Y-109195201D01*
X165818861Y-109159418D01*
X165927576Y-109101308D01*
X166022866Y-109023106D01*
X166101068Y-108927816D01*
X166159178Y-108819101D01*
X166166368Y-108795398D01*
X167077580Y-108795398D01*
X167077580Y-109019762D01*
X167121351Y-109239814D01*
X167207211Y-109447099D01*
X167331861Y-109633650D01*
X167490510Y-109792299D01*
X167677061Y-109916949D01*
X167884346Y-110002809D01*
X168104398Y-110046580D01*
X168328762Y-110046580D01*
X168548814Y-110002809D01*
X168756099Y-109916949D01*
X168942650Y-109792299D01*
X169101299Y-109633650D01*
X169225949Y-109447099D01*
X169311809Y-109239814D01*
X169355580Y-109019762D01*
X169355580Y-108795398D01*
X169311809Y-108575346D01*
X169225949Y-108368061D01*
X169101299Y-108181510D01*
X168942650Y-108022861D01*
X168756099Y-107898211D01*
X168548814Y-107812351D01*
X168328762Y-107768580D01*
X168104398Y-107768580D01*
X167884346Y-107812351D01*
X167677061Y-107898211D01*
X167490510Y-108022861D01*
X167331861Y-108181510D01*
X167207211Y-108368061D01*
X167121351Y-108575346D01*
X167077580Y-108795398D01*
X166166368Y-108795398D01*
X166194961Y-108701137D01*
X166207044Y-108578460D01*
X166207044Y-108078460D01*
X166194961Y-107955783D01*
X166159178Y-107837819D01*
X166101068Y-107729104D01*
X166022866Y-107633814D01*
X165927576Y-107555612D01*
X165818861Y-107497502D01*
X165700897Y-107461719D01*
X165578220Y-107449636D01*
X165481235Y-107449636D01*
X166675473Y-106255398D01*
X167077580Y-106255398D01*
X167077580Y-106479762D01*
X167121351Y-106699814D01*
X167207211Y-106907099D01*
X167331861Y-107093650D01*
X167490510Y-107252299D01*
X167677061Y-107376949D01*
X167884346Y-107462809D01*
X168104398Y-107506580D01*
X168328762Y-107506580D01*
X168548814Y-107462809D01*
X168756099Y-107376949D01*
X168942650Y-107252299D01*
X169101299Y-107093650D01*
X169225949Y-106907099D01*
X169311809Y-106699814D01*
X169355580Y-106479762D01*
X169355580Y-106255398D01*
X169311809Y-106035346D01*
X169225949Y-105828061D01*
X169101299Y-105641510D01*
X168942650Y-105482861D01*
X168756099Y-105358211D01*
X168548814Y-105272351D01*
X168328762Y-105228580D01*
X168104398Y-105228580D01*
X167884346Y-105272351D01*
X167677061Y-105358211D01*
X167490510Y-105482861D01*
X167331861Y-105641510D01*
X167207211Y-105828061D01*
X167121351Y-106035346D01*
X167077580Y-106255398D01*
X166675473Y-106255398D01*
X167987537Y-104943335D01*
X168104398Y-104966580D01*
X168328762Y-104966580D01*
X168548814Y-104922809D01*
X168756099Y-104836949D01*
X168942650Y-104712299D01*
X169101299Y-104553650D01*
X169225949Y-104367099D01*
X169311809Y-104159814D01*
X169355580Y-103939762D01*
X169355580Y-103715398D01*
X169311809Y-103495346D01*
X169225949Y-103288061D01*
X169101299Y-103101510D01*
X168942650Y-102942861D01*
X168756099Y-102818211D01*
X168548814Y-102732351D01*
X168328762Y-102688580D01*
X168104398Y-102688580D01*
X167884346Y-102732351D01*
X167677061Y-102818211D01*
X167490510Y-102942861D01*
X167331861Y-103101510D01*
X167207211Y-103288061D01*
X167121351Y-103495346D01*
X167077580Y-103715398D01*
X167077580Y-103939762D01*
X167100825Y-104056623D01*
X164406643Y-106750806D01*
X164382720Y-106770439D01*
X164304368Y-106865912D01*
X164282353Y-106907099D01*
X164246146Y-106974837D01*
X164210293Y-107093028D01*
X164198187Y-107215940D01*
X164201221Y-107246744D01*
X164201221Y-107449636D01*
X164078220Y-107449636D01*
X163955543Y-107461719D01*
X163837579Y-107497502D01*
X163728864Y-107555612D01*
X163633574Y-107633814D01*
X163555372Y-107729104D01*
X163497262Y-107837819D01*
X163461479Y-107955783D01*
X163449396Y-108078460D01*
X149371940Y-108078460D01*
X149371940Y-107770113D01*
X149433509Y-107677968D01*
X149492081Y-107536563D01*
X149521940Y-107386448D01*
X149521940Y-107233392D01*
X149492081Y-107083277D01*
X149433509Y-106941872D01*
X149348476Y-106814611D01*
X149240249Y-106706384D01*
X149112988Y-106621351D01*
X148971583Y-106562779D01*
X148821468Y-106532920D01*
X148668412Y-106532920D01*
X148518297Y-106562779D01*
X148376892Y-106621351D01*
X148249631Y-106706384D01*
X148141404Y-106814611D01*
X148056371Y-106941872D01*
X147997799Y-107083277D01*
X147967940Y-107233392D01*
X147967940Y-107386448D01*
X147997799Y-107536563D01*
X148056371Y-107677968D01*
X148117941Y-107770114D01*
X148117940Y-108320209D01*
X146010790Y-110427359D01*
X145902097Y-110448979D01*
X145760692Y-110507551D01*
X145633431Y-110592584D01*
X145525204Y-110700811D01*
X145440171Y-110828072D01*
X145381599Y-110969477D01*
X145351740Y-111119592D01*
X119167860Y-111119592D01*
X119167860Y-109944245D01*
X119249476Y-109862629D01*
X119334509Y-109735368D01*
X119393081Y-109593963D01*
X119422940Y-109443848D01*
X119422940Y-109290792D01*
X119393081Y-109140677D01*
X119334509Y-108999272D01*
X119249476Y-108872011D01*
X119141249Y-108763784D01*
X119013988Y-108678751D01*
X118872583Y-108620179D01*
X118722468Y-108590320D01*
X118569412Y-108590320D01*
X118419297Y-108620179D01*
X118277892Y-108678751D01*
X118150631Y-108763784D01*
X118042404Y-108872011D01*
X117957371Y-108999272D01*
X117898799Y-109140677D01*
X117868940Y-109290792D01*
X117868940Y-109443848D01*
X117898799Y-109593963D01*
X117957371Y-109735368D01*
X118042404Y-109862629D01*
X118113861Y-109934086D01*
X118113860Y-111129735D01*
X118037324Y-111206271D01*
X117952291Y-111333532D01*
X117893719Y-111474937D01*
X117863860Y-111625052D01*
X108430373Y-111625052D01*
X108456528Y-111603588D01*
X108473035Y-111583474D01*
X110775790Y-109280720D01*
X110884028Y-109280720D01*
X111034143Y-109250861D01*
X111175548Y-109192289D01*
X111302809Y-109107256D01*
X111411036Y-108999029D01*
X111496069Y-108871768D01*
X111554641Y-108730363D01*
X111584500Y-108580248D01*
X111584500Y-108427192D01*
X111554641Y-108277077D01*
X111496069Y-108135672D01*
X111411036Y-108008411D01*
X111302809Y-107900184D01*
X111175548Y-107815151D01*
X111034143Y-107756579D01*
X110884028Y-107726720D01*
X110730972Y-107726720D01*
X110580857Y-107756579D01*
X110439452Y-107815151D01*
X110312191Y-107900184D01*
X110203964Y-108008411D01*
X110118931Y-108135672D01*
X110078520Y-108233233D01*
X110038109Y-108135672D01*
X109953076Y-108008411D01*
X109844849Y-107900184D01*
X109717588Y-107815151D01*
X109576183Y-107756579D01*
X109426068Y-107726720D01*
X109273012Y-107726720D01*
X109122897Y-107756579D01*
X108981492Y-107815151D01*
X108854231Y-107900184D01*
X108746004Y-108008411D01*
X108660971Y-108135672D01*
X108602399Y-108277077D01*
X108572540Y-108427192D01*
X108572540Y-108535430D01*
X107833311Y-109274660D01*
X107795405Y-109274660D01*
X107718869Y-109198124D01*
X107591608Y-109113091D01*
X107450203Y-109054519D01*
X107300088Y-109024660D01*
X107147032Y-109024660D01*
X106996917Y-109054519D01*
X106855512Y-109113091D01*
X106728251Y-109198124D01*
X106620024Y-109306351D01*
X106534991Y-109433612D01*
X106476419Y-109575017D01*
X106446560Y-109725132D01*
X106446560Y-109878188D01*
X106476419Y-110028303D01*
X106534991Y-110169708D01*
X106620024Y-110296969D01*
X106728251Y-110405196D01*
X106855512Y-110490229D01*
X106996917Y-110548801D01*
X107147032Y-110578660D01*
X107300088Y-110578660D01*
X107450203Y-110548801D01*
X107591608Y-110490229D01*
X107718869Y-110405196D01*
X107795405Y-110328660D01*
X108025719Y-110328660D01*
X108051600Y-110331209D01*
X108077481Y-110328660D01*
X108154910Y-110321034D01*
X108254250Y-110290899D01*
X108298894Y-110267036D01*
X107863791Y-110702140D01*
X106071845Y-110702140D01*
X105995309Y-110625604D01*
X105868048Y-110540571D01*
X105726643Y-110481999D01*
X105576528Y-110452140D01*
X105423472Y-110452140D01*
X105273357Y-110481999D01*
X105131952Y-110540571D01*
X105004691Y-110625604D01*
X104896464Y-110733831D01*
X104811431Y-110861092D01*
X104752859Y-111002497D01*
X104723000Y-111152612D01*
X95878824Y-111152612D01*
X95878824Y-109900000D01*
X95871545Y-109826095D01*
X95849988Y-109755030D01*
X95814981Y-109689537D01*
X95767869Y-109632131D01*
X95710463Y-109585019D01*
X95644970Y-109550012D01*
X95573905Y-109528455D01*
X95500000Y-109521176D01*
X92500000Y-109521176D01*
X92426095Y-109528455D01*
X92355030Y-109550012D01*
X92289537Y-109585019D01*
X92232131Y-109632131D01*
X92185019Y-109689537D01*
X92150012Y-109755030D01*
X92128455Y-109826095D01*
X92121176Y-109900000D01*
X92121176Y-111742112D01*
X91232050Y-112631239D01*
X91123357Y-112652859D01*
X90981952Y-112711431D01*
X90854691Y-112796464D01*
X90746464Y-112904691D01*
X90661431Y-113031952D01*
X90627000Y-113115076D01*
X90627000Y-107891252D01*
X101496100Y-107891252D01*
X101496100Y-108044308D01*
X101525959Y-108194423D01*
X101584531Y-108335828D01*
X101669564Y-108463089D01*
X101777791Y-108571316D01*
X101905052Y-108656349D01*
X102046457Y-108714921D01*
X102196572Y-108744780D01*
X102349628Y-108744780D01*
X102499743Y-108714921D01*
X102641148Y-108656349D01*
X102768409Y-108571316D01*
X102876636Y-108463089D01*
X102961669Y-108335828D01*
X103020241Y-108194423D01*
X103050100Y-108044308D01*
X103050100Y-107891252D01*
X103020241Y-107741137D01*
X102961669Y-107599732D01*
X102900100Y-107507587D01*
X102900100Y-102716774D01*
X102964209Y-102620828D01*
X103022781Y-102479423D01*
X103052640Y-102329308D01*
X103052640Y-102176252D01*
X103022781Y-102026137D01*
X102964209Y-101884732D01*
X102879176Y-101757471D01*
X102770949Y-101649244D01*
X102643688Y-101564211D01*
X102502283Y-101505639D01*
X102352168Y-101475780D01*
X102199112Y-101475780D01*
X102048997Y-101505639D01*
X101907592Y-101564211D01*
X101780331Y-101649244D01*
X101672104Y-101757471D01*
X101587071Y-101884732D01*
X101528499Y-102026137D01*
X101498640Y-102176252D01*
X101498640Y-102329308D01*
X101528499Y-102479423D01*
X101587071Y-102620828D01*
X101646101Y-102709172D01*
X101646100Y-103256393D01*
X101646101Y-103256403D01*
X101646100Y-107507587D01*
X101584531Y-107599732D01*
X101525959Y-107741137D01*
X101496100Y-107891252D01*
X90627000Y-107891252D01*
X90627000Y-97931912D01*
X91927920Y-97931912D01*
X91927920Y-98084968D01*
X91957779Y-98235083D01*
X92016351Y-98376488D01*
X92077921Y-98468634D01*
X92077920Y-98768717D01*
X92016351Y-98860862D01*
X91957779Y-99002267D01*
X91927920Y-99152382D01*
X91927920Y-99305438D01*
X91957779Y-99455553D01*
X92016351Y-99596958D01*
X92077921Y-99689104D01*
X92077920Y-99989187D01*
X92016351Y-100081332D01*
X91957779Y-100222737D01*
X91927920Y-100372852D01*
X91927920Y-100525908D01*
X91957779Y-100676023D01*
X92016351Y-100817428D01*
X92101384Y-100944689D01*
X92153560Y-100996865D01*
X92181067Y-101048327D01*
X92259419Y-101143801D01*
X92283347Y-101163438D01*
X92592842Y-101472933D01*
X92612479Y-101496861D01*
X92707952Y-101575213D01*
X92816877Y-101633435D01*
X92899214Y-101658411D01*
X92935066Y-101669287D01*
X93057979Y-101681393D01*
X93088773Y-101678360D01*
X95754848Y-101678360D01*
X95785642Y-101681393D01*
X95816436Y-101678360D01*
X95908555Y-101669287D01*
X96026745Y-101633435D01*
X96135670Y-101575213D01*
X96231143Y-101496861D01*
X96250780Y-101472933D01*
X96957214Y-100766500D01*
X98028307Y-100766500D01*
X98120452Y-100828069D01*
X98261857Y-100886641D01*
X98411972Y-100916500D01*
X98565028Y-100916500D01*
X98715143Y-100886641D01*
X98856548Y-100828069D01*
X98948693Y-100766500D01*
X99161147Y-100766500D01*
X99253292Y-100828069D01*
X99394697Y-100886641D01*
X99544812Y-100916500D01*
X99697868Y-100916500D01*
X99847983Y-100886641D01*
X99989388Y-100828069D01*
X100081533Y-100766500D01*
X100293987Y-100766500D01*
X100386132Y-100828069D01*
X100527537Y-100886641D01*
X100677652Y-100916500D01*
X100830708Y-100916500D01*
X100980823Y-100886641D01*
X101122228Y-100828069D01*
X101249489Y-100743036D01*
X101357716Y-100634809D01*
X101442749Y-100507548D01*
X101479604Y-100418572D01*
X105651540Y-100418572D01*
X105651540Y-100571628D01*
X105681399Y-100721743D01*
X105739971Y-100863148D01*
X105825004Y-100990409D01*
X105933231Y-101098636D01*
X106060492Y-101183669D01*
X106201897Y-101242241D01*
X106352012Y-101272100D01*
X106505068Y-101272100D01*
X106655183Y-101242241D01*
X106796588Y-101183669D01*
X106888733Y-101122100D01*
X107103865Y-101122100D01*
X107207302Y-101191214D01*
X107348707Y-101249786D01*
X107498822Y-101279645D01*
X107651878Y-101279645D01*
X107781491Y-101253864D01*
X107727464Y-101307891D01*
X107642431Y-101435152D01*
X107583859Y-101576557D01*
X107554000Y-101726672D01*
X107554000Y-101879728D01*
X107583859Y-102029843D01*
X107642431Y-102171248D01*
X107727464Y-102298509D01*
X107835691Y-102406736D01*
X107962952Y-102491769D01*
X108104357Y-102550341D01*
X108254472Y-102580200D01*
X108407528Y-102580200D01*
X108557643Y-102550341D01*
X108699048Y-102491769D01*
X108826309Y-102406736D01*
X108934536Y-102298509D01*
X109019569Y-102171248D01*
X109077993Y-102030201D01*
X116821204Y-102030201D01*
X116911372Y-102090449D01*
X117052777Y-102149021D01*
X117202892Y-102178880D01*
X117355948Y-102178880D01*
X117506063Y-102149021D01*
X117647468Y-102090449D01*
X117774729Y-102005416D01*
X117882956Y-101897189D01*
X117967989Y-101769928D01*
X118026561Y-101628523D01*
X118056420Y-101478408D01*
X118056420Y-101325352D01*
X118044892Y-101267395D01*
X118157932Y-101289880D01*
X118310988Y-101289880D01*
X118461103Y-101260021D01*
X118602508Y-101201449D01*
X118694653Y-101139880D01*
X119229687Y-101139880D01*
X119321832Y-101201449D01*
X119463237Y-101260021D01*
X119613352Y-101289880D01*
X119766408Y-101289880D01*
X119916523Y-101260021D01*
X120057928Y-101201449D01*
X120150073Y-101139880D01*
X120685107Y-101139880D01*
X120777252Y-101201449D01*
X120918657Y-101260021D01*
X121068772Y-101289880D01*
X121221828Y-101289880D01*
X121371943Y-101260021D01*
X121513348Y-101201449D01*
X121640609Y-101116416D01*
X121748836Y-101008189D01*
X121833869Y-100880928D01*
X121892441Y-100739523D01*
X121922300Y-100589408D01*
X121922300Y-100436352D01*
X121892441Y-100286237D01*
X121833869Y-100144832D01*
X121748836Y-100017571D01*
X121640609Y-99909344D01*
X121513348Y-99824311D01*
X121371943Y-99765739D01*
X121221828Y-99735880D01*
X121068772Y-99735880D01*
X120918657Y-99765739D01*
X120777252Y-99824311D01*
X120685107Y-99885880D01*
X120150073Y-99885880D01*
X120057928Y-99824311D01*
X119916523Y-99765739D01*
X119766408Y-99735880D01*
X119613352Y-99735880D01*
X119463237Y-99765739D01*
X119321832Y-99824311D01*
X119229687Y-99885880D01*
X118694653Y-99885880D01*
X118602508Y-99824311D01*
X118461103Y-99765739D01*
X118310988Y-99735880D01*
X118157932Y-99735880D01*
X118007817Y-99765739D01*
X117866412Y-99824311D01*
X117774267Y-99885880D01*
X109186154Y-99885880D01*
X109090208Y-99821771D01*
X108948803Y-99763199D01*
X108798688Y-99733340D01*
X108645632Y-99733340D01*
X108495517Y-99763199D01*
X108354112Y-99821771D01*
X108273484Y-99875645D01*
X108035543Y-99875645D01*
X107943398Y-99814076D01*
X107801993Y-99755504D01*
X107651878Y-99725645D01*
X107498822Y-99725645D01*
X107348707Y-99755504D01*
X107207302Y-99814076D01*
X107126449Y-99868100D01*
X106888733Y-99868100D01*
X106796588Y-99806531D01*
X106655183Y-99747959D01*
X106505068Y-99718100D01*
X106352012Y-99718100D01*
X106201897Y-99747959D01*
X106060492Y-99806531D01*
X105933231Y-99891564D01*
X105825004Y-99999791D01*
X105739971Y-100127052D01*
X105681399Y-100268457D01*
X105651540Y-100418572D01*
X101479604Y-100418572D01*
X101501321Y-100366143D01*
X101531180Y-100216028D01*
X101531180Y-100062972D01*
X101501321Y-99912857D01*
X101442749Y-99771452D01*
X101357716Y-99644191D01*
X101249489Y-99535964D01*
X101122228Y-99450931D01*
X100980823Y-99392359D01*
X100830708Y-99362500D01*
X100677652Y-99362500D01*
X100527537Y-99392359D01*
X100386132Y-99450931D01*
X100293987Y-99512500D01*
X100081533Y-99512500D01*
X99989388Y-99450931D01*
X99847983Y-99392359D01*
X99697868Y-99362500D01*
X99544812Y-99362500D01*
X99394697Y-99392359D01*
X99253292Y-99450931D01*
X99161147Y-99512500D01*
X98948693Y-99512500D01*
X98856548Y-99450931D01*
X98715143Y-99392359D01*
X98565028Y-99362500D01*
X98411972Y-99362500D01*
X98261857Y-99392359D01*
X98120452Y-99450931D01*
X98028307Y-99512500D01*
X96728296Y-99512500D01*
X96697502Y-99509467D01*
X96666708Y-99512500D01*
X96574589Y-99521573D01*
X96456399Y-99557425D01*
X96347474Y-99615647D01*
X96252001Y-99693999D01*
X96232368Y-99717922D01*
X95525931Y-100424360D01*
X93481920Y-100424360D01*
X93481920Y-100372852D01*
X93452061Y-100222737D01*
X93393489Y-100081332D01*
X93331920Y-99989187D01*
X93331920Y-99689103D01*
X93393489Y-99596958D01*
X93452061Y-99455553D01*
X93481920Y-99305438D01*
X93481920Y-99152382D01*
X93452061Y-99002267D01*
X93393489Y-98860862D01*
X93331920Y-98768717D01*
X93331920Y-98468633D01*
X93393489Y-98376488D01*
X93452061Y-98235083D01*
X93481920Y-98084968D01*
X93481920Y-97931912D01*
X93452061Y-97781797D01*
X93393489Y-97640392D01*
X93308456Y-97513131D01*
X93200229Y-97404904D01*
X93072968Y-97319871D01*
X92931563Y-97261299D01*
X92781448Y-97231440D01*
X92628392Y-97231440D01*
X92478277Y-97261299D01*
X92336872Y-97319871D01*
X92209611Y-97404904D01*
X92101384Y-97513131D01*
X92016351Y-97640392D01*
X91957779Y-97781797D01*
X91927920Y-97931912D01*
X90627000Y-97931912D01*
X90627000Y-93573472D01*
X108073000Y-93573472D01*
X108073000Y-93726528D01*
X108102859Y-93876643D01*
X108161431Y-94018048D01*
X108246464Y-94145309D01*
X108354691Y-94253536D01*
X108481952Y-94338569D01*
X108623357Y-94397141D01*
X108773472Y-94427000D01*
X108881711Y-94427000D01*
X111559049Y-97104339D01*
X111575552Y-97124448D01*
X111638476Y-97176088D01*
X111655798Y-97190304D01*
X111747350Y-97239239D01*
X111846690Y-97269374D01*
X111949999Y-97279549D01*
X111975880Y-97277000D01*
X114824696Y-97277000D01*
X114917874Y-97370179D01*
X114861431Y-97454652D01*
X114802859Y-97596057D01*
X114773000Y-97746172D01*
X114773000Y-97899228D01*
X114802859Y-98049343D01*
X114861431Y-98190748D01*
X114946464Y-98318009D01*
X115054691Y-98426236D01*
X115181952Y-98511269D01*
X115323357Y-98569841D01*
X115473472Y-98599700D01*
X115626528Y-98599700D01*
X115776643Y-98569841D01*
X115918048Y-98511269D01*
X116045309Y-98426236D01*
X116153536Y-98318009D01*
X116238569Y-98190748D01*
X116297141Y-98049343D01*
X116327000Y-97899228D01*
X116327000Y-97746172D01*
X116297141Y-97596057D01*
X116238569Y-97454652D01*
X116153536Y-97327391D01*
X116079155Y-97253010D01*
X116073203Y-97192585D01*
X116069374Y-97153705D01*
X116039239Y-97054365D01*
X115990304Y-96962813D01*
X115924448Y-96882567D01*
X115904339Y-96866064D01*
X115433940Y-96395666D01*
X115417433Y-96375552D01*
X115337187Y-96309696D01*
X115245635Y-96260761D01*
X115146295Y-96230626D01*
X115068866Y-96223000D01*
X115042985Y-96220451D01*
X115017104Y-96223000D01*
X112168290Y-96223000D01*
X111294272Y-95348982D01*
X139456160Y-95348982D01*
X139463481Y-95423389D01*
X139485162Y-95494862D01*
X139520370Y-95560732D01*
X139567752Y-95618468D01*
X139625488Y-95665850D01*
X139691358Y-95701058D01*
X139762831Y-95722739D01*
X139837160Y-95730060D01*
X143309340Y-95730060D01*
X143383593Y-95722754D01*
X143455070Y-95701088D01*
X143520947Y-95665893D01*
X143578692Y-95618523D01*
X143626086Y-95560797D01*
X143661308Y-95494935D01*
X143683004Y-95423466D01*
X143690340Y-95349138D01*
X143691055Y-91866720D01*
X148156971Y-91866720D01*
X148159521Y-91892611D01*
X148159520Y-95627979D01*
X148156971Y-95653860D01*
X148159520Y-95679740D01*
X148167146Y-95757169D01*
X148197281Y-95856509D01*
X148246216Y-95948062D01*
X148312072Y-96028308D01*
X148332186Y-96044815D01*
X149219536Y-96932166D01*
X149219536Y-97026640D01*
X149231138Y-97144440D01*
X149265499Y-97257713D01*
X149321299Y-97362107D01*
X149396392Y-97453608D01*
X149487893Y-97528701D01*
X149592287Y-97584501D01*
X149705560Y-97618862D01*
X149823360Y-97630464D01*
X150323360Y-97630464D01*
X150441160Y-97618862D01*
X150554433Y-97584501D01*
X150658827Y-97528701D01*
X150750328Y-97453608D01*
X150825421Y-97362107D01*
X150881221Y-97257713D01*
X150915582Y-97144440D01*
X150927184Y-97026640D01*
X150927184Y-96576640D01*
X150915582Y-96458840D01*
X150881221Y-96345567D01*
X150825421Y-96241173D01*
X150750328Y-96149672D01*
X150658827Y-96074579D01*
X150554433Y-96018779D01*
X150441160Y-95984418D01*
X150323360Y-95972816D01*
X149823360Y-95972816D01*
X149757274Y-95979325D01*
X149213520Y-95435571D01*
X149213520Y-94437376D01*
X149220978Y-94513100D01*
X149255339Y-94626373D01*
X149311139Y-94730767D01*
X149386232Y-94822268D01*
X149477733Y-94897361D01*
X149582127Y-94953161D01*
X149695400Y-94987522D01*
X149813200Y-94999124D01*
X150313200Y-94999124D01*
X150431000Y-94987522D01*
X150544273Y-94953161D01*
X150648667Y-94897361D01*
X150740168Y-94822268D01*
X150760659Y-94797300D01*
X151831080Y-94797300D01*
X151869520Y-94828847D01*
X151869521Y-96095508D01*
X151822092Y-96134432D01*
X151746999Y-96225933D01*
X151691199Y-96330327D01*
X151656838Y-96443600D01*
X151645236Y-96561400D01*
X151645236Y-97011400D01*
X151656838Y-97129200D01*
X151691199Y-97242473D01*
X151746999Y-97346867D01*
X151822092Y-97438368D01*
X151913593Y-97513461D01*
X152017987Y-97569261D01*
X152131260Y-97603622D01*
X152249060Y-97615224D01*
X152749060Y-97615224D01*
X152866860Y-97603622D01*
X152980133Y-97569261D01*
X153084527Y-97513461D01*
X153176028Y-97438368D01*
X153196519Y-97413400D01*
X156701366Y-97413400D01*
X156732160Y-97416433D01*
X156762954Y-97413400D01*
X156855073Y-97404327D01*
X156973263Y-97368475D01*
X157082188Y-97310253D01*
X157177661Y-97231901D01*
X157197298Y-97207973D01*
X159642288Y-94762984D01*
X161084400Y-94762984D01*
X161158305Y-94755705D01*
X161229370Y-94734148D01*
X161294863Y-94699141D01*
X161352269Y-94652029D01*
X161399381Y-94594623D01*
X161434388Y-94529130D01*
X161455945Y-94458065D01*
X161463224Y-94384160D01*
X161463224Y-92834160D01*
X161455945Y-92760255D01*
X161434388Y-92689190D01*
X161399381Y-92623697D01*
X161352269Y-92566291D01*
X161294863Y-92519179D01*
X161229370Y-92484172D01*
X161158305Y-92462615D01*
X161084400Y-92455336D01*
X160536400Y-92455336D01*
X160536400Y-90242271D01*
X160575651Y-90203020D01*
X161008060Y-90203020D01*
X161082389Y-90195699D01*
X161153862Y-90174018D01*
X161219732Y-90138810D01*
X161277468Y-90091428D01*
X161324850Y-90033692D01*
X161347920Y-89990530D01*
X161381056Y-90023665D01*
X161381056Y-90357200D01*
X161392658Y-90475000D01*
X161427019Y-90588273D01*
X161482819Y-90692667D01*
X161557912Y-90784168D01*
X161649413Y-90859261D01*
X161753807Y-90915061D01*
X161867080Y-90949422D01*
X161984880Y-90961024D01*
X162484880Y-90961024D01*
X162602680Y-90949422D01*
X162715953Y-90915061D01*
X162820347Y-90859261D01*
X162911848Y-90784168D01*
X162986941Y-90692667D01*
X163042741Y-90588273D01*
X163077102Y-90475000D01*
X163088704Y-90357200D01*
X163088704Y-89907200D01*
X163077102Y-89789400D01*
X163042741Y-89676127D01*
X162986941Y-89571733D01*
X162911848Y-89480232D01*
X162820347Y-89405139D01*
X162730660Y-89357200D01*
X162820347Y-89309261D01*
X162911848Y-89234168D01*
X162986941Y-89142667D01*
X163042741Y-89038273D01*
X163077102Y-88925000D01*
X163088704Y-88807200D01*
X163088704Y-88357200D01*
X163077102Y-88239400D01*
X163042741Y-88126127D01*
X162986941Y-88021733D01*
X162911848Y-87930232D01*
X162820347Y-87855139D01*
X162715953Y-87799339D01*
X162633080Y-87774200D01*
X162633080Y-87617789D01*
X163484176Y-88468886D01*
X163484176Y-88802420D01*
X163495778Y-88920220D01*
X163530139Y-89033493D01*
X163585939Y-89137887D01*
X163661032Y-89229388D01*
X163752533Y-89304481D01*
X163842220Y-89352420D01*
X163752533Y-89400359D01*
X163661032Y-89475452D01*
X163585939Y-89566953D01*
X163530139Y-89671347D01*
X163495778Y-89784620D01*
X163484176Y-89902420D01*
X163484176Y-90352420D01*
X163495778Y-90470220D01*
X163530139Y-90583493D01*
X163585939Y-90687887D01*
X163661032Y-90779388D01*
X163752533Y-90854481D01*
X163856927Y-90910281D01*
X163970200Y-90944642D01*
X164088000Y-90956244D01*
X164588000Y-90956244D01*
X164705800Y-90944642D01*
X164819073Y-90910281D01*
X164923467Y-90854481D01*
X165014968Y-90779388D01*
X165090061Y-90687887D01*
X165106863Y-90656453D01*
X165112100Y-90656969D01*
X165137981Y-90654420D01*
X165215410Y-90646794D01*
X165314750Y-90616659D01*
X165406302Y-90567724D01*
X165486548Y-90501868D01*
X165503055Y-90481754D01*
X166135059Y-89849751D01*
X166155168Y-89833248D01*
X166221024Y-89753002D01*
X166269959Y-89661450D01*
X166300094Y-89562110D01*
X166307720Y-89484681D01*
X166307720Y-89484679D01*
X166310269Y-89458801D01*
X166307720Y-89432923D01*
X166307720Y-88031801D01*
X166310269Y-88005920D01*
X166300094Y-87902610D01*
X166291805Y-87875284D01*
X166269959Y-87803270D01*
X166221024Y-87711718D01*
X166155168Y-87631472D01*
X166135064Y-87614973D01*
X165757655Y-87237566D01*
X165741148Y-87217452D01*
X165660902Y-87151596D01*
X165569350Y-87102661D01*
X165470010Y-87072526D01*
X165392581Y-87064900D01*
X165366700Y-87062351D01*
X165340819Y-87064900D01*
X164510571Y-87064900D01*
X164033080Y-86587411D01*
X164033080Y-86234797D01*
X164056068Y-86191790D01*
X164077625Y-86120725D01*
X164084904Y-86046820D01*
X164084904Y-84046820D01*
X164077625Y-83972915D01*
X164056068Y-83901850D01*
X164021061Y-83836357D01*
X163973949Y-83778951D01*
X163916543Y-83731839D01*
X163851050Y-83696832D01*
X163779985Y-83675275D01*
X163706080Y-83667996D01*
X163306080Y-83667996D01*
X163232175Y-83675275D01*
X163161110Y-83696832D01*
X163156080Y-83699521D01*
X163151050Y-83696832D01*
X163079985Y-83675275D01*
X163006080Y-83667996D01*
X162606080Y-83667996D01*
X162532175Y-83675275D01*
X162461110Y-83696832D01*
X162456080Y-83699521D01*
X162451050Y-83696832D01*
X162379985Y-83675275D01*
X162306080Y-83667996D01*
X161906080Y-83667996D01*
X161832175Y-83675275D01*
X161761110Y-83696832D01*
X161756080Y-83699521D01*
X161751050Y-83696832D01*
X161679985Y-83675275D01*
X161606080Y-83667996D01*
X161206080Y-83667996D01*
X161132175Y-83675275D01*
X161061110Y-83696832D01*
X161056080Y-83699521D01*
X161051050Y-83696832D01*
X160979985Y-83675275D01*
X160906080Y-83667996D01*
X160506080Y-83667996D01*
X160432175Y-83675275D01*
X160361110Y-83696832D01*
X160356080Y-83699521D01*
X160351050Y-83696832D01*
X160279985Y-83675275D01*
X160206080Y-83667996D01*
X159806080Y-83667996D01*
X159732175Y-83675275D01*
X159661110Y-83696832D01*
X159595617Y-83731839D01*
X159538211Y-83778951D01*
X159491099Y-83836357D01*
X159456092Y-83901850D01*
X159434535Y-83972915D01*
X159427256Y-84046820D01*
X159427256Y-86046820D01*
X159434535Y-86120725D01*
X159456092Y-86191790D01*
X159491099Y-86257283D01*
X159538211Y-86314689D01*
X159595617Y-86361801D01*
X159661110Y-86396808D01*
X159707236Y-86410800D01*
X159133080Y-86410800D01*
X159133080Y-86234797D01*
X159156068Y-86191790D01*
X159177625Y-86120725D01*
X159184904Y-86046820D01*
X159184904Y-84046820D01*
X159177625Y-83972915D01*
X159156068Y-83901850D01*
X159121061Y-83836357D01*
X159073949Y-83778951D01*
X159016543Y-83731839D01*
X158951050Y-83696832D01*
X158879985Y-83675275D01*
X158806080Y-83667996D01*
X158406080Y-83667996D01*
X158332175Y-83675275D01*
X158261110Y-83696832D01*
X158195617Y-83731839D01*
X158138211Y-83778951D01*
X158091099Y-83836357D01*
X158056092Y-83901850D01*
X158034535Y-83972915D01*
X158027256Y-84046820D01*
X158027256Y-86046820D01*
X158034535Y-86120725D01*
X158056092Y-86191790D01*
X158063708Y-86206039D01*
X157784904Y-85927235D01*
X157784904Y-84046820D01*
X157777625Y-83972915D01*
X157756068Y-83901850D01*
X157721061Y-83836357D01*
X157673949Y-83778951D01*
X157616543Y-83731839D01*
X157551050Y-83696832D01*
X157479985Y-83675275D01*
X157406080Y-83667996D01*
X157006080Y-83667996D01*
X156932175Y-83675275D01*
X156861110Y-83696832D01*
X156795617Y-83731839D01*
X156738211Y-83778951D01*
X156691099Y-83836357D01*
X156656092Y-83901850D01*
X156634535Y-83972915D01*
X156627256Y-84046820D01*
X156627256Y-86046820D01*
X156634535Y-86120725D01*
X156656092Y-86191790D01*
X156691099Y-86257283D01*
X156713136Y-86284135D01*
X156716841Y-86296349D01*
X156765776Y-86387902D01*
X156831632Y-86468148D01*
X156851746Y-86484655D01*
X157523180Y-87156090D01*
X157523180Y-89822020D01*
X157530501Y-89896349D01*
X157552182Y-89967822D01*
X157587390Y-90033692D01*
X157634772Y-90091428D01*
X157692508Y-90138810D01*
X157758378Y-90174018D01*
X157829851Y-90195699D01*
X157904180Y-90203020D01*
X159282401Y-90203020D01*
X159282400Y-92455336D01*
X158734400Y-92455336D01*
X158660495Y-92462615D01*
X158589430Y-92484172D01*
X158523937Y-92519179D01*
X158466531Y-92566291D01*
X158419419Y-92623697D01*
X158384412Y-92689190D01*
X158362855Y-92760255D01*
X158355576Y-92834160D01*
X158355576Y-94276272D01*
X156472449Y-96159400D01*
X153196519Y-96159400D01*
X153176028Y-96134432D01*
X153123520Y-96091340D01*
X153123520Y-94828847D01*
X153180810Y-94781830D01*
X153252795Y-94694117D01*
X153306284Y-94594046D01*
X153339222Y-94485463D01*
X153350344Y-94372540D01*
X153350344Y-93972540D01*
X153339222Y-93859617D01*
X153306284Y-93751034D01*
X153252795Y-93650963D01*
X153180810Y-93563250D01*
X153093097Y-93491265D01*
X152993026Y-93437776D01*
X152884443Y-93404838D01*
X152771520Y-93393716D01*
X152221520Y-93393716D01*
X152108597Y-93404838D01*
X152000014Y-93437776D01*
X151899943Y-93491265D01*
X151836539Y-93543300D01*
X150760659Y-93543300D01*
X150740168Y-93518332D01*
X150648667Y-93443239D01*
X150544273Y-93387439D01*
X150431000Y-93353078D01*
X150313200Y-93341476D01*
X149813200Y-93341476D01*
X149695400Y-93353078D01*
X149582127Y-93387439D01*
X149477733Y-93443239D01*
X149386232Y-93518332D01*
X149311139Y-93609833D01*
X149255339Y-93714227D01*
X149220978Y-93827500D01*
X149213520Y-93903224D01*
X149213520Y-92085009D01*
X149323910Y-91974620D01*
X151203311Y-91974620D01*
X151642696Y-92414006D01*
X151642696Y-92722540D01*
X151653818Y-92835463D01*
X151686756Y-92944046D01*
X151740245Y-93044117D01*
X151812230Y-93131830D01*
X151899943Y-93203815D01*
X152000014Y-93257304D01*
X152108597Y-93290242D01*
X152221520Y-93301364D01*
X152771520Y-93301364D01*
X152884443Y-93290242D01*
X152993026Y-93257304D01*
X153093097Y-93203815D01*
X153159231Y-93149540D01*
X154055576Y-93149540D01*
X154055576Y-94384160D01*
X154062855Y-94458065D01*
X154084412Y-94529130D01*
X154119419Y-94594623D01*
X154166531Y-94652029D01*
X154223937Y-94699141D01*
X154289430Y-94734148D01*
X154360495Y-94755705D01*
X154434400Y-94762984D01*
X156784400Y-94762984D01*
X156858305Y-94755705D01*
X156929370Y-94734148D01*
X156994863Y-94699141D01*
X157052269Y-94652029D01*
X157099381Y-94594623D01*
X157134388Y-94529130D01*
X157155945Y-94458065D01*
X157163224Y-94384160D01*
X157163224Y-92834160D01*
X157155945Y-92760255D01*
X157134388Y-92689190D01*
X157099381Y-92623697D01*
X157052269Y-92566291D01*
X156994863Y-92519179D01*
X156929370Y-92484172D01*
X156858305Y-92462615D01*
X156784400Y-92455336D01*
X156136400Y-92455336D01*
X156136400Y-87172121D01*
X156138949Y-87146240D01*
X156128774Y-87042930D01*
X156098639Y-86943590D01*
X156049704Y-86852038D01*
X155983848Y-86771792D01*
X155963739Y-86755289D01*
X155633080Y-86424631D01*
X155633080Y-86234797D01*
X155656068Y-86191790D01*
X155677625Y-86120725D01*
X155684904Y-86046820D01*
X155684904Y-84046820D01*
X155677625Y-83972915D01*
X155656068Y-83901850D01*
X155621061Y-83836357D01*
X155573949Y-83778951D01*
X155516543Y-83731839D01*
X155451050Y-83696832D01*
X155379985Y-83675275D01*
X155306080Y-83667996D01*
X154906080Y-83667996D01*
X154832175Y-83675275D01*
X154761110Y-83696832D01*
X154695617Y-83731839D01*
X154638211Y-83778951D01*
X154591099Y-83836357D01*
X154556092Y-83901850D01*
X154534535Y-83972915D01*
X154527256Y-84046820D01*
X154527256Y-86046820D01*
X154534535Y-86120725D01*
X154556092Y-86191790D01*
X154579080Y-86234798D01*
X154579080Y-86617036D01*
X154576531Y-86642920D01*
X154579080Y-86668800D01*
X154586706Y-86746229D01*
X154616841Y-86845569D01*
X154665776Y-86937122D01*
X154731632Y-87017368D01*
X154751746Y-87033875D01*
X155082400Y-87364530D01*
X155082401Y-92195450D01*
X154987918Y-92100967D01*
X154968281Y-92077039D01*
X154872808Y-91998687D01*
X154763883Y-91940465D01*
X154645693Y-91904613D01*
X154553574Y-91895540D01*
X154522780Y-91892507D01*
X154491986Y-91895540D01*
X153159231Y-91895540D01*
X153093097Y-91841265D01*
X152993026Y-91787776D01*
X152884443Y-91754838D01*
X152771520Y-91743716D01*
X152462986Y-91743716D01*
X151812555Y-91093286D01*
X151796048Y-91073172D01*
X151715802Y-91007316D01*
X151624250Y-90958381D01*
X151524910Y-90928246D01*
X151447481Y-90920620D01*
X151421600Y-90918071D01*
X151395719Y-90920620D01*
X149131501Y-90920620D01*
X149105620Y-90918071D01*
X149079739Y-90920620D01*
X149002310Y-90928246D01*
X148902970Y-90958381D01*
X148811418Y-91007316D01*
X148731172Y-91073172D01*
X148714669Y-91093281D01*
X148332181Y-91475769D01*
X148312073Y-91492272D01*
X148269506Y-91544140D01*
X148246216Y-91572519D01*
X148197281Y-91664071D01*
X148167146Y-91763411D01*
X148156971Y-91866720D01*
X143691055Y-91866720D01*
X143691610Y-89164238D01*
X143684289Y-89089831D01*
X143662608Y-89018358D01*
X143627400Y-88952488D01*
X143580018Y-88894752D01*
X143522282Y-88847370D01*
X143456412Y-88812162D01*
X143384939Y-88790481D01*
X143310610Y-88783160D01*
X139838430Y-88783160D01*
X139764177Y-88790466D01*
X139692700Y-88812132D01*
X139626823Y-88847327D01*
X139569078Y-88894697D01*
X139521684Y-88952423D01*
X139486462Y-89018285D01*
X139464766Y-89089754D01*
X139457430Y-89164082D01*
X139456160Y-95348982D01*
X111294272Y-95348982D01*
X109627000Y-93681711D01*
X109627000Y-93573472D01*
X109602988Y-93452751D01*
X115409800Y-93452751D01*
X115409800Y-93694449D01*
X115456953Y-93931503D01*
X115549447Y-94154802D01*
X115683727Y-94355767D01*
X115854633Y-94526673D01*
X116055598Y-94660953D01*
X116278897Y-94753447D01*
X116515951Y-94800600D01*
X116757649Y-94800600D01*
X116994703Y-94753447D01*
X117218002Y-94660953D01*
X117418967Y-94526673D01*
X117589873Y-94355767D01*
X117724153Y-94154802D01*
X117816647Y-93931503D01*
X117863800Y-93694449D01*
X117863800Y-93452751D01*
X117816647Y-93215697D01*
X117724153Y-92992398D01*
X117589873Y-92791433D01*
X117418967Y-92620527D01*
X117218002Y-92486247D01*
X117089000Y-92432812D01*
X129072880Y-92432812D01*
X129072880Y-92585868D01*
X129102739Y-92735983D01*
X129161311Y-92877388D01*
X129246344Y-93004649D01*
X129354571Y-93112876D01*
X129481832Y-93197909D01*
X129623237Y-93256481D01*
X129773352Y-93286340D01*
X129926408Y-93286340D01*
X130076523Y-93256481D01*
X130217928Y-93197909D01*
X130310073Y-93136340D01*
X131652966Y-93136340D01*
X131683760Y-93139373D01*
X131714554Y-93136340D01*
X131806673Y-93127267D01*
X131924863Y-93091415D01*
X132033788Y-93033193D01*
X132129261Y-92954841D01*
X132148898Y-92930913D01*
X134067951Y-91011861D01*
X134176643Y-90990241D01*
X134318048Y-90931669D01*
X134445309Y-90846636D01*
X134553536Y-90738409D01*
X134638569Y-90611148D01*
X134697141Y-90469743D01*
X134727000Y-90319628D01*
X134727000Y-90166572D01*
X134697141Y-90016457D01*
X134638569Y-89875052D01*
X134553536Y-89747791D01*
X134445309Y-89639564D01*
X134318048Y-89554531D01*
X134176643Y-89495959D01*
X134026528Y-89466100D01*
X133873472Y-89466100D01*
X133723357Y-89495959D01*
X133581952Y-89554531D01*
X133454691Y-89639564D01*
X133346464Y-89747791D01*
X133261431Y-89875052D01*
X133202859Y-90016457D01*
X133181239Y-90125149D01*
X131424049Y-91882340D01*
X130310073Y-91882340D01*
X130217928Y-91820771D01*
X130076523Y-91762199D01*
X129926408Y-91732340D01*
X129773352Y-91732340D01*
X129623237Y-91762199D01*
X129481832Y-91820771D01*
X129354571Y-91905804D01*
X129246344Y-92014031D01*
X129161311Y-92141292D01*
X129102739Y-92282697D01*
X129072880Y-92432812D01*
X117089000Y-92432812D01*
X116994703Y-92393753D01*
X116757649Y-92346600D01*
X116515951Y-92346600D01*
X116278897Y-92393753D01*
X116055598Y-92486247D01*
X115854633Y-92620527D01*
X115683727Y-92791433D01*
X115549447Y-92992398D01*
X115456953Y-93215697D01*
X115409800Y-93452751D01*
X109602988Y-93452751D01*
X109597141Y-93423357D01*
X109538569Y-93281952D01*
X109453536Y-93154691D01*
X109345309Y-93046464D01*
X109218048Y-92961431D01*
X109076643Y-92902859D01*
X108926528Y-92873000D01*
X108773472Y-92873000D01*
X108623357Y-92902859D01*
X108481952Y-92961431D01*
X108354691Y-93046464D01*
X108246464Y-93154691D01*
X108161431Y-93281952D01*
X108102859Y-93423357D01*
X108073000Y-93573472D01*
X90627000Y-93573472D01*
X90627000Y-89973472D01*
X97873000Y-89973472D01*
X97873000Y-90126528D01*
X97902859Y-90276643D01*
X97961431Y-90418048D01*
X98023001Y-90510194D01*
X98023000Y-92039807D01*
X97961431Y-92131952D01*
X97902859Y-92273357D01*
X97873000Y-92423472D01*
X97873000Y-92576528D01*
X97902859Y-92726643D01*
X97961431Y-92868048D01*
X98046464Y-92995309D01*
X98154691Y-93103536D01*
X98281952Y-93188569D01*
X98423357Y-93247141D01*
X98573472Y-93277000D01*
X98726528Y-93277000D01*
X98876643Y-93247141D01*
X99018048Y-93188569D01*
X99145309Y-93103536D01*
X99253536Y-92995309D01*
X99338569Y-92868048D01*
X99397141Y-92726643D01*
X99427000Y-92576528D01*
X99427000Y-92423472D01*
X99397141Y-92273357D01*
X99338569Y-92131952D01*
X99277000Y-92039807D01*
X99277000Y-90510193D01*
X99338569Y-90418048D01*
X99397141Y-90276643D01*
X99415647Y-90183600D01*
X115407976Y-90183600D01*
X115407976Y-91883600D01*
X115415255Y-91957505D01*
X115436812Y-92028570D01*
X115471819Y-92094063D01*
X115518931Y-92151469D01*
X115576337Y-92198581D01*
X115641830Y-92233588D01*
X115712895Y-92255145D01*
X115786800Y-92262424D01*
X117486800Y-92262424D01*
X117560705Y-92255145D01*
X117631770Y-92233588D01*
X117697263Y-92198581D01*
X117754669Y-92151469D01*
X117801781Y-92094063D01*
X117836788Y-92028570D01*
X117858345Y-91957505D01*
X117865624Y-91883600D01*
X117865624Y-91467612D01*
X123949700Y-91467612D01*
X123949700Y-91620668D01*
X123979559Y-91770783D01*
X124038131Y-91912188D01*
X124123164Y-92039449D01*
X124231391Y-92147676D01*
X124358652Y-92232709D01*
X124500057Y-92291281D01*
X124650172Y-92321140D01*
X124803228Y-92321140D01*
X124953343Y-92291281D01*
X125094748Y-92232709D01*
X125222009Y-92147676D01*
X125330236Y-92039449D01*
X125415269Y-91912188D01*
X125473841Y-91770783D01*
X125503700Y-91620668D01*
X125503700Y-91512429D01*
X128639130Y-88377000D01*
X137450195Y-88377000D01*
X137526731Y-88453536D01*
X137653992Y-88538569D01*
X137795397Y-88597141D01*
X137945512Y-88627000D01*
X138098568Y-88627000D01*
X138248683Y-88597141D01*
X138390088Y-88538569D01*
X138517349Y-88453536D01*
X138625576Y-88345309D01*
X138634602Y-88331800D01*
X144408776Y-88331800D01*
X144408776Y-88781800D01*
X144420378Y-88899600D01*
X144454739Y-89012873D01*
X144510539Y-89117267D01*
X144585632Y-89208768D01*
X144677133Y-89283861D01*
X144781527Y-89339661D01*
X144894800Y-89374022D01*
X145012600Y-89385624D01*
X145512600Y-89385624D01*
X145630400Y-89374022D01*
X145743673Y-89339661D01*
X145848067Y-89283861D01*
X145939568Y-89208768D01*
X146014661Y-89117267D01*
X146070461Y-89012873D01*
X146104822Y-88899600D01*
X146116424Y-88781800D01*
X146116424Y-88331800D01*
X146104822Y-88214000D01*
X146070461Y-88100727D01*
X146014661Y-87996333D01*
X145939568Y-87904832D01*
X145848067Y-87829739D01*
X145833080Y-87821728D01*
X145833080Y-87431929D01*
X146844636Y-88443486D01*
X146844636Y-88777020D01*
X146856238Y-88894820D01*
X146890599Y-89008093D01*
X146946399Y-89112487D01*
X147021492Y-89203988D01*
X147112993Y-89279081D01*
X147217387Y-89334881D01*
X147330660Y-89369242D01*
X147448460Y-89380844D01*
X147948460Y-89380844D01*
X148066260Y-89369242D01*
X148179533Y-89334881D01*
X148283927Y-89279081D01*
X148375428Y-89203988D01*
X148450521Y-89112487D01*
X148506321Y-89008093D01*
X148540682Y-88894820D01*
X148544498Y-88856071D01*
X148556822Y-88871088D01*
X148637068Y-88936944D01*
X148728620Y-88985879D01*
X148817606Y-89012873D01*
X148827960Y-89016014D01*
X148931270Y-89026189D01*
X148957151Y-89023640D01*
X149306296Y-89023640D01*
X149373830Y-89105930D01*
X149461543Y-89177915D01*
X149561614Y-89231404D01*
X149670197Y-89264342D01*
X149783120Y-89275464D01*
X150333120Y-89275464D01*
X150446043Y-89264342D01*
X150554626Y-89231404D01*
X150654697Y-89177915D01*
X150742410Y-89105930D01*
X150814395Y-89018217D01*
X150867884Y-88918146D01*
X150900822Y-88809563D01*
X150911944Y-88696640D01*
X150911944Y-88296640D01*
X150900822Y-88183717D01*
X150867884Y-88075134D01*
X150814395Y-87975063D01*
X150742410Y-87887350D01*
X150654697Y-87815365D01*
X150554626Y-87761876D01*
X150446043Y-87728938D01*
X150333120Y-87717816D01*
X149783120Y-87717816D01*
X149670197Y-87728938D01*
X149561614Y-87761876D01*
X149461543Y-87815365D01*
X149373830Y-87887350D01*
X149306296Y-87969640D01*
X149149560Y-87969640D01*
X147279689Y-86099770D01*
X147284904Y-86046820D01*
X147284904Y-84046820D01*
X147277625Y-83972915D01*
X147256068Y-83901850D01*
X147221061Y-83836357D01*
X147173949Y-83778951D01*
X147116543Y-83731839D01*
X147051050Y-83696832D01*
X146979985Y-83675275D01*
X146906080Y-83667996D01*
X146506080Y-83667996D01*
X146432175Y-83675275D01*
X146361110Y-83696832D01*
X146356080Y-83699521D01*
X146351050Y-83696832D01*
X146279985Y-83675275D01*
X146206080Y-83667996D01*
X145806080Y-83667996D01*
X145732175Y-83675275D01*
X145661110Y-83696832D01*
X145656080Y-83699521D01*
X145651050Y-83696832D01*
X145579985Y-83675275D01*
X145506080Y-83667996D01*
X145106080Y-83667996D01*
X145032175Y-83675275D01*
X144961110Y-83696832D01*
X144895617Y-83731839D01*
X144838211Y-83778951D01*
X144791099Y-83836357D01*
X144756092Y-83901850D01*
X144734535Y-83972915D01*
X144727256Y-84046820D01*
X144727256Y-86046820D01*
X144734535Y-86120725D01*
X144756092Y-86191790D01*
X144779080Y-86234798D01*
X144779081Y-87775247D01*
X144677133Y-87829739D01*
X144585632Y-87904832D01*
X144510539Y-87996333D01*
X144454739Y-88100727D01*
X144420378Y-88214000D01*
X144408776Y-88331800D01*
X138634602Y-88331800D01*
X138710609Y-88218048D01*
X138769181Y-88076643D01*
X138799040Y-87926528D01*
X138799040Y-87773472D01*
X138769181Y-87623357D01*
X138710609Y-87481952D01*
X138625576Y-87354691D01*
X138517349Y-87246464D01*
X138390088Y-87161431D01*
X138248683Y-87102859D01*
X138098568Y-87073000D01*
X137945512Y-87073000D01*
X137795397Y-87102859D01*
X137653992Y-87161431D01*
X137526731Y-87246464D01*
X137450195Y-87323000D01*
X128446721Y-87323000D01*
X128420840Y-87320451D01*
X128394959Y-87323000D01*
X128317530Y-87330626D01*
X128218190Y-87360761D01*
X128126638Y-87409696D01*
X128046392Y-87475552D01*
X128029889Y-87495661D01*
X124758411Y-90767140D01*
X124650172Y-90767140D01*
X124500057Y-90796999D01*
X124358652Y-90855571D01*
X124231391Y-90940604D01*
X124123164Y-91048831D01*
X124038131Y-91176092D01*
X123979559Y-91317497D01*
X123949700Y-91467612D01*
X117865624Y-91467612D01*
X117865624Y-90183600D01*
X117858345Y-90109695D01*
X117836788Y-90038630D01*
X117801781Y-89973137D01*
X117754669Y-89915731D01*
X117697263Y-89868619D01*
X117631770Y-89833612D01*
X117560705Y-89812055D01*
X117486800Y-89804776D01*
X115786800Y-89804776D01*
X115712895Y-89812055D01*
X115641830Y-89833612D01*
X115576337Y-89868619D01*
X115518931Y-89915731D01*
X115471819Y-89973137D01*
X115436812Y-90038630D01*
X115415255Y-90109695D01*
X115407976Y-90183600D01*
X99415647Y-90183600D01*
X99427000Y-90126528D01*
X99427000Y-89973472D01*
X99397141Y-89823357D01*
X99338569Y-89681952D01*
X99253536Y-89554691D01*
X99145309Y-89446464D01*
X99018048Y-89361431D01*
X98876643Y-89302859D01*
X98726528Y-89273000D01*
X98573472Y-89273000D01*
X98423357Y-89302859D01*
X98281952Y-89361431D01*
X98154691Y-89446464D01*
X98046464Y-89554691D01*
X97961431Y-89681952D01*
X97902859Y-89823357D01*
X97873000Y-89973472D01*
X90627000Y-89973472D01*
X90627000Y-88538680D01*
X119372076Y-88538680D01*
X119372076Y-89538680D01*
X119379355Y-89612585D01*
X119400912Y-89683650D01*
X119435919Y-89749143D01*
X119483031Y-89806549D01*
X119540437Y-89853661D01*
X119605930Y-89888668D01*
X119676995Y-89910225D01*
X119750900Y-89917504D01*
X123250900Y-89917504D01*
X123306783Y-89912000D01*
X124387610Y-89912000D01*
X124460216Y-89904942D01*
X124530993Y-89883669D01*
X124596260Y-89848997D01*
X124653508Y-89802258D01*
X124700539Y-89745249D01*
X124735543Y-89680160D01*
X124757177Y-89609492D01*
X124764609Y-89535962D01*
X124767149Y-88540282D01*
X124759906Y-88465771D01*
X124738453Y-88395048D01*
X124703614Y-88329870D01*
X124656729Y-88272741D01*
X124599600Y-88225856D01*
X124534422Y-88191017D01*
X124463699Y-88169564D01*
X124390150Y-88162320D01*
X123275917Y-88162320D01*
X123250900Y-88159856D01*
X119750900Y-88159856D01*
X119676995Y-88167135D01*
X119605930Y-88188692D01*
X119540437Y-88223699D01*
X119483031Y-88270811D01*
X119435919Y-88328217D01*
X119400912Y-88393710D01*
X119379355Y-88464775D01*
X119372076Y-88538680D01*
X90627000Y-88538680D01*
X90627000Y-86877000D01*
X114221510Y-86877000D01*
X114180239Y-86976637D01*
X114150380Y-87126752D01*
X114150380Y-87279808D01*
X114180239Y-87429923D01*
X114238811Y-87571328D01*
X114323844Y-87698589D01*
X114432071Y-87806816D01*
X114559332Y-87891849D01*
X114700737Y-87950421D01*
X114850852Y-87980280D01*
X115003908Y-87980280D01*
X115154023Y-87950421D01*
X115295428Y-87891849D01*
X115387573Y-87830280D01*
X117563048Y-87830280D01*
X117572000Y-87875284D01*
X117630572Y-88016689D01*
X117715605Y-88143950D01*
X117823832Y-88252177D01*
X117951093Y-88337210D01*
X118092498Y-88395782D01*
X118242613Y-88425641D01*
X118395669Y-88425641D01*
X118545784Y-88395782D01*
X118687189Y-88337210D01*
X118814450Y-88252177D01*
X118922677Y-88143950D01*
X119007710Y-88016689D01*
X119066282Y-87875284D01*
X119096141Y-87725169D01*
X119096141Y-87572113D01*
X119066282Y-87421998D01*
X119007710Y-87280593D01*
X118922677Y-87153332D01*
X118814450Y-87045105D01*
X118687189Y-86960072D01*
X118545784Y-86901500D01*
X118437091Y-86879880D01*
X118338918Y-86781707D01*
X118325489Y-86765343D01*
X118327000Y-86750000D01*
X118327000Y-83473472D01*
X122023000Y-83473472D01*
X122023000Y-83626528D01*
X122052859Y-83776643D01*
X122111431Y-83918048D01*
X122196464Y-84045309D01*
X122304691Y-84153536D01*
X122431952Y-84238569D01*
X122573357Y-84297141D01*
X122723472Y-84327000D01*
X122876528Y-84327000D01*
X123026643Y-84297141D01*
X123168048Y-84238569D01*
X123295309Y-84153536D01*
X123403536Y-84045309D01*
X123488569Y-83918048D01*
X123547141Y-83776643D01*
X123577000Y-83626528D01*
X123577000Y-83518289D01*
X124449849Y-82645440D01*
X139182236Y-82645440D01*
X139182236Y-83145440D01*
X139194319Y-83268117D01*
X139230102Y-83386081D01*
X139288212Y-83494796D01*
X139366414Y-83590086D01*
X139461704Y-83668288D01*
X139570419Y-83726398D01*
X139688383Y-83762181D01*
X139811060Y-83774264D01*
X141311060Y-83774264D01*
X141433737Y-83762181D01*
X141551701Y-83726398D01*
X141660416Y-83668288D01*
X141755706Y-83590086D01*
X141833908Y-83494796D01*
X141892018Y-83386081D01*
X141927801Y-83268117D01*
X141938369Y-83160820D01*
X143042295Y-83160820D01*
X143118831Y-83237356D01*
X143246092Y-83322389D01*
X143387497Y-83380961D01*
X143537612Y-83410820D01*
X143690668Y-83410820D01*
X143840783Y-83380961D01*
X143982188Y-83322389D01*
X144109449Y-83237356D01*
X144217676Y-83129129D01*
X144302709Y-83001868D01*
X144361281Y-82860463D01*
X144391140Y-82710348D01*
X144391140Y-82557292D01*
X144361281Y-82407177D01*
X144302709Y-82265772D01*
X144217676Y-82138511D01*
X144187322Y-82108157D01*
X149212540Y-82108157D01*
X149212540Y-82261213D01*
X149242399Y-82411328D01*
X149300971Y-82552733D01*
X149386004Y-82679994D01*
X149494231Y-82788221D01*
X149621492Y-82873254D01*
X149762897Y-82931826D01*
X149913012Y-82961685D01*
X150021251Y-82961685D01*
X150379080Y-83319515D01*
X150379080Y-83707302D01*
X150334812Y-83743632D01*
X150287430Y-83801368D01*
X150252222Y-83867238D01*
X150230541Y-83938711D01*
X150223220Y-84013040D01*
X150223220Y-86123780D01*
X150230541Y-86198109D01*
X150252222Y-86269582D01*
X150287430Y-86335452D01*
X150334812Y-86393188D01*
X150392548Y-86440570D01*
X150458418Y-86475778D01*
X150529891Y-86497459D01*
X150604220Y-86504780D01*
X151110560Y-86504780D01*
X151116841Y-86525484D01*
X151165776Y-86617037D01*
X151231632Y-86697283D01*
X151251746Y-86713790D01*
X151811054Y-87273099D01*
X151754611Y-87357572D01*
X151696039Y-87498977D01*
X151666180Y-87649092D01*
X151666180Y-87802148D01*
X151696039Y-87952263D01*
X151754611Y-88093668D01*
X151839644Y-88220929D01*
X151947871Y-88329156D01*
X152075132Y-88414189D01*
X152216537Y-88472761D01*
X152366652Y-88502620D01*
X152519708Y-88502620D01*
X152669823Y-88472761D01*
X152811228Y-88414189D01*
X152938489Y-88329156D01*
X153046716Y-88220929D01*
X153131749Y-88093668D01*
X153174700Y-87989975D01*
X153217651Y-88093668D01*
X153302684Y-88220929D01*
X153410911Y-88329156D01*
X153538172Y-88414189D01*
X153679577Y-88472761D01*
X153829692Y-88502620D01*
X153982748Y-88502620D01*
X154132863Y-88472761D01*
X154274268Y-88414189D01*
X154401529Y-88329156D01*
X154509756Y-88220929D01*
X154594789Y-88093668D01*
X154653361Y-87952263D01*
X154683220Y-87802148D01*
X154683220Y-87649092D01*
X154653361Y-87498977D01*
X154594789Y-87357572D01*
X154509756Y-87230311D01*
X154401529Y-87122084D01*
X154274268Y-87037051D01*
X154132863Y-86978479D01*
X153982748Y-86948620D01*
X153829692Y-86948620D01*
X153708401Y-86972746D01*
X152912894Y-86177240D01*
X152918160Y-86123780D01*
X152918160Y-84013040D01*
X152910839Y-83938711D01*
X152889158Y-83867238D01*
X152853950Y-83801368D01*
X152833080Y-83775937D01*
X152833080Y-82975610D01*
X152835629Y-82949729D01*
X152825454Y-82846420D01*
X152795319Y-82747080D01*
X152746384Y-82655528D01*
X152738105Y-82645440D01*
X152680528Y-82575282D01*
X152660419Y-82558779D01*
X152318035Y-82216395D01*
X152318035Y-82108157D01*
X152288176Y-81958042D01*
X152229604Y-81816637D01*
X152144571Y-81689376D01*
X152036344Y-81581149D01*
X151909083Y-81496116D01*
X151767678Y-81437544D01*
X151617563Y-81407685D01*
X151464507Y-81407685D01*
X151314392Y-81437544D01*
X151172987Y-81496116D01*
X151045726Y-81581149D01*
X150937499Y-81689376D01*
X150852466Y-81816637D01*
X150793894Y-81958042D01*
X150765288Y-82101860D01*
X150736681Y-81958042D01*
X150678109Y-81816637D01*
X150593076Y-81689376D01*
X150484849Y-81581149D01*
X150357588Y-81496116D01*
X150216183Y-81437544D01*
X150066068Y-81407685D01*
X149913012Y-81407685D01*
X149762897Y-81437544D01*
X149621492Y-81496116D01*
X149494231Y-81581149D01*
X149386004Y-81689376D01*
X149300971Y-81816637D01*
X149242399Y-81958042D01*
X149212540Y-82108157D01*
X144187322Y-82108157D01*
X144109449Y-82030284D01*
X143982188Y-81945251D01*
X143840783Y-81886679D01*
X143690668Y-81856820D01*
X143537612Y-81856820D01*
X143387497Y-81886679D01*
X143246092Y-81945251D01*
X143118831Y-82030284D01*
X143042295Y-82106820D01*
X141630909Y-82106820D01*
X141551701Y-82064482D01*
X141433737Y-82028699D01*
X141311060Y-82016616D01*
X139811060Y-82016616D01*
X139688383Y-82028699D01*
X139570419Y-82064482D01*
X139461704Y-82122592D01*
X139366414Y-82200794D01*
X139288212Y-82296084D01*
X139230102Y-82404799D01*
X139194319Y-82522763D01*
X139182236Y-82645440D01*
X124449849Y-82645440D01*
X124718290Y-82377000D01*
X124826528Y-82377000D01*
X124976643Y-82347141D01*
X125118048Y-82288569D01*
X125245309Y-82203536D01*
X125353536Y-82095309D01*
X125438569Y-81968048D01*
X125497141Y-81826643D01*
X125527000Y-81676528D01*
X125527000Y-81523472D01*
X125497141Y-81373357D01*
X125438569Y-81231952D01*
X125353536Y-81104691D01*
X125245309Y-80996464D01*
X125118048Y-80911431D01*
X124976643Y-80852859D01*
X124826528Y-80823000D01*
X124673472Y-80823000D01*
X124523357Y-80852859D01*
X124381952Y-80911431D01*
X124254691Y-80996464D01*
X124146464Y-81104691D01*
X124061431Y-81231952D01*
X124002859Y-81373357D01*
X123973000Y-81523472D01*
X123973000Y-81631710D01*
X122831711Y-82773000D01*
X122723472Y-82773000D01*
X122573357Y-82802859D01*
X122431952Y-82861431D01*
X122304691Y-82946464D01*
X122196464Y-83054691D01*
X122111431Y-83181952D01*
X122052859Y-83323357D01*
X122023000Y-83473472D01*
X118327000Y-83473472D01*
X118327000Y-80727000D01*
X139250350Y-80727000D01*
X139248276Y-80748060D01*
G04 #@! TA.AperFunction,Conductor*
D25*
G36*
X139248276Y-80748060D02*
G01*
X139248276Y-81248060D01*
X139260359Y-81370737D01*
X139296142Y-81488701D01*
X139354252Y-81597416D01*
X139432454Y-81692706D01*
X139527744Y-81770908D01*
X139636459Y-81829018D01*
X139754423Y-81864801D01*
X139877100Y-81876884D01*
X141377100Y-81876884D01*
X141499777Y-81864801D01*
X141617741Y-81829018D01*
X141726456Y-81770908D01*
X141821746Y-81692706D01*
X141899948Y-81597416D01*
X141958058Y-81488701D01*
X141993841Y-81370737D01*
X142002658Y-81281220D01*
X142176155Y-81281220D01*
X142252691Y-81357756D01*
X142379952Y-81442789D01*
X142521357Y-81501361D01*
X142671472Y-81531220D01*
X142824528Y-81531220D01*
X142974643Y-81501361D01*
X143116048Y-81442789D01*
X143243309Y-81357756D01*
X143351536Y-81249529D01*
X143436569Y-81122268D01*
X143495141Y-80980863D01*
X143525000Y-80830748D01*
X143525000Y-80727000D01*
X169873000Y-80727000D01*
X169873000Y-120873000D01*
X129951744Y-120873000D01*
X130007668Y-120804856D01*
X130065778Y-120696141D01*
X130101561Y-120578177D01*
X130113644Y-120455500D01*
X130113644Y-119955500D01*
X130101561Y-119832823D01*
X130065778Y-119714859D01*
X130007668Y-119606144D01*
X129929466Y-119510854D01*
X129834176Y-119432652D01*
X129735672Y-119380000D01*
X129834176Y-119327348D01*
X129929466Y-119249146D01*
X130007668Y-119153856D01*
X130065778Y-119045141D01*
X130101561Y-118927177D01*
X130113644Y-118804500D01*
X130113644Y-118304500D01*
X130101561Y-118181823D01*
X130065778Y-118063859D01*
X130007668Y-117955144D01*
X129929466Y-117859854D01*
X129834176Y-117781652D01*
X129725461Y-117723542D01*
X129607497Y-117687759D01*
X129484820Y-117675676D01*
X127984820Y-117675676D01*
X127862143Y-117687759D01*
X127744179Y-117723542D01*
X127635464Y-117781652D01*
X127540174Y-117859854D01*
X127482574Y-117930040D01*
X126134313Y-117930040D01*
X126042168Y-117868471D01*
X125900763Y-117809899D01*
X125750648Y-117780040D01*
X125597592Y-117780040D01*
X125447477Y-117809899D01*
X125306072Y-117868471D01*
X125178811Y-117953504D01*
X125070584Y-118061731D01*
X124985551Y-118188992D01*
X124926979Y-118330397D01*
X124897120Y-118480512D01*
X124897120Y-118633568D01*
X124926979Y-118783683D01*
X124985551Y-118925088D01*
X125070584Y-119052349D01*
X125178811Y-119160576D01*
X125306072Y-119245609D01*
X125447477Y-119304181D01*
X125597592Y-119334040D01*
X125750648Y-119334040D01*
X125900763Y-119304181D01*
X126042168Y-119245609D01*
X126134313Y-119184040D01*
X127486743Y-119184040D01*
X127540174Y-119249146D01*
X127635464Y-119327348D01*
X127733968Y-119380000D01*
X127635464Y-119432652D01*
X127540174Y-119510854D01*
X127482574Y-119581040D01*
X126134313Y-119581040D01*
X126042168Y-119519471D01*
X125900763Y-119460899D01*
X125750648Y-119431040D01*
X125597592Y-119431040D01*
X125447477Y-119460899D01*
X125306072Y-119519471D01*
X125178811Y-119604504D01*
X125070584Y-119712731D01*
X124985551Y-119839992D01*
X124926979Y-119981397D01*
X124897120Y-120131512D01*
X124897120Y-120284568D01*
X124926979Y-120434683D01*
X124985551Y-120576088D01*
X125070584Y-120703349D01*
X125178811Y-120811576D01*
X125270739Y-120873000D01*
X90627000Y-120873000D01*
X90627000Y-113684924D01*
X90661431Y-113768048D01*
X90746464Y-113895309D01*
X90854691Y-114003536D01*
X90981952Y-114088569D01*
X91123357Y-114147141D01*
X91273472Y-114177000D01*
X91426528Y-114177000D01*
X91576643Y-114147141D01*
X91718048Y-114088569D01*
X91845309Y-114003536D01*
X91953536Y-113895309D01*
X92038569Y-113768048D01*
X92097141Y-113626643D01*
X92118761Y-113517950D01*
X92121176Y-113515535D01*
X92121176Y-114100000D01*
X92128455Y-114173905D01*
X92150012Y-114244970D01*
X92185019Y-114310463D01*
X92232131Y-114367869D01*
X92289537Y-114414981D01*
X92355030Y-114449988D01*
X92426095Y-114471545D01*
X92500000Y-114478824D01*
X95500000Y-114478824D01*
X95573905Y-114471545D01*
X95644970Y-114449988D01*
X95710463Y-114414981D01*
X95767869Y-114367869D01*
X95814981Y-114310463D01*
X95849988Y-114244970D01*
X95871545Y-114173905D01*
X95878824Y-114100000D01*
X95878824Y-112732627D01*
X95904737Y-112743361D01*
X96054852Y-112773220D01*
X96207908Y-112773220D01*
X96358023Y-112743361D01*
X96499428Y-112684789D01*
X96626689Y-112599756D01*
X96734916Y-112491529D01*
X96819949Y-112364268D01*
X96878521Y-112222863D01*
X96908380Y-112072748D01*
X96908380Y-111919692D01*
X96878521Y-111769577D01*
X96819949Y-111628172D01*
X96734916Y-111500911D01*
X96626689Y-111392684D01*
X96499428Y-111307651D01*
X96358023Y-111249079D01*
X96207908Y-111219220D01*
X96054852Y-111219220D01*
X95904737Y-111249079D01*
X95878824Y-111259813D01*
X95878824Y-111152612D01*
X104723000Y-111152612D01*
X104723000Y-111305668D01*
X104752859Y-111455783D01*
X104811431Y-111597188D01*
X104896464Y-111724449D01*
X105004691Y-111832676D01*
X105131952Y-111917709D01*
X105273357Y-111976281D01*
X105423472Y-112006140D01*
X105576528Y-112006140D01*
X105726643Y-111976281D01*
X105868048Y-111917709D01*
X105995309Y-111832676D01*
X106071845Y-111756140D01*
X108056199Y-111756140D01*
X108082080Y-111758689D01*
X108107961Y-111756140D01*
X108185390Y-111748514D01*
X108284730Y-111718379D01*
X108376282Y-111669444D01*
X108430373Y-111625052D01*
X117863860Y-111625052D01*
X117863860Y-111778108D01*
X117893719Y-111928223D01*
X117952291Y-112069628D01*
X118037324Y-112196889D01*
X118145551Y-112305116D01*
X118272812Y-112390149D01*
X118414217Y-112448721D01*
X118564332Y-112478580D01*
X118717388Y-112478580D01*
X118867503Y-112448721D01*
X119008908Y-112390149D01*
X119136169Y-112305116D01*
X119244396Y-112196889D01*
X119329429Y-112069628D01*
X119388001Y-111928223D01*
X119417860Y-111778108D01*
X119417860Y-111625052D01*
X119388001Y-111474937D01*
X119329429Y-111333532D01*
X119244396Y-111206271D01*
X119167860Y-111129735D01*
X119167860Y-111119592D01*
X145351740Y-111119592D01*
X145351740Y-111272648D01*
X145381599Y-111422763D01*
X145440171Y-111564168D01*
X145525204Y-111691429D01*
X145633431Y-111799656D01*
X145760692Y-111884689D01*
X145902097Y-111943261D01*
X146052212Y-111973120D01*
X146205268Y-111973120D01*
X146355383Y-111943261D01*
X146496788Y-111884689D01*
X146624049Y-111799656D01*
X146732276Y-111691429D01*
X146817309Y-111564168D01*
X146875881Y-111422763D01*
X146897501Y-111314070D01*
X149166514Y-109045057D01*
X149190441Y-109025421D01*
X149268793Y-108929948D01*
X149279170Y-108910535D01*
X149327015Y-108821024D01*
X149362867Y-108702833D01*
X149374973Y-108579920D01*
X149371940Y-108549126D01*
X149371940Y-108078460D01*
X163449396Y-108078460D01*
X163449396Y-108578460D01*
X163461479Y-108701137D01*
X163497262Y-108819101D01*
X163555372Y-108927816D01*
X163633574Y-109023106D01*
X163728864Y-109101308D01*
X163837579Y-109159418D01*
X163955543Y-109195201D01*
X164078220Y-109207284D01*
X165578220Y-109207284D01*
X165700897Y-109195201D01*
X165818861Y-109159418D01*
X165927576Y-109101308D01*
X166022866Y-109023106D01*
X166101068Y-108927816D01*
X166159178Y-108819101D01*
X166166368Y-108795398D01*
X167077580Y-108795398D01*
X167077580Y-109019762D01*
X167121351Y-109239814D01*
X167207211Y-109447099D01*
X167331861Y-109633650D01*
X167490510Y-109792299D01*
X167677061Y-109916949D01*
X167884346Y-110002809D01*
X168104398Y-110046580D01*
X168328762Y-110046580D01*
X168548814Y-110002809D01*
X168756099Y-109916949D01*
X168942650Y-109792299D01*
X169101299Y-109633650D01*
X169225949Y-109447099D01*
X169311809Y-109239814D01*
X169355580Y-109019762D01*
X169355580Y-108795398D01*
X169311809Y-108575346D01*
X169225949Y-108368061D01*
X169101299Y-108181510D01*
X168942650Y-108022861D01*
X168756099Y-107898211D01*
X168548814Y-107812351D01*
X168328762Y-107768580D01*
X168104398Y-107768580D01*
X167884346Y-107812351D01*
X167677061Y-107898211D01*
X167490510Y-108022861D01*
X167331861Y-108181510D01*
X167207211Y-108368061D01*
X167121351Y-108575346D01*
X167077580Y-108795398D01*
X166166368Y-108795398D01*
X166194961Y-108701137D01*
X166207044Y-108578460D01*
X166207044Y-108078460D01*
X166194961Y-107955783D01*
X166159178Y-107837819D01*
X166101068Y-107729104D01*
X166022866Y-107633814D01*
X165927576Y-107555612D01*
X165818861Y-107497502D01*
X165700897Y-107461719D01*
X165578220Y-107449636D01*
X165481235Y-107449636D01*
X166675473Y-106255398D01*
X167077580Y-106255398D01*
X167077580Y-106479762D01*
X167121351Y-106699814D01*
X167207211Y-106907099D01*
X167331861Y-107093650D01*
X167490510Y-107252299D01*
X167677061Y-107376949D01*
X167884346Y-107462809D01*
X168104398Y-107506580D01*
X168328762Y-107506580D01*
X168548814Y-107462809D01*
X168756099Y-107376949D01*
X168942650Y-107252299D01*
X169101299Y-107093650D01*
X169225949Y-106907099D01*
X169311809Y-106699814D01*
X169355580Y-106479762D01*
X169355580Y-106255398D01*
X169311809Y-106035346D01*
X169225949Y-105828061D01*
X169101299Y-105641510D01*
X168942650Y-105482861D01*
X168756099Y-105358211D01*
X168548814Y-105272351D01*
X168328762Y-105228580D01*
X168104398Y-105228580D01*
X167884346Y-105272351D01*
X167677061Y-105358211D01*
X167490510Y-105482861D01*
X167331861Y-105641510D01*
X167207211Y-105828061D01*
X167121351Y-106035346D01*
X167077580Y-106255398D01*
X166675473Y-106255398D01*
X167987537Y-104943335D01*
X168104398Y-104966580D01*
X168328762Y-104966580D01*
X168548814Y-104922809D01*
X168756099Y-104836949D01*
X168942650Y-104712299D01*
X169101299Y-104553650D01*
X169225949Y-104367099D01*
X169311809Y-104159814D01*
X169355580Y-103939762D01*
X169355580Y-103715398D01*
X169311809Y-103495346D01*
X169225949Y-103288061D01*
X169101299Y-103101510D01*
X168942650Y-102942861D01*
X168756099Y-102818211D01*
X168548814Y-102732351D01*
X168328762Y-102688580D01*
X168104398Y-102688580D01*
X167884346Y-102732351D01*
X167677061Y-102818211D01*
X167490510Y-102942861D01*
X167331861Y-103101510D01*
X167207211Y-103288061D01*
X167121351Y-103495346D01*
X167077580Y-103715398D01*
X167077580Y-103939762D01*
X167100825Y-104056623D01*
X164406643Y-106750806D01*
X164382720Y-106770439D01*
X164304368Y-106865912D01*
X164282353Y-106907099D01*
X164246146Y-106974837D01*
X164210293Y-107093028D01*
X164198187Y-107215940D01*
X164201221Y-107246744D01*
X164201221Y-107449636D01*
X164078220Y-107449636D01*
X163955543Y-107461719D01*
X163837579Y-107497502D01*
X163728864Y-107555612D01*
X163633574Y-107633814D01*
X163555372Y-107729104D01*
X163497262Y-107837819D01*
X163461479Y-107955783D01*
X163449396Y-108078460D01*
X149371940Y-108078460D01*
X149371940Y-107770113D01*
X149433509Y-107677968D01*
X149492081Y-107536563D01*
X149521940Y-107386448D01*
X149521940Y-107233392D01*
X149492081Y-107083277D01*
X149433509Y-106941872D01*
X149348476Y-106814611D01*
X149240249Y-106706384D01*
X149112988Y-106621351D01*
X148971583Y-106562779D01*
X148821468Y-106532920D01*
X148668412Y-106532920D01*
X148518297Y-106562779D01*
X148376892Y-106621351D01*
X148249631Y-106706384D01*
X148141404Y-106814611D01*
X148056371Y-106941872D01*
X147997799Y-107083277D01*
X147967940Y-107233392D01*
X147967940Y-107386448D01*
X147997799Y-107536563D01*
X148056371Y-107677968D01*
X148117941Y-107770114D01*
X148117940Y-108320209D01*
X146010790Y-110427359D01*
X145902097Y-110448979D01*
X145760692Y-110507551D01*
X145633431Y-110592584D01*
X145525204Y-110700811D01*
X145440171Y-110828072D01*
X145381599Y-110969477D01*
X145351740Y-111119592D01*
X119167860Y-111119592D01*
X119167860Y-109944245D01*
X119249476Y-109862629D01*
X119334509Y-109735368D01*
X119393081Y-109593963D01*
X119422940Y-109443848D01*
X119422940Y-109290792D01*
X119393081Y-109140677D01*
X119334509Y-108999272D01*
X119249476Y-108872011D01*
X119141249Y-108763784D01*
X119013988Y-108678751D01*
X118872583Y-108620179D01*
X118722468Y-108590320D01*
X118569412Y-108590320D01*
X118419297Y-108620179D01*
X118277892Y-108678751D01*
X118150631Y-108763784D01*
X118042404Y-108872011D01*
X117957371Y-108999272D01*
X117898799Y-109140677D01*
X117868940Y-109290792D01*
X117868940Y-109443848D01*
X117898799Y-109593963D01*
X117957371Y-109735368D01*
X118042404Y-109862629D01*
X118113861Y-109934086D01*
X118113860Y-111129735D01*
X118037324Y-111206271D01*
X117952291Y-111333532D01*
X117893719Y-111474937D01*
X117863860Y-111625052D01*
X108430373Y-111625052D01*
X108456528Y-111603588D01*
X108473035Y-111583474D01*
X110775790Y-109280720D01*
X110884028Y-109280720D01*
X111034143Y-109250861D01*
X111175548Y-109192289D01*
X111302809Y-109107256D01*
X111411036Y-108999029D01*
X111496069Y-108871768D01*
X111554641Y-108730363D01*
X111584500Y-108580248D01*
X111584500Y-108427192D01*
X111554641Y-108277077D01*
X111496069Y-108135672D01*
X111411036Y-108008411D01*
X111302809Y-107900184D01*
X111175548Y-107815151D01*
X111034143Y-107756579D01*
X110884028Y-107726720D01*
X110730972Y-107726720D01*
X110580857Y-107756579D01*
X110439452Y-107815151D01*
X110312191Y-107900184D01*
X110203964Y-108008411D01*
X110118931Y-108135672D01*
X110078520Y-108233233D01*
X110038109Y-108135672D01*
X109953076Y-108008411D01*
X109844849Y-107900184D01*
X109717588Y-107815151D01*
X109576183Y-107756579D01*
X109426068Y-107726720D01*
X109273012Y-107726720D01*
X109122897Y-107756579D01*
X108981492Y-107815151D01*
X108854231Y-107900184D01*
X108746004Y-108008411D01*
X108660971Y-108135672D01*
X108602399Y-108277077D01*
X108572540Y-108427192D01*
X108572540Y-108535430D01*
X107833311Y-109274660D01*
X107795405Y-109274660D01*
X107718869Y-109198124D01*
X107591608Y-109113091D01*
X107450203Y-109054519D01*
X107300088Y-109024660D01*
X107147032Y-109024660D01*
X106996917Y-109054519D01*
X106855512Y-109113091D01*
X106728251Y-109198124D01*
X106620024Y-109306351D01*
X106534991Y-109433612D01*
X106476419Y-109575017D01*
X106446560Y-109725132D01*
X106446560Y-109878188D01*
X106476419Y-110028303D01*
X106534991Y-110169708D01*
X106620024Y-110296969D01*
X106728251Y-110405196D01*
X106855512Y-110490229D01*
X106996917Y-110548801D01*
X107147032Y-110578660D01*
X107300088Y-110578660D01*
X107450203Y-110548801D01*
X107591608Y-110490229D01*
X107718869Y-110405196D01*
X107795405Y-110328660D01*
X108025719Y-110328660D01*
X108051600Y-110331209D01*
X108077481Y-110328660D01*
X108154910Y-110321034D01*
X108254250Y-110290899D01*
X108298894Y-110267036D01*
X107863791Y-110702140D01*
X106071845Y-110702140D01*
X105995309Y-110625604D01*
X105868048Y-110540571D01*
X105726643Y-110481999D01*
X105576528Y-110452140D01*
X105423472Y-110452140D01*
X105273357Y-110481999D01*
X105131952Y-110540571D01*
X105004691Y-110625604D01*
X104896464Y-110733831D01*
X104811431Y-110861092D01*
X104752859Y-111002497D01*
X104723000Y-111152612D01*
X95878824Y-111152612D01*
X95878824Y-109900000D01*
X95871545Y-109826095D01*
X95849988Y-109755030D01*
X95814981Y-109689537D01*
X95767869Y-109632131D01*
X95710463Y-109585019D01*
X95644970Y-109550012D01*
X95573905Y-109528455D01*
X95500000Y-109521176D01*
X92500000Y-109521176D01*
X92426095Y-109528455D01*
X92355030Y-109550012D01*
X92289537Y-109585019D01*
X92232131Y-109632131D01*
X92185019Y-109689537D01*
X92150012Y-109755030D01*
X92128455Y-109826095D01*
X92121176Y-109900000D01*
X92121176Y-111742112D01*
X91232050Y-112631239D01*
X91123357Y-112652859D01*
X90981952Y-112711431D01*
X90854691Y-112796464D01*
X90746464Y-112904691D01*
X90661431Y-113031952D01*
X90627000Y-113115076D01*
X90627000Y-107891252D01*
X101496100Y-107891252D01*
X101496100Y-108044308D01*
X101525959Y-108194423D01*
X101584531Y-108335828D01*
X101669564Y-108463089D01*
X101777791Y-108571316D01*
X101905052Y-108656349D01*
X102046457Y-108714921D01*
X102196572Y-108744780D01*
X102349628Y-108744780D01*
X102499743Y-108714921D01*
X102641148Y-108656349D01*
X102768409Y-108571316D01*
X102876636Y-108463089D01*
X102961669Y-108335828D01*
X103020241Y-108194423D01*
X103050100Y-108044308D01*
X103050100Y-107891252D01*
X103020241Y-107741137D01*
X102961669Y-107599732D01*
X102900100Y-107507587D01*
X102900100Y-102716774D01*
X102964209Y-102620828D01*
X103022781Y-102479423D01*
X103052640Y-102329308D01*
X103052640Y-102176252D01*
X103022781Y-102026137D01*
X102964209Y-101884732D01*
X102879176Y-101757471D01*
X102770949Y-101649244D01*
X102643688Y-101564211D01*
X102502283Y-101505639D01*
X102352168Y-101475780D01*
X102199112Y-101475780D01*
X102048997Y-101505639D01*
X101907592Y-101564211D01*
X101780331Y-101649244D01*
X101672104Y-101757471D01*
X101587071Y-101884732D01*
X101528499Y-102026137D01*
X101498640Y-102176252D01*
X101498640Y-102329308D01*
X101528499Y-102479423D01*
X101587071Y-102620828D01*
X101646101Y-102709172D01*
X101646100Y-103256393D01*
X101646101Y-103256403D01*
X101646100Y-107507587D01*
X101584531Y-107599732D01*
X101525959Y-107741137D01*
X101496100Y-107891252D01*
X90627000Y-107891252D01*
X90627000Y-97931912D01*
X91927920Y-97931912D01*
X91927920Y-98084968D01*
X91957779Y-98235083D01*
X92016351Y-98376488D01*
X92077921Y-98468634D01*
X92077920Y-98768717D01*
X92016351Y-98860862D01*
X91957779Y-99002267D01*
X91927920Y-99152382D01*
X91927920Y-99305438D01*
X91957779Y-99455553D01*
X92016351Y-99596958D01*
X92077921Y-99689104D01*
X92077920Y-99989187D01*
X92016351Y-100081332D01*
X91957779Y-100222737D01*
X91927920Y-100372852D01*
X91927920Y-100525908D01*
X91957779Y-100676023D01*
X92016351Y-100817428D01*
X92101384Y-100944689D01*
X92153560Y-100996865D01*
X92181067Y-101048327D01*
X92259419Y-101143801D01*
X92283347Y-101163438D01*
X92592842Y-101472933D01*
X92612479Y-101496861D01*
X92707952Y-101575213D01*
X92816877Y-101633435D01*
X92899214Y-101658411D01*
X92935066Y-101669287D01*
X93057979Y-101681393D01*
X93088773Y-101678360D01*
X95754848Y-101678360D01*
X95785642Y-101681393D01*
X95816436Y-101678360D01*
X95908555Y-101669287D01*
X96026745Y-101633435D01*
X96135670Y-101575213D01*
X96231143Y-101496861D01*
X96250780Y-101472933D01*
X96957214Y-100766500D01*
X98028307Y-100766500D01*
X98120452Y-100828069D01*
X98261857Y-100886641D01*
X98411972Y-100916500D01*
X98565028Y-100916500D01*
X98715143Y-100886641D01*
X98856548Y-100828069D01*
X98948693Y-100766500D01*
X99161147Y-100766500D01*
X99253292Y-100828069D01*
X99394697Y-100886641D01*
X99544812Y-100916500D01*
X99697868Y-100916500D01*
X99847983Y-100886641D01*
X99989388Y-100828069D01*
X100081533Y-100766500D01*
X100293987Y-100766500D01*
X100386132Y-100828069D01*
X100527537Y-100886641D01*
X100677652Y-100916500D01*
X100830708Y-100916500D01*
X100980823Y-100886641D01*
X101122228Y-100828069D01*
X101249489Y-100743036D01*
X101357716Y-100634809D01*
X101442749Y-100507548D01*
X101479604Y-100418572D01*
X105651540Y-100418572D01*
X105651540Y-100571628D01*
X105681399Y-100721743D01*
X105739971Y-100863148D01*
X105825004Y-100990409D01*
X105933231Y-101098636D01*
X106060492Y-101183669D01*
X106201897Y-101242241D01*
X106352012Y-101272100D01*
X106505068Y-101272100D01*
X106655183Y-101242241D01*
X106796588Y-101183669D01*
X106888733Y-101122100D01*
X107103865Y-101122100D01*
X107207302Y-101191214D01*
X107348707Y-101249786D01*
X107498822Y-101279645D01*
X107651878Y-101279645D01*
X107781491Y-101253864D01*
X107727464Y-101307891D01*
X107642431Y-101435152D01*
X107583859Y-101576557D01*
X107554000Y-101726672D01*
X107554000Y-101879728D01*
X107583859Y-102029843D01*
X107642431Y-102171248D01*
X107727464Y-102298509D01*
X107835691Y-102406736D01*
X107962952Y-102491769D01*
X108104357Y-102550341D01*
X108254472Y-102580200D01*
X108407528Y-102580200D01*
X108557643Y-102550341D01*
X108699048Y-102491769D01*
X108826309Y-102406736D01*
X108934536Y-102298509D01*
X109019569Y-102171248D01*
X109077993Y-102030201D01*
X116821204Y-102030201D01*
X116911372Y-102090449D01*
X117052777Y-102149021D01*
X117202892Y-102178880D01*
X117355948Y-102178880D01*
X117506063Y-102149021D01*
X117647468Y-102090449D01*
X117774729Y-102005416D01*
X117882956Y-101897189D01*
X117967989Y-101769928D01*
X118026561Y-101628523D01*
X118056420Y-101478408D01*
X118056420Y-101325352D01*
X118044892Y-101267395D01*
X118157932Y-101289880D01*
X118310988Y-101289880D01*
X118461103Y-101260021D01*
X118602508Y-101201449D01*
X118694653Y-101139880D01*
X119229687Y-101139880D01*
X119321832Y-101201449D01*
X119463237Y-101260021D01*
X119613352Y-101289880D01*
X119766408Y-101289880D01*
X119916523Y-101260021D01*
X120057928Y-101201449D01*
X120150073Y-101139880D01*
X120685107Y-101139880D01*
X120777252Y-101201449D01*
X120918657Y-101260021D01*
X121068772Y-101289880D01*
X121221828Y-101289880D01*
X121371943Y-101260021D01*
X121513348Y-101201449D01*
X121640609Y-101116416D01*
X121748836Y-101008189D01*
X121833869Y-100880928D01*
X121892441Y-100739523D01*
X121922300Y-100589408D01*
X121922300Y-100436352D01*
X121892441Y-100286237D01*
X121833869Y-100144832D01*
X121748836Y-100017571D01*
X121640609Y-99909344D01*
X121513348Y-99824311D01*
X121371943Y-99765739D01*
X121221828Y-99735880D01*
X121068772Y-99735880D01*
X120918657Y-99765739D01*
X120777252Y-99824311D01*
X120685107Y-99885880D01*
X120150073Y-99885880D01*
X120057928Y-99824311D01*
X119916523Y-99765739D01*
X119766408Y-99735880D01*
X119613352Y-99735880D01*
X119463237Y-99765739D01*
X119321832Y-99824311D01*
X119229687Y-99885880D01*
X118694653Y-99885880D01*
X118602508Y-99824311D01*
X118461103Y-99765739D01*
X118310988Y-99735880D01*
X118157932Y-99735880D01*
X118007817Y-99765739D01*
X117866412Y-99824311D01*
X117774267Y-99885880D01*
X109186154Y-99885880D01*
X109090208Y-99821771D01*
X108948803Y-99763199D01*
X108798688Y-99733340D01*
X108645632Y-99733340D01*
X108495517Y-99763199D01*
X108354112Y-99821771D01*
X108273484Y-99875645D01*
X108035543Y-99875645D01*
X107943398Y-99814076D01*
X107801993Y-99755504D01*
X107651878Y-99725645D01*
X107498822Y-99725645D01*
X107348707Y-99755504D01*
X107207302Y-99814076D01*
X107126449Y-99868100D01*
X106888733Y-99868100D01*
X106796588Y-99806531D01*
X106655183Y-99747959D01*
X106505068Y-99718100D01*
X106352012Y-99718100D01*
X106201897Y-99747959D01*
X106060492Y-99806531D01*
X105933231Y-99891564D01*
X105825004Y-99999791D01*
X105739971Y-100127052D01*
X105681399Y-100268457D01*
X105651540Y-100418572D01*
X101479604Y-100418572D01*
X101501321Y-100366143D01*
X101531180Y-100216028D01*
X101531180Y-100062972D01*
X101501321Y-99912857D01*
X101442749Y-99771452D01*
X101357716Y-99644191D01*
X101249489Y-99535964D01*
X101122228Y-99450931D01*
X100980823Y-99392359D01*
X100830708Y-99362500D01*
X100677652Y-99362500D01*
X100527537Y-99392359D01*
X100386132Y-99450931D01*
X100293987Y-99512500D01*
X100081533Y-99512500D01*
X99989388Y-99450931D01*
X99847983Y-99392359D01*
X99697868Y-99362500D01*
X99544812Y-99362500D01*
X99394697Y-99392359D01*
X99253292Y-99450931D01*
X99161147Y-99512500D01*
X98948693Y-99512500D01*
X98856548Y-99450931D01*
X98715143Y-99392359D01*
X98565028Y-99362500D01*
X98411972Y-99362500D01*
X98261857Y-99392359D01*
X98120452Y-99450931D01*
X98028307Y-99512500D01*
X96728296Y-99512500D01*
X96697502Y-99509467D01*
X96666708Y-99512500D01*
X96574589Y-99521573D01*
X96456399Y-99557425D01*
X96347474Y-99615647D01*
X96252001Y-99693999D01*
X96232368Y-99717922D01*
X95525931Y-100424360D01*
X93481920Y-100424360D01*
X93481920Y-100372852D01*
X93452061Y-100222737D01*
X93393489Y-100081332D01*
X93331920Y-99989187D01*
X93331920Y-99689103D01*
X93393489Y-99596958D01*
X93452061Y-99455553D01*
X93481920Y-99305438D01*
X93481920Y-99152382D01*
X93452061Y-99002267D01*
X93393489Y-98860862D01*
X93331920Y-98768717D01*
X93331920Y-98468633D01*
X93393489Y-98376488D01*
X93452061Y-98235083D01*
X93481920Y-98084968D01*
X93481920Y-97931912D01*
X93452061Y-97781797D01*
X93393489Y-97640392D01*
X93308456Y-97513131D01*
X93200229Y-97404904D01*
X93072968Y-97319871D01*
X92931563Y-97261299D01*
X92781448Y-97231440D01*
X92628392Y-97231440D01*
X92478277Y-97261299D01*
X92336872Y-97319871D01*
X92209611Y-97404904D01*
X92101384Y-97513131D01*
X92016351Y-97640392D01*
X91957779Y-97781797D01*
X91927920Y-97931912D01*
X90627000Y-97931912D01*
X90627000Y-93573472D01*
X108073000Y-93573472D01*
X108073000Y-93726528D01*
X108102859Y-93876643D01*
X108161431Y-94018048D01*
X108246464Y-94145309D01*
X108354691Y-94253536D01*
X108481952Y-94338569D01*
X108623357Y-94397141D01*
X108773472Y-94427000D01*
X108881711Y-94427000D01*
X111559049Y-97104339D01*
X111575552Y-97124448D01*
X111638476Y-97176088D01*
X111655798Y-97190304D01*
X111747350Y-97239239D01*
X111846690Y-97269374D01*
X111949999Y-97279549D01*
X111975880Y-97277000D01*
X114824696Y-97277000D01*
X114917874Y-97370179D01*
X114861431Y-97454652D01*
X114802859Y-97596057D01*
X114773000Y-97746172D01*
X114773000Y-97899228D01*
X114802859Y-98049343D01*
X114861431Y-98190748D01*
X114946464Y-98318009D01*
X115054691Y-98426236D01*
X115181952Y-98511269D01*
X115323357Y-98569841D01*
X115473472Y-98599700D01*
X115626528Y-98599700D01*
X115776643Y-98569841D01*
X115918048Y-98511269D01*
X116045309Y-98426236D01*
X116153536Y-98318009D01*
X116238569Y-98190748D01*
X116297141Y-98049343D01*
X116327000Y-97899228D01*
X116327000Y-97746172D01*
X116297141Y-97596057D01*
X116238569Y-97454652D01*
X116153536Y-97327391D01*
X116079155Y-97253010D01*
X116073203Y-97192585D01*
X116069374Y-97153705D01*
X116039239Y-97054365D01*
X115990304Y-96962813D01*
X115924448Y-96882567D01*
X115904339Y-96866064D01*
X115433940Y-96395666D01*
X115417433Y-96375552D01*
X115337187Y-96309696D01*
X115245635Y-96260761D01*
X115146295Y-96230626D01*
X115068866Y-96223000D01*
X115042985Y-96220451D01*
X115017104Y-96223000D01*
X112168290Y-96223000D01*
X111294272Y-95348982D01*
X139456160Y-95348982D01*
X139463481Y-95423389D01*
X139485162Y-95494862D01*
X139520370Y-95560732D01*
X139567752Y-95618468D01*
X139625488Y-95665850D01*
X139691358Y-95701058D01*
X139762831Y-95722739D01*
X139837160Y-95730060D01*
X143309340Y-95730060D01*
X143383593Y-95722754D01*
X143455070Y-95701088D01*
X143520947Y-95665893D01*
X143578692Y-95618523D01*
X143626086Y-95560797D01*
X143661308Y-95494935D01*
X143683004Y-95423466D01*
X143690340Y-95349138D01*
X143691055Y-91866720D01*
X148156971Y-91866720D01*
X148159521Y-91892611D01*
X148159520Y-95627979D01*
X148156971Y-95653860D01*
X148159520Y-95679740D01*
X148167146Y-95757169D01*
X148197281Y-95856509D01*
X148246216Y-95948062D01*
X148312072Y-96028308D01*
X148332186Y-96044815D01*
X149219536Y-96932166D01*
X149219536Y-97026640D01*
X149231138Y-97144440D01*
X149265499Y-97257713D01*
X149321299Y-97362107D01*
X149396392Y-97453608D01*
X149487893Y-97528701D01*
X149592287Y-97584501D01*
X149705560Y-97618862D01*
X149823360Y-97630464D01*
X150323360Y-97630464D01*
X150441160Y-97618862D01*
X150554433Y-97584501D01*
X150658827Y-97528701D01*
X150750328Y-97453608D01*
X150825421Y-97362107D01*
X150881221Y-97257713D01*
X150915582Y-97144440D01*
X150927184Y-97026640D01*
X150927184Y-96576640D01*
X150915582Y-96458840D01*
X150881221Y-96345567D01*
X150825421Y-96241173D01*
X150750328Y-96149672D01*
X150658827Y-96074579D01*
X150554433Y-96018779D01*
X150441160Y-95984418D01*
X150323360Y-95972816D01*
X149823360Y-95972816D01*
X149757274Y-95979325D01*
X149213520Y-95435571D01*
X149213520Y-94437376D01*
X149220978Y-94513100D01*
X149255339Y-94626373D01*
X149311139Y-94730767D01*
X149386232Y-94822268D01*
X149477733Y-94897361D01*
X149582127Y-94953161D01*
X149695400Y-94987522D01*
X149813200Y-94999124D01*
X150313200Y-94999124D01*
X150431000Y-94987522D01*
X150544273Y-94953161D01*
X150648667Y-94897361D01*
X150740168Y-94822268D01*
X150760659Y-94797300D01*
X151831080Y-94797300D01*
X151869520Y-94828847D01*
X151869521Y-96095508D01*
X151822092Y-96134432D01*
X151746999Y-96225933D01*
X151691199Y-96330327D01*
X151656838Y-96443600D01*
X151645236Y-96561400D01*
X151645236Y-97011400D01*
X151656838Y-97129200D01*
X151691199Y-97242473D01*
X151746999Y-97346867D01*
X151822092Y-97438368D01*
X151913593Y-97513461D01*
X152017987Y-97569261D01*
X152131260Y-97603622D01*
X152249060Y-97615224D01*
X152749060Y-97615224D01*
X152866860Y-97603622D01*
X152980133Y-97569261D01*
X153084527Y-97513461D01*
X153176028Y-97438368D01*
X153196519Y-97413400D01*
X156701366Y-97413400D01*
X156732160Y-97416433D01*
X156762954Y-97413400D01*
X156855073Y-97404327D01*
X156973263Y-97368475D01*
X157082188Y-97310253D01*
X157177661Y-97231901D01*
X157197298Y-97207973D01*
X159642288Y-94762984D01*
X161084400Y-94762984D01*
X161158305Y-94755705D01*
X161229370Y-94734148D01*
X161294863Y-94699141D01*
X161352269Y-94652029D01*
X161399381Y-94594623D01*
X161434388Y-94529130D01*
X161455945Y-94458065D01*
X161463224Y-94384160D01*
X161463224Y-92834160D01*
X161455945Y-92760255D01*
X161434388Y-92689190D01*
X161399381Y-92623697D01*
X161352269Y-92566291D01*
X161294863Y-92519179D01*
X161229370Y-92484172D01*
X161158305Y-92462615D01*
X161084400Y-92455336D01*
X160536400Y-92455336D01*
X160536400Y-90242271D01*
X160575651Y-90203020D01*
X161008060Y-90203020D01*
X161082389Y-90195699D01*
X161153862Y-90174018D01*
X161219732Y-90138810D01*
X161277468Y-90091428D01*
X161324850Y-90033692D01*
X161347920Y-89990530D01*
X161381056Y-90023665D01*
X161381056Y-90357200D01*
X161392658Y-90475000D01*
X161427019Y-90588273D01*
X161482819Y-90692667D01*
X161557912Y-90784168D01*
X161649413Y-90859261D01*
X161753807Y-90915061D01*
X161867080Y-90949422D01*
X161984880Y-90961024D01*
X162484880Y-90961024D01*
X162602680Y-90949422D01*
X162715953Y-90915061D01*
X162820347Y-90859261D01*
X162911848Y-90784168D01*
X162986941Y-90692667D01*
X163042741Y-90588273D01*
X163077102Y-90475000D01*
X163088704Y-90357200D01*
X163088704Y-89907200D01*
X163077102Y-89789400D01*
X163042741Y-89676127D01*
X162986941Y-89571733D01*
X162911848Y-89480232D01*
X162820347Y-89405139D01*
X162730660Y-89357200D01*
X162820347Y-89309261D01*
X162911848Y-89234168D01*
X162986941Y-89142667D01*
X163042741Y-89038273D01*
X163077102Y-88925000D01*
X163088704Y-88807200D01*
X163088704Y-88357200D01*
X163077102Y-88239400D01*
X163042741Y-88126127D01*
X162986941Y-88021733D01*
X162911848Y-87930232D01*
X162820347Y-87855139D01*
X162715953Y-87799339D01*
X162633080Y-87774200D01*
X162633080Y-87617789D01*
X163484176Y-88468886D01*
X163484176Y-88802420D01*
X163495778Y-88920220D01*
X163530139Y-89033493D01*
X163585939Y-89137887D01*
X163661032Y-89229388D01*
X163752533Y-89304481D01*
X163842220Y-89352420D01*
X163752533Y-89400359D01*
X163661032Y-89475452D01*
X163585939Y-89566953D01*
X163530139Y-89671347D01*
X163495778Y-89784620D01*
X163484176Y-89902420D01*
X163484176Y-90352420D01*
X163495778Y-90470220D01*
X163530139Y-90583493D01*
X163585939Y-90687887D01*
X163661032Y-90779388D01*
X163752533Y-90854481D01*
X163856927Y-90910281D01*
X163970200Y-90944642D01*
X164088000Y-90956244D01*
X164588000Y-90956244D01*
X164705800Y-90944642D01*
X164819073Y-90910281D01*
X164923467Y-90854481D01*
X165014968Y-90779388D01*
X165090061Y-90687887D01*
X165106863Y-90656453D01*
X165112100Y-90656969D01*
X165137981Y-90654420D01*
X165215410Y-90646794D01*
X165314750Y-90616659D01*
X165406302Y-90567724D01*
X165486548Y-90501868D01*
X165503055Y-90481754D01*
X166135059Y-89849751D01*
X166155168Y-89833248D01*
X166221024Y-89753002D01*
X166269959Y-89661450D01*
X166300094Y-89562110D01*
X166307720Y-89484681D01*
X166307720Y-89484679D01*
X166310269Y-89458801D01*
X166307720Y-89432923D01*
X166307720Y-88031801D01*
X166310269Y-88005920D01*
X166300094Y-87902610D01*
X166291805Y-87875284D01*
X166269959Y-87803270D01*
X166221024Y-87711718D01*
X166155168Y-87631472D01*
X166135064Y-87614973D01*
X165757655Y-87237566D01*
X165741148Y-87217452D01*
X165660902Y-87151596D01*
X165569350Y-87102661D01*
X165470010Y-87072526D01*
X165392581Y-87064900D01*
X165366700Y-87062351D01*
X165340819Y-87064900D01*
X164510571Y-87064900D01*
X164033080Y-86587411D01*
X164033080Y-86234797D01*
X164056068Y-86191790D01*
X164077625Y-86120725D01*
X164084904Y-86046820D01*
X164084904Y-84046820D01*
X164077625Y-83972915D01*
X164056068Y-83901850D01*
X164021061Y-83836357D01*
X163973949Y-83778951D01*
X163916543Y-83731839D01*
X163851050Y-83696832D01*
X163779985Y-83675275D01*
X163706080Y-83667996D01*
X163306080Y-83667996D01*
X163232175Y-83675275D01*
X163161110Y-83696832D01*
X163156080Y-83699521D01*
X163151050Y-83696832D01*
X163079985Y-83675275D01*
X163006080Y-83667996D01*
X162606080Y-83667996D01*
X162532175Y-83675275D01*
X162461110Y-83696832D01*
X162456080Y-83699521D01*
X162451050Y-83696832D01*
X162379985Y-83675275D01*
X162306080Y-83667996D01*
X161906080Y-83667996D01*
X161832175Y-83675275D01*
X161761110Y-83696832D01*
X161756080Y-83699521D01*
X161751050Y-83696832D01*
X161679985Y-83675275D01*
X161606080Y-83667996D01*
X161206080Y-83667996D01*
X161132175Y-83675275D01*
X161061110Y-83696832D01*
X161056080Y-83699521D01*
X161051050Y-83696832D01*
X160979985Y-83675275D01*
X160906080Y-83667996D01*
X160506080Y-83667996D01*
X160432175Y-83675275D01*
X160361110Y-83696832D01*
X160356080Y-83699521D01*
X160351050Y-83696832D01*
X160279985Y-83675275D01*
X160206080Y-83667996D01*
X159806080Y-83667996D01*
X159732175Y-83675275D01*
X159661110Y-83696832D01*
X159595617Y-83731839D01*
X159538211Y-83778951D01*
X159491099Y-83836357D01*
X159456092Y-83901850D01*
X159434535Y-83972915D01*
X159427256Y-84046820D01*
X159427256Y-86046820D01*
X159434535Y-86120725D01*
X159456092Y-86191790D01*
X159491099Y-86257283D01*
X159538211Y-86314689D01*
X159595617Y-86361801D01*
X159661110Y-86396808D01*
X159707236Y-86410800D01*
X159133080Y-86410800D01*
X159133080Y-86234797D01*
X159156068Y-86191790D01*
X159177625Y-86120725D01*
X159184904Y-86046820D01*
X159184904Y-84046820D01*
X159177625Y-83972915D01*
X159156068Y-83901850D01*
X159121061Y-83836357D01*
X159073949Y-83778951D01*
X159016543Y-83731839D01*
X158951050Y-83696832D01*
X158879985Y-83675275D01*
X158806080Y-83667996D01*
X158406080Y-83667996D01*
X158332175Y-83675275D01*
X158261110Y-83696832D01*
X158195617Y-83731839D01*
X158138211Y-83778951D01*
X158091099Y-83836357D01*
X158056092Y-83901850D01*
X158034535Y-83972915D01*
X158027256Y-84046820D01*
X158027256Y-86046820D01*
X158034535Y-86120725D01*
X158056092Y-86191790D01*
X158063708Y-86206039D01*
X157784904Y-85927235D01*
X157784904Y-84046820D01*
X157777625Y-83972915D01*
X157756068Y-83901850D01*
X157721061Y-83836357D01*
X157673949Y-83778951D01*
X157616543Y-83731839D01*
X157551050Y-83696832D01*
X157479985Y-83675275D01*
X157406080Y-83667996D01*
X157006080Y-83667996D01*
X156932175Y-83675275D01*
X156861110Y-83696832D01*
X156795617Y-83731839D01*
X156738211Y-83778951D01*
X156691099Y-83836357D01*
X156656092Y-83901850D01*
X156634535Y-83972915D01*
X156627256Y-84046820D01*
X156627256Y-86046820D01*
X156634535Y-86120725D01*
X156656092Y-86191790D01*
X156691099Y-86257283D01*
X156713136Y-86284135D01*
X156716841Y-86296349D01*
X156765776Y-86387902D01*
X156831632Y-86468148D01*
X156851746Y-86484655D01*
X157523180Y-87156090D01*
X157523180Y-89822020D01*
X157530501Y-89896349D01*
X157552182Y-89967822D01*
X157587390Y-90033692D01*
X157634772Y-90091428D01*
X157692508Y-90138810D01*
X157758378Y-90174018D01*
X157829851Y-90195699D01*
X157904180Y-90203020D01*
X159282401Y-90203020D01*
X159282400Y-92455336D01*
X158734400Y-92455336D01*
X158660495Y-92462615D01*
X158589430Y-92484172D01*
X158523937Y-92519179D01*
X158466531Y-92566291D01*
X158419419Y-92623697D01*
X158384412Y-92689190D01*
X158362855Y-92760255D01*
X158355576Y-92834160D01*
X158355576Y-94276272D01*
X156472449Y-96159400D01*
X153196519Y-96159400D01*
X153176028Y-96134432D01*
X153123520Y-96091340D01*
X153123520Y-94828847D01*
X153180810Y-94781830D01*
X153252795Y-94694117D01*
X153306284Y-94594046D01*
X153339222Y-94485463D01*
X153350344Y-94372540D01*
X153350344Y-93972540D01*
X153339222Y-93859617D01*
X153306284Y-93751034D01*
X153252795Y-93650963D01*
X153180810Y-93563250D01*
X153093097Y-93491265D01*
X152993026Y-93437776D01*
X152884443Y-93404838D01*
X152771520Y-93393716D01*
X152221520Y-93393716D01*
X152108597Y-93404838D01*
X152000014Y-93437776D01*
X151899943Y-93491265D01*
X151836539Y-93543300D01*
X150760659Y-93543300D01*
X150740168Y-93518332D01*
X150648667Y-93443239D01*
X150544273Y-93387439D01*
X150431000Y-93353078D01*
X150313200Y-93341476D01*
X149813200Y-93341476D01*
X149695400Y-93353078D01*
X149582127Y-93387439D01*
X149477733Y-93443239D01*
X149386232Y-93518332D01*
X149311139Y-93609833D01*
X149255339Y-93714227D01*
X149220978Y-93827500D01*
X149213520Y-93903224D01*
X149213520Y-92085009D01*
X149323910Y-91974620D01*
X151203311Y-91974620D01*
X151642696Y-92414006D01*
X151642696Y-92722540D01*
X151653818Y-92835463D01*
X151686756Y-92944046D01*
X151740245Y-93044117D01*
X151812230Y-93131830D01*
X151899943Y-93203815D01*
X152000014Y-93257304D01*
X152108597Y-93290242D01*
X152221520Y-93301364D01*
X152771520Y-93301364D01*
X152884443Y-93290242D01*
X152993026Y-93257304D01*
X153093097Y-93203815D01*
X153159231Y-93149540D01*
X154055576Y-93149540D01*
X154055576Y-94384160D01*
X154062855Y-94458065D01*
X154084412Y-94529130D01*
X154119419Y-94594623D01*
X154166531Y-94652029D01*
X154223937Y-94699141D01*
X154289430Y-94734148D01*
X154360495Y-94755705D01*
X154434400Y-94762984D01*
X156784400Y-94762984D01*
X156858305Y-94755705D01*
X156929370Y-94734148D01*
X156994863Y-94699141D01*
X157052269Y-94652029D01*
X157099381Y-94594623D01*
X157134388Y-94529130D01*
X157155945Y-94458065D01*
X157163224Y-94384160D01*
X157163224Y-92834160D01*
X157155945Y-92760255D01*
X157134388Y-92689190D01*
X157099381Y-92623697D01*
X157052269Y-92566291D01*
X156994863Y-92519179D01*
X156929370Y-92484172D01*
X156858305Y-92462615D01*
X156784400Y-92455336D01*
X156136400Y-92455336D01*
X156136400Y-87172121D01*
X156138949Y-87146240D01*
X156128774Y-87042930D01*
X156098639Y-86943590D01*
X156049704Y-86852038D01*
X155983848Y-86771792D01*
X155963739Y-86755289D01*
X155633080Y-86424631D01*
X155633080Y-86234797D01*
X155656068Y-86191790D01*
X155677625Y-86120725D01*
X155684904Y-86046820D01*
X155684904Y-84046820D01*
X155677625Y-83972915D01*
X155656068Y-83901850D01*
X155621061Y-83836357D01*
X155573949Y-83778951D01*
X155516543Y-83731839D01*
X155451050Y-83696832D01*
X155379985Y-83675275D01*
X155306080Y-83667996D01*
X154906080Y-83667996D01*
X154832175Y-83675275D01*
X154761110Y-83696832D01*
X154695617Y-83731839D01*
X154638211Y-83778951D01*
X154591099Y-83836357D01*
X154556092Y-83901850D01*
X154534535Y-83972915D01*
X154527256Y-84046820D01*
X154527256Y-86046820D01*
X154534535Y-86120725D01*
X154556092Y-86191790D01*
X154579080Y-86234798D01*
X154579080Y-86617036D01*
X154576531Y-86642920D01*
X154579080Y-86668800D01*
X154586706Y-86746229D01*
X154616841Y-86845569D01*
X154665776Y-86937122D01*
X154731632Y-87017368D01*
X154751746Y-87033875D01*
X155082400Y-87364530D01*
X155082401Y-92195450D01*
X154987918Y-92100967D01*
X154968281Y-92077039D01*
X154872808Y-91998687D01*
X154763883Y-91940465D01*
X154645693Y-91904613D01*
X154553574Y-91895540D01*
X154522780Y-91892507D01*
X154491986Y-91895540D01*
X153159231Y-91895540D01*
X153093097Y-91841265D01*
X152993026Y-91787776D01*
X152884443Y-91754838D01*
X152771520Y-91743716D01*
X152462986Y-91743716D01*
X151812555Y-91093286D01*
X151796048Y-91073172D01*
X151715802Y-91007316D01*
X151624250Y-90958381D01*
X151524910Y-90928246D01*
X151447481Y-90920620D01*
X151421600Y-90918071D01*
X151395719Y-90920620D01*
X149131501Y-90920620D01*
X149105620Y-90918071D01*
X149079739Y-90920620D01*
X149002310Y-90928246D01*
X148902970Y-90958381D01*
X148811418Y-91007316D01*
X148731172Y-91073172D01*
X148714669Y-91093281D01*
X148332181Y-91475769D01*
X148312073Y-91492272D01*
X148269506Y-91544140D01*
X148246216Y-91572519D01*
X148197281Y-91664071D01*
X148167146Y-91763411D01*
X148156971Y-91866720D01*
X143691055Y-91866720D01*
X143691610Y-89164238D01*
X143684289Y-89089831D01*
X143662608Y-89018358D01*
X143627400Y-88952488D01*
X143580018Y-88894752D01*
X143522282Y-88847370D01*
X143456412Y-88812162D01*
X143384939Y-88790481D01*
X143310610Y-88783160D01*
X139838430Y-88783160D01*
X139764177Y-88790466D01*
X139692700Y-88812132D01*
X139626823Y-88847327D01*
X139569078Y-88894697D01*
X139521684Y-88952423D01*
X139486462Y-89018285D01*
X139464766Y-89089754D01*
X139457430Y-89164082D01*
X139456160Y-95348982D01*
X111294272Y-95348982D01*
X109627000Y-93681711D01*
X109627000Y-93573472D01*
X109602988Y-93452751D01*
X115409800Y-93452751D01*
X115409800Y-93694449D01*
X115456953Y-93931503D01*
X115549447Y-94154802D01*
X115683727Y-94355767D01*
X115854633Y-94526673D01*
X116055598Y-94660953D01*
X116278897Y-94753447D01*
X116515951Y-94800600D01*
X116757649Y-94800600D01*
X116994703Y-94753447D01*
X117218002Y-94660953D01*
X117418967Y-94526673D01*
X117589873Y-94355767D01*
X117724153Y-94154802D01*
X117816647Y-93931503D01*
X117863800Y-93694449D01*
X117863800Y-93452751D01*
X117816647Y-93215697D01*
X117724153Y-92992398D01*
X117589873Y-92791433D01*
X117418967Y-92620527D01*
X117218002Y-92486247D01*
X117089000Y-92432812D01*
X129072880Y-92432812D01*
X129072880Y-92585868D01*
X129102739Y-92735983D01*
X129161311Y-92877388D01*
X129246344Y-93004649D01*
X129354571Y-93112876D01*
X129481832Y-93197909D01*
X129623237Y-93256481D01*
X129773352Y-93286340D01*
X129926408Y-93286340D01*
X130076523Y-93256481D01*
X130217928Y-93197909D01*
X130310073Y-93136340D01*
X131652966Y-93136340D01*
X131683760Y-93139373D01*
X131714554Y-93136340D01*
X131806673Y-93127267D01*
X131924863Y-93091415D01*
X132033788Y-93033193D01*
X132129261Y-92954841D01*
X132148898Y-92930913D01*
X134067951Y-91011861D01*
X134176643Y-90990241D01*
X134318048Y-90931669D01*
X134445309Y-90846636D01*
X134553536Y-90738409D01*
X134638569Y-90611148D01*
X134697141Y-90469743D01*
X134727000Y-90319628D01*
X134727000Y-90166572D01*
X134697141Y-90016457D01*
X134638569Y-89875052D01*
X134553536Y-89747791D01*
X134445309Y-89639564D01*
X134318048Y-89554531D01*
X134176643Y-89495959D01*
X134026528Y-89466100D01*
X133873472Y-89466100D01*
X133723357Y-89495959D01*
X133581952Y-89554531D01*
X133454691Y-89639564D01*
X133346464Y-89747791D01*
X133261431Y-89875052D01*
X133202859Y-90016457D01*
X133181239Y-90125149D01*
X131424049Y-91882340D01*
X130310073Y-91882340D01*
X130217928Y-91820771D01*
X130076523Y-91762199D01*
X129926408Y-91732340D01*
X129773352Y-91732340D01*
X129623237Y-91762199D01*
X129481832Y-91820771D01*
X129354571Y-91905804D01*
X129246344Y-92014031D01*
X129161311Y-92141292D01*
X129102739Y-92282697D01*
X129072880Y-92432812D01*
X117089000Y-92432812D01*
X116994703Y-92393753D01*
X116757649Y-92346600D01*
X116515951Y-92346600D01*
X116278897Y-92393753D01*
X116055598Y-92486247D01*
X115854633Y-92620527D01*
X115683727Y-92791433D01*
X115549447Y-92992398D01*
X115456953Y-93215697D01*
X115409800Y-93452751D01*
X109602988Y-93452751D01*
X109597141Y-93423357D01*
X109538569Y-93281952D01*
X109453536Y-93154691D01*
X109345309Y-93046464D01*
X109218048Y-92961431D01*
X109076643Y-92902859D01*
X108926528Y-92873000D01*
X108773472Y-92873000D01*
X108623357Y-92902859D01*
X108481952Y-92961431D01*
X108354691Y-93046464D01*
X108246464Y-93154691D01*
X108161431Y-93281952D01*
X108102859Y-93423357D01*
X108073000Y-93573472D01*
X90627000Y-93573472D01*
X90627000Y-89973472D01*
X97873000Y-89973472D01*
X97873000Y-90126528D01*
X97902859Y-90276643D01*
X97961431Y-90418048D01*
X98023001Y-90510194D01*
X98023000Y-92039807D01*
X97961431Y-92131952D01*
X97902859Y-92273357D01*
X97873000Y-92423472D01*
X97873000Y-92576528D01*
X97902859Y-92726643D01*
X97961431Y-92868048D01*
X98046464Y-92995309D01*
X98154691Y-93103536D01*
X98281952Y-93188569D01*
X98423357Y-93247141D01*
X98573472Y-93277000D01*
X98726528Y-93277000D01*
X98876643Y-93247141D01*
X99018048Y-93188569D01*
X99145309Y-93103536D01*
X99253536Y-92995309D01*
X99338569Y-92868048D01*
X99397141Y-92726643D01*
X99427000Y-92576528D01*
X99427000Y-92423472D01*
X99397141Y-92273357D01*
X99338569Y-92131952D01*
X99277000Y-92039807D01*
X99277000Y-90510193D01*
X99338569Y-90418048D01*
X99397141Y-90276643D01*
X99415647Y-90183600D01*
X115407976Y-90183600D01*
X115407976Y-91883600D01*
X115415255Y-91957505D01*
X115436812Y-92028570D01*
X115471819Y-92094063D01*
X115518931Y-92151469D01*
X115576337Y-92198581D01*
X115641830Y-92233588D01*
X115712895Y-92255145D01*
X115786800Y-92262424D01*
X117486800Y-92262424D01*
X117560705Y-92255145D01*
X117631770Y-92233588D01*
X117697263Y-92198581D01*
X117754669Y-92151469D01*
X117801781Y-92094063D01*
X117836788Y-92028570D01*
X117858345Y-91957505D01*
X117865624Y-91883600D01*
X117865624Y-91467612D01*
X123949700Y-91467612D01*
X123949700Y-91620668D01*
X123979559Y-91770783D01*
X124038131Y-91912188D01*
X124123164Y-92039449D01*
X124231391Y-92147676D01*
X124358652Y-92232709D01*
X124500057Y-92291281D01*
X124650172Y-92321140D01*
X124803228Y-92321140D01*
X124953343Y-92291281D01*
X125094748Y-92232709D01*
X125222009Y-92147676D01*
X125330236Y-92039449D01*
X125415269Y-91912188D01*
X125473841Y-91770783D01*
X125503700Y-91620668D01*
X125503700Y-91512429D01*
X128639130Y-88377000D01*
X137450195Y-88377000D01*
X137526731Y-88453536D01*
X137653992Y-88538569D01*
X137795397Y-88597141D01*
X137945512Y-88627000D01*
X138098568Y-88627000D01*
X138248683Y-88597141D01*
X138390088Y-88538569D01*
X138517349Y-88453536D01*
X138625576Y-88345309D01*
X138634602Y-88331800D01*
X144408776Y-88331800D01*
X144408776Y-88781800D01*
X144420378Y-88899600D01*
X144454739Y-89012873D01*
X144510539Y-89117267D01*
X144585632Y-89208768D01*
X144677133Y-89283861D01*
X144781527Y-89339661D01*
X144894800Y-89374022D01*
X145012600Y-89385624D01*
X145512600Y-89385624D01*
X145630400Y-89374022D01*
X145743673Y-89339661D01*
X145848067Y-89283861D01*
X145939568Y-89208768D01*
X146014661Y-89117267D01*
X146070461Y-89012873D01*
X146104822Y-88899600D01*
X146116424Y-88781800D01*
X146116424Y-88331800D01*
X146104822Y-88214000D01*
X146070461Y-88100727D01*
X146014661Y-87996333D01*
X145939568Y-87904832D01*
X145848067Y-87829739D01*
X145833080Y-87821728D01*
X145833080Y-87431929D01*
X146844636Y-88443486D01*
X146844636Y-88777020D01*
X146856238Y-88894820D01*
X146890599Y-89008093D01*
X146946399Y-89112487D01*
X147021492Y-89203988D01*
X147112993Y-89279081D01*
X147217387Y-89334881D01*
X147330660Y-89369242D01*
X147448460Y-89380844D01*
X147948460Y-89380844D01*
X148066260Y-89369242D01*
X148179533Y-89334881D01*
X148283927Y-89279081D01*
X148375428Y-89203988D01*
X148450521Y-89112487D01*
X148506321Y-89008093D01*
X148540682Y-88894820D01*
X148544498Y-88856071D01*
X148556822Y-88871088D01*
X148637068Y-88936944D01*
X148728620Y-88985879D01*
X148817606Y-89012873D01*
X148827960Y-89016014D01*
X148931270Y-89026189D01*
X148957151Y-89023640D01*
X149306296Y-89023640D01*
X149373830Y-89105930D01*
X149461543Y-89177915D01*
X149561614Y-89231404D01*
X149670197Y-89264342D01*
X149783120Y-89275464D01*
X150333120Y-89275464D01*
X150446043Y-89264342D01*
X150554626Y-89231404D01*
X150654697Y-89177915D01*
X150742410Y-89105930D01*
X150814395Y-89018217D01*
X150867884Y-88918146D01*
X150900822Y-88809563D01*
X150911944Y-88696640D01*
X150911944Y-88296640D01*
X150900822Y-88183717D01*
X150867884Y-88075134D01*
X150814395Y-87975063D01*
X150742410Y-87887350D01*
X150654697Y-87815365D01*
X150554626Y-87761876D01*
X150446043Y-87728938D01*
X150333120Y-87717816D01*
X149783120Y-87717816D01*
X149670197Y-87728938D01*
X149561614Y-87761876D01*
X149461543Y-87815365D01*
X149373830Y-87887350D01*
X149306296Y-87969640D01*
X149149560Y-87969640D01*
X147279689Y-86099770D01*
X147284904Y-86046820D01*
X147284904Y-84046820D01*
X147277625Y-83972915D01*
X147256068Y-83901850D01*
X147221061Y-83836357D01*
X147173949Y-83778951D01*
X147116543Y-83731839D01*
X147051050Y-83696832D01*
X146979985Y-83675275D01*
X146906080Y-83667996D01*
X146506080Y-83667996D01*
X146432175Y-83675275D01*
X146361110Y-83696832D01*
X146356080Y-83699521D01*
X146351050Y-83696832D01*
X146279985Y-83675275D01*
X146206080Y-83667996D01*
X145806080Y-83667996D01*
X145732175Y-83675275D01*
X145661110Y-83696832D01*
X145656080Y-83699521D01*
X145651050Y-83696832D01*
X145579985Y-83675275D01*
X145506080Y-83667996D01*
X145106080Y-83667996D01*
X145032175Y-83675275D01*
X144961110Y-83696832D01*
X144895617Y-83731839D01*
X144838211Y-83778951D01*
X144791099Y-83836357D01*
X144756092Y-83901850D01*
X144734535Y-83972915D01*
X144727256Y-84046820D01*
X144727256Y-86046820D01*
X144734535Y-86120725D01*
X144756092Y-86191790D01*
X144779080Y-86234798D01*
X144779081Y-87775247D01*
X144677133Y-87829739D01*
X144585632Y-87904832D01*
X144510539Y-87996333D01*
X144454739Y-88100727D01*
X144420378Y-88214000D01*
X144408776Y-88331800D01*
X138634602Y-88331800D01*
X138710609Y-88218048D01*
X138769181Y-88076643D01*
X138799040Y-87926528D01*
X138799040Y-87773472D01*
X138769181Y-87623357D01*
X138710609Y-87481952D01*
X138625576Y-87354691D01*
X138517349Y-87246464D01*
X138390088Y-87161431D01*
X138248683Y-87102859D01*
X138098568Y-87073000D01*
X137945512Y-87073000D01*
X137795397Y-87102859D01*
X137653992Y-87161431D01*
X137526731Y-87246464D01*
X137450195Y-87323000D01*
X128446721Y-87323000D01*
X128420840Y-87320451D01*
X128394959Y-87323000D01*
X128317530Y-87330626D01*
X128218190Y-87360761D01*
X128126638Y-87409696D01*
X128046392Y-87475552D01*
X128029889Y-87495661D01*
X124758411Y-90767140D01*
X124650172Y-90767140D01*
X124500057Y-90796999D01*
X124358652Y-90855571D01*
X124231391Y-90940604D01*
X124123164Y-91048831D01*
X124038131Y-91176092D01*
X123979559Y-91317497D01*
X123949700Y-91467612D01*
X117865624Y-91467612D01*
X117865624Y-90183600D01*
X117858345Y-90109695D01*
X117836788Y-90038630D01*
X117801781Y-89973137D01*
X117754669Y-89915731D01*
X117697263Y-89868619D01*
X117631770Y-89833612D01*
X117560705Y-89812055D01*
X117486800Y-89804776D01*
X115786800Y-89804776D01*
X115712895Y-89812055D01*
X115641830Y-89833612D01*
X115576337Y-89868619D01*
X115518931Y-89915731D01*
X115471819Y-89973137D01*
X115436812Y-90038630D01*
X115415255Y-90109695D01*
X115407976Y-90183600D01*
X99415647Y-90183600D01*
X99427000Y-90126528D01*
X99427000Y-89973472D01*
X99397141Y-89823357D01*
X99338569Y-89681952D01*
X99253536Y-89554691D01*
X99145309Y-89446464D01*
X99018048Y-89361431D01*
X98876643Y-89302859D01*
X98726528Y-89273000D01*
X98573472Y-89273000D01*
X98423357Y-89302859D01*
X98281952Y-89361431D01*
X98154691Y-89446464D01*
X98046464Y-89554691D01*
X97961431Y-89681952D01*
X97902859Y-89823357D01*
X97873000Y-89973472D01*
X90627000Y-89973472D01*
X90627000Y-88538680D01*
X119372076Y-88538680D01*
X119372076Y-89538680D01*
X119379355Y-89612585D01*
X119400912Y-89683650D01*
X119435919Y-89749143D01*
X119483031Y-89806549D01*
X119540437Y-89853661D01*
X119605930Y-89888668D01*
X119676995Y-89910225D01*
X119750900Y-89917504D01*
X123250900Y-89917504D01*
X123306783Y-89912000D01*
X124387610Y-89912000D01*
X124460216Y-89904942D01*
X124530993Y-89883669D01*
X124596260Y-89848997D01*
X124653508Y-89802258D01*
X124700539Y-89745249D01*
X124735543Y-89680160D01*
X124757177Y-89609492D01*
X124764609Y-89535962D01*
X124767149Y-88540282D01*
X124759906Y-88465771D01*
X124738453Y-88395048D01*
X124703614Y-88329870D01*
X124656729Y-88272741D01*
X124599600Y-88225856D01*
X124534422Y-88191017D01*
X124463699Y-88169564D01*
X124390150Y-88162320D01*
X123275917Y-88162320D01*
X123250900Y-88159856D01*
X119750900Y-88159856D01*
X119676995Y-88167135D01*
X119605930Y-88188692D01*
X119540437Y-88223699D01*
X119483031Y-88270811D01*
X119435919Y-88328217D01*
X119400912Y-88393710D01*
X119379355Y-88464775D01*
X119372076Y-88538680D01*
X90627000Y-88538680D01*
X90627000Y-86877000D01*
X114221510Y-86877000D01*
X114180239Y-86976637D01*
X114150380Y-87126752D01*
X114150380Y-87279808D01*
X114180239Y-87429923D01*
X114238811Y-87571328D01*
X114323844Y-87698589D01*
X114432071Y-87806816D01*
X114559332Y-87891849D01*
X114700737Y-87950421D01*
X114850852Y-87980280D01*
X115003908Y-87980280D01*
X115154023Y-87950421D01*
X115295428Y-87891849D01*
X115387573Y-87830280D01*
X117563048Y-87830280D01*
X117572000Y-87875284D01*
X117630572Y-88016689D01*
X117715605Y-88143950D01*
X117823832Y-88252177D01*
X117951093Y-88337210D01*
X118092498Y-88395782D01*
X118242613Y-88425641D01*
X118395669Y-88425641D01*
X118545784Y-88395782D01*
X118687189Y-88337210D01*
X118814450Y-88252177D01*
X118922677Y-88143950D01*
X119007710Y-88016689D01*
X119066282Y-87875284D01*
X119096141Y-87725169D01*
X119096141Y-87572113D01*
X119066282Y-87421998D01*
X119007710Y-87280593D01*
X118922677Y-87153332D01*
X118814450Y-87045105D01*
X118687189Y-86960072D01*
X118545784Y-86901500D01*
X118437091Y-86879880D01*
X118338918Y-86781707D01*
X118325489Y-86765343D01*
X118327000Y-86750000D01*
X118327000Y-83473472D01*
X122023000Y-83473472D01*
X122023000Y-83626528D01*
X122052859Y-83776643D01*
X122111431Y-83918048D01*
X122196464Y-84045309D01*
X122304691Y-84153536D01*
X122431952Y-84238569D01*
X122573357Y-84297141D01*
X122723472Y-84327000D01*
X122876528Y-84327000D01*
X123026643Y-84297141D01*
X123168048Y-84238569D01*
X123295309Y-84153536D01*
X123403536Y-84045309D01*
X123488569Y-83918048D01*
X123547141Y-83776643D01*
X123577000Y-83626528D01*
X123577000Y-83518289D01*
X124449849Y-82645440D01*
X139182236Y-82645440D01*
X139182236Y-83145440D01*
X139194319Y-83268117D01*
X139230102Y-83386081D01*
X139288212Y-83494796D01*
X139366414Y-83590086D01*
X139461704Y-83668288D01*
X139570419Y-83726398D01*
X139688383Y-83762181D01*
X139811060Y-83774264D01*
X141311060Y-83774264D01*
X141433737Y-83762181D01*
X141551701Y-83726398D01*
X141660416Y-83668288D01*
X141755706Y-83590086D01*
X141833908Y-83494796D01*
X141892018Y-83386081D01*
X141927801Y-83268117D01*
X141938369Y-83160820D01*
X143042295Y-83160820D01*
X143118831Y-83237356D01*
X143246092Y-83322389D01*
X143387497Y-83380961D01*
X143537612Y-83410820D01*
X143690668Y-83410820D01*
X143840783Y-83380961D01*
X143982188Y-83322389D01*
X144109449Y-83237356D01*
X144217676Y-83129129D01*
X144302709Y-83001868D01*
X144361281Y-82860463D01*
X144391140Y-82710348D01*
X144391140Y-82557292D01*
X144361281Y-82407177D01*
X144302709Y-82265772D01*
X144217676Y-82138511D01*
X144187322Y-82108157D01*
X149212540Y-82108157D01*
X149212540Y-82261213D01*
X149242399Y-82411328D01*
X149300971Y-82552733D01*
X149386004Y-82679994D01*
X149494231Y-82788221D01*
X149621492Y-82873254D01*
X149762897Y-82931826D01*
X149913012Y-82961685D01*
X150021251Y-82961685D01*
X150379080Y-83319515D01*
X150379080Y-83707302D01*
X150334812Y-83743632D01*
X150287430Y-83801368D01*
X150252222Y-83867238D01*
X150230541Y-83938711D01*
X150223220Y-84013040D01*
X150223220Y-86123780D01*
X150230541Y-86198109D01*
X150252222Y-86269582D01*
X150287430Y-86335452D01*
X150334812Y-86393188D01*
X150392548Y-86440570D01*
X150458418Y-86475778D01*
X150529891Y-86497459D01*
X150604220Y-86504780D01*
X151110560Y-86504780D01*
X151116841Y-86525484D01*
X151165776Y-86617037D01*
X151231632Y-86697283D01*
X151251746Y-86713790D01*
X151811054Y-87273099D01*
X151754611Y-87357572D01*
X151696039Y-87498977D01*
X151666180Y-87649092D01*
X151666180Y-87802148D01*
X151696039Y-87952263D01*
X151754611Y-88093668D01*
X151839644Y-88220929D01*
X151947871Y-88329156D01*
X152075132Y-88414189D01*
X152216537Y-88472761D01*
X152366652Y-88502620D01*
X152519708Y-88502620D01*
X152669823Y-88472761D01*
X152811228Y-88414189D01*
X152938489Y-88329156D01*
X153046716Y-88220929D01*
X153131749Y-88093668D01*
X153174700Y-87989975D01*
X153217651Y-88093668D01*
X153302684Y-88220929D01*
X153410911Y-88329156D01*
X153538172Y-88414189D01*
X153679577Y-88472761D01*
X153829692Y-88502620D01*
X153982748Y-88502620D01*
X154132863Y-88472761D01*
X154274268Y-88414189D01*
X154401529Y-88329156D01*
X154509756Y-88220929D01*
X154594789Y-88093668D01*
X154653361Y-87952263D01*
X154683220Y-87802148D01*
X154683220Y-87649092D01*
X154653361Y-87498977D01*
X154594789Y-87357572D01*
X154509756Y-87230311D01*
X154401529Y-87122084D01*
X154274268Y-87037051D01*
X154132863Y-86978479D01*
X153982748Y-86948620D01*
X153829692Y-86948620D01*
X153708401Y-86972746D01*
X152912894Y-86177240D01*
X152918160Y-86123780D01*
X152918160Y-84013040D01*
X152910839Y-83938711D01*
X152889158Y-83867238D01*
X152853950Y-83801368D01*
X152833080Y-83775937D01*
X152833080Y-82975610D01*
X152835629Y-82949729D01*
X152825454Y-82846420D01*
X152795319Y-82747080D01*
X152746384Y-82655528D01*
X152738105Y-82645440D01*
X152680528Y-82575282D01*
X152660419Y-82558779D01*
X152318035Y-82216395D01*
X152318035Y-82108157D01*
X152288176Y-81958042D01*
X152229604Y-81816637D01*
X152144571Y-81689376D01*
X152036344Y-81581149D01*
X151909083Y-81496116D01*
X151767678Y-81437544D01*
X151617563Y-81407685D01*
X151464507Y-81407685D01*
X151314392Y-81437544D01*
X151172987Y-81496116D01*
X151045726Y-81581149D01*
X150937499Y-81689376D01*
X150852466Y-81816637D01*
X150793894Y-81958042D01*
X150765288Y-82101860D01*
X150736681Y-81958042D01*
X150678109Y-81816637D01*
X150593076Y-81689376D01*
X150484849Y-81581149D01*
X150357588Y-81496116D01*
X150216183Y-81437544D01*
X150066068Y-81407685D01*
X149913012Y-81407685D01*
X149762897Y-81437544D01*
X149621492Y-81496116D01*
X149494231Y-81581149D01*
X149386004Y-81689376D01*
X149300971Y-81816637D01*
X149242399Y-81958042D01*
X149212540Y-82108157D01*
X144187322Y-82108157D01*
X144109449Y-82030284D01*
X143982188Y-81945251D01*
X143840783Y-81886679D01*
X143690668Y-81856820D01*
X143537612Y-81856820D01*
X143387497Y-81886679D01*
X143246092Y-81945251D01*
X143118831Y-82030284D01*
X143042295Y-82106820D01*
X141630909Y-82106820D01*
X141551701Y-82064482D01*
X141433737Y-82028699D01*
X141311060Y-82016616D01*
X139811060Y-82016616D01*
X139688383Y-82028699D01*
X139570419Y-82064482D01*
X139461704Y-82122592D01*
X139366414Y-82200794D01*
X139288212Y-82296084D01*
X139230102Y-82404799D01*
X139194319Y-82522763D01*
X139182236Y-82645440D01*
X124449849Y-82645440D01*
X124718290Y-82377000D01*
X124826528Y-82377000D01*
X124976643Y-82347141D01*
X125118048Y-82288569D01*
X125245309Y-82203536D01*
X125353536Y-82095309D01*
X125438569Y-81968048D01*
X125497141Y-81826643D01*
X125527000Y-81676528D01*
X125527000Y-81523472D01*
X125497141Y-81373357D01*
X125438569Y-81231952D01*
X125353536Y-81104691D01*
X125245309Y-80996464D01*
X125118048Y-80911431D01*
X124976643Y-80852859D01*
X124826528Y-80823000D01*
X124673472Y-80823000D01*
X124523357Y-80852859D01*
X124381952Y-80911431D01*
X124254691Y-80996464D01*
X124146464Y-81104691D01*
X124061431Y-81231952D01*
X124002859Y-81373357D01*
X123973000Y-81523472D01*
X123973000Y-81631710D01*
X122831711Y-82773000D01*
X122723472Y-82773000D01*
X122573357Y-82802859D01*
X122431952Y-82861431D01*
X122304691Y-82946464D01*
X122196464Y-83054691D01*
X122111431Y-83181952D01*
X122052859Y-83323357D01*
X122023000Y-83473472D01*
X118327000Y-83473472D01*
X118327000Y-80727000D01*
X139250350Y-80727000D01*
X139248276Y-80748060D01*
G37*
G04 #@! TD.AperFunction*
D24*
X124260933Y-89408000D02*
X120838907Y-89408000D01*
X120837015Y-88666320D01*
X124262825Y-88666320D01*
X124260933Y-89408000D01*
G04 #@! TA.AperFunction,Conductor*
D25*
G36*
X124260933Y-89408000D02*
G01*
X120838907Y-89408000D01*
X120837015Y-88666320D01*
X124262825Y-88666320D01*
X124260933Y-89408000D01*
G37*
G04 #@! TD.AperFunction*
M02*
