%TF.GenerationSoftware,KiCad,Pcbnew,5.1.8-db9833491~87~ubuntu20.04.1*%
%TF.CreationDate,2020-12-03T15:39:07+05:30*%
%TF.ProjectId,open_authenticator,6f70656e-5f61-4757-9468-656e74696361,v01*%
%TF.SameCoordinates,Original*%
%TF.FileFunction,Legend,Top*%
%TF.FilePolarity,Positive*%
%FSLAX46Y46*%
G04 Gerber Fmt 4.6, Leading zero omitted, Abs format (unit mm)*
G04 Created by KiCad (PCBNEW 5.1.8-db9833491~87~ubuntu20.04.1) date 2020-12-03 15:39:07*
%MOMM*%
%LPD*%
G01*
G04 APERTURE LIST*
%ADD10C,0.250000*%
%ADD11C,0.125000*%
%ADD12C,0.187500*%
%ADD13C,0.150000*%
%ADD14C,0.120000*%
%ADD15C,0.200000*%
%ADD16C,0.100000*%
%ADD17C,0.254000*%
G04 APERTURE END LIST*
D10*
X129590847Y-82875428D02*
X130352752Y-82875428D01*
X129971800Y-83256380D02*
X129971800Y-82494476D01*
D11*
X153861400Y-85525733D02*
X153961400Y-85559066D01*
X154128066Y-85559066D01*
X154194733Y-85525733D01*
X154228066Y-85492400D01*
X154261400Y-85425733D01*
X154261400Y-85359066D01*
X154228066Y-85292400D01*
X154194733Y-85259066D01*
X154128066Y-85225733D01*
X153994733Y-85192400D01*
X153928066Y-85159066D01*
X153894733Y-85125733D01*
X153861400Y-85059066D01*
X153861400Y-84992400D01*
X153894733Y-84925733D01*
X153928066Y-84892400D01*
X153994733Y-84859066D01*
X154161400Y-84859066D01*
X154261400Y-84892400D01*
X154561400Y-85559066D02*
X154561400Y-84859066D01*
X154728066Y-84859066D01*
X154828066Y-84892400D01*
X154894733Y-84959066D01*
X154928066Y-85025733D01*
X154961400Y-85159066D01*
X154961400Y-85259066D01*
X154928066Y-85392400D01*
X154894733Y-85459066D01*
X154828066Y-85525733D01*
X154728066Y-85559066D01*
X154561400Y-85559066D01*
X155228066Y-85359066D02*
X155561400Y-85359066D01*
X155161400Y-85559066D02*
X155394733Y-84859066D01*
X155628066Y-85559066D01*
X151338066Y-85525733D02*
X151438066Y-85559066D01*
X151604733Y-85559066D01*
X151671400Y-85525733D01*
X151704733Y-85492400D01*
X151738066Y-85425733D01*
X151738066Y-85359066D01*
X151704733Y-85292400D01*
X151671400Y-85259066D01*
X151604733Y-85225733D01*
X151471400Y-85192400D01*
X151404733Y-85159066D01*
X151371400Y-85125733D01*
X151338066Y-85059066D01*
X151338066Y-84992400D01*
X151371400Y-84925733D01*
X151404733Y-84892400D01*
X151471400Y-84859066D01*
X151638066Y-84859066D01*
X151738066Y-84892400D01*
X152438066Y-85492400D02*
X152404733Y-85525733D01*
X152304733Y-85559066D01*
X152238066Y-85559066D01*
X152138066Y-85525733D01*
X152071400Y-85459066D01*
X152038066Y-85392400D01*
X152004733Y-85259066D01*
X152004733Y-85159066D01*
X152038066Y-85025733D01*
X152071400Y-84959066D01*
X152138066Y-84892400D01*
X152238066Y-84859066D01*
X152304733Y-84859066D01*
X152404733Y-84892400D01*
X152438066Y-84925733D01*
X153071400Y-85559066D02*
X152738066Y-85559066D01*
X152738066Y-84859066D01*
X148748866Y-84859066D02*
X148982200Y-85559066D01*
X149215533Y-84859066D01*
X149848866Y-85492400D02*
X149815533Y-85525733D01*
X149715533Y-85559066D01*
X149648866Y-85559066D01*
X149548866Y-85525733D01*
X149482200Y-85459066D01*
X149448866Y-85392400D01*
X149415533Y-85259066D01*
X149415533Y-85159066D01*
X149448866Y-85025733D01*
X149482200Y-84959066D01*
X149548866Y-84892400D01*
X149648866Y-84859066D01*
X149715533Y-84859066D01*
X149815533Y-84892400D01*
X149848866Y-84925733D01*
X150548866Y-85492400D02*
X150515533Y-85525733D01*
X150415533Y-85559066D01*
X150348866Y-85559066D01*
X150248866Y-85525733D01*
X150182200Y-85459066D01*
X150148866Y-85392400D01*
X150115533Y-85259066D01*
X150115533Y-85159066D01*
X150148866Y-85025733D01*
X150182200Y-84959066D01*
X150248866Y-84892400D01*
X150348866Y-84859066D01*
X150415533Y-84859066D01*
X150515533Y-84892400D01*
X150548866Y-84925733D01*
X146532666Y-84867000D02*
X146466000Y-84833666D01*
X146366000Y-84833666D01*
X146266000Y-84867000D01*
X146199333Y-84933666D01*
X146166000Y-85000333D01*
X146132666Y-85133666D01*
X146132666Y-85233666D01*
X146166000Y-85367000D01*
X146199333Y-85433666D01*
X146266000Y-85500333D01*
X146366000Y-85533666D01*
X146432666Y-85533666D01*
X146532666Y-85500333D01*
X146566000Y-85467000D01*
X146566000Y-85233666D01*
X146432666Y-85233666D01*
X146866000Y-85533666D02*
X146866000Y-84833666D01*
X147266000Y-85533666D01*
X147266000Y-84833666D01*
X147599333Y-85533666D02*
X147599333Y-84833666D01*
X147766000Y-84833666D01*
X147866000Y-84867000D01*
X147932666Y-84933666D01*
X147966000Y-85000333D01*
X147999333Y-85133666D01*
X147999333Y-85233666D01*
X147966000Y-85367000D01*
X147932666Y-85433666D01*
X147866000Y-85500333D01*
X147766000Y-85533666D01*
X147599333Y-85533666D01*
D10*
X121691447Y-93619628D02*
X122453352Y-93619628D01*
X122072400Y-94000580D02*
X122072400Y-93238676D01*
D12*
X115830457Y-95423485D02*
X116259028Y-95423485D01*
X116044742Y-96173485D02*
X116044742Y-95423485D01*
X117009028Y-95423485D02*
X117509028Y-96173485D01*
X117509028Y-95423485D02*
X117009028Y-96173485D01*
X115946685Y-88705885D02*
X115696685Y-88348742D01*
X115518114Y-88705885D02*
X115518114Y-87955885D01*
X115803828Y-87955885D01*
X115875257Y-87991600D01*
X115910971Y-88027314D01*
X115946685Y-88098742D01*
X115946685Y-88205885D01*
X115910971Y-88277314D01*
X115875257Y-88313028D01*
X115803828Y-88348742D01*
X115518114Y-88348742D01*
X116768114Y-87955885D02*
X117268114Y-88705885D01*
X117268114Y-87955885D02*
X116768114Y-88705885D01*
D13*
X134591400Y-84963000D02*
G75*
G03*
X134591400Y-84963000I-200000J0D01*
G01*
X133532843Y-101900000D02*
G75*
G03*
X133532843Y-101900000I-282843J0D01*
G01*
X103720088Y-111750000D02*
G75*
G03*
X103720088Y-111750000I-570088J0D01*
G01*
X160700000Y-104750000D02*
X160700000Y-104250000D01*
X160700000Y-103700000D02*
X160700000Y-103300000D01*
X160350000Y-104250000D02*
X161050000Y-104250000D01*
X160700000Y-103700000D02*
X160350000Y-104250000D01*
X161100000Y-104250000D02*
X160700000Y-103700000D01*
X161300000Y-103650000D02*
X160200000Y-103650000D01*
D14*
%TO.C,C11*%
X123415000Y-102863748D02*
X123415000Y-104286252D01*
X125235000Y-102863748D02*
X125235000Y-104286252D01*
%TO.C,U4*%
X133110000Y-101860000D02*
X133110000Y-102865000D01*
X133110000Y-105110000D02*
X132880000Y-105110000D01*
X133110000Y-104135000D02*
X133110000Y-105110000D01*
X129890000Y-104135000D02*
X129890000Y-105110000D01*
X130120000Y-105110000D02*
X129890000Y-105110000D01*
X129890000Y-101890000D02*
X129890000Y-102865000D01*
X130120000Y-101890000D02*
X129890000Y-101890000D01*
%TO.C,Brd1*%
X137300000Y-81150000D02*
X164700000Y-81150000D01*
X164700000Y-81150000D02*
X164700000Y-108450000D01*
X164700000Y-108450000D02*
X137300000Y-108450000D01*
X137300000Y-108450000D02*
X137300000Y-81150000D01*
X160822000Y-101045000D02*
X137722000Y-101045000D01*
X137722000Y-101045000D02*
X137722000Y-84445000D01*
X137722000Y-84445000D02*
X160822000Y-84445000D01*
X146001000Y-81639000D02*
X155780000Y-81639000D01*
X155780000Y-81639000D02*
X155780000Y-84052000D01*
X155780000Y-84052000D02*
X146001000Y-84052000D01*
X146001000Y-81639000D02*
X146001000Y-84052000D01*
X160822000Y-84445000D02*
X163908000Y-84445000D01*
X160822000Y-101045000D02*
X164162000Y-101070000D01*
X164162000Y-101070000D02*
X164162000Y-84433000D01*
X164162000Y-84433000D02*
X163908000Y-84445000D01*
%TO.C,J3*%
X119920000Y-92910000D02*
X119920000Y-91800000D01*
X120680000Y-92910000D02*
X119920000Y-92910000D01*
X121440000Y-91236529D02*
X121440000Y-90690000D01*
X121440000Y-92910000D02*
X121440000Y-92363471D01*
X121440000Y-90690000D02*
X122645000Y-90690000D01*
X121440000Y-92910000D02*
X122645000Y-92910000D01*
X122645000Y-91492470D02*
X122645000Y-90690000D01*
X122645000Y-92910000D02*
X122645000Y-92107530D01*
%TO.C,C10*%
X91440000Y-116963748D02*
X91440000Y-118386252D01*
X93260000Y-116963748D02*
X93260000Y-118386252D01*
%TO.C,C2*%
X93510000Y-88363748D02*
X93510000Y-89786252D01*
X91690000Y-88363748D02*
X91690000Y-89786252D01*
%TO.C,C1*%
X91790000Y-95786252D02*
X91790000Y-94363748D01*
X93610000Y-95786252D02*
X93610000Y-94363748D01*
%TO.C,C3*%
X150136252Y-105890000D02*
X148713748Y-105890000D01*
X150136252Y-107710000D02*
X148713748Y-107710000D01*
%TO.C,C4*%
X122440000Y-86913748D02*
X122440000Y-88336252D01*
X124260000Y-86913748D02*
X124260000Y-88336252D01*
%TO.C,C5*%
X136910000Y-86863748D02*
X136910000Y-88286252D01*
X135090000Y-86863748D02*
X135090000Y-88286252D01*
%TO.C,C6*%
X128010000Y-102863748D02*
X128010000Y-104286252D01*
X126190000Y-102863748D02*
X126190000Y-104286252D01*
%TO.C,C7*%
X132136252Y-108210000D02*
X130713748Y-108210000D01*
X132136252Y-106390000D02*
X130713748Y-106390000D01*
%TO.C,C8*%
X135090000Y-102863748D02*
X135090000Y-104286252D01*
X136910000Y-102863748D02*
X136910000Y-104286252D01*
%TO.C,C9*%
X140610000Y-102863748D02*
X140610000Y-104286252D01*
X138790000Y-102863748D02*
X138790000Y-104286252D01*
%TO.C,D2*%
X128837500Y-83115000D02*
X126352500Y-83115000D01*
X126352500Y-83115000D02*
X126352500Y-84485000D01*
X126352500Y-84485000D02*
X128837500Y-84485000D01*
%TO.C,D3*%
X161700000Y-101750000D02*
X161700000Y-105650000D01*
X159700000Y-101750000D02*
X159700000Y-105650000D01*
X161700000Y-101750000D02*
X159700000Y-101750000D01*
D15*
%TO.C,IC1*%
X134500000Y-85550000D02*
X134500000Y-86750000D01*
D16*
%TO.C,J2*%
X159510000Y-120800000D02*
X168300000Y-120800000D01*
D15*
X166730000Y-112900000D02*
X166730000Y-112900000D01*
X166730000Y-112700000D02*
X166730000Y-112700000D01*
X166730000Y-112700000D02*
G75*
G02*
X166730000Y-112900000I0J-100000D01*
G01*
X166730000Y-112900000D02*
G75*
G02*
X166730000Y-112700000I0J100000D01*
G01*
%TO.C,L1*%
X136250000Y-90850000D02*
X126050000Y-90850000D01*
X126050000Y-100850000D02*
X136250000Y-100850000D01*
%TO.C,Q1*%
X164450000Y-105850000D02*
X164150000Y-105850000D01*
X164150000Y-105850000D02*
X164150000Y-102950000D01*
X164150000Y-102950000D02*
X164450000Y-102950000D01*
X164450000Y-102950000D02*
X164450000Y-105850000D01*
X165900000Y-105935000D02*
X164800000Y-105935000D01*
D14*
%TO.C,R1*%
X136012258Y-107272500D02*
X135537742Y-107272500D01*
X136012258Y-106227500D02*
X135537742Y-106227500D01*
%TO.C,R2*%
X106072500Y-109787742D02*
X106072500Y-110262258D01*
X105027500Y-109787742D02*
X105027500Y-110262258D01*
%TO.C,R3*%
X104977500Y-118687742D02*
X104977500Y-119162258D01*
X106022500Y-118687742D02*
X106022500Y-119162258D01*
%TO.C,R4*%
X120322500Y-111312258D02*
X120322500Y-110837742D01*
X119277500Y-111312258D02*
X119277500Y-110837742D01*
%TO.C,R5*%
X155862258Y-107797500D02*
X155387742Y-107797500D01*
X155862258Y-106752500D02*
X155387742Y-106752500D01*
%TO.C,R6*%
X134772500Y-111287258D02*
X134772500Y-110812742D01*
X133727500Y-111287258D02*
X133727500Y-110812742D01*
%TO.C,R7*%
X127587742Y-84877500D02*
X128062258Y-84877500D01*
X127587742Y-85922500D02*
X128062258Y-85922500D01*
%TO.C,R8*%
X125972500Y-84862258D02*
X125972500Y-84387742D01*
X124927500Y-84862258D02*
X124927500Y-84387742D01*
%TO.C,R9*%
X120762258Y-89722500D02*
X120287742Y-89722500D01*
X120762258Y-88677500D02*
X120287742Y-88677500D01*
%TO.C,R10*%
X120287742Y-86572500D02*
X120762258Y-86572500D01*
X120287742Y-85527500D02*
X120762258Y-85527500D01*
%TO.C,R11*%
X167737258Y-110202500D02*
X167262742Y-110202500D01*
X167737258Y-111247500D02*
X167262742Y-111247500D01*
%TO.C,R12*%
X160187742Y-110202500D02*
X160662258Y-110202500D01*
X160187742Y-111247500D02*
X160662258Y-111247500D01*
%TO.C,R13*%
X167622500Y-104812258D02*
X167622500Y-104337742D01*
X166577500Y-104812258D02*
X166577500Y-104337742D01*
%TO.C,R14*%
X120322500Y-114362742D02*
X120322500Y-114837258D01*
X119277500Y-114362742D02*
X119277500Y-114837258D01*
%TO.C,SW1*%
X110045000Y-116080000D02*
X110045000Y-116050000D01*
X110045000Y-109620000D02*
X110045000Y-109650000D01*
X116505000Y-109620000D02*
X116505000Y-109650000D01*
X116505000Y-116050000D02*
X116505000Y-116080000D01*
X110045000Y-114150000D02*
X110045000Y-111550000D01*
X116505000Y-116080000D02*
X110045000Y-116080000D01*
X116505000Y-114150000D02*
X116505000Y-111550000D01*
X116505000Y-109620000D02*
X110045000Y-109620000D01*
%TO.C,SW2*%
X123770000Y-116055000D02*
X130230000Y-116055000D01*
X123770000Y-111525000D02*
X123770000Y-114125000D01*
X123770000Y-109595000D02*
X130230000Y-109595000D01*
X130230000Y-111525000D02*
X130230000Y-114125000D01*
X123770000Y-109625000D02*
X123770000Y-109595000D01*
X123770000Y-116055000D02*
X123770000Y-116025000D01*
X130230000Y-116055000D02*
X130230000Y-116025000D01*
X130230000Y-109595000D02*
X130230000Y-109625000D01*
%TO.C,SW3*%
X137120000Y-116005000D02*
X137120000Y-115975000D01*
X137120000Y-109545000D02*
X137120000Y-109575000D01*
X143580000Y-109545000D02*
X143580000Y-109575000D01*
X143580000Y-115975000D02*
X143580000Y-116005000D01*
X137120000Y-114075000D02*
X137120000Y-111475000D01*
X143580000Y-116005000D02*
X137120000Y-116005000D01*
X143580000Y-114075000D02*
X143580000Y-111475000D01*
X143580000Y-109545000D02*
X137120000Y-109545000D01*
%TO.C,SW4*%
X155330000Y-109495000D02*
X148870000Y-109495000D01*
X155330000Y-114025000D02*
X155330000Y-111425000D01*
X155330000Y-115955000D02*
X148870000Y-115955000D01*
X148870000Y-114025000D02*
X148870000Y-111425000D01*
X155330000Y-115925000D02*
X155330000Y-115955000D01*
X155330000Y-109495000D02*
X155330000Y-109525000D01*
X148870000Y-109495000D02*
X148870000Y-109525000D01*
X148870000Y-115955000D02*
X148870000Y-115925000D01*
%TO.C,U1*%
X94830000Y-105000000D02*
X94830000Y-105780000D01*
X94830000Y-105780000D02*
X95830000Y-105780000D01*
X113070000Y-105000000D02*
X113070000Y-105780000D01*
X113070000Y-105780000D02*
X112070000Y-105780000D01*
X94830000Y-80035000D02*
X113070000Y-80035000D01*
X113070000Y-80035000D02*
X113070000Y-86455000D01*
X94830000Y-80035000D02*
X94830000Y-86455000D01*
X94830000Y-86455000D02*
X94450000Y-86455000D01*
%TO.C,U2*%
X104105000Y-110640000D02*
X104105000Y-108825000D01*
X104360000Y-110640000D02*
X104105000Y-110640000D01*
X104360000Y-114500000D02*
X104360000Y-110640000D01*
X104360000Y-118360000D02*
X104105000Y-118360000D01*
X104360000Y-114500000D02*
X104360000Y-118360000D01*
X93840000Y-110640000D02*
X94095000Y-110640000D01*
X93840000Y-114500000D02*
X93840000Y-110640000D01*
X93840000Y-118360000D02*
X94095000Y-118360000D01*
X93840000Y-114500000D02*
X93840000Y-118360000D01*
%TO.C,U3*%
X127450000Y-86440000D02*
X125000000Y-86440000D01*
X125650000Y-89660000D02*
X127450000Y-89660000D01*
%TO.C,J1*%
X115306800Y-89703600D02*
X116636800Y-89703600D01*
X115306800Y-91033600D02*
X115306800Y-89703600D01*
X115306800Y-92303600D02*
X117966800Y-92303600D01*
X117966800Y-92303600D02*
X117966800Y-94903600D01*
X115306800Y-92303600D02*
X115306800Y-94903600D01*
X115306800Y-94903600D02*
X117966800Y-94903600D01*
%TO.C,SW5*%
X169948800Y-95258200D02*
X169948800Y-86758200D01*
X166448800Y-95258200D02*
X166448800Y-86758200D01*
X169948800Y-95258200D02*
X166448800Y-95258200D01*
X169948800Y-86758200D02*
X166448800Y-86758200D01*
%TO.C,C11*%
D13*
X123102642Y-104147857D02*
X123150261Y-104195476D01*
X123197880Y-104338333D01*
X123197880Y-104433571D01*
X123150261Y-104576428D01*
X123055023Y-104671666D01*
X122959785Y-104719285D01*
X122769309Y-104766904D01*
X122626452Y-104766904D01*
X122435976Y-104719285D01*
X122340738Y-104671666D01*
X122245500Y-104576428D01*
X122197880Y-104433571D01*
X122197880Y-104338333D01*
X122245500Y-104195476D01*
X122293119Y-104147857D01*
X123197880Y-103195476D02*
X123197880Y-103766904D01*
X123197880Y-103481190D02*
X122197880Y-103481190D01*
X122340738Y-103576428D01*
X122435976Y-103671666D01*
X122483595Y-103766904D01*
X123197880Y-102243095D02*
X123197880Y-102814523D01*
X123197880Y-102528809D02*
X122197880Y-102528809D01*
X122340738Y-102624047D01*
X122435976Y-102719285D01*
X122483595Y-102814523D01*
%TO.C,U4*%
X128502380Y-104261904D02*
X129311904Y-104261904D01*
X129407142Y-104214285D01*
X129454761Y-104166666D01*
X129502380Y-104071428D01*
X129502380Y-103880952D01*
X129454761Y-103785714D01*
X129407142Y-103738095D01*
X129311904Y-103690476D01*
X128502380Y-103690476D01*
X128835714Y-102785714D02*
X129502380Y-102785714D01*
X128454761Y-103023809D02*
X129169047Y-103261904D01*
X129169047Y-102642857D01*
%TO.C,Brd1*%
X149533333Y-93632571D02*
X149676190Y-93680190D01*
X149723809Y-93727809D01*
X149771428Y-93823047D01*
X149771428Y-93965904D01*
X149723809Y-94061142D01*
X149676190Y-94108761D01*
X149580952Y-94156380D01*
X149200000Y-94156380D01*
X149200000Y-93156380D01*
X149533333Y-93156380D01*
X149628571Y-93204000D01*
X149676190Y-93251619D01*
X149723809Y-93346857D01*
X149723809Y-93442095D01*
X149676190Y-93537333D01*
X149628571Y-93584952D01*
X149533333Y-93632571D01*
X149200000Y-93632571D01*
X150200000Y-94156380D02*
X150200000Y-93489714D01*
X150200000Y-93680190D02*
X150247619Y-93584952D01*
X150295238Y-93537333D01*
X150390476Y-93489714D01*
X150485714Y-93489714D01*
X151247619Y-94156380D02*
X151247619Y-93156380D01*
X151247619Y-94108761D02*
X151152380Y-94156380D01*
X150961904Y-94156380D01*
X150866666Y-94108761D01*
X150819047Y-94061142D01*
X150771428Y-93965904D01*
X150771428Y-93680190D01*
X150819047Y-93584952D01*
X150866666Y-93537333D01*
X150961904Y-93489714D01*
X151152380Y-93489714D01*
X151247619Y-93537333D01*
X152247619Y-94156380D02*
X151676190Y-94156380D01*
X151961904Y-94156380D02*
X151961904Y-93156380D01*
X151866666Y-93299238D01*
X151771428Y-93394476D01*
X151676190Y-93442095D01*
%TO.C,J3*%
X118730780Y-91214533D02*
X119445066Y-91214533D01*
X119587923Y-91262152D01*
X119683161Y-91357390D01*
X119730780Y-91500247D01*
X119730780Y-91595485D01*
X118730780Y-90833580D02*
X118730780Y-90214533D01*
X119111733Y-90547866D01*
X119111733Y-90405009D01*
X119159352Y-90309771D01*
X119206971Y-90262152D01*
X119302209Y-90214533D01*
X119540304Y-90214533D01*
X119635542Y-90262152D01*
X119683161Y-90309771D01*
X119730780Y-90405009D01*
X119730780Y-90690723D01*
X119683161Y-90785961D01*
X119635542Y-90833580D01*
%TO.C,C10*%
X91707142Y-121007142D02*
X91659523Y-121054761D01*
X91516666Y-121102380D01*
X91421428Y-121102380D01*
X91278571Y-121054761D01*
X91183333Y-120959523D01*
X91135714Y-120864285D01*
X91088095Y-120673809D01*
X91088095Y-120530952D01*
X91135714Y-120340476D01*
X91183333Y-120245238D01*
X91278571Y-120150000D01*
X91421428Y-120102380D01*
X91516666Y-120102380D01*
X91659523Y-120150000D01*
X91707142Y-120197619D01*
X92659523Y-121102380D02*
X92088095Y-121102380D01*
X92373809Y-121102380D02*
X92373809Y-120102380D01*
X92278571Y-120245238D01*
X92183333Y-120340476D01*
X92088095Y-120388095D01*
X93278571Y-120102380D02*
X93373809Y-120102380D01*
X93469047Y-120150000D01*
X93516666Y-120197619D01*
X93564285Y-120292857D01*
X93611904Y-120483333D01*
X93611904Y-120721428D01*
X93564285Y-120911904D01*
X93516666Y-121007142D01*
X93469047Y-121054761D01*
X93373809Y-121102380D01*
X93278571Y-121102380D01*
X93183333Y-121054761D01*
X93135714Y-121007142D01*
X93088095Y-120911904D01*
X93040476Y-120721428D01*
X93040476Y-120483333D01*
X93088095Y-120292857D01*
X93135714Y-120197619D01*
X93183333Y-120150000D01*
X93278571Y-120102380D01*
%TO.C,C2*%
X91628933Y-92457142D02*
X91581314Y-92504761D01*
X91438457Y-92552380D01*
X91343219Y-92552380D01*
X91200361Y-92504761D01*
X91105123Y-92409523D01*
X91057504Y-92314285D01*
X91009885Y-92123809D01*
X91009885Y-91980952D01*
X91057504Y-91790476D01*
X91105123Y-91695238D01*
X91200361Y-91600000D01*
X91343219Y-91552380D01*
X91438457Y-91552380D01*
X91581314Y-91600000D01*
X91628933Y-91647619D01*
X92009885Y-91647619D02*
X92057504Y-91600000D01*
X92152742Y-91552380D01*
X92390838Y-91552380D01*
X92486076Y-91600000D01*
X92533695Y-91647619D01*
X92581314Y-91742857D01*
X92581314Y-91838095D01*
X92533695Y-91980952D01*
X91962266Y-92552380D01*
X92581314Y-92552380D01*
%TO.C,C1*%
X92009933Y-98451942D02*
X91962314Y-98499561D01*
X91819457Y-98547180D01*
X91724219Y-98547180D01*
X91581361Y-98499561D01*
X91486123Y-98404323D01*
X91438504Y-98309085D01*
X91390885Y-98118609D01*
X91390885Y-97975752D01*
X91438504Y-97785276D01*
X91486123Y-97690038D01*
X91581361Y-97594800D01*
X91724219Y-97547180D01*
X91819457Y-97547180D01*
X91962314Y-97594800D01*
X92009933Y-97642419D01*
X92962314Y-98547180D02*
X92390885Y-98547180D01*
X92676600Y-98547180D02*
X92676600Y-97547180D01*
X92581361Y-97690038D01*
X92486123Y-97785276D01*
X92390885Y-97832895D01*
%TO.C,C3*%
X149283333Y-105157142D02*
X149235714Y-105204761D01*
X149092857Y-105252380D01*
X148997619Y-105252380D01*
X148854761Y-105204761D01*
X148759523Y-105109523D01*
X148711904Y-105014285D01*
X148664285Y-104823809D01*
X148664285Y-104680952D01*
X148711904Y-104490476D01*
X148759523Y-104395238D01*
X148854761Y-104300000D01*
X148997619Y-104252380D01*
X149092857Y-104252380D01*
X149235714Y-104300000D01*
X149283333Y-104347619D01*
X149616666Y-104252380D02*
X150235714Y-104252380D01*
X149902380Y-104633333D01*
X150045238Y-104633333D01*
X150140476Y-104680952D01*
X150188095Y-104728571D01*
X150235714Y-104823809D01*
X150235714Y-105061904D01*
X150188095Y-105157142D01*
X150140476Y-105204761D01*
X150045238Y-105252380D01*
X149759523Y-105252380D01*
X149664285Y-105204761D01*
X149616666Y-105157142D01*
%TO.C,C4*%
X123633333Y-90807142D02*
X123585714Y-90854761D01*
X123442857Y-90902380D01*
X123347619Y-90902380D01*
X123204761Y-90854761D01*
X123109523Y-90759523D01*
X123061904Y-90664285D01*
X123014285Y-90473809D01*
X123014285Y-90330952D01*
X123061904Y-90140476D01*
X123109523Y-90045238D01*
X123204761Y-89950000D01*
X123347619Y-89902380D01*
X123442857Y-89902380D01*
X123585714Y-89950000D01*
X123633333Y-89997619D01*
X124490476Y-90235714D02*
X124490476Y-90902380D01*
X124252380Y-89854761D02*
X124014285Y-90569047D01*
X124633333Y-90569047D01*
%TO.C,C5*%
X135799533Y-85015342D02*
X135751914Y-85062961D01*
X135609057Y-85110580D01*
X135513819Y-85110580D01*
X135370961Y-85062961D01*
X135275723Y-84967723D01*
X135228104Y-84872485D01*
X135180485Y-84682009D01*
X135180485Y-84539152D01*
X135228104Y-84348676D01*
X135275723Y-84253438D01*
X135370961Y-84158200D01*
X135513819Y-84110580D01*
X135609057Y-84110580D01*
X135751914Y-84158200D01*
X135799533Y-84205819D01*
X136704295Y-84110580D02*
X136228104Y-84110580D01*
X136180485Y-84586771D01*
X136228104Y-84539152D01*
X136323342Y-84491533D01*
X136561438Y-84491533D01*
X136656676Y-84539152D01*
X136704295Y-84586771D01*
X136751914Y-84682009D01*
X136751914Y-84920104D01*
X136704295Y-85015342D01*
X136656676Y-85062961D01*
X136561438Y-85110580D01*
X136323342Y-85110580D01*
X136228104Y-85062961D01*
X136180485Y-85015342D01*
%TO.C,C6*%
X127307142Y-106991666D02*
X127354761Y-107039285D01*
X127402380Y-107182142D01*
X127402380Y-107277380D01*
X127354761Y-107420238D01*
X127259523Y-107515476D01*
X127164285Y-107563095D01*
X126973809Y-107610714D01*
X126830952Y-107610714D01*
X126640476Y-107563095D01*
X126545238Y-107515476D01*
X126450000Y-107420238D01*
X126402380Y-107277380D01*
X126402380Y-107182142D01*
X126450000Y-107039285D01*
X126497619Y-106991666D01*
X126402380Y-106134523D02*
X126402380Y-106325000D01*
X126450000Y-106420238D01*
X126497619Y-106467857D01*
X126640476Y-106563095D01*
X126830952Y-106610714D01*
X127211904Y-106610714D01*
X127307142Y-106563095D01*
X127354761Y-106515476D01*
X127402380Y-106420238D01*
X127402380Y-106229761D01*
X127354761Y-106134523D01*
X127307142Y-106086904D01*
X127211904Y-106039285D01*
X126973809Y-106039285D01*
X126878571Y-106086904D01*
X126830952Y-106134523D01*
X126783333Y-106229761D01*
X126783333Y-106420238D01*
X126830952Y-106515476D01*
X126878571Y-106563095D01*
X126973809Y-106610714D01*
%TO.C,C7*%
X131258333Y-109332142D02*
X131210714Y-109379761D01*
X131067857Y-109427380D01*
X130972619Y-109427380D01*
X130829761Y-109379761D01*
X130734523Y-109284523D01*
X130686904Y-109189285D01*
X130639285Y-108998809D01*
X130639285Y-108855952D01*
X130686904Y-108665476D01*
X130734523Y-108570238D01*
X130829761Y-108475000D01*
X130972619Y-108427380D01*
X131067857Y-108427380D01*
X131210714Y-108475000D01*
X131258333Y-108522619D01*
X131591666Y-108427380D02*
X132258333Y-108427380D01*
X131829761Y-109427380D01*
%TO.C,C8*%
X134646942Y-103747866D02*
X134694561Y-103795485D01*
X134742180Y-103938342D01*
X134742180Y-104033580D01*
X134694561Y-104176438D01*
X134599323Y-104271676D01*
X134504085Y-104319295D01*
X134313609Y-104366914D01*
X134170752Y-104366914D01*
X133980276Y-104319295D01*
X133885038Y-104271676D01*
X133789800Y-104176438D01*
X133742180Y-104033580D01*
X133742180Y-103938342D01*
X133789800Y-103795485D01*
X133837419Y-103747866D01*
X134170752Y-103176438D02*
X134123133Y-103271676D01*
X134075514Y-103319295D01*
X133980276Y-103366914D01*
X133932657Y-103366914D01*
X133837419Y-103319295D01*
X133789800Y-103271676D01*
X133742180Y-103176438D01*
X133742180Y-102985961D01*
X133789800Y-102890723D01*
X133837419Y-102843104D01*
X133932657Y-102795485D01*
X133980276Y-102795485D01*
X134075514Y-102843104D01*
X134123133Y-102890723D01*
X134170752Y-102985961D01*
X134170752Y-103176438D01*
X134218371Y-103271676D01*
X134265990Y-103319295D01*
X134361228Y-103366914D01*
X134551704Y-103366914D01*
X134646942Y-103319295D01*
X134694561Y-103271676D01*
X134742180Y-103176438D01*
X134742180Y-102985961D01*
X134694561Y-102890723D01*
X134646942Y-102843104D01*
X134551704Y-102795485D01*
X134361228Y-102795485D01*
X134265990Y-102843104D01*
X134218371Y-102890723D01*
X134170752Y-102985961D01*
%TO.C,C9*%
X141809742Y-103773266D02*
X141857361Y-103820885D01*
X141904980Y-103963742D01*
X141904980Y-104058980D01*
X141857361Y-104201838D01*
X141762123Y-104297076D01*
X141666885Y-104344695D01*
X141476409Y-104392314D01*
X141333552Y-104392314D01*
X141143076Y-104344695D01*
X141047838Y-104297076D01*
X140952600Y-104201838D01*
X140904980Y-104058980D01*
X140904980Y-103963742D01*
X140952600Y-103820885D01*
X141000219Y-103773266D01*
X141904980Y-103297076D02*
X141904980Y-103106600D01*
X141857361Y-103011361D01*
X141809742Y-102963742D01*
X141666885Y-102868504D01*
X141476409Y-102820885D01*
X141095457Y-102820885D01*
X141000219Y-102868504D01*
X140952600Y-102916123D01*
X140904980Y-103011361D01*
X140904980Y-103201838D01*
X140952600Y-103297076D01*
X141000219Y-103344695D01*
X141095457Y-103392314D01*
X141333552Y-103392314D01*
X141428790Y-103344695D01*
X141476409Y-103297076D01*
X141524028Y-103201838D01*
X141524028Y-103011361D01*
X141476409Y-102916123D01*
X141428790Y-102868504D01*
X141333552Y-102820885D01*
%TO.C,D2*%
X127311904Y-82852380D02*
X127311904Y-81852380D01*
X127550000Y-81852380D01*
X127692857Y-81900000D01*
X127788095Y-81995238D01*
X127835714Y-82090476D01*
X127883333Y-82280952D01*
X127883333Y-82423809D01*
X127835714Y-82614285D01*
X127788095Y-82709523D01*
X127692857Y-82804761D01*
X127550000Y-82852380D01*
X127311904Y-82852380D01*
X128264285Y-81947619D02*
X128311904Y-81900000D01*
X128407142Y-81852380D01*
X128645238Y-81852380D01*
X128740476Y-81900000D01*
X128788095Y-81947619D01*
X128835714Y-82042857D01*
X128835714Y-82138095D01*
X128788095Y-82280952D01*
X128216666Y-82852380D01*
X128835714Y-82852380D01*
%TO.C,D3*%
X159302380Y-104738095D02*
X158302380Y-104738095D01*
X158302380Y-104500000D01*
X158350000Y-104357142D01*
X158445238Y-104261904D01*
X158540476Y-104214285D01*
X158730952Y-104166666D01*
X158873809Y-104166666D01*
X159064285Y-104214285D01*
X159159523Y-104261904D01*
X159254761Y-104357142D01*
X159302380Y-104500000D01*
X159302380Y-104738095D01*
X158302380Y-103833333D02*
X158302380Y-103214285D01*
X158683333Y-103547619D01*
X158683333Y-103404761D01*
X158730952Y-103309523D01*
X158778571Y-103261904D01*
X158873809Y-103214285D01*
X159111904Y-103214285D01*
X159207142Y-103261904D01*
X159254761Y-103309523D01*
X159302380Y-103404761D01*
X159302380Y-103690476D01*
X159254761Y-103785714D01*
X159207142Y-103833333D01*
%TO.C,IC1*%
D15*
X131865809Y-85008980D02*
X131865809Y-84008980D01*
X132913428Y-84913742D02*
X132865809Y-84961361D01*
X132722952Y-85008980D01*
X132627714Y-85008980D01*
X132484857Y-84961361D01*
X132389619Y-84866123D01*
X132342000Y-84770885D01*
X132294380Y-84580409D01*
X132294380Y-84437552D01*
X132342000Y-84247076D01*
X132389619Y-84151838D01*
X132484857Y-84056600D01*
X132627714Y-84008980D01*
X132722952Y-84008980D01*
X132865809Y-84056600D01*
X132913428Y-84104219D01*
X133865809Y-85008980D02*
X133294380Y-85008980D01*
X133580095Y-85008980D02*
X133580095Y-84008980D01*
X133484857Y-84151838D01*
X133389619Y-84247076D01*
X133294380Y-84294695D01*
%TO.C,J2*%
D17*
X163556666Y-116054523D02*
X163556666Y-116961666D01*
X163496190Y-117143095D01*
X163375238Y-117264047D01*
X163193809Y-117324523D01*
X163072857Y-117324523D01*
X164100952Y-116175476D02*
X164161428Y-116115000D01*
X164282380Y-116054523D01*
X164584761Y-116054523D01*
X164705714Y-116115000D01*
X164766190Y-116175476D01*
X164826666Y-116296428D01*
X164826666Y-116417380D01*
X164766190Y-116598809D01*
X164040476Y-117324523D01*
X164826666Y-117324523D01*
%TO.C,L1*%
X139615333Y-96256323D02*
X139010571Y-96256323D01*
X139010571Y-94986323D01*
X140703904Y-96256323D02*
X139978190Y-96256323D01*
X140341047Y-96256323D02*
X140341047Y-94986323D01*
X140220095Y-95167752D01*
X140099142Y-95288704D01*
X139978190Y-95349180D01*
%TO.C,Q1*%
X165979047Y-102395476D02*
X165858095Y-102335000D01*
X165737142Y-102214047D01*
X165555714Y-102032619D01*
X165434761Y-101972142D01*
X165313809Y-101972142D01*
X165374285Y-102274523D02*
X165253333Y-102214047D01*
X165132380Y-102093095D01*
X165071904Y-101851190D01*
X165071904Y-101427857D01*
X165132380Y-101185952D01*
X165253333Y-101065000D01*
X165374285Y-101004523D01*
X165616190Y-101004523D01*
X165737142Y-101065000D01*
X165858095Y-101185952D01*
X165918571Y-101427857D01*
X165918571Y-101851190D01*
X165858095Y-102093095D01*
X165737142Y-102214047D01*
X165616190Y-102274523D01*
X165374285Y-102274523D01*
X167128095Y-102274523D02*
X166402380Y-102274523D01*
X166765238Y-102274523D02*
X166765238Y-101004523D01*
X166644285Y-101185952D01*
X166523333Y-101306904D01*
X166402380Y-101367380D01*
%TO.C,R1*%
D13*
X138283333Y-107411780D02*
X137950000Y-106935590D01*
X137711904Y-107411780D02*
X137711904Y-106411780D01*
X138092857Y-106411780D01*
X138188095Y-106459400D01*
X138235714Y-106507019D01*
X138283333Y-106602257D01*
X138283333Y-106745114D01*
X138235714Y-106840352D01*
X138188095Y-106887971D01*
X138092857Y-106935590D01*
X137711904Y-106935590D01*
X139235714Y-107411780D02*
X138664285Y-107411780D01*
X138950000Y-107411780D02*
X138950000Y-106411780D01*
X138854761Y-106554638D01*
X138759523Y-106649876D01*
X138664285Y-106697495D01*
%TO.C,R2*%
X106052380Y-107866666D02*
X105576190Y-108200000D01*
X106052380Y-108438095D02*
X105052380Y-108438095D01*
X105052380Y-108057142D01*
X105100000Y-107961904D01*
X105147619Y-107914285D01*
X105242857Y-107866666D01*
X105385714Y-107866666D01*
X105480952Y-107914285D01*
X105528571Y-107961904D01*
X105576190Y-108057142D01*
X105576190Y-108438095D01*
X105147619Y-107485714D02*
X105100000Y-107438095D01*
X105052380Y-107342857D01*
X105052380Y-107104761D01*
X105100000Y-107009523D01*
X105147619Y-106961904D01*
X105242857Y-106914285D01*
X105338095Y-106914285D01*
X105480952Y-106961904D01*
X106052380Y-107533333D01*
X106052380Y-106914285D01*
%TO.C,R3*%
X107382380Y-119091666D02*
X106906190Y-119425000D01*
X107382380Y-119663095D02*
X106382380Y-119663095D01*
X106382380Y-119282142D01*
X106430000Y-119186904D01*
X106477619Y-119139285D01*
X106572857Y-119091666D01*
X106715714Y-119091666D01*
X106810952Y-119139285D01*
X106858571Y-119186904D01*
X106906190Y-119282142D01*
X106906190Y-119663095D01*
X106382380Y-118758333D02*
X106382380Y-118139285D01*
X106763333Y-118472619D01*
X106763333Y-118329761D01*
X106810952Y-118234523D01*
X106858571Y-118186904D01*
X106953809Y-118139285D01*
X107191904Y-118139285D01*
X107287142Y-118186904D01*
X107334761Y-118234523D01*
X107382380Y-118329761D01*
X107382380Y-118615476D01*
X107334761Y-118710714D01*
X107287142Y-118758333D01*
%TO.C,R4*%
X121752380Y-111241666D02*
X121276190Y-111575000D01*
X121752380Y-111813095D02*
X120752380Y-111813095D01*
X120752380Y-111432142D01*
X120800000Y-111336904D01*
X120847619Y-111289285D01*
X120942857Y-111241666D01*
X121085714Y-111241666D01*
X121180952Y-111289285D01*
X121228571Y-111336904D01*
X121276190Y-111432142D01*
X121276190Y-111813095D01*
X121085714Y-110384523D02*
X121752380Y-110384523D01*
X120704761Y-110622619D02*
X121419047Y-110860714D01*
X121419047Y-110241666D01*
%TO.C,R5*%
X155533333Y-106302380D02*
X155200000Y-105826190D01*
X154961904Y-106302380D02*
X154961904Y-105302380D01*
X155342857Y-105302380D01*
X155438095Y-105350000D01*
X155485714Y-105397619D01*
X155533333Y-105492857D01*
X155533333Y-105635714D01*
X155485714Y-105730952D01*
X155438095Y-105778571D01*
X155342857Y-105826190D01*
X154961904Y-105826190D01*
X156438095Y-105302380D02*
X155961904Y-105302380D01*
X155914285Y-105778571D01*
X155961904Y-105730952D01*
X156057142Y-105683333D01*
X156295238Y-105683333D01*
X156390476Y-105730952D01*
X156438095Y-105778571D01*
X156485714Y-105873809D01*
X156485714Y-106111904D01*
X156438095Y-106207142D01*
X156390476Y-106254761D01*
X156295238Y-106302380D01*
X156057142Y-106302380D01*
X155961904Y-106254761D01*
X155914285Y-106207142D01*
%TO.C,R6*%
X133272380Y-111216666D02*
X132796190Y-111550000D01*
X133272380Y-111788095D02*
X132272380Y-111788095D01*
X132272380Y-111407142D01*
X132320000Y-111311904D01*
X132367619Y-111264285D01*
X132462857Y-111216666D01*
X132605714Y-111216666D01*
X132700952Y-111264285D01*
X132748571Y-111311904D01*
X132796190Y-111407142D01*
X132796190Y-111788095D01*
X132272380Y-110359523D02*
X132272380Y-110550000D01*
X132320000Y-110645238D01*
X132367619Y-110692857D01*
X132510476Y-110788095D01*
X132700952Y-110835714D01*
X133081904Y-110835714D01*
X133177142Y-110788095D01*
X133224761Y-110740476D01*
X133272380Y-110645238D01*
X133272380Y-110454761D01*
X133224761Y-110359523D01*
X133177142Y-110311904D01*
X133081904Y-110264285D01*
X132843809Y-110264285D01*
X132748571Y-110311904D01*
X132700952Y-110359523D01*
X132653333Y-110454761D01*
X132653333Y-110645238D01*
X132700952Y-110740476D01*
X132748571Y-110788095D01*
X132843809Y-110835714D01*
%TO.C,R7*%
X130083333Y-85852380D02*
X129750000Y-85376190D01*
X129511904Y-85852380D02*
X129511904Y-84852380D01*
X129892857Y-84852380D01*
X129988095Y-84900000D01*
X130035714Y-84947619D01*
X130083333Y-85042857D01*
X130083333Y-85185714D01*
X130035714Y-85280952D01*
X129988095Y-85328571D01*
X129892857Y-85376190D01*
X129511904Y-85376190D01*
X130416666Y-84852380D02*
X131083333Y-84852380D01*
X130654761Y-85852380D01*
%TO.C,R8*%
X125283333Y-83052380D02*
X124950000Y-82576190D01*
X124711904Y-83052380D02*
X124711904Y-82052380D01*
X125092857Y-82052380D01*
X125188095Y-82100000D01*
X125235714Y-82147619D01*
X125283333Y-82242857D01*
X125283333Y-82385714D01*
X125235714Y-82480952D01*
X125188095Y-82528571D01*
X125092857Y-82576190D01*
X124711904Y-82576190D01*
X125854761Y-82480952D02*
X125759523Y-82433333D01*
X125711904Y-82385714D01*
X125664285Y-82290476D01*
X125664285Y-82242857D01*
X125711904Y-82147619D01*
X125759523Y-82100000D01*
X125854761Y-82052380D01*
X126045238Y-82052380D01*
X126140476Y-82100000D01*
X126188095Y-82147619D01*
X126235714Y-82242857D01*
X126235714Y-82290476D01*
X126188095Y-82385714D01*
X126140476Y-82433333D01*
X126045238Y-82480952D01*
X125854761Y-82480952D01*
X125759523Y-82528571D01*
X125711904Y-82576190D01*
X125664285Y-82671428D01*
X125664285Y-82861904D01*
X125711904Y-82957142D01*
X125759523Y-83004761D01*
X125854761Y-83052380D01*
X126045238Y-83052380D01*
X126140476Y-83004761D01*
X126188095Y-82957142D01*
X126235714Y-82861904D01*
X126235714Y-82671428D01*
X126188095Y-82576190D01*
X126140476Y-82528571D01*
X126045238Y-82480952D01*
%TO.C,R9*%
X120333333Y-88352380D02*
X120000000Y-87876190D01*
X119761904Y-88352380D02*
X119761904Y-87352380D01*
X120142857Y-87352380D01*
X120238095Y-87400000D01*
X120285714Y-87447619D01*
X120333333Y-87542857D01*
X120333333Y-87685714D01*
X120285714Y-87780952D01*
X120238095Y-87828571D01*
X120142857Y-87876190D01*
X119761904Y-87876190D01*
X120809523Y-88352380D02*
X121000000Y-88352380D01*
X121095238Y-88304761D01*
X121142857Y-88257142D01*
X121238095Y-88114285D01*
X121285714Y-87923809D01*
X121285714Y-87542857D01*
X121238095Y-87447619D01*
X121190476Y-87400000D01*
X121095238Y-87352380D01*
X120904761Y-87352380D01*
X120809523Y-87400000D01*
X120761904Y-87447619D01*
X120714285Y-87542857D01*
X120714285Y-87780952D01*
X120761904Y-87876190D01*
X120809523Y-87923809D01*
X120904761Y-87971428D01*
X121095238Y-87971428D01*
X121190476Y-87923809D01*
X121238095Y-87876190D01*
X121285714Y-87780952D01*
%TO.C,R10*%
X119907142Y-85102380D02*
X119573809Y-84626190D01*
X119335714Y-85102380D02*
X119335714Y-84102380D01*
X119716666Y-84102380D01*
X119811904Y-84150000D01*
X119859523Y-84197619D01*
X119907142Y-84292857D01*
X119907142Y-84435714D01*
X119859523Y-84530952D01*
X119811904Y-84578571D01*
X119716666Y-84626190D01*
X119335714Y-84626190D01*
X120859523Y-85102380D02*
X120288095Y-85102380D01*
X120573809Y-85102380D02*
X120573809Y-84102380D01*
X120478571Y-84245238D01*
X120383333Y-84340476D01*
X120288095Y-84388095D01*
X121478571Y-84102380D02*
X121573809Y-84102380D01*
X121669047Y-84150000D01*
X121716666Y-84197619D01*
X121764285Y-84292857D01*
X121811904Y-84483333D01*
X121811904Y-84721428D01*
X121764285Y-84911904D01*
X121716666Y-85007142D01*
X121669047Y-85054761D01*
X121573809Y-85102380D01*
X121478571Y-85102380D01*
X121383333Y-85054761D01*
X121335714Y-85007142D01*
X121288095Y-84911904D01*
X121240476Y-84721428D01*
X121240476Y-84483333D01*
X121288095Y-84292857D01*
X121335714Y-84197619D01*
X121383333Y-84150000D01*
X121478571Y-84102380D01*
%TO.C,R11*%
X166857142Y-109902380D02*
X166523809Y-109426190D01*
X166285714Y-109902380D02*
X166285714Y-108902380D01*
X166666666Y-108902380D01*
X166761904Y-108950000D01*
X166809523Y-108997619D01*
X166857142Y-109092857D01*
X166857142Y-109235714D01*
X166809523Y-109330952D01*
X166761904Y-109378571D01*
X166666666Y-109426190D01*
X166285714Y-109426190D01*
X167809523Y-109902380D02*
X167238095Y-109902380D01*
X167523809Y-109902380D02*
X167523809Y-108902380D01*
X167428571Y-109045238D01*
X167333333Y-109140476D01*
X167238095Y-109188095D01*
X168761904Y-109902380D02*
X168190476Y-109902380D01*
X168476190Y-109902380D02*
X168476190Y-108902380D01*
X168380952Y-109045238D01*
X168285714Y-109140476D01*
X168190476Y-109188095D01*
%TO.C,R12*%
X159757142Y-109802380D02*
X159423809Y-109326190D01*
X159185714Y-109802380D02*
X159185714Y-108802380D01*
X159566666Y-108802380D01*
X159661904Y-108850000D01*
X159709523Y-108897619D01*
X159757142Y-108992857D01*
X159757142Y-109135714D01*
X159709523Y-109230952D01*
X159661904Y-109278571D01*
X159566666Y-109326190D01*
X159185714Y-109326190D01*
X160709523Y-109802380D02*
X160138095Y-109802380D01*
X160423809Y-109802380D02*
X160423809Y-108802380D01*
X160328571Y-108945238D01*
X160233333Y-109040476D01*
X160138095Y-109088095D01*
X161090476Y-108897619D02*
X161138095Y-108850000D01*
X161233333Y-108802380D01*
X161471428Y-108802380D01*
X161566666Y-108850000D01*
X161614285Y-108897619D01*
X161661904Y-108992857D01*
X161661904Y-109088095D01*
X161614285Y-109230952D01*
X161042857Y-109802380D01*
X161661904Y-109802380D01*
%TO.C,R13*%
X168952380Y-105192857D02*
X168476190Y-105526190D01*
X168952380Y-105764285D02*
X167952380Y-105764285D01*
X167952380Y-105383333D01*
X168000000Y-105288095D01*
X168047619Y-105240476D01*
X168142857Y-105192857D01*
X168285714Y-105192857D01*
X168380952Y-105240476D01*
X168428571Y-105288095D01*
X168476190Y-105383333D01*
X168476190Y-105764285D01*
X168952380Y-104240476D02*
X168952380Y-104811904D01*
X168952380Y-104526190D02*
X167952380Y-104526190D01*
X168095238Y-104621428D01*
X168190476Y-104716666D01*
X168238095Y-104811904D01*
X167952380Y-103907142D02*
X167952380Y-103288095D01*
X168333333Y-103621428D01*
X168333333Y-103478571D01*
X168380952Y-103383333D01*
X168428571Y-103335714D01*
X168523809Y-103288095D01*
X168761904Y-103288095D01*
X168857142Y-103335714D01*
X168904761Y-103383333D01*
X168952380Y-103478571D01*
X168952380Y-103764285D01*
X168904761Y-103859523D01*
X168857142Y-103907142D01*
%TO.C,R14*%
X121682380Y-115242857D02*
X121206190Y-115576190D01*
X121682380Y-115814285D02*
X120682380Y-115814285D01*
X120682380Y-115433333D01*
X120730000Y-115338095D01*
X120777619Y-115290476D01*
X120872857Y-115242857D01*
X121015714Y-115242857D01*
X121110952Y-115290476D01*
X121158571Y-115338095D01*
X121206190Y-115433333D01*
X121206190Y-115814285D01*
X121682380Y-114290476D02*
X121682380Y-114861904D01*
X121682380Y-114576190D02*
X120682380Y-114576190D01*
X120825238Y-114671428D01*
X120920476Y-114766666D01*
X120968095Y-114861904D01*
X121015714Y-113433333D02*
X121682380Y-113433333D01*
X120634761Y-113671428D02*
X121349047Y-113909523D01*
X121349047Y-113290476D01*
%TO.C,SW1*%
X112472885Y-116495580D02*
X112472885Y-117305104D01*
X112520504Y-117400342D01*
X112568123Y-117447961D01*
X112663361Y-117495580D01*
X112853838Y-117495580D01*
X112949076Y-117447961D01*
X112996695Y-117400342D01*
X113044314Y-117305104D01*
X113044314Y-116495580D01*
X113520504Y-117495580D02*
X113520504Y-116495580D01*
X113901457Y-116495580D01*
X113996695Y-116543200D01*
X114044314Y-116590819D01*
X114091933Y-116686057D01*
X114091933Y-116828914D01*
X114044314Y-116924152D01*
X113996695Y-116971771D01*
X113901457Y-117019390D01*
X113520504Y-117019390D01*
%TO.C,SW2*%
X125144447Y-117444780D02*
X125144447Y-116444780D01*
X125382542Y-116444780D01*
X125525400Y-116492400D01*
X125620638Y-116587638D01*
X125668257Y-116682876D01*
X125715876Y-116873352D01*
X125715876Y-117016209D01*
X125668257Y-117206685D01*
X125620638Y-117301923D01*
X125525400Y-117397161D01*
X125382542Y-117444780D01*
X125144447Y-117444780D01*
X126334923Y-116444780D02*
X126525400Y-116444780D01*
X126620638Y-116492400D01*
X126715876Y-116587638D01*
X126763495Y-116778114D01*
X126763495Y-117111447D01*
X126715876Y-117301923D01*
X126620638Y-117397161D01*
X126525400Y-117444780D01*
X126334923Y-117444780D01*
X126239685Y-117397161D01*
X126144447Y-117301923D01*
X126096828Y-117111447D01*
X126096828Y-116778114D01*
X126144447Y-116587638D01*
X126239685Y-116492400D01*
X126334923Y-116444780D01*
X127096828Y-116444780D02*
X127334923Y-117444780D01*
X127525400Y-116730495D01*
X127715876Y-117444780D01*
X127953971Y-116444780D01*
X128334923Y-117444780D02*
X128334923Y-116444780D01*
X128906352Y-117444780D01*
X128906352Y-116444780D01*
%TO.C,SW3*%
X135838180Y-116946371D02*
X135981038Y-116993990D01*
X136028657Y-117041609D01*
X136076276Y-117136847D01*
X136076276Y-117279704D01*
X136028657Y-117374942D01*
X135981038Y-117422561D01*
X135885800Y-117470180D01*
X135504847Y-117470180D01*
X135504847Y-116470180D01*
X135838180Y-116470180D01*
X135933419Y-116517800D01*
X135981038Y-116565419D01*
X136028657Y-116660657D01*
X136028657Y-116755895D01*
X135981038Y-116851133D01*
X135933419Y-116898752D01*
X135838180Y-116946371D01*
X135504847Y-116946371D01*
X136695323Y-116470180D02*
X136885800Y-116470180D01*
X136981038Y-116517800D01*
X137076276Y-116613038D01*
X137123895Y-116803514D01*
X137123895Y-117136847D01*
X137076276Y-117327323D01*
X136981038Y-117422561D01*
X136885800Y-117470180D01*
X136695323Y-117470180D01*
X136600085Y-117422561D01*
X136504847Y-117327323D01*
X136457228Y-117136847D01*
X136457228Y-116803514D01*
X136504847Y-116613038D01*
X136600085Y-116517800D01*
X136695323Y-116470180D01*
X137742942Y-116470180D02*
X137933419Y-116470180D01*
X138028657Y-116517800D01*
X138123895Y-116613038D01*
X138171514Y-116803514D01*
X138171514Y-117136847D01*
X138123895Y-117327323D01*
X138028657Y-117422561D01*
X137933419Y-117470180D01*
X137742942Y-117470180D01*
X137647704Y-117422561D01*
X137552466Y-117327323D01*
X137504847Y-117136847D01*
X137504847Y-116803514D01*
X137552466Y-116613038D01*
X137647704Y-116517800D01*
X137742942Y-116470180D01*
X138457228Y-116470180D02*
X139028657Y-116470180D01*
X138742942Y-117470180D02*
X138742942Y-116470180D01*
X140076276Y-116422561D02*
X139219133Y-117708276D01*
X140361990Y-117422561D02*
X140504847Y-117470180D01*
X140742942Y-117470180D01*
X140838180Y-117422561D01*
X140885800Y-117374942D01*
X140933419Y-117279704D01*
X140933419Y-117184466D01*
X140885800Y-117089228D01*
X140838180Y-117041609D01*
X140742942Y-116993990D01*
X140552466Y-116946371D01*
X140457228Y-116898752D01*
X140409609Y-116851133D01*
X140361990Y-116755895D01*
X140361990Y-116660657D01*
X140409609Y-116565419D01*
X140457228Y-116517800D01*
X140552466Y-116470180D01*
X140790561Y-116470180D01*
X140933419Y-116517800D01*
X141361990Y-116946371D02*
X141695323Y-116946371D01*
X141838180Y-117470180D02*
X141361990Y-117470180D01*
X141361990Y-116470180D01*
X141838180Y-116470180D01*
X142742942Y-117470180D02*
X142266752Y-117470180D01*
X142266752Y-116470180D01*
X143076276Y-116946371D02*
X143409609Y-116946371D01*
X143552466Y-117470180D02*
X143076276Y-117470180D01*
X143076276Y-116470180D01*
X143552466Y-116470180D01*
X144552466Y-117374942D02*
X144504847Y-117422561D01*
X144361990Y-117470180D01*
X144266752Y-117470180D01*
X144123895Y-117422561D01*
X144028657Y-117327323D01*
X143981038Y-117232085D01*
X143933419Y-117041609D01*
X143933419Y-116898752D01*
X143981038Y-116708276D01*
X144028657Y-116613038D01*
X144123895Y-116517800D01*
X144266752Y-116470180D01*
X144361990Y-116470180D01*
X144504847Y-116517800D01*
X144552466Y-116565419D01*
X144838180Y-116470180D02*
X145409609Y-116470180D01*
X145123895Y-117470180D02*
X145123895Y-116470180D01*
%TO.C,SW4*%
X150668219Y-117470180D02*
X150334885Y-116993990D01*
X150096790Y-117470180D02*
X150096790Y-116470180D01*
X150477742Y-116470180D01*
X150572980Y-116517800D01*
X150620600Y-116565419D01*
X150668219Y-116660657D01*
X150668219Y-116803514D01*
X150620600Y-116898752D01*
X150572980Y-116946371D01*
X150477742Y-116993990D01*
X150096790Y-116993990D01*
X151096790Y-116946371D02*
X151430123Y-116946371D01*
X151572980Y-117470180D02*
X151096790Y-117470180D01*
X151096790Y-116470180D01*
X151572980Y-116470180D01*
X151953933Y-117422561D02*
X152096790Y-117470180D01*
X152334885Y-117470180D01*
X152430123Y-117422561D01*
X152477742Y-117374942D01*
X152525361Y-117279704D01*
X152525361Y-117184466D01*
X152477742Y-117089228D01*
X152430123Y-117041609D01*
X152334885Y-116993990D01*
X152144409Y-116946371D01*
X152049171Y-116898752D01*
X152001552Y-116851133D01*
X151953933Y-116755895D01*
X151953933Y-116660657D01*
X152001552Y-116565419D01*
X152049171Y-116517800D01*
X152144409Y-116470180D01*
X152382504Y-116470180D01*
X152525361Y-116517800D01*
X152953933Y-116946371D02*
X153287266Y-116946371D01*
X153430123Y-117470180D02*
X152953933Y-117470180D01*
X152953933Y-116470180D01*
X153430123Y-116470180D01*
X153715838Y-116470180D02*
X154287266Y-116470180D01*
X154001552Y-117470180D02*
X154001552Y-116470180D01*
%TO.C,U1*%
X92792380Y-105091904D02*
X93601904Y-105091904D01*
X93697142Y-105044285D01*
X93744761Y-104996666D01*
X93792380Y-104901428D01*
X93792380Y-104710952D01*
X93744761Y-104615714D01*
X93697142Y-104568095D01*
X93601904Y-104520476D01*
X92792380Y-104520476D01*
X93792380Y-103520476D02*
X93792380Y-104091904D01*
X93792380Y-103806190D02*
X92792380Y-103806190D01*
X92935238Y-103901428D01*
X93030476Y-103996666D01*
X93078095Y-104091904D01*
%TO.C,U2*%
X92263980Y-112191704D02*
X93073504Y-112191704D01*
X93168742Y-112144085D01*
X93216361Y-112096466D01*
X93263980Y-112001228D01*
X93263980Y-111810752D01*
X93216361Y-111715514D01*
X93168742Y-111667895D01*
X93073504Y-111620276D01*
X92263980Y-111620276D01*
X92359219Y-111191704D02*
X92311600Y-111144085D01*
X92263980Y-111048847D01*
X92263980Y-110810752D01*
X92311600Y-110715514D01*
X92359219Y-110667895D01*
X92454457Y-110620276D01*
X92549695Y-110620276D01*
X92692552Y-110667895D01*
X93263980Y-111239323D01*
X93263980Y-110620276D01*
%TO.C,U3*%
X128588095Y-87552380D02*
X128588095Y-88361904D01*
X128635714Y-88457142D01*
X128683333Y-88504761D01*
X128778571Y-88552380D01*
X128969047Y-88552380D01*
X129064285Y-88504761D01*
X129111904Y-88457142D01*
X129159523Y-88361904D01*
X129159523Y-87552380D01*
X129540476Y-87552380D02*
X130159523Y-87552380D01*
X129826190Y-87933333D01*
X129969047Y-87933333D01*
X130064285Y-87980952D01*
X130111904Y-88028571D01*
X130159523Y-88123809D01*
X130159523Y-88361904D01*
X130111904Y-88457142D01*
X130064285Y-88504761D01*
X129969047Y-88552380D01*
X129683333Y-88552380D01*
X129588095Y-88504761D01*
X129540476Y-88457142D01*
%TO.C,J1*%
X114347666Y-90790780D02*
X114347666Y-91505066D01*
X114300047Y-91647923D01*
X114204809Y-91743161D01*
X114061952Y-91790780D01*
X113966714Y-91790780D01*
X115347666Y-91790780D02*
X114776238Y-91790780D01*
X115061952Y-91790780D02*
X115061952Y-90790780D01*
X114966714Y-90933638D01*
X114871476Y-91028876D01*
X114776238Y-91076495D01*
%TO.C,SW5*%
X171216580Y-96389152D02*
X170216580Y-96389152D01*
X170216580Y-96008200D01*
X170264200Y-95912961D01*
X170311819Y-95865342D01*
X170407057Y-95817723D01*
X170549914Y-95817723D01*
X170645152Y-95865342D01*
X170692771Y-95912961D01*
X170740390Y-96008200D01*
X170740390Y-96389152D01*
X170216580Y-95198676D02*
X170216580Y-95008200D01*
X170264200Y-94912961D01*
X170359438Y-94817723D01*
X170549914Y-94770104D01*
X170883247Y-94770104D01*
X171073723Y-94817723D01*
X171168961Y-94912961D01*
X171216580Y-95008200D01*
X171216580Y-95198676D01*
X171168961Y-95293914D01*
X171073723Y-95389152D01*
X170883247Y-95436771D01*
X170549914Y-95436771D01*
X170359438Y-95389152D01*
X170264200Y-95293914D01*
X170216580Y-95198676D01*
X170216580Y-94436771D02*
X171216580Y-94198676D01*
X170502295Y-94008200D01*
X171216580Y-93817723D01*
X170216580Y-93579628D01*
X170692771Y-93198676D02*
X170692771Y-92865342D01*
X171216580Y-92722485D02*
X171216580Y-93198676D01*
X170216580Y-93198676D01*
X170216580Y-92722485D01*
X171216580Y-91722485D02*
X170740390Y-92055819D01*
X171216580Y-92293914D02*
X170216580Y-92293914D01*
X170216580Y-91912961D01*
X170264200Y-91817723D01*
X170311819Y-91770104D01*
X170407057Y-91722485D01*
X170549914Y-91722485D01*
X170645152Y-91770104D01*
X170692771Y-91817723D01*
X170740390Y-91912961D01*
X170740390Y-92293914D01*
X171168961Y-90579628D02*
X171216580Y-90436771D01*
X171216580Y-90198676D01*
X171168961Y-90103438D01*
X171121342Y-90055819D01*
X171026104Y-90008200D01*
X170930866Y-90008200D01*
X170835628Y-90055819D01*
X170788009Y-90103438D01*
X170740390Y-90198676D01*
X170692771Y-90389152D01*
X170645152Y-90484390D01*
X170597533Y-90532009D01*
X170502295Y-90579628D01*
X170407057Y-90579628D01*
X170311819Y-90532009D01*
X170264200Y-90484390D01*
X170216580Y-90389152D01*
X170216580Y-90151057D01*
X170264200Y-90008200D01*
X170216580Y-89674866D02*
X171216580Y-89436771D01*
X170502295Y-89246295D01*
X171216580Y-89055819D01*
X170216580Y-88817723D01*
X171216580Y-88436771D02*
X170216580Y-88436771D01*
X170216580Y-88103438D02*
X170216580Y-87532009D01*
X171216580Y-87817723D02*
X170216580Y-87817723D01*
X171121342Y-86627247D02*
X171168961Y-86674866D01*
X171216580Y-86817723D01*
X171216580Y-86912961D01*
X171168961Y-87055819D01*
X171073723Y-87151057D01*
X170978485Y-87198676D01*
X170788009Y-87246295D01*
X170645152Y-87246295D01*
X170454676Y-87198676D01*
X170359438Y-87151057D01*
X170264200Y-87055819D01*
X170216580Y-86912961D01*
X170216580Y-86817723D01*
X170264200Y-86674866D01*
X170311819Y-86627247D01*
X171216580Y-86198676D02*
X170216580Y-86198676D01*
X170692771Y-86198676D02*
X170692771Y-85627247D01*
X171216580Y-85627247D02*
X170216580Y-85627247D01*
%TD*%
M02*
